<?xml version="1.0" encoding="utf-8"?>
<!-- Generator: Adobe Illustrator 23.0.1, SVG Export Plug-In . SVG Version: 6.00 Build 0)  -->
<svg version="1.1" id="レイヤー_1" xmlns="http://www.w3.org/2000/svg" xmlns:xlink="http://www.w3.org/1999/xlink" x="0px"
	 y="0px" viewBox="0 0 100 105" style="enable-background:new 0 0 100 105;" xml:space="preserve">
<style type="text/css">
	.st0{fill:#FFFFFF;}
	.st1{fill:none;stroke:#FFFFFF;stroke-width:0.35;}
</style>
<g>
	<g>
		<path class="st0" d="M21.2,22.3l-0.7,1.3l-4.3-3.3v3.5h-1.5v-3.4l-4.3,3.3l-0.7-1.3l5-3.8v-0.3h-3.9V12h3.9v-0.7H9.9V9.9h4.8V9
			h1.5v0.9H21v1.4h-4.8V12h3.9v6.1h-3.9v0.3L21.2,22.3z M14.7,13.3h-2.4v1.1h2.4V13.3z M12.3,16.8h2.4v-1.1h-2.4V16.8z M18.6,13.3
			h-2.4v1.1h2.4V13.3z M16.2,16.8h2.4v-1.1h-2.4V16.8z"/>
		<path class="st0" d="M30.1,9.9h4.8v1.4H23.8V9.9h4.8v-1h1.5V9.9z M24.1,22.2l2.6-3.5h1.9l-3.6,5L24.1,22.2z M33.6,17.6h-3.5v6.2
			h-1.5v-6.2h-3.5v-5.3h8.6V17.6z M26.6,13.6v2.6h5.5v-2.6H26.6z M30.2,18.7h1.9l2.6,3.6l-0.8,1.5L30.2,18.7z"/>
		<path class="st0" d="M42.2,9.7h1.6l-2.1,3.9h1.9V15h-2.7l-0.4,0.8h2.9v7.9h-4.3v-5.3l-1,1.9l-0.8-1.5l2.1-3.9h-2v-1.4h2V12h-1.5
			v-1.3h1.5V9h1.4v1.7h1L42.2,9.7z M41.9,18.7v-1.5h-1.5v1.5H41.9z M40.5,22.4h1.5V20h-1.5V22.4z M40.9,12h-0.2v0.4L40.9,12z
			 M49.6,9.3l-2.3,4.4l1.4,2.7v5.6h-2.5l-0.7-1.3h1.7v-4.1l-1.6-2.9l1.6-2.9h-2v13.1h-1.5V9.3H49.6z"/>
		<path class="st0" d="M54.9,13.1V9h1.5v14.8h-1.5v-1.7L52,23.7l-0.7-1.3l3.6-2v-5.9h-3.5v-1.5H54.9z M59,15.1v7.2h3.5v1.4h-5V9H59
			v4.4l2.9-1.3l0.7,1.3L59,15.1z"/>
		<path class="st0" d="M76.4,9.3v1.5H67v11.5h9.4v1.5h-11V9.3H76.4z M74.3,11.2h1.8l-3.7,5.1l3.5,5l-1.3,0.7l-3-4.4l-3.2,4.4
			l-0.8-1.5l3.1-4.3l-3.1-4.5h1.8l2.2,3.2L74.3,11.2z"/>
		<path class="st0" d="M85,10.8l3.6,1.6v11.1h-2.9L85,22.1h2.1v-8.8l-2.3-1h-3.4v8.8l3.5-8.2l1.3,0.7l-4.2,9.8h-2.2V10.8H85z"/>
		<path class="st0" d="M25.2,41.4l-0.7,1.4l-4.2-4.1V43h-1.5v-4.3l-4.2,4.1l-0.7-1.4l4.9-4.8v-1.1H14V34h4.8v-2.2h-3.9v-1.5h3.9
			v-2.1h1.5v2.1h3.9v1.5h-3.9V34h4.8v1.5h-4.8v1.1L25.2,41.4z"/>
		<path class="st0" d="M39.2,36.4h-4.9v0.4l4.8,5l-0.7,1.4l-4.1-4.2v4.2h-1.5v-4.3l-4.2,4.4l-0.7-1.4l4.9-5.1v-0.3h-5V35h5v-3.9
			h-4.3v-1.4h4.3v-1.3h1.5v1.3h4.1v1.4h-4.1V35h4.9V36.4z M30.2,31.5l2.5,2.6l-1.3,0.7l-3.2-3.3H30.2z M34.4,34l2.4-2.6h2l-3.1,3.2
			L34.4,34z"/>
		<path class="st0" d="M47.7,30.1l3.6,1.6v11.1h-2.9l-0.7-1.4h2.1v-8.8l-2.3-1H44v8.8l3.5-8.2l1.3,0.7l-4.2,9.8h-2.2V30.1H47.7z"/>
		<path class="st0" d="M63,31.5h-4.1l-2.7,6.3l-1.3-0.7l2.4-5.6h-2.1V30h2.7l0.7-1.7l1.3,0.7l-0.4,1H63V31.5z M59,41.2h5.6l-0.8,1.5
			h-6.3v-3.3H59V41.2z M59.1,33v1.5h3.2l-0.8,1.8l1.2,0.7l0,0l1.7-3.9H59.1z"/>
		<path class="st0" d="M75.8,32.4l1.5,0.3v9.9h-2.9l-0.7-1.4h2.1v-7.4l-0.6-0.1l-3.8,8.9h-3V32.6l2.1-0.9v-3.1h1.5v2.8l2.4,0.6
			l1.4-3.3l1.3,0.7L75.8,32.4z M70.4,41.4l1-2.4h-0.9v-5.7l-0.6,0.3v7.8H70.4z M71.9,37.7l1.9-4.3L71.9,33V37.7z"/>
		<path class="st0" d="M82.7,42.7h-1.5V29h1.5V42.7z M84,29.7h6.3l-2.1,5L86.8,34l1.2-2.7h-4V29.7z M90.1,40.9l-0.9,1.6H84v-1.6
			H90.1z"/>
	</g>
	<g>
		<g>
			<path class="st0" d="M36.7,88.9l1.2,2.2l-8.9,3.5l-1.2-2.2l1.4-0.5v-16h2.2V91l0.9-0.3v-17h-4v-2.4h9.9v2.4h-3.5v4.1h2.6V80h-2.6
				v9.7L36.7,88.9z M47.9,77.4h-1.2l-2.9,6.6l4,9.2l-1.5,2.9l-3.9-9L38.5,96L37,93.3l3.7-8.4l-1.4-3.3l-1.3,3l-1.4-2.7L41.7,70h2.6
				l-2.1,4.9h5.7V77.4z M42,82.2l2.1-4.8h-3.1l-0.6,1.3L42,82.2z"/>
			<path class="st0" d="M56.8,74l-2.3,1.6l-1.1-2l5.1-3.5h4l-2.6,1.8h3.6v2.1h-3.2l1.4,1l-1,1.8L56.8,74z M64.8,75.3v2.2h8.4v2.2
				h-8.4V81H71v7.9h-2.6v-5.6h-3.6v4.1l8.4,5.7L72,95.5l-7.2-4.9v5.2h-2.6v-5.2l-7.4,5.1l-1.2-2.2l8.5-5.9v-4.3h-3.6v5.6H56V81h6.2
				v-1.3h-8.4v-2.2h8.4v-2.2H64.8z M69.9,71.8h3.6v2.1h-3.7l2,1.3l-1,1.9l-4.3-2.9l-1.7,1.1l-1.1-2l4.8-3.3h4L69.9,71.8z"/>
		</g>
		<g>
			<path class="st1" d="M36.7,88.9l1.2,2.2l-8.9,3.5l-1.2-2.2l1.4-0.5v-16h2.2V91l0.9-0.3v-17h-4v-2.4h9.9v2.4h-3.5v4.1h2.6V80h-2.6
				v9.7L36.7,88.9z M47.9,77.4h-1.2l-2.9,6.6l4,9.2l-1.5,2.9l-3.9-9L38.5,96L37,93.3l3.7-8.4l-1.4-3.3l-1.3,3l-1.4-2.7L41.7,70h2.6
				l-2.1,4.9h5.7V77.4z M42,82.2l2.1-4.8h-3.1l-0.6,1.3L42,82.2z"/>
			<path class="st1" d="M56.8,74l-2.3,1.6l-1.1-2l5.1-3.5h4l-2.6,1.8h3.6v2.1h-3.2l1.4,1l-1,1.8L56.8,74z M64.8,75.3v2.2h8.4v2.2
				h-8.4V81H71v7.9h-2.6v-5.6h-3.6v4.1l8.4,5.7L72,95.5l-7.2-4.9v5.2h-2.6v-5.2l-7.4,5.1l-1.2-2.2l8.5-5.9v-4.3h-3.6v5.6H56V81h6.2
				v-1.3h-8.4v-2.2h8.4v-2.2H64.8z M69.9,71.8h3.6v2.1h-3.7l2,1.3l-1,1.9l-4.3-2.9l-1.7,1.1l-1.1-2l4.8-3.3h4L69.9,71.8z"/>
		</g>
	</g>
	<g>
		<g>
			<path class="st0" d="M26,63.1h4v1.3h-9.4v-1.3h4v-5.9h-3.3v-1.3h3.3V52H26v3.9h3.3v1.3H26V63.1z"/>
			<path class="st0" d="M39.2,63.2h3.6v1.2h-8.4v-1.2H38v-1.4h-2.4v-1.2H38v-1h-2.7v-1.1h1.1l1.2-1.4h-2.7v5.7l-1.2,1.5L33,62.9
				l0.6-0.7V52h8.8v3.1h-7.5v0.7h7.8v1.1h-3.5L38,58.3h2.2l-0.8-1h1.5l1.6,1.9l-0.6,1.1l-0.7-0.9h-1.9v1h2.4v1.2h-2.4V63.2z
				 M34.9,53.1V54h6.3v-0.8H34.9z"/>
			<path class="st0" d="M48.8,53.1V55h1.5v1.2h-1.5v1.6l1.5,1.9l-0.6,1.2l-0.8-1.1v4.6h-1.3v-3.6l-1.2,2.3l-0.7-1.3l1.9-3.5v-2h-1.7
				V55h1.7v-1.6l-1.2,0.2l-0.6-1.1l3.8-0.7l0.6,1.1L48.8,53.1z M50.5,52.9h4.7v10.9h-4.7V52.9z M53.9,62.6v-8.5h-2.1v8.5H53.9z"/>
			<path class="st0" d="M61.3,58.1l-0.5,1l-0.4-0.5v5.8h-1.2v-4.3l-0.5,1.1L58,59.8l1.2-2.5v-2.3h-1.1v-1.1h1.1v-2.1h1.2v2.1h0.8
				v1.1h-0.8v1.8L61.3,58.1z M64,62.1l1.4-0.5l0.5,1l-4.5,1.6l-0.5-1l1.5-0.5l1.6-3.2h1.3L64,62.1z M62.8,54.8V54h-1.5v-1.1h1.5v-1
				H64v1h1.5V54H64v0.8h1.3v1h-3.8v-1H62.8z M65.2,56.5h0.8l0.8,1.7l-0.6,1.1l-1-2.1V59h-3.7v-2.9h3.7V56.5z M62.9,59.4l0.5,1
				l-0.7,1.2l-1.1-2.2H62.9z M64.2,58.2V57h-1.7v1.2H64.2z M68.6,53.9v1h-0.5v9.5h-1.2v-9.5h-1.3v-1h1.3v-2h1.2v2H68.6z"/>
			<path class="st0" d="M76.3,53.4l3,1.3v9.4h-2.4L76.3,63h1.8v-7.4l-2-0.9h-2.9v7.5l3-7l1.1,0.6l-3.6,8.3h-1.8V53.4H76.3z"/>
		</g>
		<g>
			<path class="st1" d="M26,63.1h4v1.3h-9.4v-1.3h4v-5.9h-3.3v-1.3h3.3V52H26v3.9h3.3v1.3H26V63.1z"/>
			<path class="st1" d="M39.2,63.2h3.6v1.2h-8.4v-1.2H38v-1.4h-2.4v-1.2H38v-1h-2.7v-1.1h1.1l1.2-1.4h-2.7v5.7l-1.2,1.5L33,62.9
				l0.6-0.7V52h8.8v3.1h-7.5v0.7h7.8v1.1h-3.5L38,58.3h2.2l-0.8-1h1.5l1.6,1.9l-0.6,1.1l-0.7-0.9h-1.9v1h2.4v1.2h-2.4V63.2z
				 M34.9,53.1V54h6.3v-0.8H34.9z"/>
			<path class="st1" d="M48.8,53.1V55h1.5v1.2h-1.5v1.6l1.5,1.9l-0.6,1.2l-0.8-1.1v4.6h-1.3v-3.6l-1.2,2.3l-0.7-1.3l1.9-3.5v-2h-1.7
				V55h1.7v-1.6l-1.2,0.2l-0.6-1.1l3.8-0.7l0.6,1.1L48.8,53.1z M50.5,52.9h4.7v10.9h-4.7V52.9z M53.9,62.6v-8.5h-2.1v8.5H53.9z"/>
			<path class="st1" d="M61.3,58.1l-0.5,1l-0.4-0.5v5.8h-1.2v-4.3l-0.5,1.1L58,59.8l1.2-2.5v-2.3h-1.1v-1.1h1.1v-2.1h1.2v2.1h0.8
				v1.1h-0.8v1.8L61.3,58.1z M64,62.1l1.4-0.5l0.5,1l-4.5,1.6l-0.5-1l1.5-0.5l1.6-3.2h1.3L64,62.1z M62.8,54.8V54h-1.5v-1.1h1.5v-1
				H64v1h1.5V54H64v0.8h1.3v1h-3.8v-1H62.8z M65.2,56.5h0.8l0.8,1.7l-0.6,1.1l-1-2.1V59h-3.7v-2.9h3.7V56.5z M62.9,59.4l0.5,1
				l-0.7,1.2l-1.1-2.2H62.9z M64.2,58.2V57h-1.7v1.2H64.2z M68.6,53.9v1h-0.5v9.5h-1.2v-9.5h-1.3v-1h1.3v-2h1.2v2H68.6z"/>
			<path class="st1" d="M76.3,53.4l3,1.3v9.4h-2.4L76.3,63h1.8v-7.4l-2-0.9h-2.9v7.5l3-7l1.1,0.6l-3.6,8.3h-1.8V53.4H76.3z"/>
		</g>
	</g>
</g>
</svg>
