<svg xmlns="http://www.w3.org/2000/svg" viewBox="0 0 233.58 105.26"><defs><style>.cls-1{fill:#fff;}.cls-2{fill:#f98b06;}</style></defs><title>アセット 8</title><g id="レイヤー_2" data-name="レイヤー 2"><g id="sp"><path class="cls-1" d="M2.55,2.29H6.48v38.3H2.55ZM27.9,38.09l-3.27,1.74-1.42-3.32v4.08H6.68L15.1,20.86h4.08v-10H9.29v-4h9.89V1h4V6.83h4v4h-4V27.13Zm-8.72-1.58V24.94H17.7L12.75,36.51Z"/><path class="cls-1" d="M59,21.62l4.29-2.24V40.59h-22V8.31L39,3,42.7,1,45.6,7.7V36.51H59ZM53.46,2.55,56.57.87,60,9l-3.11,1.69ZM61.36,0l3.37,7.8L61.62,9.43,58.25,1.68Z"/><path class="cls-1" d="M97.24,12l4.08,1V40.59h-8l-2-3.82h5.92V16.11l-1.58-.35L85,40.59H76.54V12.65l5.76-2.5V1.63h4.08V9.48L93.11,11l4-9.17,3.67,1.93ZM82,37l2.86-6.68H82.3V14.58l-1.69.72V37Zm4.39-10.3,5.15-11.88-5.15-1.17Z"/><path class="cls-1" d="M139,9.13h-7v4.13h5.92v4H132V23l5.92,13.92-2.25,4.23-3.77-8.87v8.11H113.48l7.75-18.21h6.63V17.24H116v-4h11.88V9.13H114.65v-4h13.21V1H132V5.15h7ZM128.52,36.46V26.16H124l-4.43,10.3Z"/><path class="cls-1" d="M171.24,21.62l4.28-2.24V40.59h-22V8.31L151.19,3l3.73-2,2.9,6.73V36.51h13.42Z"/><path class="cls-1" d="M193,36.51h20.71l-2.2,4.08H188.75V24.94L205.58,9.48H189.41V1h4V5.35h19.79V9.48H211.8L193,26.67Z"/><path class="cls-1" d="M229.3,33.1l4.28,7.9-4,2.09-4.28-7.85Z"/><path class="cls-2" d="M17.59,100.92H30.8v4.24H0v-4.24H13.21V81.75H2.35V77.57H13.21V64.72h4.38V77.57H28.46v4.18H17.59Z"/><path class="cls-2" d="M60.62,101.18H72.34v4H45v-4H56.54V96.49H48.73v-4h7.81V89.09H47.87V85.37h3.57l3.77-4.54H46.34V99.34l-4.08,5-2-3.93L42.16,98V64.72H70.92v10.2H46.34v2.19H71.78v3.72H60.41l-3.72,4.54h7.24l-2.75-3.31h5l5.21,6.32L69.44,92.1l-2.45-3H60.62v3.42h7.8v4h-7.8ZM46.34,68.44v2.7H66.79v-2.7Z"/><path class="cls-2" d="M91.62,68.44v6h5v4.08h-5v5.35L96.41,90l-2,3.83-2.75-3.52v15H87.44V93.58L83.36,101l-2.3-4.29,6.38-11.52V78.54H81.78V74.46h5.66V69.21l-3.88.66L81.63,66.3,94,64.16l1.93,3.57Zm5.56-.66h15.35v35.54H97.18Zm11,31.72V71.6h-6.73V99.5Z"/><path class="cls-2" d="M132.52,84.56l-1.73,3.36-1.17-1.58v18.92h-4V91.18L124,94.65l-2.3-4.33,4-8.16v-7.5h-3.57V71h3.57V64.26h4V71h2.6v3.62h-2.6v5.92Zm8.77,13.1,4.44-1.53,1.78,3.37-14.83,5.1-1.79-3.37,5.05-1.73L141.14,89h4.39Zm-3.87-23.81V71.09h-5V67.57h5V64.26h3.77v3.31h5.05v3.52h-5.05v2.76h4.34v3.26H133.08V73.85Zm7.85,5.45h2.65l2.71,5.46-2,3.72-3.37-6.83v6.07H133.08V78.28h12.19ZM137.52,89l1.63,3.27L137,96.34,133.39,89Zm4.39-4.08V81.14H136.5v3.77Zm14.48-14.07v3.41h-1.74v31h-4v-31h-4.29V70.84h4.29V64.26h4v6.58Z"/><path class="cls-1" d="M170.6,90.42v9.84h20.7l-2.19,4.08H166.32V88.69l16.82-15.46H167V64.72h4V69.1h19.78v4.13h-1.42Zm11.68-8.92,3.11-1.64L188.86,88l-3.12,1.63ZM194,86.75l-3.11,1.68-3.32-7.8L190.69,79Z"/><path class="cls-1" d="M228,69.82v4h-4.69v30.49H209.15l-2-3.82h12.13V95H205.48V90.42l13.77-12.14V73.85h-15.6v-4h15.6v-5.1h4.08v5.1ZM210.89,91.08h8.36V83.74Z"/></g></g></svg>