<svg xmlns="http://www.w3.org/2000/svg" viewBox="0 0 637.48 111.15"><defs><style>.cls-1{fill:#fff;}</style></defs><title>footer-member-index</title><g id="レイヤー_2" data-name="レイヤー 2"><g id="レイヤー_1-2" data-name="レイヤー 1"><path class="cls-1" d="M15.11,90.92H0V0H49.62V12.73H15.11Z"/><path class="cls-1" d="M68.66,16h23.8V2.38H107.1V16h50.34V28.56H107.1V39.27a108.21,108.21,0,0,1,12.73-.71q20.47,0,31.66,8.92t11.18,24.4a31.88,31.88,0,0,1-9.28,23q-9.28,9.59-25.23,12.68l-4-13.57q10.71-2.27,17.07-8.33t6.37-13.8q0-10.95-8.69-15.95-8.2,21.54-22.61,33.62T86.51,101.63q-10.47,0-16.78-6.25t-6.3-16.84A33.3,33.3,0,0,1,71,57q7.62-9.39,21.42-14.28V28.56H68.66Zm23.8,42Q78.54,65.33,78.54,77q0,5.36,2.5,8.21a8.81,8.81,0,0,0,7,2.86,19,19,0,0,0,4.4-.48Zm32.73-5.71c-2.22-.16-4-.24-5.36-.24a72.27,72.27,0,0,0-12.73,1.07V79.25Q118.53,69,125.19,52.24Z"/><path class="cls-1" d="M179.39,31.42V17.85h20.35q2.63-10.11,4.17-16.78L218.19,3q-1.44,6.91-3.57,14.88h19.87V31.42H211.05A549.3,549.3,0,0,1,190.46,91l-13.8-4.65q10.93-27,19.27-55Zm102.7,2.38a154.78,154.78,0,0,0-20.47-2V70a160.68,160.68,0,0,1,22.85,17.85l-9.4,10.47q-7.14-6.18-14.16-11.78-1.79,9.64-8.45,14.16t-18.68,4.53q-13.22,0-20.65-6.07t-7.44-16.54q0-10.25,7.32-16.25t20.77-6a39.86,39.86,0,0,1,12.73,2.26V17.85a260.57,260.57,0,0,1,37.36,2.38Zm-35.58,43q-7-3.56-12.73-3.56-6.56,0-9.82,2.49a8.19,8.19,0,0,0-3.27,6.91,8.56,8.56,0,0,0,3.45,7.25q3.45,2.63,9.64,2.62c4.83,0,8.17-1,10-3s2.74-5.75,2.74-11.31Z"/><path class="cls-1" d="M300.78,29.39V16h18.93q1.67-9.52,2.49-14.4l15.12,1.31Q335.9,11.67,335.06,16h41.53V29.39H332.44a611.84,611.84,0,0,1-20.23,75.93l-15-3.46A598.59,598.59,0,0,0,317,29.39Zm94.73,58,1.78,13.44a136.19,136.19,0,0,1-25.11,2.38q-16.41,0-26.24-6t-9.81-15.41q0-9.15,11.9-18.44l10.83,6.9a42.62,42.62,0,0,0-6.19,6,6.79,6.79,0,0,0-1.55,4q0,4.16,5.65,6.84t15.41,2.68A128.43,128.43,0,0,0,395.51,87.35Zm-.95-35.11A401.36,401.36,0,0,0,346.48,55l-1-13.33a421.9,421.9,0,0,1,49-2.74Z"/><path class="cls-1" d="M427.21,7.26l16.3-2.5q2.5,15.12,7.14,34.51,18-7.86,46.29-14.28l3,14.28q-33.43,7.5-50.28,16.78T432.8,74.61q0,15.48,27.73,15.47A258.76,258.76,0,0,0,499,86.87l1.66,14.28a260.1,260.1,0,0,1-40.1,3.21q-22,0-33.2-7.37T416.14,75.45q0-15.82,19.28-28.21Q430.67,27.5,427.21,7.26Z"/><path class="cls-1" d="M514.85,103.23A19.4,19.4,0,0,1,528.6,70.09,19.51,19.51,0,0,1,548,89.49a19.36,19.36,0,0,1-33.15,13.74Zm7.68-19.75a8.06,8.06,0,0,0-2.5,6,8.54,8.54,0,0,0,8.57,8.57,8.1,8.1,0,0,0,6-2.5,8.4,8.4,0,0,0,2.44-6.07A8.33,8.33,0,0,0,528.6,81,8.34,8.34,0,0,0,522.53,83.48Z"/><path class="cls-1" d="M622.37,20.23h15.11v90.92H587.86V98.41h34.51Z"/></g></g></svg>