<svg xmlns="http://www.w3.org/2000/svg" xmlns:xlink="http://www.w3.org/1999/xlink" viewBox="0 0 100 100"><defs><style>.cls-1{opacity:0.15;}.cls-2{fill:none;}.cls-3{fill:#d9eff4;}.cls-4{fill:url(#新規パターンスウォッチ_7);}</style><pattern id="新規パターンスウォッチ_7" data-name="新規パターンスウォッチ 7" width="100" height="100" patternTransform="translate(0 -504)" patternUnits="userSpaceOnUse" viewBox="0 0 100 100"><g class="cls-1"><rect class="cls-2" width="100" height="100"/><polygon class="cls-2" points="55.96 0 0 55.96 0 62.22 62.22 0 55.96 0"/><polygon class="cls-2" points="46.87 0 0 46.87 0 53.13 53.13 0 46.87 0"/><polygon class="cls-2" points="37.78 0 0 37.78 0 44.04 44.04 0 37.78 0"/><polygon class="cls-2" points="10.51 0 0 10.51 0 16.77 16.77 0 10.51 0"/><polygon class="cls-2" points="1.41 0 0 1.41 0 7.68 7.68 0 1.41 0"/><polygon class="cls-2" points="28.69 0 0 28.69 0 34.95 34.95 0 28.69 0"/><polygon class="cls-2" points="19.6 0 0 19.6 0 25.86 25.86 0 19.6 0"/><polygon class="cls-2" points="92.32 0 0 92.32 0 98.59 98.59 0 92.32 0"/><polygon class="cls-2" points="65.05 0 0 65.05 0 71.31 71.31 0 65.05 0"/><polygon class="cls-2" points="44.04 100 100 44.04 100 37.78 37.78 100 44.04 100"/><polygon class="cls-2" points="62.22 100 100 62.22 100 55.96 55.96 100 62.22 100"/><polygon class="cls-2" points="34.95 100 100 34.95 100 28.69 28.69 100 34.95 100"/><polygon class="cls-2" points="53.13 100 100 53.13 100 46.87 46.87 100 53.13 100"/><polygon class="cls-2" points="100 7.68 100 1.41 1.41 100 7.68 100 100 7.68"/><polygon class="cls-2" points="25.86 100 100 25.86 100 19.6 19.6 100 25.86 100"/><polygon class="cls-2" points="16.77 100 100 16.77 100 10.51 10.51 100 16.77 100"/><polygon class="cls-2" points="71.31 100 100 71.31 100 65.05 65.05 100 71.31 100"/><polygon class="cls-2" points="98.59 100 100 98.59 100 92.32 92.32 100 98.59 100"/><polygon class="cls-2" points="80.4 100 100 80.4 100 74.14 74.14 100 80.4 100"/><polygon class="cls-2" points="89.5 100 100 89.5 100 83.23 83.23 100 89.5 100"/><polygon class="cls-2" points="83.23 0 0 83.23 0 89.5 89.5 0 83.23 0"/><polygon class="cls-2" points="74.14 0 0 74.14 0 80.4 80.4 0 74.14 0"/><polygon class="cls-3" points="37.78 100 100 37.78 100 34.95 34.95 100 37.78 100"/><polygon class="cls-3" points="55.96 100 100 55.96 100 53.13 53.13 100 55.96 100"/><polygon class="cls-3" points="53.13 0 0 53.13 0 55.96 55.96 0 53.13 0"/><polygon class="cls-3" points="34.95 0 0 34.95 0 37.78 37.78 0 34.95 0"/><polygon class="cls-3" points="16.77 0 0 16.77 0 19.6 19.6 0 16.77 0"/><polygon class="cls-3" points="46.87 100 100 46.87 100 44.04 44.04 100 46.87 100"/><polygon class="cls-3" points="25.86 0 0 25.86 0 28.69 28.69 0 25.86 0"/><polygon class="cls-3" points="10.51 100 100 10.51 100 7.68 7.68 100 10.51 100"/><polygon class="cls-3" points="44.04 0 0 44.04 0 46.87 46.87 0 44.04 0"/><polygon class="cls-3" points="28.69 100 100 28.69 100 25.86 25.86 100 28.69 100"/><polygon class="cls-3" points="19.6 100 100 19.6 100 16.77 16.77 100 19.6 100"/><polygon class="cls-3" points="100 0 98.59 0 0 98.59 0 100 1.41 100 100 1.41 100 0"/><polygon class="cls-3" points="62.22 0 0 62.22 0 65.05 65.05 0 62.22 0"/><polygon class="cls-3" points="7.68 0 0 7.68 0 10.51 10.51 0 7.68 0"/><polygon class="cls-3" points="80.4 0 0 80.4 0 83.23 83.23 0 80.4 0"/><polygon class="cls-3" points="92.32 100 100 92.32 100 89.5 89.5 100 92.32 100"/><polygon class="cls-3" points="89.5 0 0 89.5 0 92.32 92.32 0 89.5 0"/><polygon class="cls-3" points="100 100 100 98.59 98.59 100 100 100"/><polygon class="cls-3" points="74.14 100 100 74.14 100 71.31 71.31 100 74.14 100"/><polygon class="cls-3" points="65.05 100 100 65.05 100 62.22 62.22 100 65.05 100"/><polygon class="cls-3" points="71.31 0 0 71.31 0 74.14 74.14 0 71.31 0"/><polygon class="cls-3" points="83.23 100 100 83.23 100 80.4 80.4 100 83.23 100"/><polygon class="cls-3" points="0 0 0 1.41 1.41 0 0 0"/></g></pattern></defs><title>common-bg-slash-light</title><g id="レイヤー_2" data-name="レイヤー 2"><g id="top"><g id="政策"><rect class="cls-4" width="100" height="100"/></g></g></g></svg>