<?xml version="1.0" encoding="utf-8"?>
<!-- Generator: Adobe Illustrator 23.0.1, SVG Export Plug-In . SVG Version: 6.00 Build 0)  -->
<svg version="1.1" id="レイヤー_1" xmlns="http://www.w3.org/2000/svg" xmlns:xlink="http://www.w3.org/1999/xlink" x="0px"
	 y="0px" viewBox="0 0 60 86" style="enable-background:new 0 0 60 86;" xml:space="preserve">
<style type="text/css">
	.st0{fill:#FFFFFF;}
	.st1{fill:none;stroke:#FFFFFF;stroke-width:0.15;}
	.st2{fill:none;}
</style>
<g>
	<g id="test">
		<path class="st0" d="M15.6,47.8h5.8v1.8H8v-1.8h5.8v-8.4H9v-1.8h4.7V32h1.9v5.6h4.7v1.8h-4.7V47.8z"/>
		<path class="st0" d="M33.2,47.9h5.1v1.7H26.4v-1.7h5v-2H28v-1.8h3.4v-1.5h-3.8V41h1.5l1.6-2H27v8.1l-1.8,2.2l-0.9-1.7l0.8-1V32
			h12.5v4.4H27v1h11.1v1.6h-5l-1.6,2h3.2l-1.2-1.5h2.2l2.3,2.8L37,44L36,42.7h-2.8v1.5h3.4v1.7h-3.4V47.9z M27,33.7v1.2h8.9v-1.2H27
			z"/>
		<path class="st0" d="M44.7,49.7h-1.5V36.4h1.5V49.7z M46,37.2h6.1L50,42l-1.3-0.7l1.1-2.7H46V37.2z M52,47.9l-0.8,1.6H46v-1.6
			L52,47.9z"/>
		<path class="st0" d="M13.1,24l-0.9-0.5l1.4-3.2h-1.1v-0.9H14l0.4-0.9l0.9,0.5l-0.2,0.4h1.1v0.9h-1.5L13.1,24z M16.8,23.5l1.8,4.1
			L17.8,28l-1-2.2v2.3h-4.3l2.1-5h1.3v-1.7h0.9L16.8,23.5z M16,27.2V24h-0.7l-1.3,3.1L16,27.2z M18.8,22L18,22.5l-1-2.4l0.9-0.5
			L18.8,22z"/>
		<path class="st0" d="M26.8,27h2l-0.6,1h-2.1l-1.9-4.5h-0.9v4.5h-1.1v-9.4h1v3.9h1.7L26.8,27z"/>
		<path class="st0" d="M33,24.8v2.4h5l-0.5,1h-5.5v-3.8l4-3.7h-3.8v-2h1v1h4.7v1h-0.3L33,24.8z M35.8,22.6l0.7-0.4l0.8,2l-0.8,0.4
			L35.8,22.6z M38.6,23.9l-0.8,0.4L37,22.4l0.8-0.4L38.6,23.9z"/>
		<path class="st0" d="M46.4,24l1-0.5v4.6h-4.9v-5.5h-1v-0.9h1v-1.1h-1v-1h1v-1h1v1h2.7v1h-2.7v1.1H46v0.9h-2.5v4.5h2.8L46.4,24z"/>
		<path class="st0" d="M14.5,53v6.9H9.9v10.8H8.1V53H14.5z M12.9,54.5h-3v1.2h3V54.5z M9.9,58.3h3v-1.2h-3V58.3z M11,62.1v-1.5h7.8
			v1.5h-1.1v8.2h-1.6v-1.3l-5.1,1l-0.7-1.3l1.8-0.4v-6.3L11,62.1z M16.2,63.1v-1h-2.5v1H16.2z M16.2,65.4v-0.8h-2.5v0.8L16.2,65.4z
			 M13.7,68l2.5-0.5v-0.8h-2.5V68z M15.4,53h6.4v17.7H20V59.9h-4.5V53z M20,54.5h-3v1.2h3V54.5z M17,58.3h3v-1.2h-3V58.3z"/>
		<path class="st0" d="M27.8,68.1l2-1.8l1.6,0.8l-3.6,3.2h-1.9v-16h1.9V68.1z M34.5,55.1l1.8,4.3v10.8h-1.8V59.7l0,0L32.8,56
			L34.5,55.1z"/>
		<path class="st0" d="M42.9,68.5h9l-1,1.8H41v-6.8l7.3-6.7h-7V53h1.8v1.9h8.6v1.8h-0.6l-8.2,7.5L42.9,68.5z"/>
		<path class="st0" d="M18.3,84.7l-1.1,0.6L12,79.2l4.5-5.3l1.1,0.6l-4,4.7L18.3,84.7z"/>
		<path class="st0" d="M26.5,76.4h-3.2l-2.1,4.9l-1-0.6l1.9-4.4h-1.7v-1.2h2.1L23,74l1,0.6l-0.3,0.8h2.7L26.5,76.4z M23.3,82.6V84
			h4.4l-0.6,1.2h-4.9v-2.6H23.3z M23.4,77.6v1.2H26l-0.6,1.4l1,0.5l0,0l1.3-3.1L23.4,77.6z M26.3,74l0.9-0.5l1,2.3l-0.9,0.5L26.3,74
			z M28.7,73.3l0.9,2.2L28.8,76l-0.9-2.2L28.7,73.3z"/>
		<path class="st0" d="M38.1,75.5v1.2h-2.3l1.9,4.4l-1.1,0.6l-2.2-5h-3.3v-1.2h2.8l-0.4-1l1.1-0.5l0.7,1.6L38.1,75.5z M32.6,79.9
			v4.2h4.3l-0.6,1.2h-4.9v-5.3H32.6z"/>
		<path class="st0" d="M41.8,83.8l1.3-1.2l1,0.6l-2.3,2h-1.2V74.8h1.2V83.8z M46.2,75.4l1.2,2.8v7h-1.1v-6.8l0,0l-1-2.4L46.2,75.4z"
			/>
		<path class="st1" d="M18.3,84.7l-1.1,0.6L12,79.2l4.5-5.3l1.1,0.6l-4,4.7L18.3,84.7z"/>
		<path class="st1" d="M26.5,76.4h-3.2l-2.1,4.9l-1-0.6l1.9-4.4h-1.7v-1.2h2.1L23,74l1,0.6l-0.3,0.8h2.7L26.5,76.4z M23.3,82.6V84
			h4.4l-0.6,1.2h-4.9v-2.6H23.3z M23.4,77.6v1.2H26l-0.6,1.4l1,0.5l0,0l1.3-3.1L23.4,77.6z M26.3,74l0.9-0.5l1,2.3l-0.9,0.5L26.3,74
			z M28.7,73.3l0.9,2.2L28.8,76l-0.9-2.2L28.7,73.3z"/>
		<path class="st1" d="M38.1,75.5v1.2h-2.3l1.9,4.4l-1.1,0.6l-2.2-5h-3.3v-1.2h2.8l-0.4-1l1.1-0.5l0.7,1.6L38.1,75.5z M32.6,79.9
			v4.2h4.3l-0.6,1.2h-4.9v-5.3H32.6z"/>
		<path class="st1" d="M41.8,83.8l1.3-1.2l1,0.6l-2.3,2h-1.2V74.8h1.2V83.8z M46.2,75.4l1.2,2.8v7h-1.1v-6.8l0,0l-1-2.4L46.2,75.4z"
			/>
		<line class="st2" x1="57.8" y1="17.4" x2="51.2" y2="34.4"/>
		<polygon class="st0" points="59.2,18 51.2,34.4 56.4,16.9 		"/>
		<line class="st2" x1="2.2" y1="17.4" x2="8.8" y2="34.4"/>
		<polygon class="st0" points="3.6,16.9 8.8,34.4 0.8,18 		"/>
		<path class="st0" d="M38.1,10l-1.2-1.9c0.3-0.7,0.4-1.3,0.4-2.1c0-3.3-3.1-6-6.9-6s-6.9,2.7-6.9,6s3.1,6,6.9,6
			c1.7,0,3.3-0.5,4.6-1.6h2.9C38,10.4,38.1,10.2,38.1,10C38.1,10.1,38.1,10,38.1,10z"/>
	</g>
</g>
</svg>
