<svg xmlns="http://www.w3.org/2000/svg" xmlns:xlink="http://www.w3.org/1999/xlink" viewBox="0 0 192.74 61.33"><defs><style>.cls-1,.cls-10,.cls-2{fill:none;}.cls-2{stroke:#231815;stroke-width:2.88px;}.cls-3{fill:#fff;}.cls-4{fill:#d9eff4;}.cls-5{opacity:0.03;}.cls-6{fill:url(#_10_lpi_40_);}.cls-7{fill:gray;}.cls-8{fill:#999;}.cls-9{fill:#231717;}.cls-10{stroke:#231717;stroke-width:0.25px;}.cls-11{fill:#1a1a1a;}</style><pattern id="_10_lpi_40_" data-name="10 lpi 40%" width="72" height="72" patternTransform="matrix(0.5, -0.72, 0.5, 0.72, -27.54, 12.65)" patternUnits="userSpaceOnUse" viewBox="0 0 72 72"><rect class="cls-1" width="72" height="72"/><line class="cls-2" x1="71.75" y1="68.4" x2="144.25" y2="68.4"/><line class="cls-2" x1="71.75" y1="54" x2="144.25" y2="54"/><line class="cls-2" x1="71.75" y1="39.6" x2="144.25" y2="39.6"/><line class="cls-2" x1="71.75" y1="25.2" x2="144.25" y2="25.2"/><line class="cls-2" x1="71.75" y1="10.8" x2="144.25" y2="10.8"/><line class="cls-2" x1="71.75" y1="61.2" x2="144.25" y2="61.2"/><line class="cls-2" x1="71.75" y1="46.8" x2="144.25" y2="46.8"/><line class="cls-2" x1="71.75" y1="32.4" x2="144.25" y2="32.4"/><line class="cls-2" x1="71.75" y1="18" x2="144.25" y2="18"/><line class="cls-2" x1="71.75" y1="3.6" x2="144.25" y2="3.6"/><line class="cls-2" x1="-0.25" y1="68.4" x2="72.25" y2="68.4"/><line class="cls-2" x1="-0.25" y1="54" x2="72.25" y2="54"/><line class="cls-2" x1="-0.25" y1="39.6" x2="72.25" y2="39.6"/><line class="cls-2" x1="-0.25" y1="25.2" x2="72.25" y2="25.2"/><line class="cls-2" x1="-0.25" y1="10.8" x2="72.25" y2="10.8"/><line class="cls-2" x1="-0.25" y1="61.2" x2="72.25" y2="61.2"/><line class="cls-2" x1="-0.25" y1="46.8" x2="72.25" y2="46.8"/><line class="cls-2" x1="-0.25" y1="32.4" x2="72.25" y2="32.4"/><line class="cls-2" x1="-0.25" y1="18" x2="72.25" y2="18"/><line class="cls-2" x1="-0.25" y1="3.6" x2="72.25" y2="3.6"/><line class="cls-2" x1="-72.25" y1="68.4" x2="0.25" y2="68.4"/><line class="cls-2" x1="-72.25" y1="54" x2="0.25" y2="54"/><line class="cls-2" x1="-72.25" y1="39.6" x2="0.25" y2="39.6"/><line class="cls-2" x1="-72.25" y1="25.2" x2="0.25" y2="25.2"/><line class="cls-2" x1="-72.25" y1="10.8" x2="0.25" y2="10.8"/><line class="cls-2" x1="-72.25" y1="61.2" x2="0.25" y2="61.2"/><line class="cls-2" x1="-72.25" y1="46.8" x2="0.25" y2="46.8"/><line class="cls-2" x1="-72.25" y1="32.4" x2="0.25" y2="32.4"/><line class="cls-2" x1="-72.25" y1="18" x2="0.25" y2="18"/><line class="cls-2" x1="-72.25" y1="3.6" x2="0.25" y2="3.6"/></pattern></defs><title>common-logo-start</title><g id="レイヤー_2" data-name="レイヤー 2"><g id="レイヤー_1-2" data-name="レイヤー 1"><g id="_グループ_" data-name="&lt;グループ&gt;"><rect class="cls-3" x="2.5" y="2.5" width="187.74" height="56.33"/><path class="cls-4" d="M187.74,5V56.33H5V5H187.74m5-5H0V61.33H192.74V0Z"/><g class="cls-5"><path class="cls-6" d="M187.74,5V56.33H5V5H187.74m5-5H0V61.33H192.74V0Z"/></g><g id="_グループ_2" data-name="&lt;グループ&gt;"><path id="path44" class="cls-7" d="M18.4,51.69H39.31V32.88H31.89l.67-1.34H26.49l-.67,1.34H18.4V51.69l5.4-3.36V36.24H34.59v2.69H21.1v2.69H34.59v2H21.1v2.69H34.59v2H21.1Z"/><path id="path46" class="cls-7" d="M42.68,51.69,54.83,51V47l-12.15.67Z"/><path id="path48" class="cls-7" d="M44,41.62V45H62.92V41.62Z"/><path id="path50" class="cls-7" d="M53.48,38.93l4.05,12.76h5.39L58.87,38.93Z"/><path id="path52" class="cls-7" d="M43.36,49V31.54H62.92v9.13l-14.84-.26V37.58h9.45v-2H48.76V49Z"/><path id="path54" class="cls-7" d="M65,39.6V33.55h2v-2h4v2h2v-2h4v2h2.7v-2h4v2h2V39.6h-5.4V36.91H70.34V39.6Z"/><path id="path56" class="cls-7" d="M66.29,45.65V38.26H84.51v7.39H68.32V42.29H79.79V40.94H71v4.71Z"/><path id="path58" class="cls-7" d="M69.67,45l-4,6.72H71l4-6.72Z"/><path id="path60" class="cls-7" d="M75.74,45v6.72H85.86v-4h-5.4V45Z"/><path id="path44-2" data-name="path44" class="cls-8" d="M18.4,51.69H39.31V32.88H31.89l.67-1.34H26.49l-.67,1.34H18.4V51.69l5.4-3.36V36.24H34.59v2.69H21.1v2.69H34.59v2H21.1v2.69H34.59v2H21.1Z"/><path id="path46-2" data-name="path46" class="cls-8" d="M42.68,51.69,54.83,51V47l-12.15.67Z"/><path id="path48-2" data-name="path48" class="cls-8" d="M44,41.62V45H62.92V41.62Z"/><path id="path50-2" data-name="path50" class="cls-8" d="M53.48,38.93l4.05,12.76h5.39L58.87,38.93Z"/><path id="path52-2" data-name="path52" class="cls-8" d="M43.36,49V31.54H62.92v9.13l-14.84-.26V37.58h9.45v-2H48.76V49Z"/><path id="path54-2" data-name="path54" class="cls-8" d="M65,39.6V33.55h2v-2h4v2h2v-2h4v2h2.7v-2h4v2h2V39.6h-5.4V36.91H70.34V39.6Z"/><path id="path56-2" data-name="path56" class="cls-8" d="M66.29,45.65V38.26H84.51v7.39H68.32V42.29H79.79V40.94H71v4.71Z"/><path id="path58-2" data-name="path58" class="cls-8" d="M69.67,45l-4,6.72H71l4-6.72Z"/><path id="path60-2" data-name="path60" class="cls-8" d="M75.74,45v6.72H85.86v-4h-5.4V45Z"/></g><path d="M105,31.94v5.13h6.54V40H105v7.63H113v3H93.41v-3h8V40H94.92V37.07h6.53V31.94Z"/><path d="M116.91,32.07h17.67v5.69H120.12v.82H135v2.35h-2.16c.83,1,1.58,2,2.22,3l-2.67,1.31L131.56,44l-2.76.29v1.07h5.34v2.29H128.8v.76h6.47V51H118.85V48.76a13.4,13.4,0,0,1-1.4,2.52l-2.22-3a13.08,13.08,0,0,0,1.31-3.85,35.76,35.76,0,0,0,.37-6ZM119,48.42h6.37v-.76h-5V45.37h5v-.82c-1.8.12-3.4.2-4.79.24l-.13-2.35.74,0,.73,0c.24-.44.51-.92.79-1.45h-2.59V41A20.77,20.77,0,0,1,119,48.42Zm1.12-12.9h11.09v-1H120.12Zm9.8,6.34c-.09-.13-.23-.3-.41-.52l-.35-.41h-3c-.2.42-.42.84-.67,1.27C126.39,42.15,127.88,42,129.92,41.86Z"/><path class="cls-9" d="M105,31.94v5.13h6.54V40H105v7.63H113v3H93.41v-3h8V40H94.92V37.07h6.53V31.94Z"/><path class="cls-9" d="M116.91,32.07h17.67v5.69H120.12v.82H135v2.35h-2.16c.83,1,1.58,2,2.22,3l-2.67,1.31L131.56,44l-2.76.29v1.07h5.34v2.29H128.8v.76h6.47V51H118.85V48.76a13.4,13.4,0,0,1-1.4,2.52l-2.22-3a13.08,13.08,0,0,0,1.31-3.85,35.76,35.76,0,0,0,.37-6ZM119,48.42h6.37v-.76h-5V45.37h5v-.82c-1.8.12-3.4.2-4.79.24l-.13-2.35.74,0,.73,0c.24-.44.51-.92.79-1.45h-2.59V41A20.77,20.77,0,0,1,119,48.42Zm1.12-12.9h11.09v-1H120.12Zm9.8,6.34c-.09-.13-.23-.3-.41-.52l-.35-.41h-3c-.2.42-.42.84-.67,1.27C126.39,42.15,127.88,42,129.92,41.86Z"/><path class="cls-10" d="M105,31.94v5.13h6.54V40H105v7.63H113v3H93.41v-3h8V40H94.92V37.07h6.53V31.94Z"/><path class="cls-10" d="M116.91,32.07h17.67v5.69H120.12v.82H135v2.35h-2.16c.83,1,1.58,2,2.22,3l-2.67,1.31L131.56,44l-2.76.29v1.07h5.34v2.29H128.8v.76h6.47V51H118.85V48.76a13.4,13.4,0,0,1-1.4,2.52l-2.22-3a13.08,13.08,0,0,0,1.31-3.85,35.76,35.76,0,0,0,.37-6ZM119,48.42h6.37v-.76h-5V45.37h5v-.82c-1.8.12-3.4.2-4.79.24l-.13-2.35.74,0,.73,0c.24-.44.51-.92.79-1.45h-2.59V41A20.77,20.77,0,0,1,119,48.42Zm1.12-12.9h11.09v-1H120.12Zm9.8,6.34c-.09-.13-.23-.3-.41-.52l-.35-.41h-3c-.2.42-.42.84-.67,1.27C126.39,42.15,127.88,42,129.92,41.86Z"/><path class="cls-11" d="M146.36,39.87v2.24h-1.85q1.91,3.07,2.38,3.87v-10h7.7V50.5h-2.68v-.93h-2.43v.93h-2.59V46.36l-1.64,1.28c-.52-1.2-1-2.2-1.36-3v6.23h-2.52V46.07a11.41,11.41,0,0,1-1.64,3l-1.36-2.29A14.24,14.24,0,0,0,141,42.11h-2.21V39.87h2.6v-2c-.7.07-1.45.12-2.26.15l-.22-2.1a33.79,33.79,0,0,0,6.76-.95l.74,2a20.54,20.54,0,0,1-2.5.55v2.31Zm5.55,7.46V38.25h-2.43v9.08Z"/><path class="cls-11" d="M170.5,50.81c-.34,0-1.07,0-2.19-.08l-.07-1.32q-3.5.73-6.74,1.14l-.32-2.17.54-.08.55-.06a21.81,21.81,0,0,0-.79-2.29l2-.59h-1.4v-.88l-.76.71c-.23-.51-.45-1-.67-1.45v7.12h-2.35V45.7a8.56,8.56,0,0,1-.93,2L156.51,45a15,15,0,0,0,1.81-5h-1.57V37.75h1.57V35.09h2.35v2.66h.91V36.21h2.18v-1.1h2.57v1.1h2.15v1.63h1.8V35.09h2.41v2.75h.75v2.33h-.75v7.45c0,.8,0,1.39,0,1.76a1.86,1.86,0,0,1-.3.92,1,1,0,0,1-.64.44A7.05,7.05,0,0,1,170.5,50.81ZM168,41.58l1.53-.74q.25.79.78,2.55V40.17h-2v-1.9h-1.91v.53H168v2h-5.92v-2h1.68v-.53h-1.94V40h-1.1l1.38,2.4V41.2H168Zm-3.09,6.26a20.57,20.57,0,0,0,.88-2.48h-1.94a21,21,0,0,1,.78,2.23l-1.88.58Zm1-4.12v-.88h-1.71v.88Zm1.78,3.64.54-.09.51-.1.15,1.29.88,0c.26,0,.41,0,.46-.1a1.55,1.55,0,0,0,.08-.66V46.22l-1.16.47c-.3-1.29-.68-2.65-1.15-4.09v2.76H166.6l1.66.41A15.85,15.85,0,0,1,167.66,47.36Z"/><rect class="cls-4" x="19.27" y="9.64" width="153.32" height="18.4"/><path class="cls-9" d="M24.35,21.78A17.38,17.38,0,0,1,20,24.21l-.65-1.36a17.7,17.7,0,0,0,4.34-2.17H20.52V15.94h3.83v-.61H19.63V14.06h4.72v-.94H26v.94h4.72v1.27H26v.61h3.82v4.74H26.67A17.52,17.52,0,0,0,31,22.85l-.65,1.36A17.2,17.2,0,0,1,26,21.78v2.58H24.35Zm-2.3-4h2.3v-.72h-2.3Zm2.3,1.77v-.74h-2.3v.74Zm4-1.77v-.72H26v.72ZM26,19.57h2.29v-.74H26Z"/><path class="cls-9" d="M36.42,21.17a12.88,12.88,0,0,1-3.08,2.88l-.94-1.13a13.24,13.24,0,0,0,2.93-2.7Zm7.24-7.11v1.31H32.54V14.06h4.73v-.94h1.66v.94ZM37.14,24.28q-.62,0-1.74-.06l-.07-1.4c.68.05,1.18.07,1.52.07a.83.83,0,0,0,.47-.08s.07-.21.07-.49V20.09h-3.7V16h8.83v4.08H39.06v2.18c0,.34,0,.6,0,.79a2.16,2.16,0,0,1-.1.54,1,1,0,0,1-.18.37.87.87,0,0,1-.35.2,2.71,2.71,0,0,1-.51.1Zm-1.82-5.39h5.57V17.18H35.32Zm4.39,2.48,1-1.13A23.16,23.16,0,0,1,43.82,23l-1,1.07A24.86,24.86,0,0,0,39.71,21.37Z"/><path class="cls-9" d="M55.08,18a4.16,4.16,0,0,1,1,1.36,3.82,3.82,0,0,1,.37,1.6A2.42,2.42,0,0,1,56,22.56a1.87,1.87,0,0,1-1.45.5h-.78l-.28-1.38h.27a1.63,1.63,0,0,0,.9-.16.86.86,0,0,0,.21-.69A4.29,4.29,0,0,0,53.42,18a15.58,15.58,0,0,0,1.34-3.23H53.29v9.53H51.74V14.93a13,13,0,0,1-1,1.5h.65v1.3H49.67c-.38.4-.67.68-.87.86h2.29v5.73H49.57v-.45H47.43v.45H45.86V20.7l-.76.4-.41-1.5a13.44,13.44,0,0,0,2.86-1.87H44.91v-1.3H47v-1.1H45.46V14.06H47v-1h1.58v1H50V15a11.87,11.87,0,0,0,.82-1.45l.89.38v-.35h4.62v1.26A20.56,20.56,0,0,1,55.08,18ZM47.43,20.7h2.14v-.88H47.43Zm0,1.11v.89h2.14v-.89Zm2.34-6.48H48.53v1.1h.36A13.25,13.25,0,0,0,49.77,15.33Z"/><path class="cls-9" d="M60.87,13.25H62.5V24.36H60.87V21.88c-1,.38-1.84.69-2.62.91l-.38-1.44q1.43-.39,3-1V17.18H58.05V15.8h2.82Zm5.64,9.51q.3,0,.6,0t.39-.45c0-.27.09-1.16.13-2.66l1.47.16c0,.72,0,1.29-.07,1.71s-.06.8-.11,1.15a5.17,5.17,0,0,1-.16.77.87.87,0,0,1-.27.41.89.89,0,0,1-.37.23l-.54.09c-.41,0-.78.06-1.12.06s-.78,0-1.1,0c-.67,0-1.08-.16-1.23-.35a3.11,3.11,0,0,1-.22-1.54v-9h1.68V16.8a16.87,16.87,0,0,0,2.6-2.19l1,1.09a17.61,17.61,0,0,1-3.63,2.84v3.54a1.84,1.84,0,0,0,0,.54c0,.05.11.09.27.11A5.53,5.53,0,0,0,66.51,22.76Z"/><path class="cls-9" d="M81.28,13.53v1.32H79.37l1.18.68a23,23,0,0,1-2,2.94c.81.75,1.66,1.6,2.53,2.55l-1.14,1c-.85-.92-1.64-1.73-2.39-2.43a17.27,17.27,0,0,1-3.41,2.85h7.28v1.33H72.7v.56H71.07V13.53Zm-7.64,3,1-1.11a25,25,0,0,1,2.68,2,21.07,21.07,0,0,0,1.75-2.55H72.7v7.61h1.14l-1-1.08a15.29,15.29,0,0,0,3.48-2.84A23.79,23.79,0,0,0,73.64,16.55Z"/></g></g></g></svg>