<?xml version="1.0" encoding="utf-8"?>
<!-- Generator: Adobe Illustrator 23.0.2, SVG Export Plug-In . SVG Version: 6.00 Build 0)  -->
<svg version="1.1" id="レイヤー_1" xmlns="http://www.w3.org/2000/svg" xmlns:xlink="http://www.w3.org/1999/xlink" x="0px"
	 y="0px" viewBox="0 0 361 106" style="enable-background:new 0 0 361 106;" xml:space="preserve">
<style type="text/css">
	.st0{opacity:0.7;}
	.st1{fill:#F2F2F2;}
	.st2{fill:#FFFFFF;}
	.st3{fill:#F78BBA;}
	.st4{fill:none;}
	.st5{enable-background:new    ;}
	.st6{fill:#0497FC;}
</style>
<g id="loading">
	<g id="jiminto" class="st0">
		<path id="path44" class="st1" d="M260.3,19h14.4V6h-5.1l0.5-0.9h-4.2L265.4,6h-5.1V19l3.7-2.3V8.3h7.4v1.9h-9.3V12h9.3v1.4h-9.3
			v1.9h9.3v1.4h-9.3L260.3,19z"/>
		<path id="path46" class="st1" d="M277,19l8.4-0.5v-2.8l-8.4,0.5V19z"/>
		<path id="path48" class="st1" d="M278,12v2.3h13V12H278z"/>
		<path id="path50" class="st1" d="M284.5,10.2l2.8,8.8h3.7l-2.8-8.8H284.5z"/>
		<path id="path52" class="st1" d="M277.5,17.1v-12H291v6.3l-10.2-0.2v-2h6.5V7.8h-6v9.3H277.5z"/>
		<path id="path54" class="st1" d="M292.3,10.6V6.5h1.4V5.1h2.8v1.4h1.4V5.1h2.8v1.4h1.9V5.1h2.8v1.4h1.4v4.2H303V8.8h-7v1.9
			L292.3,10.6z"/>
		<path id="path56" class="st1" d="M293.3,14.8V9.7h12.5v5.1h-11.1v-2.3h7.9v-0.9h-6v3.2L293.3,14.8z"/>
		<path id="path58" class="st1" d="M295.6,14.4l-2.8,4.6h3.7l2.8-4.6H295.6z"/>
		<path id="path60" class="st1" d="M299.8,14.4V19h7v-2.8h-3.7v-1.9L299.8,14.4L299.8,14.4z"/>
	</g>
	<g id="copy">
		<path class="st2" d="M32.5,21.5l6.9-2.1c2.6,7,4.7,14.2,6.3,21.6l-7.2,2.1c-0.1-0.4-0.4-1.7-0.9-3.9c-6.9,1.2-13.8,2-20.7,2.5
			l-0.4-6.2l2.8-0.1c0.1-0.4,0.5-1.2,0.9-2.4s0.8-2.1,1-2.8l-3.4,2.6l-2.5-5.6v16.1h-7V30.2c-1,3-2.5,5.7-4.4,8.2l-3.6-6.2
			c3.1-3.7,5.5-8,7-12.7h-6v-6h7V8.3C7,8.4,5.1,8.6,2.5,8.7L1.9,3C8,2.8,14.1,1.9,20.1,0.5l2,5.4c-2.3,0.7-4.6,1.2-6.9,1.5v6.2h7v6
			h-5.4c1.7,2.7,3.3,5.4,5,8.1C24.7,19,27.1,10,28.9,1l7.5,1C34,13,31,23.9,27.3,34.5c2.8-0.3,5.7-0.7,8.7-1.1
			C34.9,29.4,33.8,25.4,32.5,21.5z"/>
		<path class="st2" d="M79.1,25.9c0,11.2-2.8,16.9-8.3,16.9c-1.6,0-3.2-0.2-4.7-0.6c-1.7-0.3-3.4-0.8-5-1.4l1.7-6.3
			c2.1,0.8,4.3,1.3,6.5,1.6c0.4,0,0.8-0.3,1.1-1c0.5-1.2,0.7-2.4,0.9-3.6c0.3-2.2,0.4-4.5,0.4-6.8c0-3.4-0.1-5.4-0.4-6
			s-1.2-0.9-2.9-0.8H64c-2,8.6-4.6,17-7.8,25.2l-6.1-2c2.9-7.6,5.2-15.3,7.1-23.2h-6.1v-6.2h7.5c0.7-3.2,1.2-6.2,1.6-8.9l6.5,0.5
			c-0.2,2-0.7,4.8-1.4,8.4h5.8c0.8,0,1.6,0.1,2.3,0.2c0.9,0.1,1.5,0.2,1.9,0.2c0.5,0.1,1,0.3,1.4,0.6c0.4,0.2,0.7,0.5,1,0.8
			c0.3,0.4,0.5,0.9,0.7,1.4c0.2,0.6,0.4,1.1,0.5,1.7c0,0.5,0.1,1.3,0.2,2.4s0.1,2.1,0.1,3L79.1,25.9L79.1,25.9z M85.1,12.9l-4.7,2.2
			c-1.2-2.4-2.5-4.8-3.9-7.2l4.8-2.3C82.7,8.1,84,10.6,85.1,12.9L85.1,12.9z M85.9,34.2C84.7,29.5,83,24,80.8,17.8l6.6-2.1
			c2.1,5.9,3.9,11.6,5.2,16.8L85.9,34.2z M92.5,11.4l-4.8,2.3c-1.4-2.7-2.7-5.1-4-7.4l4.8-2.4C89.6,5.9,91,8.4,92.5,11.4L92.5,11.4z
			"/>
		<path class="st2" d="M104.1,23.8L98,20.5c2.5-3.1,4.4-6.7,5.6-10.5l6.5,1.6c-0.7,2.5-1.6,4.9-2.8,7.2c1.4-1.2,2.6-2.6,3.5-4.2
			c0.8-1.7,1.4-3.6,1.5-5.5H99.4V3.3h16.7V0h7.6v3.3h16.7v5.8h-10.8v3.1l5.6-2.2c2.5,3.4,4.7,6.9,6.6,10.6l-6.3,2.6
			c-1.7-3.4-3.7-6.7-5.9-9.9v0.6c0,1.6,0,2.9-0.1,3.8c-0.1,0.8-0.2,1.6-0.4,2.4c-0.1,0.6-0.5,1.1-1,1.4s-1,0.4-1.5,0.5
			c-0.8,0.1-1.6,0.2-2.4,0.1c-1,0-1.9,0-2.6,0c-1.1,1-1.9,1.7-2.5,2.2h15.7v5.1c-2,2.2-4.4,4.1-7,5.7c4.4,0.9,8.8,1.5,13.3,1.7
			l-1.8,6.1c-6.6-0.4-13.2-1.8-19.4-4.1c-6.2,2.1-12.7,3.5-19.2,4.1l-1.8-6.1c4.4-0.3,8.9-0.8,13.2-1.6c-1.3-0.7-2.5-1.6-3.6-2.5
			l3.1-3.3h-0.1c-3.2,1.8-6.5,3.2-10,4.2l-3-5.6c4.2-1.2,8.2-2.8,12.1-4.8l-4-3.2C105.9,21.3,105,22.6,104.1,23.8z M120.2,32.8
			c2.3-0.9,4.4-2,6.4-3.5h-13.2C115.5,30.7,117.8,31.9,120.2,32.8z M121.2,16.2c0.6,0,1-0.1,1.1-0.2c0.2-0.5,0.2-1,0.2-1.5V9.1h-3.3
			c-0.2,3.9-1.4,7.7-3.7,10.9l2.9,0.8L118,16C119.7,16.2,120.8,16.2,121.2,16.2z"/>
		<path class="st2" d="M149.2,14.8h30.5v7.3l-9.1,6.4l0,0h0.1c1.3,0,2.3,1.4,2.9,4.2c0.1,1.1,0.6,2,1.3,2.9c0.9,0.5,1.9,0.7,2.9,0.6
			c1.8,0,3.6-0.2,5.3-0.8l1.2,6.4c-2.4,0.6-4.8,0.9-7.3,0.9c-3,0-5.2-0.5-6.7-1.3c-1.5-1-2.6-2.6-2.9-4.3c-0.2-1-0.5-2.1-1-3
			c-0.3-0.5-0.7-0.8-1.3-0.8c-1,0.2-1.9,0.6-2.7,1.3c-1.3,0.8-5.5,3.7-12.6,8.7l-4-5.6l23.9-16.5V21h-20.5L149.2,14.8L149.2,14.8z
			 M153.2,10.2l0.8-6.3c7.4,1,14.8,1.4,22.2,1.4v6.6C168.5,11.7,160.8,11.2,153.2,10.2L153.2,10.2z"/>
		<path class="st2" d="M213.1,36.4c2.4-1.1,3.9-3.6,3.8-6.3c0-3.8-2.9-5.8-8.8-5.8c-3,0-6,0.3-8.9,1c-3.2,0.8-6.3,2-9.2,3.4
			l-2.6-5.2l20-11.7v-0.1h-16.9V5.6h30.4v6.3L207,19.3h0.1c1.5-0.3,3-0.4,4.4-0.4c4.2,0,7.5,1,9.8,2.9s3.6,4.8,3.5,7.8
			c0.2,4-1.6,7.9-4.9,10.3c-3.2,2.4-7.9,3.7-13.8,3.7c-9.4,0-14.1-2.8-14.1-8.5c0-2.2,1.2-4.2,3.1-5.4c2.5-1.6,5.3-2.3,8.2-2.2
			c3.6,0,6.1,0.6,7.7,1.7c1.6,1.2,2.5,3.2,2.4,5.2C213.2,35.1,213.2,35.7,213.1,36.4z M206.4,37.7c0.4-0.8,0.6-1.6,0.6-2.5
			c0-0.7-0.3-1.4-0.9-1.8c-1.1-0.5-2.2-0.7-3.4-0.6c-1-0.1-2.1,0.1-3,0.6c-0.6,0.3-1,0.9-1,1.6c0,1.8,2.4,2.7,7.2,2.7
			c0.1,0,0.2,0,0.2,0H206.4z"/>
		<path class="st2" d="M234.6,42.5c-1.5-1.4-2.3-3.4-2.3-5.5s0.8-4,2.2-5.5s3.4-2.3,5.4-2.3c4.3,0,7.8,3.5,7.8,7.8
			c0,2.1-0.8,4-2.3,5.5c-1.4,1.5-3.4,2.3-5.5,2.2C238,44.8,236,44,234.6,42.5z M238,35c-0.6,0.6-0.9,1.3-0.9,2.1
			c0,1.6,1.3,2.9,2.9,2.9c0.8,0,1.5-0.3,2.1-0.9c0.6-0.5,0.9-1.3,0.9-2.1c0-1.7-1.3-3-3-3C239.2,34.1,238.5,34.4,238,35z"/>
		<path class="st3" d="M2.5,67.7h9.1v-4.9h6.8v4.9h19.1v6H18.4V77c1.4-0.2,2.9-0.2,4.3-0.2c5.4,0,9.6,1.2,12.5,3.6
			c2.9,2.4,4.5,5.9,4.4,9.7c0.1,3.4-1.2,6.7-3.6,9.1c-2.7,2.7-6.1,4.4-9.8,5l-2-6.3c2.2-0.4,4.3-1.5,6-3c1.4-1.2,2.3-3,2.3-4.8
			c0.1-1.9-0.7-3.8-2.2-5c-1.8,4.8-4.8,9.1-8.8,12.4c-3.2,2.8-7.3,4.3-11.6,4.4c-2.6,0.1-5.1-0.8-6.9-2.5c-1.8-1.8-2.8-4.3-2.6-6.8
			c0-3.1,1-6.1,3-8.5c2.2-2.6,5-4.5,8.3-5.6v-4.8h-9L2.5,67.7z M11.6,85.7c-2.7,1.6-4.1,3.6-4.1,6c-0.1,1,0.2,2,0.8,2.8
			c0.6,0.7,1.5,1,2.4,1c0.3,0,0.6,0,0.8-0.1L11.6,85.7L11.6,85.7z M23.9,83.2h-0.6h-0.6c-1.4,0-2.9,0.1-4.3,0.3v8.1
			C20.7,89.2,22.6,86.3,23.9,83.2z"/>
		<path class="st3" d="M46.3,74.9v-6.3h7.6c0.7-2.8,1.2-4.9,1.5-6.3l6.7,0.8c-0.2,1.2-0.6,3.1-1.2,5.5h7.3v6.3h-8.9
			c-2.1,7.9-4.6,15.6-7.6,23.2l-6.5-2.2c2.8-7.3,5.2-14.3,7.1-20.9h-6C46.3,75,46.3,74.9,46.3,74.9z M86.5,75.8
			c-2.4-0.4-4.8-0.6-7.2-0.7v13.8c3,2.1,5.8,4.4,8.4,7l-4.4,4.8c-1.7-1.5-3.2-2.9-4.6-4c-1.3,4.3-4.8,6.5-10.7,6.5
			c-3.6,0-6.4-0.8-8.5-2.5c-3.7-3.3-4.1-9-0.8-12.7c0.2-0.3,0.5-0.5,0.8-0.8c2-1.7,4.8-2.5,8.5-2.5c1.4,0,2.8,0.2,4.1,0.7V68.6
			c5.1,0,10.1,0.3,15.2,0.9L86.5,75.8z M72.1,91.9c-1.2-0.7-2.6-1.1-4.1-1.2c-1.2-0.1-2.3,0.2-3.3,0.9c-0.7,0.6-1.1,1.4-1.1,2.3
			c0,1,0.4,1.9,1.2,2.4c1,0.7,2.1,1,3.2,0.9c1.2,0.1,2.3-0.2,3.2-1c0.6-0.7,0.9-2,0.9-3.9L72.1,91.9z"/>
		<path class="st3" d="M94,74.1v-6.3h7.2c0.4-2.4,0.7-4.1,0.9-5.3l7.1,0.6c-0.2,1.1-0.4,2.6-0.8,4.7h15.9v6.3h-17
			c-1.9,9.8-4.5,19.5-7.6,29.1l-7.1-1.6c3-9,5.4-18.2,7.3-27.5H94z M131.3,95.1l0.8,6.4c-3.2,0.6-6.5,0.9-9.8,0.9
			c-4.4,0-7.9-0.8-10.6-2.4c-2.6-1.6-3.9-3.7-3.9-6.2c0-2.3,1.5-4.7,4.4-7.1l5.5,2.7c-0.8,0.7-1.6,1.5-2.2,2.3
			c-0.3,0.4-0.5,0.9-0.5,1.4c0,0.9,0.6,1.6,1.9,2.2c1.7,0.7,3.6,1,5.4,0.9C125.3,96,128.3,95.7,131.3,95.1L131.3,95.1z M131,83
			c-6.3,0-12.6,0.3-18.9,1l-0.4-6.2c6.4-0.7,12.9-1,19.3-1V83z"/>
		<path class="st3" d="M142.3,64.9l7.6-1.2c0.8,4.4,1.6,8.7,2.6,12.8c5.7-2.3,11.5-4,17.5-5.3l1.4,6.7c-8.4,1.8-14.7,3.9-18.9,6.2
			s-6.4,4.5-6.4,6.7c-0.1,1.7,0.8,3.2,2.2,4c1.5,0.9,3.9,1.3,7.1,1.3c5.1,0,10.3-0.4,15.4-1.3l0.8,6.7c-5.3,0.9-10.7,1.3-16.1,1.3
			c-11.5,0-17.2-3.9-17.2-11.7c0-4.1,2.4-7.7,7.1-11C144.2,74.9,143.2,69.8,142.3,64.9z"/>
		<path class="st3" d="M181.9,93.8l5.2-4.2c3.5,4.1,6.4,7.5,8.7,10.5l-5.4,3.9C188.5,101.4,185.6,98,181.9,93.8z"/>
		<path class="st2" d="M216.5,85.4l-6.1-3.2c2.5-3.2,4.4-6.7,5.6-10.5l6.6,1.6c-0.7,2.5-1.7,4.9-2.9,7.2c1.4-1.2,2.6-2.6,3.5-4.2
			c0.9-1.7,1.4-3.6,1.5-5.5h-12.9V65h16.7v-3.3h7.6V65h16.7v5.8H242v3.1l5.6-2.2c2.5,3.3,4.7,6.9,6.6,10.6l-6.3,2.7
			c-1.7-3.4-3.7-6.7-5.9-9.9v0.6c0,1.6,0,2.9-0.1,3.8c-0.1,0.8-0.2,1.6-0.4,2.3c-0.1,0.6-0.5,1.1-1,1.4s-1,0.4-1.5,0.5
			c-0.8,0.1-1.6,0.2-2.4,0.1c-1,0-1.9,0-2.6,0c-1.1,1-1.9,1.7-2.5,2.2h15.7v5c-2,2.2-4.4,4.2-7,5.7c4.4,0.9,8.8,1.4,13.3,1.6
			l-1.8,6.1c-6.6-0.4-13.2-1.8-19.4-4.1c-6.2,2.1-12.7,3.5-19.2,4.1l-1.8-6.1c4.4-0.3,8.9-0.8,13.2-1.6c-1.3-0.7-2.5-1.6-3.6-2.5
			l3.1-3.3h-0.2c-3.2,1.8-6.5,3.2-10,4.2l-2.7-5.6c4.2-1.2,8.2-2.8,12.1-4.8l-4-3.2C218.3,82.9,217.5,84.2,216.5,85.4z M232.5,94.4
			c2.3-0.8,4.4-2,6.4-3.4h-13.2C227.9,92.4,230.2,93.5,232.5,94.4L232.5,94.4z M233.6,77.9c0.6,0,1-0.1,1.1-0.2
			c0.2-0.5,0.2-1,0.2-1.5v-5.4h-3.3c-0.2,3.9-1.4,7.7-3.7,10.9l2.9,0.8l-0.5-4.8C232.2,77.8,233.2,77.9,233.6,77.9L233.6,77.9z"/>
		<path class="st2" d="M261.9,75.7h30.5V83l-9.1,6.4l0,0h0.1c1.3,0,2.3,1.4,2.9,4.2c0.1,1.1,0.6,2,1.3,2.8c0.9,0.5,1.9,0.7,2.9,0.6
			c1.8,0,3.6-0.2,5.3-0.7l1.2,6.4c-2.4,0.6-4.8,0.9-7.3,0.9c-3,0-5.2-0.4-6.7-1.3c-1.6-1-2.6-2.6-3-4.4c-0.2-1-0.5-2.1-1-3
			c-0.3-0.5-0.7-0.8-1.3-0.8c-1,0.2-1.9,0.7-2.7,1.3c-1.3,0.8-5.5,3.7-12.6,8.7l-4-5.6l24-16.5v-0.1h-20.3v-6.2
			C262.1,75.7,261.9,75.7,261.9,75.7z M265.9,71.1l0.8-6.3c7.4,1,14.8,1.4,22.2,1.4v6.5C281.1,72.7,273.5,72.2,265.9,71.1
			L265.9,71.1z"/>
		<path class="st2" d="M325.7,97.4c2.4-1.1,4-3.6,3.8-6.3c0-3.8-2.9-5.8-8.8-5.8c-3,0-6,0.3-8.9,1c-3.2,0.8-6.3,2-9.2,3.4l-2.6-5.2
			l20-11.7l0,0h-16.9v-6.3h30.3v6.3l-13.9,7.4l0,0c1.5-0.3,3-0.4,4.5-0.4c4.2,0,7.5,1,9.8,2.9s3.6,4.8,3.5,7.8
			c0.2,4-1.6,7.9-4.9,10.3c-3.2,2.5-7.9,3.7-13.8,3.7c-9.4,0-14.1-2.8-14.1-8.5c0-2.2,1.2-4.2,3.1-5.4c2.5-1.6,5.3-2.3,8.3-2.2
			c3.6,0,6.1,0.6,7.7,1.7c1.6,1.2,2.5,3.2,2.4,5.2C325.9,96.1,325.8,96.7,325.7,97.4z M319.1,98.7c0.4-0.8,0.6-1.6,0.6-2.5
			c0-0.7-0.3-1.4-0.9-1.8c-1.1-0.5-2.2-0.7-3.4-0.6c-1-0.1-2.1,0.1-3,0.6c-0.6,0.3-1,0.9-1,1.6c0,1.8,2.4,2.7,7.2,2.7h0.3
			L319.1,98.7z"/>
		<path class="st2" d="M347.3,103.5c-3-3-3.1-7.9,0-11c3-3,7.9-3.1,11,0c3,3,3.1,7.9,0,11c-1.5,1.5-3.4,2.3-5.5,2.3
			C350.7,105.8,348.7,105,347.3,103.5z M350.6,96c-0.6,0.5-0.9,1.3-0.9,2.1c0,1.6,1.3,2.9,2.9,2.9c0.8,0,1.5-0.3,2.1-0.9
			c0.6-0.5,0.9-1.3,0.9-2.1c0-1.7-1.3-3-3-3C351.9,95.1,351.2,95.4,350.6,96z"/>
	</g>
	<g id="name">
		<path class="st2" d="M272.2,23.8v6h7.6v3.4h-7.6V42h9.4v3.5h-22.8V42h9.4v-8.9h-7.6v-3.4h7.6v-6L272.2,23.8z"/>
		<path class="st2" d="M286.1,23.9h20.5v6.6h-16.8v1h17.3v2.7h-2.5c1,1.2,1.8,2.4,2.6,3.5l-3.1,1.5l-1-1.4l-3.2,0.3v1.2h6.2V42h-6.2
			v1h7.5v3h-19.1v-2.7c-0.4,1-1,2-1.6,2.9l-2.6-3.4c0.7-1.4,1.3-2.9,1.5-4.5c0.3-2.3,0.5-4.6,0.4-6.9v-7.5H286.1z M288.6,42.9h7.4
			V42h-5.8v-2.6h5.8v-1c-2.1,0.1-4,0.2-5.6,0.3l-0.1-2.7h0.9c0.4,0,0.7,0,0.9,0c0.3-0.5,0.6-1.1,0.9-1.7h-3v0.1
			C290,37.3,289.5,40.2,288.6,42.9L288.6,42.9z M289.9,27.9h12.9v-1.1h-12.9V27.9z M301.3,35.3c-0.1-0.2-0.3-0.4-0.5-0.6
			c-0.2-0.2-0.4-0.4-0.4-0.5h-3.5c-0.2,0.5-0.5,1-0.8,1.5C297.2,35.7,298.9,35.5,301.3,35.3L301.3,35.3z"/>
		<path class="st2" d="M321.4,30.3v3.3h-2.7l3.5,5.6V24.6h11.2v21.2h-3.9v-1.3H326v1.3h-3.8v-6l-2.4,1.9c-0.8-1.7-1.4-3.2-2-4.4v9.1
			h-3.7v-7c-0.6,1.6-1.4,3.1-2.4,4.4l-2-3.3c1.7-2,3-4.3,3.8-6.8h-3.2v-3.3h3.8v-2.9c-1,0.1-2.1,0.2-3.3,0.2l-0.3-3.1
			c3.3-0.1,6.6-0.6,9.8-1.4l1.1,2.9c-1.2,0.3-2.4,0.6-3.6,0.8v3.4L321.4,30.3z M329.5,41.2V28H326v13.2H329.5z"/>
		<path class="st2" d="M356.3,46.2c-0.5,0-1.6,0-3.2-0.1l-0.1-1.9c-3.4,0.7-6.7,1.3-9.8,1.7l-0.5-3.2c0.2,0,0.4-0.1,0.8-0.1l0.8-0.1
			c-0.3-1.1-0.7-2.2-1.1-3.3l2.9-0.8h-2V37l-1.1,1c-0.3-0.7-0.7-1.4-1-2.1v10.4h-3.4v-7.5c-0.3,1-0.7,2-1.3,2.9l-1.3-3.9
			c1.3-2.3,2.2-4.7,2.6-7.3h-2.3v-3.3h2.3v-3.9h3.4v3.9h1.3V25h3.2v-1.6h3.8V25h3.1v2.4h2.6v-4h3.5v4h1.1v3.4h-1.1v10.8
			c0,1.2,0,2-0.1,2.6c0,0.5-0.2,0.9-0.4,1.3c-0.2,0.3-0.5,0.6-0.9,0.6C357.6,46.2,357,46.2,356.3,46.2z M352.7,32.8l2.2-1.1
			c0.2,0.8,0.6,2,1.1,3.7v-4.7h-3V28h-2.7v0.8h2.4v2.9h-8.6v-2.9h2.4V28h-2.8v2.5h-1.6l2,3.5v-1.7h8.5L352.7,32.8z M348.2,41.9
			c0.5-1.2,0.9-2.4,1.3-3.6h-2.8c0.4,1.1,0.8,2.1,1.1,3.2l-2.7,0.9C346.5,42.2,347.5,42,348.2,41.9L348.2,41.9z M349.6,35.9v-1.3
			h-2.5v1.3H349.6z M352.2,41.2l0.8-0.1l0.7-0.1l0.2,1.9h1.3c0.4,0,0.6,0,0.7-0.2c0.1-0.3,0.1-0.6,0.1-1v-2.2l-1.7,0.7
			c-0.4-1.9-1-3.9-1.7-6v4h-2l2.4,0.6C352.8,39.6,352.6,40.4,352.2,41.2L352.2,41.2z"/>
	</g>
	<g id="label">
		<rect x="309.7" y="5.1" class="st2" width="50.9" height="13.9"/>
	</g>
</g>
<rect x="313.9" y="5.7" class="st4" width="52" height="14.1"/>
<g class="st5">
	<path class="st6" d="M318,9.9c0.5,0.4,1.1,0.8,1.8,1c-0.2,0.2-0.5,0.5-0.6,0.8c-0.7-0.3-1.3-0.8-1.8-1.3v1.3h-0.9v-1.3
		c-0.5,0.5-1.1,1-1.8,1.3c-0.1-0.2-0.4-0.6-0.6-0.7c0.6-0.2,1.3-0.6,1.8-1h-1.1V7.5h1.7V7.2h-2.2V6.4h2.2V6h0.9v0.5h2.3v0.8h-2.3
		v0.3h1.8v2.4H318z M315.6,8.4h0.9V8.1h-0.9V8.4z M315.6,9.2h0.9V9h-0.9V9.2z M317.3,8.1v0.2h0.9V8.1H317.3z M318.2,9h-0.9v0.2h0.9
		V9z"/>
	<path class="st6" d="M321.9,10.1c-0.3,0.5-0.7,1-1.2,1.3c-0.2-0.2-0.5-0.4-0.7-0.5c0.4-0.3,0.8-0.8,1-1.1L321.9,10.1z M325.6,7.3
		h-5.3V6.5h2.2V6h0.9v0.5h2.2V7.3z M323.3,9.7v1.1c0,0.4-0.1,0.6-0.4,0.8c-0.3,0.1-0.7,0.1-1.1,0.1c0-0.3-0.2-0.6-0.3-0.8
		c0.2,0,0.6,0,0.7,0c0.1,0,0.1,0,0.1-0.1V9.7h-1.6v-2h4.1v2H323.3z M321.7,8.9h2.3V8.4h-2.3V8.9z M324.7,9.8
		c0.4,0.4,0.8,0.9,1.1,1.3l-0.9,0.4c-0.2-0.4-0.6-0.9-1-1.3L324.7,9.8z"/>
	<path class="st6" d="M331.8,6.7c-0.2,0.6-0.4,1.3-0.6,1.8c0.4,0.5,0.5,1,0.5,1.4c0,0.5-0.1,0.8-0.4,1c-0.1,0.1-0.3,0.1-0.4,0.2
		c-0.1,0-0.3,0-0.5,0c0-0.2-0.1-0.6-0.2-0.8v1.5h-0.9V6.8c-0.1,0.3-0.3,0.6-0.4,0.9h0.3v0.7h-0.8c-0.1,0.1-0.2,0.2-0.3,0.4h0.9v2.8
		h-0.8v-0.2h-0.8v0.3h-0.8V10c-0.1,0-0.1,0.1-0.2,0.1c-0.1-0.2-0.3-0.6-0.5-0.7c0.5-0.2,1-0.6,1.4-0.9h-1.2V7.7h1V7.3h-0.7V6.6h0.7
		V6h0.8v0.6h0.5v0.3c0.1-0.2,0.2-0.4,0.2-0.6l0.7,0.2V6.3h1.7l0.1,0L331.8,6.7z M328.2,9.5h-0.8v0.3h0.8V9.5z M328.2,10.7v-0.3h-0.8
		v0.3H328.2z M327.9,7.7c0.1-0.1,0.2-0.2,0.2-0.4h-0.3L327.9,7.7L327.9,7.7z M330.2,10.1c0.1,0,0.2,0,0.3,0s0.2,0,0.2,0
		c0.1-0.1,0.1-0.2,0.1-0.4c0-0.3-0.1-0.7-0.5-1.2c0.1-0.4,0.3-1,0.4-1.4h-0.6V10.1z"/>
	<path class="st6" d="M333.6,6.1h0.9v5.5h-0.9v-1.2c-0.4,0.2-0.8,0.4-1.2,0.5L332,10c0.4-0.1,1-0.3,1.6-0.5V8.2h-1.4V7.3h1.4V6.1z
		 M336.7,10.7c0.2,0,0.2-0.2,0.3-1.2c0.2,0.2,0.6,0.3,0.8,0.4c-0.1,1.2-0.3,1.7-1,1.7h-0.7c-0.8,0-1-0.3-1-1.3V6.1h0.9v1.7
		c0.4-0.3,0.8-0.6,1.1-0.8l0.6,0.8c-0.5,0.3-1.1,0.7-1.7,1v1.6c0,0.3,0,0.4,0.2,0.4H336.7z"/>
	<path class="st6" d="M343.7,11.4h-4.5v0.3h-0.9V6.3h5.2v0.8h-4.3v3.5h4.5V11.4z M342.3,10.4c-0.2-0.3-0.6-0.6-0.9-1
		c-0.4,0.4-0.9,0.8-1.4,1.1c-0.1-0.2-0.5-0.5-0.7-0.7c0.5-0.3,0.9-0.6,1.4-1c-0.4-0.3-0.8-0.6-1.1-0.8l0.6-0.6
		c0.3,0.2,0.7,0.5,1.1,0.7c0.3-0.3,0.5-0.7,0.6-1.1l0.9,0.3c-0.2,0.5-0.5,0.9-0.8,1.3c0.4,0.3,0.8,0.7,1.1,1L342.3,10.4z"/>
	<path class="st6" d="M346.1,7.7h-2V7h2V7.7z M345.9,11.4h-1v0.2h-0.7V9.5h1.6V11.4z M344.3,7.8h1.6v0.6h-1.6V7.8z M344.3,8.7h1.6
		v0.6h-1.6V8.7z M345.9,6.8h-1.6V6.2h1.6V6.8z M344.9,10.2v0.5h0.3v-0.5H344.9z M349.5,10.3c-0.2,0.2-0.3,0.4-0.6,0.6
		c0.1,0.1,0.1,0.1,0.2,0.1c0.1,0,0.1-0.2,0.2-0.5c0.1,0.1,0.3,0.2,0.5,0.3c-0.1,0.6-0.3,0.8-0.7,0.8c-0.3,0-0.5-0.1-0.7-0.4
		c-0.2,0.1-0.4,0.2-0.5,0.3c-0.1-0.1-0.2-0.3-0.3-0.4c0,0.2-0.1,0.3-0.3,0.4c-0.2,0.1-0.5,0.1-0.8,0.1c0-0.2-0.1-0.4-0.2-0.6
		c0.2,0,0.4,0,0.5,0c0.1,0,0.1,0,0.1-0.1v-0.2c-0.2,0-0.5,0-0.7,0.1l-0.1-0.7c0.2,0,0.5,0,0.7,0V10H346V9.4h0.7V9.2
		c-0.2,0-0.3,0-0.5,0c0-0.1-0.1-0.4-0.2-0.5c0.5,0,1.1-0.1,1.5-0.2l0.3,0.4l0-0.3h0.7c0,0.1,0,0.2,0,0.3l0.5-0.3
		c0.2,0.1,0.5,0.4,0.6,0.6l-0.4,0.3h0.4V10h-1c0,0.1,0,0.2,0,0.3c0.1-0.1,0.2-0.2,0.2-0.3L349.5,10.3z M347.4,7.1h-1.2V6.5h0.6
		c-0.1-0.1-0.1-0.2-0.2-0.3l0.6-0.2c0.1,0.2,0.3,0.4,0.3,0.5h0.7c0.1-0.2,0.2-0.4,0.2-0.5l0.8,0.2c-0.1,0.1-0.2,0.2-0.3,0.4h0.6v0.6
		h-1.3v0.1h1.1v0.5h-1.1v0.1h1.4v0.6h-3.6V7.9h1.4V7.7h-1V7.2h1V7.1z M347.5,9.4h0.4c0-0.1,0-0.2,0-0.3c-0.1,0-0.3,0.1-0.4,0.1V9.4z
		 M347.5,11c0,0,0,0.1,0,0.1c0.2-0.1,0.4-0.2,0.6-0.3c-0.1-0.2-0.1-0.5-0.2-0.8h-0.5v0.1l0.4,0l0,0.6l-0.4,0V11z M349.1,9.4
		c-0.1-0.1-0.3-0.3-0.5-0.5c0,0.2,0,0.3,0,0.5H349.1z"/>
	<path class="st6" d="M351.5,8.1c-0.3,0.2-0.6,0.4-1,0.6c-0.1-0.2-0.3-0.5-0.5-0.7c1-0.4,2-1.3,2.4-2h0.9c0.6,0.9,1.5,1.5,2.5,1.8
		c-0.2,0.2-0.4,0.5-0.6,0.8c-0.3-0.1-0.6-0.3-1-0.5v0.5h-2.8V8.1z M354.2,9.7c0.5,0.4,1,1,1.3,1.5l-0.8,0.5
		c-0.1-0.1-0.1-0.2-0.2-0.4c-1.4,0.1-2.8,0.1-3.9,0.2l-0.1-0.9c0.3,0,0.6,0,0.9,0c0.1-0.3,0.3-0.6,0.4-0.9h-1.3V8.9h5v0.8H354.2z
		 M353.9,7.8c-0.4-0.3-0.7-0.6-1-0.9c-0.2,0.3-0.5,0.6-0.9,0.9H353.9z M352.8,9.7c-0.1,0.3-0.3,0.6-0.5,0.9c0.5,0,1,0,1.5-0.1
		c-0.2-0.2-0.3-0.3-0.5-0.5l0.6-0.3H352.8z"/>
</g>
<g class="st5">
	<path class="st6" d="M316.1,14.7h-2V14h2V14.7z M315.9,18.4h-1v0.2h-0.7v-2.1h1.6V18.4z M314.3,14.8h1.6v0.6h-1.6V14.8z
		 M314.3,15.7h1.6v0.6h-1.6V15.7z M315.9,13.8h-1.6v-0.6h1.6V13.8z M314.9,17.2v0.5h0.3v-0.5H314.9z M319.5,17.3
		c-0.2,0.2-0.3,0.4-0.6,0.6c0.1,0.1,0.1,0.1,0.2,0.1c0.1,0,0.1-0.2,0.2-0.5c0.1,0.1,0.3,0.2,0.5,0.3c-0.1,0.6-0.3,0.8-0.7,0.8
		c-0.3,0-0.5-0.1-0.7-0.4c-0.2,0.1-0.4,0.2-0.5,0.3c-0.1-0.1-0.2-0.3-0.3-0.4c0,0.2-0.1,0.3-0.3,0.4c-0.2,0.1-0.5,0.1-0.8,0.1
		c0-0.2-0.1-0.4-0.2-0.6c0.2,0,0.4,0,0.5,0c0.1,0,0.1,0,0.1-0.1v-0.2c-0.2,0-0.5,0-0.7,0.1l-0.1-0.7c0.2,0,0.5,0,0.7,0V17H316v-0.6
		h0.7v-0.2c-0.2,0-0.3,0-0.5,0c0-0.1-0.1-0.4-0.2-0.5c0.5,0,1.1-0.1,1.5-0.2l0.3,0.4l0-0.3h0.7c0,0.1,0,0.2,0,0.3l0.5-0.3
		c0.2,0.1,0.5,0.4,0.6,0.6l-0.4,0.3h0.4V17h-1c0,0.1,0,0.2,0,0.3c0.1-0.1,0.2-0.2,0.2-0.3L319.5,17.3z M317.4,14.1h-1.2v-0.6h0.6
		c-0.1-0.1-0.1-0.2-0.2-0.3l0.6-0.2c0.1,0.2,0.3,0.4,0.3,0.5h0.7c0.1-0.2,0.2-0.4,0.2-0.5l0.8,0.2c-0.1,0.1-0.2,0.2-0.3,0.4h0.6v0.6
		h-1.3v0.1h1.1v0.5h-1.1v0.1h1.4v0.6h-3.6v-0.6h1.4v-0.1h-1v-0.5h1V14.1z M317.5,16.4h0.4c0-0.1,0-0.2,0-0.3c-0.1,0-0.3,0.1-0.4,0.1
		V16.4z M317.5,18c0,0,0,0.1,0,0.1c0.2-0.1,0.4-0.2,0.6-0.3c-0.1-0.2-0.1-0.5-0.2-0.8h-0.5v0.1l0.4,0l0,0.6l-0.4,0V18z M319.1,16.4
		c-0.1-0.1-0.3-0.3-0.5-0.5c0,0.2,0,0.3,0,0.5H319.1z"/>
	<path class="st6" d="M324.4,17.6c0.5,0.2,1,0.3,1.4,0.5l-0.8,0.6c-0.5-0.2-1.3-0.5-2-0.7l0.6-0.4h-1.5l0.5,0.4
		c-0.5,0.3-1.3,0.6-1.9,0.7c-0.2-0.2-0.5-0.5-0.7-0.6c0.5-0.1,1-0.3,1.4-0.4h-0.8v-2.7h4.5v2.7H324.4z M324.9,14.7h-4v-1.6h4V14.7z
		 M321.5,15.6h2.7v-0.2h-2.7V15.6z M321.5,16.3h2.7v-0.2h-2.7V16.3z M321.5,17h2.7v-0.2h-2.7V17z M324,13.8h-2.2v0.3h2.2V13.8z"/>
	<path class="st6" d="M330.6,17.2c0.2,0.3,0.5,0.6,1.3,0.8c-0.2,0.2-0.4,0.5-0.5,0.7c-0.6-0.2-1-0.6-1.3-0.9
		c-0.3,0.3-0.7,0.7-1.3,0.9c-0.1-0.2-0.4-0.5-0.6-0.6c0.8-0.2,1.1-0.6,1.3-0.9h-1v-0.7h0.5c-0.2-0.1-0.4-0.3-0.6-0.4v1.7h-0.7v-3.9
		c-0.1,0.2-0.1,0.3-0.2,0.5v4.3h-0.8v-2.8c-0.1,0.1-0.2,0.2-0.3,0.3c-0.1-0.2-0.3-0.7-0.4-1c0.5-0.5,0.9-1.4,1.1-2.2l0.8,0.2
		c-0.1,0.2-0.1,0.3-0.2,0.5h0.7V16c0.2-0.3,0.5-0.6,0.6-1h-0.5v-0.7h1.8v-0.4h-1.5v-0.7h2.3v1.1h0.6V15h-2l0.2,0
		c0,0.1-0.1,0.2-0.1,0.3h1.9V16h-1.1v0.4h1.2v0.7H330.6z M329.4,16c-0.1,0.1-0.2,0.3-0.3,0.4h0.6V16H329.4z"/>
	<path class="st6" d="M336.4,14.6v0.3h1.2v3c0,0.3-0.1,0.5-0.2,0.7c-0.2,0.1-0.4,0.2-0.7,0.2c0-0.2-0.2-0.6-0.3-0.7
		c0.1,0,0.3,0,0.3,0c0.1,0,0.1,0,0.1-0.1v-0.3h-0.4v1.1h-0.8v-1.1h-0.4v1.1h-0.8v-2.9c-0.1,0.1-0.2,0.3-0.3,0.4
		c0.1,0.2,0.2,0.3,0.3,0.3l-0.5,0.6c-0.1-0.2-0.2-0.3-0.3-0.5v2.1h-0.8v-1.8c-0.1,0.1-0.3,0.3-0.4,0.4c-0.1-0.2-0.3-0.7-0.4-0.8
		c0.5-0.4,0.9-1,1.2-1.7h-1.1v-0.8h0.6V13h0.8v1.1h0l0.1,0l0.4,0.3c-0.1,0.4-0.3,0.9-0.5,1.3l0.1,0.2c0.1-0.2,0.2-0.4,0.3-0.5
		l0.3,0.3v-0.6h1.2v-0.3h-1.3v-0.8h1.3V13h0.8v0.8h0.5c-0.1-0.1-0.3-0.3-0.5-0.4l0.5-0.4c0.3,0.1,0.6,0.4,0.8,0.6l-0.3,0.2h0.3v0.8
		H336.4z M335.2,15.6v0.3h0.4v-0.3H335.2z M335.6,16.8v-0.3h-0.4v0.3H335.6z M336.4,15.6v0.3h0.4v-0.3H336.4z M336.8,16.8v-0.3h-0.4
		v0.3H336.8z"/>
</g>
</svg>
