<?xml version="1.0" encoding="utf-8"?>
<!-- Generator: Adobe Illustrator 23.0.1, SVG Export Plug-In . SVG Version: 6.00 Build 0)  -->
<svg version="1.1" id="レイヤー_1" xmlns="http://www.w3.org/2000/svg" xmlns:xlink="http://www.w3.org/1999/xlink" x="0px"
	 y="0px" viewBox="0 0 250 450" style="enable-background:new 0 0 250 450;" xml:space="preserve">
<style type="text/css">
	.st0{opacity:5.000000e-02;}
	.st1{fill:#FFFFFF;}
	.st2{clip-path:url(#SVGID_2_);}
	.st3{opacity:0.15;}
	.st4{fill:none;}
	.st5{fill:#D9EFF4;}
</style>
<g id="num-2_2_">
	<g class="st0">
		<g>
			<path class="st1" d="M194.2,155.5l-18.7,30.3l21.9-2.5L225,425.7L64.6,444l-4.8-41.7l115.7-13.2l-22.1-193.2L45.2,208.2L40.5,167
				l106.8-12.2l1.3-1.7l-9.1-79.5L20.8,87.2L16,45.5l163.4-18.7L194.2,155.5z"/>
		</g>
	</g>
	<g>
		<g>
			<g>
				<defs>
					<path id="SVGID_1_" d="M203.1,128.7L184.4,159l21.9-2.5L234,398.9L73.5,417.2l-4.8-41.7l115.7-13.2L162.4,169L54.1,181.4
						l-4.7-41.2L156.2,128l1.3-1.7l-9.1-79.5L29.7,60.4L25,18.7L188.4,0L203.1,128.7z"/>
				</defs>
				<clipPath id="SVGID_2_">
					<use xlink:href="#SVGID_1_"  style="overflow:visible;"/>
				</clipPath>
				<g class="st2">
					<g class="st3">
						
							<rect x="186.4" y="-97.7" transform="matrix(0.9935 -0.1134 0.1134 0.9935 6.9417 26.5061)" class="st4" width="100" height="100"/>
						<polygon class="st4" points="236.6,-98.1 187.4,-36.1 188.1,-29.9 242.8,-98.8 						"/>
						<polygon class="st4" points="227.6,-97.1 186.3,-45.2 187,-39 233.8,-97.8 						"/>
						<polygon class="st4" points="218.6,-96 185.3,-54.2 186,-48 224.8,-96.7 						"/>
						<polygon class="st4" points="191.5,-92.9 182.2,-81.3 182.9,-75.1 197.7,-93.6 						"/>
						<polygon class="st4" points="182.4,-91.9 181.2,-90.3 181.9,-84.1 188.6,-92.6 						"/>
						<polygon class="st4" points="209.5,-95 184.3,-63.2 185,-57 215.7,-95.7 						"/>
						<polygon class="st4" points="200.5,-94 183.2,-72.3 184,-66.1 206.7,-94.7 						"/>
						<polygon class="st4" points="272.7,-102.2 191.5,0 192.2,6.2 279,-102.9 						"/>
						<polygon class="st4" points="245.6,-99.1 188.4,-27.1 189.1,-20.9 251.9,-99.8 						"/>
						<polygon class="st4" points="236.1,2.6 285.4,-59.3 284.7,-65.6 229.9,3.3 						"/>
						<polygon class="st4" points="254.2,0.5 287.4,-41.3 286.7,-47.5 248,1.3 						"/>
						<polygon class="st4" points="227.1,3.6 284.3,-68.4 283.6,-74.6 220.9,4.4 						"/>
						<polygon class="st4" points="245.2,1.6 286.4,-50.3 285.7,-56.5 238.9,2.3 						"/>
						<polygon class="st4" points="281.2,-95.5 280.5,-101.7 193.8,7.4 200,6.7 						"/>
						<polygon class="st4" points="218.1,4.7 283.3,-77.4 282.6,-83.6 211.8,5.4 						"/>
						<polygon class="st4" points="209,5.7 282.3,-86.4 281.6,-92.7 202.8,6.4 						"/>
						<polygon class="st4" points="263.2,-0.5 288.5,-32.2 287.8,-38.5 257,0.2 						"/>
						<polygon class="st4" points="290.3,-3.6 291.6,-5.1 290.8,-11.4 284.1,-2.9 						"/>
						<polygon class="st4" points="272.2,-1.5 289.5,-23.2 288.8,-29.4 266,-0.8 						"/>
						<polygon class="st4" points="281.3,-2.5 290.5,-14.2 289.8,-20.4 275.1,-1.8 						"/>
						<polygon class="st4" points="263.7,-101.2 190.5,-9.1 191.2,-2.8 269.9,-101.9 						"/>
						<polygon class="st4" points="254.7,-100.2 189.4,-18.1 190.1,-11.9 260.9,-100.9 						"/>
						<polygon class="st5" points="229.9,3.3 284.7,-65.6 284.3,-68.4 227.1,3.6 						"/>
						<polygon class="st5" points="248,1.3 286.7,-47.5 286.4,-50.3 245.2,1.6 						"/>
						<polygon class="st5" points="233.8,-97.8 187,-39 187.4,-36.1 236.6,-98.1 						"/>
						<polygon class="st5" points="215.7,-95.7 185,-57 185.3,-54.2 218.6,-96 						"/>
						<polygon class="st5" points="197.7,-93.6 182.9,-75.1 183.2,-72.3 200.5,-94 						"/>
						<polygon class="st5" points="238.9,2.3 285.7,-56.5 285.4,-59.3 236.1,2.6 						"/>
						<polygon class="st5" points="206.7,-94.7 184,-66.1 184.3,-63.2 209.5,-95 						"/>
						<polygon class="st5" points="202.8,6.4 281.6,-92.7 281.2,-95.5 200,6.7 						"/>
						<polygon class="st5" points="224.8,-96.7 186,-48 186.3,-45.2 227.6,-97.1 						"/>
						<polygon class="st5" points="220.9,4.4 283.6,-74.6 283.3,-77.4 218.1,4.7 						"/>
						<polygon class="st5" points="211.8,5.4 282.6,-83.6 282.3,-86.4 209,5.7 						"/>
						<polygon class="st5" points="280.4,-103.1 279,-102.9 192.2,6.2 192.4,7.6 193.8,7.4 280.5,-101.7 						"/>
						<polygon class="st5" points="242.8,-98.8 188.1,-29.9 188.4,-27.1 245.6,-99.1 						"/>
						<polygon class="st5" points="188.6,-92.6 181.9,-84.1 182.2,-81.3 191.5,-92.9 						"/>
						<polygon class="st5" points="260.9,-100.9 190.1,-11.9 190.5,-9.1 263.7,-101.2 						"/>
						<polygon class="st5" points="284.1,-2.9 290.8,-11.4 290.5,-14.2 281.3,-2.5 						"/>
						<polygon class="st5" points="269.9,-101.9 191.2,-2.8 191.5,0 272.7,-102.2 						"/>
						<polygon class="st5" points="291.7,-3.7 291.6,-5.1 290.3,-3.6 						"/>
						<polygon class="st5" points="266,-0.8 288.8,-29.4 288.5,-32.2 263.2,-0.5 						"/>
						<polygon class="st5" points="257,0.2 287.8,-38.5 287.4,-41.3 254.2,0.5 						"/>
						<polygon class="st5" points="251.9,-99.8 189.1,-20.9 189.4,-18.1 254.7,-100.2 						"/>
						<polygon class="st5" points="275.1,-1.8 289.8,-20.4 289.5,-23.2 272.2,-1.5 						"/>
						<polygon class="st5" points="181,-91.7 181.2,-90.3 182.4,-91.9 						"/>
					</g>
				</g>
				<g class="st2">
					<g class="st3">
						
							<rect x="197.7" y="1.6" transform="matrix(0.9935 -0.1134 0.1134 0.9935 -4.2561 28.4344)" class="st4" width="100" height="100"/>
						<polygon class="st4" points="248,1.3 198.7,63.2 199.4,69.4 254.2,0.5 						"/>
						<polygon class="st4" points="238.9,2.3 197.7,54.2 198.4,60.4 245.2,1.6 						"/>
						<polygon class="st4" points="229.9,3.3 196.6,45.1 197.4,51.4 236.1,2.6 						"/>
						<polygon class="st4" points="202.8,6.4 193.6,18 194.3,24.3 209,5.7 						"/>
						<polygon class="st4" points="193.8,7.4 192.5,9 193.2,15.2 200,6.7 						"/>
						<polygon class="st4" points="220.9,4.4 195.6,36.1 196.3,42.3 227.1,3.6 						"/>
						<polygon class="st4" points="211.8,5.4 194.6,27.1 195.3,33.3 218.1,4.7 						"/>
						<polygon class="st4" points="284.1,-2.9 202.8,99.3 203.5,105.6 290.3,-3.6 						"/>
						<polygon class="st4" points="257,0.2 199.7,72.2 200.5,78.5 263.2,-0.5 						"/>
						<polygon class="st4" points="247.5,102 296.7,40 296,33.8 241.2,102.7 						"/>
						<polygon class="st4" points="265.5,99.9 298.8,58.1 298.1,51.9 259.3,100.6 						"/>
						<polygon class="st4" points="238.4,103 295.7,31 295,24.8 232.2,103.7 						"/>
						<polygon class="st4" points="256.5,100.9 297.7,49.1 297,42.8 250.3,101.6 						"/>
						<polygon class="st4" points="292.6,3.9 291.9,-2.3 205.1,106.8 211.3,106.1 						"/>
						<polygon class="st4" points="229.4,104 294.7,22 293.9,15.7 223.2,104.7 						"/>
						<polygon class="st4" points="220.4,105.1 293.6,12.9 292.9,6.7 214.1,105.8 						"/>
						<polygon class="st4" points="274.6,98.9 299.8,67.1 299.1,60.9 268.3,99.6 						"/>
						<polygon class="st4" points="301.7,95.8 302.9,94.2 302.2,88 295.4,96.5 						"/>
						<polygon class="st4" points="283.6,97.8 300.8,76.1 300.1,69.9 277.4,98.6 						"/>
						<polygon class="st4" points="292.6,96.8 301.9,85.2 301.2,79 286.4,97.5 						"/>
						<polygon class="st4" points="275.1,-1.8 201.8,90.3 202.5,96.5 281.3,-2.5 						"/>
						<polygon class="st4" points="266,-0.8 200.8,81.3 201.5,87.5 272.2,-1.5 						"/>
						<polygon class="st5" points="241.2,102.7 296,33.8 295.7,31 238.4,103 						"/>
						<polygon class="st5" points="259.3,100.6 298.1,51.9 297.7,49.1 256.5,100.9 						"/>
						<polygon class="st5" points="245.2,1.6 198.4,60.4 198.7,63.2 248,1.3 						"/>
						<polygon class="st5" points="227.1,3.6 196.3,42.3 196.6,45.1 229.9,3.3 						"/>
						<polygon class="st5" points="209,5.7 194.3,24.3 194.6,27.1 211.8,5.4 						"/>
						<polygon class="st5" points="250.3,101.6 297,42.8 296.7,40 247.5,102 						"/>
						<polygon class="st5" points="218.1,4.7 195.3,33.3 195.6,36.1 220.9,4.4 						"/>
						<polygon class="st5" points="214.1,105.8 292.9,6.7 292.6,3.9 211.3,106.1 						"/>
						<polygon class="st5" points="236.1,2.6 197.4,51.4 197.7,54.2 238.9,2.3 						"/>
						<polygon class="st5" points="232.2,103.7 295,24.8 294.7,22 229.4,104 						"/>
						<polygon class="st5" points="223.2,104.7 293.9,15.7 293.6,12.9 220.4,105.1 						"/>
						<polygon class="st5" points="291.7,-3.7 290.3,-3.6 203.5,105.6 203.7,107 205.1,106.8 291.9,-2.3 						"/>
						<polygon class="st5" points="254.2,0.5 199.4,69.4 199.7,72.2 257,0.2 						"/>
						<polygon class="st5" points="200,6.7 193.2,15.2 193.6,18 202.8,6.4 						"/>
						<polygon class="st5" points="272.2,-1.5 201.5,87.5 201.8,90.3 275.1,-1.8 						"/>
						<polygon class="st5" points="295.4,96.5 302.2,88 301.9,85.2 292.6,96.8 						"/>
						<polygon class="st5" points="281.3,-2.5 202.5,96.5 202.8,99.3 284.1,-2.9 						"/>
						<polygon class="st5" points="303.1,95.6 302.9,94.2 301.7,95.8 						"/>
						<polygon class="st5" points="277.4,98.6 300.1,69.9 299.8,67.1 274.6,98.9 						"/>
						<polygon class="st5" points="268.3,99.6 299.1,60.9 298.8,58.1 265.5,99.9 						"/>
						<polygon class="st5" points="263.2,-0.5 200.5,78.5 200.8,81.3 266,-0.8 						"/>
						<polygon class="st5" points="286.4,97.5 301.2,79 300.8,76.1 283.6,97.8 						"/>
						<polygon class="st5" points="192.4,7.6 192.5,9 193.8,7.4 						"/>
					</g>
				</g>
				<g class="st2">
					<g class="st3">
						
							<rect x="209.1" y="101" transform="matrix(0.9935 -0.1134 0.1134 0.9935 -15.4539 30.3627)" class="st4" width="100" height="100"/>
						<polygon class="st4" points="259.3,100.6 210.1,162.6 210.8,168.8 265.5,99.9 						"/>
						<polygon class="st4" points="250.3,101.6 209,153.5 209.7,159.8 256.5,100.9 						"/>
						<polygon class="st4" points="241.2,102.7 208,144.5 208.7,150.7 247.5,102 						"/>
						<polygon class="st4" points="214.1,105.8 204.9,117.4 205.6,123.6 220.4,105.1 						"/>
						<polygon class="st4" points="205.1,106.8 203.9,108.4 204.6,114.6 211.3,106.1 						"/>
						<polygon class="st4" points="232.2,103.7 207,135.5 207.7,141.7 238.4,103 						"/>
						<polygon class="st4" points="223.2,104.7 205.9,126.4 206.6,132.7 229.4,104 						"/>
						<polygon class="st4" points="295.4,96.5 214.2,198.7 214.9,204.9 301.7,95.8 						"/>
						<polygon class="st4" points="268.3,99.6 211.1,171.6 211.8,177.8 274.6,98.9 						"/>
						<polygon class="st4" points="258.8,201.3 308.1,139.4 307.3,133.2 252.6,202 						"/>
						<polygon class="st4" points="276.9,199.3 310.1,157.4 309.4,151.2 270.6,200 						"/>
						<polygon class="st4" points="249.8,202.4 307,130.3 306.3,124.1 243.6,203.1 						"/>
						<polygon class="st4" points="267.8,200.3 309.1,148.4 308.4,142.2 261.6,201 						"/>
						<polygon class="st4" points="303.9,103.2 303.2,97 216.5,206.2 222.7,205.4 						"/>
						<polygon class="st4" points="240.7,203.4 306,121.3 305.3,115.1 234.5,204.1 						"/>
						<polygon class="st4" points="231.7,204.4 305,112.3 304.3,106.1 225.5,205.1 						"/>
						<polygon class="st4" points="285.9,198.2 311.2,166.5 310.4,160.2 279.7,198.9 						"/>
						<polygon class="st4" points="313,195.1 314.2,193.6 313.5,187.3 306.8,195.8 						"/>
						<polygon class="st4" points="294.9,197.2 312.2,175.5 311.5,169.3 288.7,197.9 						"/>
						<polygon class="st4" points="304,196.2 313.2,184.5 312.5,178.3 297.7,196.9 						"/>
						<polygon class="st4" points="286.4,97.5 213.1,189.7 213.9,195.9 292.6,96.8 						"/>
						<polygon class="st4" points="277.4,98.6 212.1,180.6 212.8,186.8 283.6,97.8 						"/>
						<polygon class="st5" points="252.6,202 307.3,133.2 307,130.3 249.8,202.4 						"/>
						<polygon class="st5" points="270.6,200 309.4,151.2 309.1,148.4 267.8,200.3 						"/>
						<polygon class="st5" points="256.5,100.9 209.7,159.8 210.1,162.6 259.3,100.6 						"/>
						<polygon class="st5" points="238.4,103 207.7,141.7 208,144.5 241.2,102.7 						"/>
						<polygon class="st5" points="220.4,105.1 205.6,123.6 205.9,126.4 223.2,104.7 						"/>
						<polygon class="st5" points="261.6,201 308.4,142.2 308.1,139.4 258.8,201.3 						"/>
						<polygon class="st5" points="229.4,104 206.6,132.7 207,135.5 232.2,103.7 						"/>
						<polygon class="st5" points="225.5,205.1 304.3,106.1 303.9,103.2 222.7,205.4 						"/>
						<polygon class="st5" points="247.5,102 208.7,150.7 209,153.5 250.3,101.6 						"/>
						<polygon class="st5" points="243.6,203.1 306.3,124.1 306,121.3 240.7,203.4 						"/>
						<polygon class="st5" points="234.5,204.1 305.3,115.1 305,112.3 231.7,204.4 						"/>
						<polygon class="st5" points="303.1,95.6 301.7,95.8 214.9,204.9 215.1,206.3 216.5,206.2 303.2,97 						"/>
						<polygon class="st5" points="265.5,99.9 210.8,168.8 211.1,171.6 268.3,99.6 						"/>
						<polygon class="st5" points="211.3,106.1 204.6,114.6 204.9,117.4 214.1,105.8 						"/>
						<polygon class="st5" points="283.6,97.8 212.8,186.8 213.1,189.7 286.4,97.5 						"/>
						<polygon class="st5" points="306.8,195.8 313.5,187.3 313.2,184.5 304,196.2 						"/>
						<polygon class="st5" points="292.6,96.8 213.9,195.9 214.2,198.7 295.4,96.5 						"/>
						<polygon class="st5" points="314.4,195 314.2,193.6 313,195.1 						"/>
						<polygon class="st5" points="288.7,197.9 311.5,169.3 311.2,166.5 285.9,198.2 						"/>
						<polygon class="st5" points="279.7,198.9 310.4,160.2 310.1,157.4 276.9,199.3 						"/>
						<polygon class="st5" points="274.6,98.9 211.8,177.8 212.1,180.6 277.4,98.6 						"/>
						<polygon class="st5" points="297.7,196.9 312.5,178.3 312.2,175.5 294.9,197.2 						"/>
						<polygon class="st5" points="203.7,107 203.9,108.4 205.1,106.8 						"/>
					</g>
				</g>
				<g class="st2">
					<g class="st3">
						
							<rect x="220.4" y="200.3" transform="matrix(0.9935 -0.1134 0.1134 0.9935 -26.6517 32.291)" class="st4" width="100" height="100"/>
						<polygon class="st4" points="270.6,200 221.4,261.9 222.1,268.1 276.9,199.3 						"/>
						<polygon class="st4" points="261.6,201 220.4,252.9 221.1,259.1 267.8,200.3 						"/>
						<polygon class="st4" points="252.6,202 219.3,243.9 220,250.1 258.8,201.3 						"/>
						<polygon class="st4" points="225.5,205.1 216.2,216.8 217,223 231.7,204.4 						"/>
						<polygon class="st4" points="216.5,206.2 215.2,207.7 215.9,213.9 222.7,205.4 						"/>
						<polygon class="st4" points="243.6,203.1 218.3,234.8 219,241 249.8,202.4 						"/>
						<polygon class="st4" points="234.5,204.1 217.3,225.8 218,232 240.7,203.4 						"/>
						<polygon class="st4" points="306.8,195.8 225.5,298 226.2,304.3 313,195.1 						"/>
						<polygon class="st4" points="279.7,198.9 222.4,270.9 223.1,277.2 285.9,198.2 						"/>
						<polygon class="st4" points="270.2,300.7 319.4,238.7 318.7,232.5 263.9,301.4 						"/>
						<polygon class="st4" points="288.2,298.6 321.5,256.8 320.8,250.6 282,299.3 						"/>
						<polygon class="st4" points="261.1,301.7 318.4,229.7 317.7,223.5 254.9,302.4 						"/>
						<polygon class="st4" points="279.2,299.6 320.4,247.8 319.7,241.5 273,300.4 						"/>
						<polygon class="st4" points="315.3,202.6 314.6,196.4 227.8,305.5 234,304.8 						"/>
						<polygon class="st4" points="252.1,302.7 317.3,220.7 316.6,214.4 245.9,303.4 						"/>
						<polygon class="st4" points="243.1,303.8 316.3,211.6 315.6,205.4 236.8,304.5 						"/>
						<polygon class="st4" points="297.2,297.6 322.5,265.8 321.8,259.6 291,298.3 						"/>
						<polygon class="st4" points="324.3,294.5 325.6,292.9 324.9,286.7 318.1,295.2 						"/>
						<polygon class="st4" points="306.3,296.6 323.5,274.9 322.8,268.6 300.1,297.3 						"/>
						<polygon class="st4" points="315.3,295.5 324.6,283.9 323.8,277.7 309.1,296.2 						"/>
						<polygon class="st4" points="297.7,196.9 224.5,289 225.2,295.2 304,196.2 						"/>
						<polygon class="st4" points="288.7,197.9 223.5,280 224.2,286.2 294.9,197.2 						"/>
						<polygon class="st5" points="263.9,301.4 318.7,232.5 318.4,229.7 261.1,301.7 						"/>
						<polygon class="st5" points="282,299.3 320.8,250.6 320.4,247.8 279.2,299.6 						"/>
						<polygon class="st5" points="267.8,200.3 221.1,259.1 221.4,261.9 270.6,200 						"/>
						<polygon class="st5" points="249.8,202.4 219,241 219.3,243.9 252.6,202 						"/>
						<polygon class="st5" points="231.7,204.4 217,223 217.3,225.8 234.5,204.1 						"/>
						<polygon class="st5" points="273,300.4 319.7,241.5 319.4,238.7 270.2,300.7 						"/>
						<polygon class="st5" points="240.7,203.4 218,232 218.3,234.8 243.6,203.1 						"/>
						<polygon class="st5" points="236.8,304.5 315.6,205.4 315.3,202.6 234,304.8 						"/>
						<polygon class="st5" points="258.8,201.3 220,250.1 220.4,252.9 261.6,201 						"/>
						<polygon class="st5" points="254.9,302.4 317.7,223.5 317.3,220.7 252.1,302.7 						"/>
						<polygon class="st5" points="245.9,303.4 316.6,214.4 316.3,211.6 243.1,303.8 						"/>
						<polygon class="st5" points="314.4,195 313,195.1 226.2,304.3 226.4,305.7 227.8,305.5 314.6,196.4 						"/>
						<polygon class="st5" points="276.9,199.3 222.1,268.1 222.4,270.9 279.7,198.9 						"/>
						<polygon class="st5" points="222.7,205.4 215.9,213.9 216.2,216.8 225.5,205.1 						"/>
						<polygon class="st5" points="294.9,197.2 224.2,286.2 224.5,289 297.7,196.9 						"/>
						<polygon class="st5" points="318.1,295.2 324.9,286.7 324.6,283.9 315.3,295.5 						"/>
						<polygon class="st5" points="304,196.2 225.2,295.2 225.5,298 306.8,195.8 						"/>
						<polygon class="st5" points="325.8,294.3 325.6,292.9 324.3,294.5 						"/>
						<polygon class="st5" points="300.1,297.3 322.8,268.6 322.5,265.8 297.2,297.6 						"/>
						<polygon class="st5" points="291,298.3 321.8,259.6 321.5,256.8 288.2,298.6 						"/>
						<polygon class="st5" points="285.9,198.2 223.1,277.2 223.5,280 288.7,197.9 						"/>
						<polygon class="st5" points="309.1,296.2 323.8,277.7 323.5,274.9 306.3,296.6 						"/>
						<polygon class="st5" points="215.1,206.3 215.2,207.7 216.5,206.2 						"/>
					</g>
				</g>
				<g class="st2">
					<g class="st3">
						
							<rect x="231.7" y="299.7" transform="matrix(0.9935 -0.1134 0.1134 0.9935 -37.8496 34.2193)" class="st4" width="100" height="100"/>
						<polygon class="st4" points="282,299.3 232.7,361.3 233.5,367.5 288.2,298.6 						"/>
						<polygon class="st4" points="273,300.4 231.7,352.2 232.4,358.5 279.2,299.6 						"/>
						<polygon class="st4" points="263.9,301.4 230.7,343.2 231.4,349.4 270.2,300.7 						"/>
						<polygon class="st4" points="236.8,304.5 227.6,316.1 228.3,322.3 243.1,303.8 						"/>
						<polygon class="st4" points="227.8,305.5 226.6,307.1 227.3,313.3 234,304.8 						"/>
						<polygon class="st4" points="254.9,302.4 229.7,334.2 230.4,340.4 261.1,301.7 						"/>
						<polygon class="st4" points="245.9,303.4 228.6,325.1 229.3,331.4 252.1,302.7 						"/>
						<polygon class="st4" points="318.1,295.2 236.9,397.4 237.6,403.6 324.3,294.5 						"/>
						<polygon class="st4" points="291,298.3 233.8,370.3 234.5,376.5 297.2,297.6 						"/>
						<polygon class="st4" points="281.5,400 330.7,338.1 330,331.9 275.3,400.7 						"/>
						<polygon class="st4" points="299.6,398 332.8,356.1 332.1,349.9 293.3,398.7 						"/>
						<polygon class="st4" points="272.5,401.1 329.7,329.1 329,322.8 266.2,401.8 						"/>
						<polygon class="st4" points="290.5,399 331.8,347.1 331.1,340.9 284.3,399.7 						"/>
						<polygon class="st4" points="326.6,302 325.9,295.7 239.1,404.9 245.4,404.2 						"/>
						<polygon class="st4" points="263.4,402.1 328.7,320 328,313.8 257.2,402.8 						"/>
						<polygon class="st4" points="254.4,403.1 327.7,311 326.9,304.8 248.2,403.8 						"/>
						<polygon class="st4" points="308.6,396.9 333.8,365.2 333.1,359 302.4,397.6 						"/>
						<polygon class="st4" points="335.7,393.8 336.9,392.3 336.2,386.1 329.5,394.6 						"/>
						<polygon class="st4" points="317.6,395.9 334.9,374.2 334.2,368 311.4,396.6 						"/>
						<polygon class="st4" points="326.7,394.9 335.9,383.2 335.2,377 320.4,395.6 						"/>
						<polygon class="st4" points="309.1,296.2 235.8,388.4 236.5,394.6 315.3,295.5 						"/>
						<polygon class="st4" points="300.1,297.3 234.8,379.3 235.5,385.6 306.3,296.6 						"/>
						<polygon class="st5" points="275.3,400.7 330,331.9 329.7,329.1 272.5,401.1 						"/>
						<polygon class="st5" points="293.3,398.7 332.1,349.9 331.8,347.1 290.5,399 						"/>
						<polygon class="st5" points="279.2,299.6 232.4,358.5 232.7,361.3 282,299.3 						"/>
						<polygon class="st5" points="261.1,301.7 230.4,340.4 230.7,343.2 263.9,301.4 						"/>
						<polygon class="st5" points="243.1,303.8 228.3,322.3 228.6,325.1 245.9,303.4 						"/>
						<polygon class="st5" points="284.3,399.7 331.1,340.9 330.7,338.1 281.5,400 						"/>
						<polygon class="st5" points="252.1,302.7 229.3,331.4 229.7,334.2 254.9,302.4 						"/>
						<polygon class="st5" points="248.2,403.8 326.9,304.8 326.6,302 245.4,404.2 						"/>
						<polygon class="st5" points="270.2,300.7 231.4,349.4 231.7,352.2 273,300.4 						"/>
						<polygon class="st5" points="266.2,401.8 329,322.8 328.7,320 263.4,402.1 						"/>
						<polygon class="st5" points="257.2,402.8 328,313.8 327.7,311 254.4,403.1 						"/>
						<polygon class="st5" points="325.8,294.3 324.3,294.5 237.6,403.6 237.7,405 239.1,404.9 325.9,295.7 						"/>
						<polygon class="st5" points="288.2,298.6 233.5,367.5 233.8,370.3 291,298.3 						"/>
						<polygon class="st5" points="234,304.8 227.3,313.3 227.6,316.1 236.8,304.5 						"/>
						<polygon class="st5" points="306.3,296.6 235.5,385.6 235.8,388.4 309.1,296.2 						"/>
						<polygon class="st5" points="329.5,394.6 336.2,386.1 335.9,383.2 326.7,394.9 						"/>
						<polygon class="st5" points="315.3,295.5 236.5,394.6 236.9,397.4 318.1,295.2 						"/>
						<polygon class="st5" points="337.1,393.7 336.9,392.3 335.7,393.8 						"/>
						<polygon class="st5" points="311.4,396.6 334.2,368 333.8,365.2 308.6,396.9 						"/>
						<polygon class="st5" points="302.4,397.6 333.1,359 332.8,356.1 299.6,398 						"/>
						<polygon class="st5" points="297.2,297.6 234.5,376.5 234.8,379.3 300.1,297.3 						"/>
						<polygon class="st5" points="320.4,395.6 335.2,377 334.9,374.2 317.6,395.9 						"/>
						<polygon class="st5" points="226.4,305.7 226.6,307.1 227.8,305.5 						"/>
					</g>
				</g>
				<g class="st2">
					<g class="st3">
						
							<rect x="87" y="-86.4" transform="matrix(0.9935 -0.1134 0.1134 0.9935 5.0134 15.3082)" class="st4" width="100" height="100"/>
						<polygon class="st4" points="137.3,-86.7 88,-24.8 88.7,-18.6 143.5,-87.5 						"/>
						<polygon class="st4" points="128.2,-85.7 87,-33.8 87.7,-27.6 134.5,-86.4 						"/>
						<polygon class="st4" points="119.2,-84.7 85.9,-42.9 86.7,-36.6 125.4,-85.4 						"/>
						<polygon class="st4" points="92.1,-81.6 82.9,-70 83.6,-63.7 98.3,-82.3 						"/>
						<polygon class="st4" points="83.1,-80.6 81.8,-79 82.5,-72.8 89.3,-81.3 						"/>
						<polygon class="st4" points="110.2,-83.7 84.9,-51.9 85.6,-45.7 116.4,-84.4 						"/>
						<polygon class="st4" points="101.1,-82.6 83.9,-60.9 84.6,-54.7 107.4,-83.3 						"/>
						<polygon class="st4" points="173.4,-90.9 92.1,11.3 92.8,17.5 179.6,-91.6 						"/>
						<polygon class="st4" points="146.3,-87.8 89,-15.8 89.8,-9.5 152.5,-88.5 						"/>
						<polygon class="st4" points="136.8,14 186,-48 185.3,-54.2 130.5,14.7 						"/>
						<polygon class="st4" points="154.8,11.9 188.1,-29.9 187.4,-36.1 148.6,12.6 						"/>
						<polygon class="st4" points="127.7,15 185,-57 184.3,-63.2 121.5,15.7 						"/>
						<polygon class="st4" points="145.8,12.9 187,-39 186.3,-45.2 139.6,13.6 						"/>
						<polygon class="st4" points="181.9,-84.1 181.2,-90.3 94.4,18.8 100.6,18.1 						"/>
						<polygon class="st4" points="118.7,16 184,-66.1 183.2,-72.3 112.5,16.7 						"/>
						<polygon class="st4" points="109.7,17.1 182.9,-75.1 182.2,-81.3 103.4,17.8 						"/>
						<polygon class="st4" points="163.9,10.9 189.1,-20.9 188.4,-27.1 157.6,11.6 						"/>
						<polygon class="st4" points="191,7.8 192.2,6.2 191.5,0 184.7,8.5 						"/>
						<polygon class="st4" points="172.9,9.8 190.1,-11.9 189.4,-18.1 166.7,10.5 						"/>
						<polygon class="st4" points="181.9,8.8 191.2,-2.8 190.5,-9.1 175.7,9.5 						"/>
						<polygon class="st4" points="164.4,-89.8 91.1,2.3 91.8,8.5 170.6,-90.6 						"/>
						<polygon class="st4" points="155.3,-88.8 90.1,-6.7 90.8,-0.5 161.5,-89.5 						"/>
						<polygon class="st5" points="130.5,14.7 185.3,-54.2 185,-57 127.7,15 						"/>
						<polygon class="st5" points="148.6,12.6 187.4,-36.1 187,-39 145.8,12.9 						"/>
						<polygon class="st5" points="134.5,-86.4 87.7,-27.6 88,-24.8 137.3,-86.7 						"/>
						<polygon class="st5" points="116.4,-84.4 85.6,-45.7 85.9,-42.9 119.2,-84.7 						"/>
						<polygon class="st5" points="98.3,-82.3 83.6,-63.7 83.9,-60.9 101.1,-82.6 						"/>
						<polygon class="st5" points="139.6,13.6 186.3,-45.2 186,-48 136.8,14 						"/>
						<polygon class="st5" points="107.4,-83.3 84.6,-54.7 84.9,-51.9 110.2,-83.7 						"/>
						<polygon class="st5" points="103.4,17.8 182.2,-81.3 181.9,-84.1 100.6,18.1 						"/>
						<polygon class="st5" points="125.4,-85.4 86.7,-36.6 87,-33.8 128.2,-85.7 						"/>
						<polygon class="st5" points="121.5,15.7 184.3,-63.2 184,-66.1 118.7,16 						"/>
						<polygon class="st5" points="112.5,16.7 183.2,-72.3 182.9,-75.1 109.7,17.1 						"/>
						<polygon class="st5" points="181,-91.7 179.6,-91.6 92.8,17.5 93,19 94.4,18.8 181.2,-90.3 						"/>
						<polygon class="st5" points="143.5,-87.5 88.7,-18.6 89,-15.8 146.3,-87.8 						"/>
						<polygon class="st5" points="89.3,-81.3 82.5,-72.8 82.9,-70 92.1,-81.6 						"/>
						<polygon class="st5" points="161.5,-89.5 90.8,-0.5 91.1,2.3 164.4,-89.8 						"/>
						<polygon class="st5" points="184.7,8.5 191.5,0 191.2,-2.8 181.9,8.8 						"/>
						<polygon class="st5" points="170.6,-90.6 91.8,8.5 92.1,11.3 173.4,-90.9 						"/>
						<polygon class="st5" points="192.4,7.6 192.2,6.2 191,7.8 						"/>
						<polygon class="st5" points="166.7,10.5 189.4,-18.1 189.1,-20.9 163.9,10.9 						"/>
						<polygon class="st5" points="157.6,11.6 188.4,-27.1 188.1,-29.9 154.8,11.9 						"/>
						<polygon class="st5" points="152.5,-88.5 89.8,-9.5 90.1,-6.7 155.3,-88.8 						"/>
						<polygon class="st5" points="175.7,9.5 190.5,-9.1 190.1,-11.9 172.9,9.8 						"/>
						<polygon class="st5" points="81.7,-80.4 81.8,-79 83.1,-80.6 						"/>
					</g>
				</g>
				<g class="st2">
					<g class="st3">
						
							<rect x="98.4" y="13" transform="matrix(0.9935 -0.1134 0.1134 0.9935 -6.1844 17.2366)" class="st4" width="100" height="100"/>
						<polygon class="st4" points="148.6,12.6 99.4,74.6 100.1,80.8 154.8,11.9 						"/>
						<polygon class="st4" points="139.6,13.6 98.3,65.5 99,71.7 145.8,12.9 						"/>
						<polygon class="st4" points="130.5,14.7 97.3,56.5 98,62.7 136.8,14 						"/>
						<polygon class="st4" points="103.4,17.8 94.2,29.4 94.9,35.6 109.7,17.1 						"/>
						<polygon class="st4" points="94.4,18.8 93.2,20.4 93.9,26.6 100.6,18.1 						"/>
						<polygon class="st4" points="121.5,15.7 96.3,47.5 97,53.7 127.7,15 						"/>
						<polygon class="st4" points="112.5,16.7 95.2,38.4 95.9,44.6 118.7,16 						"/>
						<polygon class="st4" points="184.7,8.5 103.5,110.7 104.2,116.9 191,7.8 						"/>
						<polygon class="st4" points="157.6,11.6 100.4,83.6 101.1,89.8 163.9,10.9 						"/>
						<polygon class="st4" points="148.1,113.3 197.4,51.4 196.6,45.1 141.9,114 						"/>
						<polygon class="st4" points="166.2,111.2 199.4,69.4 198.7,63.2 160,112 						"/>
						<polygon class="st4" points="139.1,114.3 196.3,42.3 195.6,36.1 132.9,115.1 						"/>
						<polygon class="st4" points="157.1,112.3 198.4,60.4 197.7,54.2 150.9,113 						"/>
						<polygon class="st4" points="193.2,15.2 192.5,9 105.8,118.1 112,117.4 						"/>
						<polygon class="st4" points="130,115.4 195.3,33.3 194.6,27.1 123.8,116.1 						"/>
						<polygon class="st4" points="121,116.4 194.3,24.3 193.6,18 114.8,117.1 						"/>
						<polygon class="st4" points="175.2,110.2 200.5,78.5 199.7,72.2 169,110.9 						"/>
						<polygon class="st4" points="202.3,107.1 203.5,105.6 202.8,99.3 196.1,107.8 						"/>
						<polygon class="st4" points="184.2,109.2 201.5,87.5 200.8,81.3 178,109.9 						"/>
						<polygon class="st4" points="193.3,108.2 202.5,96.5 201.8,90.3 187,108.9 						"/>
						<polygon class="st4" points="175.7,9.5 102.5,101.6 103.2,107.9 181.9,8.8 						"/>
						<polygon class="st4" points="166.7,10.5 101.4,92.6 102.1,98.8 172.9,9.8 						"/>
						<polygon class="st5" points="141.9,114 196.6,45.1 196.3,42.3 139.1,114.3 						"/>
						<polygon class="st5" points="160,112 198.7,63.2 198.4,60.4 157.1,112.3 						"/>
						<polygon class="st5" points="145.8,12.9 99,71.7 99.4,74.6 148.6,12.6 						"/>
						<polygon class="st5" points="127.7,15 97,53.7 97.3,56.5 130.5,14.7 						"/>
						<polygon class="st5" points="109.7,17.1 94.9,35.6 95.2,38.4 112.5,16.7 						"/>
						<polygon class="st5" points="150.9,113 197.7,54.2 197.4,51.4 148.1,113.3 						"/>
						<polygon class="st5" points="118.7,16 95.9,44.6 96.3,47.5 121.5,15.7 						"/>
						<polygon class="st5" points="114.8,117.1 193.6,18 193.2,15.2 112,117.4 						"/>
						<polygon class="st5" points="136.8,14 98,62.7 98.3,65.5 139.6,13.6 						"/>
						<polygon class="st5" points="132.9,115.1 195.6,36.1 195.3,33.3 130,115.4 						"/>
						<polygon class="st5" points="123.8,116.1 194.6,27.1 194.3,24.3 121,116.4 						"/>
						<polygon class="st5" points="192.4,7.6 191,7.8 104.2,116.9 104.4,118.3 105.8,118.1 192.5,9 						"/>
						<polygon class="st5" points="154.8,11.9 100.1,80.8 100.4,83.6 157.6,11.6 						"/>
						<polygon class="st5" points="100.6,18.1 93.9,26.6 94.2,29.4 103.4,17.8 						"/>
						<polygon class="st5" points="172.9,9.8 102.1,98.8 102.5,101.6 175.7,9.5 						"/>
						<polygon class="st5" points="196.1,107.8 202.8,99.3 202.5,96.5 193.3,108.2 						"/>
						<polygon class="st5" points="181.9,8.8 103.2,107.9 103.5,110.7 184.7,8.5 						"/>
						<polygon class="st5" points="203.7,107 203.5,105.6 202.3,107.1 						"/>
						<polygon class="st5" points="178,109.9 200.8,81.3 200.5,78.5 175.2,110.2 						"/>
						<polygon class="st5" points="169,110.9 199.7,72.2 199.4,69.4 166.2,111.2 						"/>
						<polygon class="st5" points="163.9,10.9 101.1,89.8 101.4,92.6 166.7,10.5 						"/>
						<polygon class="st5" points="187,108.9 201.8,90.3 201.5,87.5 184.2,109.2 						"/>
						<polygon class="st5" points="93,19 93.2,20.4 94.4,18.8 						"/>
					</g>
				</g>
				<g class="st2">
					<g class="st3">
						
							<rect x="109.7" y="112.3" transform="matrix(0.9935 -0.1134 0.1134 0.9935 -17.3822 19.1649)" class="st4" width="100" height="100"/>
						<polygon class="st4" points="160,112 110.7,173.9 111.4,180.1 166.2,111.2 						"/>
						<polygon class="st4" points="150.9,113 109.7,164.9 110.4,171.1 157.1,112.3 						"/>
						<polygon class="st4" points="141.9,114 108.6,155.8 109.3,162.1 148.1,113.3 						"/>
						<polygon class="st4" points="114.8,117.1 105.5,128.7 106.3,135 121,116.4 						"/>
						<polygon class="st4" points="105.8,118.1 104.5,119.7 105.2,125.9 112,117.4 						"/>
						<polygon class="st4" points="132.9,115.1 107.6,146.8 108.3,153 139.1,114.3 						"/>
						<polygon class="st4" points="123.8,116.1 106.6,137.8 107.3,144 130,115.4 						"/>
						<polygon class="st4" points="196.1,107.8 114.8,210 115.5,216.3 202.3,107.1 						"/>
						<polygon class="st4" points="169,110.9 111.7,182.9 112.4,189.2 175.2,110.2 						"/>
						<polygon class="st4" points="159.5,212.7 208.7,150.7 208,144.5 153.2,213.4 						"/>
						<polygon class="st4" points="177.5,210.6 210.8,168.8 210.1,162.6 171.3,211.3 						"/>
						<polygon class="st4" points="150.4,213.7 207.7,141.7 207,135.5 144.2,214.4 						"/>
						<polygon class="st4" points="168.5,211.6 209.7,159.8 209,153.5 162.3,212.3 						"/>
						<polygon class="st4" points="204.6,114.6 203.9,108.4 117.1,217.5 123.3,216.8 						"/>
						<polygon class="st4" points="141.4,214.7 206.6,132.7 205.9,126.4 135.2,215.4 						"/>
						<polygon class="st4" points="132.4,215.8 205.6,123.6 204.9,117.4 126.1,216.5 						"/>
						<polygon class="st4" points="186.6,209.6 211.8,177.8 211.1,171.6 180.3,210.3 						"/>
						<polygon class="st4" points="213.6,206.5 214.9,204.9 214.2,198.7 207.4,207.2 						"/>
						<polygon class="st4" points="195.6,208.5 212.8,186.8 212.1,180.6 189.4,209.3 						"/>
						<polygon class="st4" points="204.6,207.5 213.9,195.9 213.1,189.7 198.4,208.2 						"/>
						<polygon class="st4" points="187,108.9 113.8,201 114.5,207.2 193.3,108.2 						"/>
						<polygon class="st4" points="178,109.9 112.8,192 113.5,198.2 184.2,109.2 						"/>
						<polygon class="st5" points="153.2,213.4 208,144.5 207.7,141.7 150.4,213.7 						"/>
						<polygon class="st5" points="171.3,211.3 210.1,162.6 209.7,159.8 168.5,211.6 						"/>
						<polygon class="st5" points="157.1,112.3 110.4,171.1 110.7,173.9 160,112 						"/>
						<polygon class="st5" points="139.1,114.3 108.3,153 108.6,155.8 141.9,114 						"/>
						<polygon class="st5" points="121,116.4 106.3,135 106.6,137.8 123.8,116.1 						"/>
						<polygon class="st5" points="162.3,212.3 209,153.5 208.7,150.7 159.5,212.7 						"/>
						<polygon class="st5" points="130,115.4 107.3,144 107.6,146.8 132.9,115.1 						"/>
						<polygon class="st5" points="126.1,216.5 204.9,117.4 204.6,114.6 123.3,216.8 						"/>
						<polygon class="st5" points="148.1,113.3 109.3,162.1 109.7,164.9 150.9,113 						"/>
						<polygon class="st5" points="144.2,214.4 207,135.5 206.6,132.7 141.4,214.7 						"/>
						<polygon class="st5" points="135.2,215.4 205.9,126.4 205.6,123.6 132.4,215.8 						"/>
						<polygon class="st5" points="203.7,107 202.3,107.1 115.5,216.3 115.7,217.7 117.1,217.5 203.9,108.4 						"/>
						<polygon class="st5" points="166.2,111.2 111.4,180.1 111.7,182.9 169,110.9 						"/>
						<polygon class="st5" points="112,117.4 105.2,125.9 105.5,128.7 114.8,117.1 						"/>
						<polygon class="st5" points="184.2,109.2 113.5,198.2 113.8,201 187,108.9 						"/>
						<polygon class="st5" points="207.4,207.2 214.2,198.7 213.9,195.9 204.6,207.5 						"/>
						<polygon class="st5" points="193.3,108.2 114.5,207.2 114.8,210 196.1,107.8 						"/>
						<polygon class="st5" points="215.1,206.3 214.9,204.9 213.6,206.5 						"/>
						<polygon class="st5" points="189.4,209.3 212.1,180.6 211.8,177.8 186.6,209.6 						"/>
						<polygon class="st5" points="180.3,210.3 211.1,171.6 210.8,168.8 177.5,210.6 						"/>
						<polygon class="st5" points="175.2,110.2 112.4,189.2 112.8,192 178,109.9 						"/>
						<polygon class="st5" points="198.4,208.2 213.1,189.7 212.8,186.8 195.6,208.5 						"/>
						<polygon class="st5" points="104.4,118.3 104.5,119.7 105.8,118.1 						"/>
					</g>
				</g>
				<g class="st2">
					<g class="st3">
						
							<rect x="121" y="211.7" transform="matrix(0.9935 -0.1134 0.1134 0.9935 -28.58 21.0932)" class="st4" width="100" height="100"/>
						<polygon class="st4" points="171.3,211.3 122,273.3 122.8,279.5 177.5,210.6 						"/>
						<polygon class="st4" points="162.3,212.3 121,264.2 121.7,270.4 168.5,211.6 						"/>
						<polygon class="st4" points="153.2,213.4 120,255.2 120.7,261.4 159.5,212.7 						"/>
						<polygon class="st4" points="126.1,216.5 116.9,228.1 117.6,234.3 132.4,215.8 						"/>
						<polygon class="st4" points="117.1,217.5 115.9,219.1 116.6,225.3 123.3,216.8 						"/>
						<polygon class="st4" points="144.2,214.4 119,246.2 119.7,252.4 150.4,213.7 						"/>
						<polygon class="st4" points="135.2,215.4 117.9,237.1 118.6,243.4 141.4,214.7 						"/>
						<polygon class="st4" points="207.4,207.2 126.2,309.4 126.9,315.6 213.6,206.5 						"/>
						<polygon class="st4" points="180.3,210.3 123.1,282.3 123.8,288.5 186.6,209.6 						"/>
						<polygon class="st4" points="170.8,312 220,250.1 219.3,243.9 164.6,312.7 						"/>
						<polygon class="st4" points="188.9,310 222.1,268.1 221.4,261.9 182.6,310.7 						"/>
						<polygon class="st4" points="161.8,313.1 219,241 218.3,234.8 155.5,313.8 						"/>
						<polygon class="st4" points="179.8,311 221.1,259.1 220.4,252.9 173.6,311.7 						"/>
						<polygon class="st4" points="215.9,213.9 215.2,207.7 128.4,316.9 134.7,316.1 						"/>
						<polygon class="st4" points="152.7,314.1 218,232 217.3,225.8 146.5,314.8 						"/>
						<polygon class="st4" points="143.7,315.1 217,223 216.2,216.8 137.5,315.8 						"/>
						<polygon class="st4" points="197.9,308.9 223.1,277.2 222.4,270.9 191.7,309.6 						"/>
						<polygon class="st4" points="225,305.8 226.2,304.3 225.5,298 218.8,306.5 						"/>
						<polygon class="st4" points="206.9,307.9 224.2,286.2 223.5,280 200.7,308.6 						"/>
						<polygon class="st4" points="216,306.9 225.2,295.2 224.5,289 209.7,307.6 						"/>
						<polygon class="st4" points="198.4,208.2 125.1,300.4 125.8,306.6 204.6,207.5 						"/>
						<polygon class="st4" points="189.4,209.3 124.1,291.3 124.8,297.5 195.6,208.5 						"/>
						<polygon class="st5" points="164.6,312.7 219.3,243.9 219,241 161.8,313.1 						"/>
						<polygon class="st5" points="182.6,310.7 221.4,261.9 221.1,259.1 179.8,311 						"/>
						<polygon class="st5" points="168.5,211.6 121.7,270.4 122,273.3 171.3,211.3 						"/>
						<polygon class="st5" points="150.4,213.7 119.7,252.4 120,255.2 153.2,213.4 						"/>
						<polygon class="st5" points="132.4,215.8 117.6,234.3 117.9,237.1 135.2,215.4 						"/>
						<polygon class="st5" points="173.6,311.7 220.4,252.9 220,250.1 170.8,312 						"/>
						<polygon class="st5" points="141.4,214.7 118.6,243.4 119,246.2 144.2,214.4 						"/>
						<polygon class="st5" points="137.5,315.8 216.2,216.8 215.9,213.9 134.7,316.1 						"/>
						<polygon class="st5" points="159.5,212.7 120.7,261.4 121,264.2 162.3,212.3 						"/>
						<polygon class="st5" points="155.5,313.8 218.3,234.8 218,232 152.7,314.1 						"/>
						<polygon class="st5" points="146.5,314.8 217.3,225.8 217,223 143.7,315.1 						"/>
						<polygon class="st5" points="215.1,206.3 213.6,206.5 126.9,315.6 127,317 128.4,316.9 215.2,207.7 						"/>
						<polygon class="st5" points="177.5,210.6 122.8,279.5 123.1,282.3 180.3,210.3 						"/>
						<polygon class="st5" points="123.3,216.8 116.6,225.3 116.9,228.1 126.1,216.5 						"/>
						<polygon class="st5" points="195.6,208.5 124.8,297.5 125.1,300.4 198.4,208.2 						"/>
						<polygon class="st5" points="218.8,306.5 225.5,298 225.2,295.2 216,306.9 						"/>
						<polygon class="st5" points="204.6,207.5 125.8,306.6 126.2,309.4 207.4,207.2 						"/>
						<polygon class="st5" points="226.4,305.7 226.2,304.3 225,305.8 						"/>
						<polygon class="st5" points="200.7,308.6 223.5,280 223.1,277.2 197.9,308.9 						"/>
						<polygon class="st5" points="191.7,309.6 222.4,270.9 222.1,268.1 188.9,310 						"/>
						<polygon class="st5" points="186.6,209.6 123.8,288.5 124.1,291.3 189.4,209.3 						"/>
						<polygon class="st5" points="209.7,307.6 224.5,289 224.2,286.2 206.9,307.9 						"/>
						<polygon class="st5" points="115.7,217.7 115.9,219.1 117.1,217.5 						"/>
					</g>
				</g>
				<g class="st2">
					<g class="st3">
						
							<rect x="132.4" y="311" transform="matrix(0.9935 -0.1134 0.1134 0.9935 -39.7779 23.0215)" class="st4" width="100" height="100"/>
						<polygon class="st4" points="182.6,310.7 133.4,372.6 134.1,378.8 188.9,310 						"/>
						<polygon class="st4" points="173.6,311.7 132.4,363.6 133.1,369.8 179.8,311 						"/>
						<polygon class="st4" points="164.6,312.7 131.3,354.5 132,360.8 170.8,312 						"/>
						<polygon class="st4" points="137.5,315.8 128.2,327.5 128.9,333.7 143.7,315.1 						"/>
						<polygon class="st4" points="128.4,316.9 127.2,318.4 127.9,324.6 134.7,316.1 						"/>
						<polygon class="st4" points="155.5,313.8 130.3,345.5 131,351.7 161.8,313.1 						"/>
						<polygon class="st4" points="146.5,314.8 129.3,336.5 130,342.7 152.7,314.1 						"/>
						<polygon class="st4" points="218.8,306.5 137.5,408.7 138.2,415 225,305.8 						"/>
						<polygon class="st4" points="191.7,309.6 134.4,381.6 135.1,387.9 197.9,308.9 						"/>
						<polygon class="st4" points="182.1,411.4 231.4,349.4 230.7,343.2 175.9,412.1 						"/>
						<polygon class="st4" points="200.2,409.3 233.5,367.5 232.7,361.3 194,410 						"/>
						<polygon class="st4" points="173.1,412.4 230.4,340.4 229.7,334.2 166.9,413.1 						"/>
						<polygon class="st4" points="191.2,410.3 232.4,358.5 231.7,352.2 185,411.1 						"/>
						<polygon class="st4" points="227.3,313.3 226.6,307.1 139.8,416.2 146,415.5 						"/>
						<polygon class="st4" points="164.1,413.4 229.3,331.4 228.6,325.1 157.9,414.1 						"/>
						<polygon class="st4" points="155,414.5 228.3,322.3 227.6,316.1 148.8,415.2 						"/>
						<polygon class="st4" points="209.2,408.3 234.5,376.5 233.8,370.3 203,409 						"/>
						<polygon class="st4" points="236.3,405.2 237.6,403.6 236.9,397.4 230.1,405.9 						"/>
						<polygon class="st4" points="218.3,407.2 235.5,385.6 234.8,379.3 212,408 						"/>
						<polygon class="st4" points="227.3,406.2 236.5,394.6 235.8,388.4 221.1,406.9 						"/>
						<polygon class="st4" points="209.7,307.6 136.5,399.7 137.2,405.9 216,306.9 						"/>
						<polygon class="st4" points="200.7,308.6 135.5,390.7 136.2,396.9 206.9,307.9 						"/>
						<polygon class="st5" points="175.9,412.1 230.7,343.2 230.4,340.4 173.1,412.4 						"/>
						<polygon class="st5" points="194,410 232.7,361.3 232.4,358.5 191.2,410.3 						"/>
						<polygon class="st5" points="179.8,311 133.1,369.8 133.4,372.6 182.6,310.7 						"/>
						<polygon class="st5" points="161.8,313.1 131,351.7 131.3,354.5 164.6,312.7 						"/>
						<polygon class="st5" points="143.7,315.1 128.9,333.7 129.3,336.5 146.5,314.8 						"/>
						<polygon class="st5" points="185,411.1 231.7,352.2 231.4,349.4 182.1,411.4 						"/>
						<polygon class="st5" points="152.7,314.1 130,342.7 130.3,345.5 155.5,313.8 						"/>
						<polygon class="st5" points="148.8,415.2 227.6,316.1 227.3,313.3 146,415.5 						"/>
						<polygon class="st5" points="170.8,312 132,360.8 132.4,363.6 173.6,311.7 						"/>
						<polygon class="st5" points="166.9,413.1 229.7,334.2 229.3,331.4 164.1,413.4 						"/>
						<polygon class="st5" points="157.9,414.1 228.6,325.1 228.3,322.3 155,414.5 						"/>
						<polygon class="st5" points="226.4,305.7 225,305.8 138.2,415 138.4,416.4 139.8,416.2 226.6,307.1 						"/>
						<polygon class="st5" points="188.9,310 134.1,378.8 134.4,381.6 191.7,309.6 						"/>
						<polygon class="st5" points="134.7,316.1 127.9,324.6 128.2,327.5 137.5,315.8 						"/>
						<polygon class="st5" points="206.9,307.9 136.2,396.9 136.5,399.7 209.7,307.6 						"/>
						<polygon class="st5" points="230.1,405.9 236.9,397.4 236.5,394.6 227.3,406.2 						"/>
						<polygon class="st5" points="216,306.9 137.2,405.9 137.5,408.7 218.8,306.5 						"/>
						<polygon class="st5" points="237.7,405 237.6,403.6 236.3,405.2 						"/>
						<polygon class="st5" points="212,408 234.8,379.3 234.5,376.5 209.2,408.3 						"/>
						<polygon class="st5" points="203,409 233.8,370.3 233.5,367.5 200.2,409.3 						"/>
						<polygon class="st5" points="197.9,308.9 135.1,387.9 135.5,390.7 200.7,308.6 						"/>
						<polygon class="st5" points="221.1,406.9 235.8,388.4 235.5,385.6 218.3,407.2 						"/>
						<polygon class="st5" points="127,317 127.2,318.4 128.4,316.9 						"/>
					</g>
				</g>
				<g class="st2">
					<g class="st3">
						
							<rect x="143.7" y="410.4" transform="matrix(0.9935 -0.1134 0.1134 0.9935 -50.9757 24.9498)" class="st4" width="100" height="100"/>
						<polygon class="st4" points="194,410 144.7,472 145.4,478.2 200.2,409.3 						"/>
						<polygon class="st4" points="185,411.1 143.7,462.9 144.4,469.2 191.2,410.3 						"/>
						<polygon class="st4" points="175.9,412.1 142.7,453.9 143.4,460.1 182.1,411.4 						"/>
						<polygon class="st4" points="148.8,415.2 139.6,426.8 140.3,433 155,414.5 						"/>
						<polygon class="st4" points="139.8,416.2 138.5,417.8 139.3,424 146,415.5 						"/>
						<polygon class="st4" points="166.9,413.1 141.6,444.9 142.4,451.1 173.1,412.4 						"/>
						<polygon class="st4" points="157.9,414.1 140.6,435.8 141.3,442.1 164.1,413.4 						"/>
						<polygon class="st4" points="230.1,405.9 148.9,508.1 149.6,514.3 236.3,405.2 						"/>
						<polygon class="st4" points="203,409 145.8,481 146.5,487.2 209.2,408.3 						"/>
						<polygon class="st4" points="193.5,510.7 242.7,448.8 242,442.6 187.3,511.4 						"/>
						<polygon class="st4" points="211.6,508.7 244.8,466.8 244.1,460.6 205.3,509.4 						"/>
						<polygon class="st4" points="184.5,511.8 241.7,439.7 241,433.5 178.2,512.5 						"/>
						<polygon class="st4" points="202.5,509.7 243.8,457.8 243.1,451.6 196.3,510.4 						"/>
						<polygon class="st4" points="238.6,412.7 237.9,406.4 151.1,515.6 157.4,514.9 						"/>
						<polygon class="st4" points="175.4,512.8 240.7,430.7 240,424.5 169.2,513.5 						"/>
						<polygon class="st4" points="166.4,513.8 239.6,421.7 238.9,415.5 160.2,514.5 						"/>
						<polygon class="st4" points="220.6,507.6 245.8,475.9 245.1,469.7 214.4,508.3 						"/>
						<polygon class="st4" points="247.7,504.5 248.9,503 248.2,496.8 241.5,505.3 						"/>
						<polygon class="st4" points="229.6,506.6 246.9,484.9 246.2,478.7 223.4,507.3 						"/>
						<polygon class="st4" points="238.6,505.6 247.9,493.9 247.2,487.7 232.4,506.3 						"/>
						<polygon class="st4" points="221.1,406.9 147.8,499.1 148.5,505.3 227.3,406.2 						"/>
						<polygon class="st4" points="212,408 146.8,490 147.5,496.3 218.3,407.2 						"/>
						<polygon class="st5" points="187.3,511.4 242,442.6 241.7,439.7 184.5,511.8 						"/>
						<polygon class="st5" points="205.3,509.4 244.1,460.6 243.8,457.8 202.5,509.7 						"/>
						<polygon class="st5" points="191.2,410.3 144.4,469.2 144.7,472 194,410 						"/>
						<polygon class="st5" points="173.1,412.4 142.4,451.1 142.7,453.9 175.9,412.1 						"/>
						<polygon class="st5" points="155,414.5 140.3,433 140.6,435.8 157.9,414.1 						"/>
						<polygon class="st5" points="196.3,510.4 243.1,451.6 242.7,448.8 193.5,510.7 						"/>
						<polygon class="st5" points="164.1,413.4 141.3,442.1 141.6,444.9 166.9,413.1 						"/>
						<polygon class="st5" points="160.2,514.5 238.9,415.5 238.6,412.7 157.4,514.9 						"/>
						<polygon class="st5" points="182.1,411.4 143.4,460.1 143.7,462.9 185,411.1 						"/>
						<polygon class="st5" points="178.2,512.5 241,433.5 240.7,430.7 175.4,512.8 						"/>
						<polygon class="st5" points="169.2,513.5 240,424.5 239.6,421.7 166.4,513.8 						"/>
						<polygon class="st5" points="237.7,405 236.3,405.2 149.6,514.3 149.7,515.7 151.1,515.6 237.9,406.4 						"/>
						<polygon class="st5" points="200.2,409.3 145.4,478.2 145.8,481 203,409 						"/>
						<polygon class="st5" points="146,415.5 139.3,424 139.6,426.8 148.8,415.2 						"/>
						<polygon class="st5" points="218.3,407.2 147.5,496.3 147.8,499.1 221.1,406.9 						"/>
						<polygon class="st5" points="241.5,505.3 248.2,496.8 247.9,493.9 238.6,505.6 						"/>
						<polygon class="st5" points="227.3,406.2 148.5,505.3 148.9,508.1 230.1,405.9 						"/>
						<polygon class="st5" points="249.1,504.4 248.9,503 247.7,504.5 						"/>
						<polygon class="st5" points="223.4,507.3 246.2,478.7 245.8,475.9 220.6,507.6 						"/>
						<polygon class="st5" points="214.4,508.3 245.1,469.7 244.8,466.8 211.6,508.7 						"/>
						<polygon class="st5" points="209.2,408.3 146.5,487.2 146.8,490 212,408 						"/>
						<polygon class="st5" points="232.4,506.3 247.2,487.7 246.9,484.9 229.6,506.6 						"/>
						<polygon class="st5" points="138.4,416.4 138.5,417.8 139.8,416.2 						"/>
					</g>
				</g>
				<g class="st2">
					<g class="st3">
						
							<rect x="-12.3" y="-75.1" transform="matrix(0.9935 -0.1134 0.1134 0.9935 3.0851 4.1104)" class="st4" width="100" height="100"/>
						<polygon class="st4" points="37.9,-75.4 -11.3,-13.5 -10.6,-7.2 44.1,-76.1 						"/>
						<polygon class="st4" points="28.9,-74.4 -12.4,-22.5 -11.7,-16.3 35.1,-75.1 						"/>
						<polygon class="st4" points="19.8,-73.3 -13.4,-31.5 -12.7,-25.3 26.1,-74.1 						"/>
						<polygon class="st4" points="-7.3,-70.2 -16.5,-58.6 -15.8,-52.4 -1,-71 						"/>
						<polygon class="st4" points="-16.3,-69.2 -17.5,-67.7 -16.8,-61.4 -10.1,-69.9 						"/>
						<polygon class="st4" points="10.8,-72.3 -14.4,-40.6 -13.7,-34.3 17,-73 						"/>
						<polygon class="st4" points="1.8,-71.3 -15.5,-49.6 -14.8,-43.4 8,-72 						"/>
						<polygon class="st4" points="74,-79.5 -7.2,22.7 -6.5,28.9 80.3,-80.2 						"/>
						<polygon class="st4" points="46.9,-76.4 -10.3,-4.4 -9.6,1.8 53.2,-77.1 						"/>
						<polygon class="st4" points="37.4,25.3 86.7,-36.6 85.9,-42.9 31.2,26 						"/>
						<polygon class="st4" points="55.5,23.2 88.7,-18.6 88,-24.8 49.3,23.9 						"/>
						<polygon class="st4" points="28.4,26.3 85.6,-45.7 84.9,-51.9 22.2,27 						"/>
						<polygon class="st4" points="46.4,24.3 87.7,-27.6 87,-33.8 40.2,25 						"/>
						<polygon class="st4" points="82.5,-72.8 81.8,-79 -4.9,30.1 1.3,29.4 						"/>
						<polygon class="st4" points="19.3,27.4 84.6,-54.7 83.9,-60.9 13.1,28.1 						"/>
						<polygon class="st4" points="10.3,28.4 83.6,-63.7 82.9,-70 4.1,29.1 						"/>
						<polygon class="st4" points="64.5,22.2 89.8,-9.5 89,-15.8 58.3,22.9 						"/>
						<polygon class="st4" points="91.6,19.1 92.8,17.5 92.1,11.3 85.4,19.8 						"/>
						<polygon class="st4" points="73.5,21.2 90.8,-0.5 90.1,-6.7 67.3,21.9 						"/>
						<polygon class="st4" points="82.6,20.1 91.8,8.5 91.1,2.3 76.3,20.9 						"/>
						<polygon class="st4" points="65,-78.5 -8.2,13.6 -7.5,19.9 71.2,-79.2 						"/>
						<polygon class="st4" points="56,-77.5 -9.3,4.6 -8.6,10.8 62.2,-78.2 						"/>
						<polygon class="st5" points="31.2,26 85.9,-42.9 85.6,-45.7 28.4,26.3 						"/>
						<polygon class="st5" points="49.3,23.9 88,-24.8 87.7,-27.6 46.4,24.3 						"/>
						<polygon class="st5" points="35.1,-75.1 -11.7,-16.3 -11.3,-13.5 37.9,-75.4 						"/>
						<polygon class="st5" points="17,-73 -13.7,-34.3 -13.4,-31.5 19.8,-73.3 						"/>
						<polygon class="st5" points="-1,-71 -15.8,-52.4 -15.5,-49.6 1.8,-71.3 						"/>
						<polygon class="st5" points="40.2,25 87,-33.8 86.7,-36.6 37.4,25.3 						"/>
						<polygon class="st5" points="8,-72 -14.8,-43.4 -14.4,-40.6 10.8,-72.3 						"/>
						<polygon class="st5" points="4.1,29.1 82.9,-70 82.5,-72.8 1.3,29.4 						"/>
						<polygon class="st5" points="26.1,-74.1 -12.7,-25.3 -12.4,-22.5 28.9,-74.4 						"/>
						<polygon class="st5" points="22.2,27 84.9,-51.9 84.6,-54.7 19.3,27.4 						"/>
						<polygon class="st5" points="13.1,28.1 83.9,-60.9 83.6,-63.7 10.3,28.4 						"/>
						<polygon class="st5" points="81.7,-80.4 80.3,-80.2 -6.5,28.9 -6.3,30.3 -4.9,30.1 81.8,-79 						"/>
						<polygon class="st5" points="44.1,-76.1 -10.6,-7.2 -10.3,-4.4 46.9,-76.4 						"/>
						<polygon class="st5" points="-10.1,-69.9 -16.8,-61.4 -16.5,-58.6 -7.3,-70.2 						"/>
						<polygon class="st5" points="62.2,-78.2 -8.6,10.8 -8.2,13.6 65,-78.5 						"/>
						<polygon class="st5" points="85.4,19.8 92.1,11.3 91.8,8.5 82.6,20.1 						"/>
						<polygon class="st5" points="71.2,-79.2 -7.5,19.9 -7.2,22.7 74,-79.5 						"/>
						<polygon class="st5" points="93,19 92.8,17.5 91.6,19.1 						"/>
						<polygon class="st5" points="67.3,21.9 90.1,-6.7 89.8,-9.5 64.5,22.2 						"/>
						<polygon class="st5" points="58.3,22.9 89,-15.8 88.7,-18.6 55.5,23.2 						"/>
						<polygon class="st5" points="53.2,-77.1 -9.6,1.8 -9.3,4.6 56,-77.5 						"/>
						<polygon class="st5" points="76.3,20.9 91.1,2.3 90.8,-0.5 73.5,21.2 						"/>
						<polygon class="st5" points="-17.7,-69.1 -17.5,-67.7 -16.3,-69.2 						"/>
					</g>
				</g>
				<g class="st2">
					<g class="st3">
						
							<rect x="-1" y="24.3" transform="matrix(0.9935 -0.1134 0.1134 0.9935 -8.1127 6.0387)" class="st4" width="100" height="100"/>
						<polygon class="st4" points="49.3,23.9 0,85.9 0.7,92.1 55.5,23.2 						"/>
						<polygon class="st4" points="40.2,25 -1,76.9 -0.3,83.1 46.4,24.3 						"/>
						<polygon class="st4" points="31.2,26 -2.1,67.8 -1.3,74.1 37.4,25.3 						"/>
						<polygon class="st4" points="4.1,29.1 -5.2,40.7 -4.4,47 10.3,28.4 						"/>
						<polygon class="st4" points="-4.9,30.1 -6.2,31.7 -5.5,37.9 1.3,29.4 						"/>
						<polygon class="st4" points="22.2,27 -3.1,58.8 -2.4,65 28.4,26.3 						"/>
						<polygon class="st4" points="13.1,28.1 -4.1,49.8 -3.4,56 19.3,27.4 						"/>
						<polygon class="st4" points="85.4,19.8 4.1,122 4.8,128.2 91.6,19.1 						"/>
						<polygon class="st4" points="58.3,22.9 1,94.9 1.7,101.1 64.5,22.2 						"/>
						<polygon class="st4" points="48.8,124.7 98,62.7 97.3,56.5 42.5,125.4 						"/>
						<polygon class="st4" points="66.8,122.6 100.1,80.8 99.4,74.6 60.6,123.3 						"/>
						<polygon class="st4" points="39.7,125.7 97,53.7 96.3,47.5 33.5,126.4 						"/>
						<polygon class="st4" points="57.8,123.6 99,71.7 98.3,65.5 51.6,124.3 						"/>
						<polygon class="st4" points="93.9,26.6 93.2,20.4 6.4,129.5 12.6,128.8 						"/>
						<polygon class="st4" points="30.7,126.7 95.9,44.6 95.2,38.4 24.5,127.4 						"/>
						<polygon class="st4" points="21.7,127.7 94.9,35.6 94.2,29.4 15.4,128.5 						"/>
						<polygon class="st4" points="75.9,121.6 101.1,89.8 100.4,83.6 69.6,122.3 						"/>
						<polygon class="st4" points="102.9,118.5 104.2,116.9 103.5,110.7 96.7,119.2 						"/>
						<polygon class="st4" points="84.9,120.5 102.1,98.8 101.4,92.6 78.7,121.2 						"/>
						<polygon class="st4" points="93.9,119.5 103.2,107.9 102.5,101.6 87.7,120.2 						"/>
						<polygon class="st4" points="76.3,20.9 3.1,113 3.8,119.2 82.6,20.1 						"/>
						<polygon class="st4" points="67.3,21.9 2.1,104 2.8,110.2 73.5,21.2 						"/>
						<polygon class="st5" points="42.5,125.4 97.3,56.5 97,53.7 39.7,125.7 						"/>
						<polygon class="st5" points="60.6,123.3 99.4,74.6 99,71.7 57.8,123.6 						"/>
						<polygon class="st5" points="46.4,24.3 -0.3,83.1 0,85.9 49.3,23.9 						"/>
						<polygon class="st5" points="28.4,26.3 -2.4,65 -2.1,67.8 31.2,26 						"/>
						<polygon class="st5" points="10.3,28.4 -4.4,47 -4.1,49.8 13.1,28.1 						"/>
						<polygon class="st5" points="51.6,124.3 98.3,65.5 98,62.7 48.8,124.7 						"/>
						<polygon class="st5" points="19.3,27.4 -3.4,56 -3.1,58.8 22.2,27 						"/>
						<polygon class="st5" points="15.4,128.5 94.2,29.4 93.9,26.6 12.6,128.8 						"/>
						<polygon class="st5" points="37.4,25.3 -1.3,74.1 -1,76.9 40.2,25 						"/>
						<polygon class="st5" points="33.5,126.4 96.3,47.5 95.9,44.6 30.7,126.7 						"/>
						<polygon class="st5" points="24.5,127.4 95.2,38.4 94.9,35.6 21.7,127.7 						"/>
						<polygon class="st5" points="93,19 91.6,19.1 4.8,128.2 5,129.7 6.4,129.5 93.2,20.4 						"/>
						<polygon class="st5" points="55.5,23.2 0.7,92.1 1,94.9 58.3,22.9 						"/>
						<polygon class="st5" points="1.3,29.4 -5.5,37.9 -5.2,40.7 4.1,29.1 						"/>
						<polygon class="st5" points="73.5,21.2 2.8,110.2 3.1,113 76.3,20.9 						"/>
						<polygon class="st5" points="96.7,119.2 103.5,110.7 103.2,107.9 93.9,119.5 						"/>
						<polygon class="st5" points="82.6,20.1 3.8,119.2 4.1,122 85.4,19.8 						"/>
						<polygon class="st5" points="104.4,118.3 104.2,116.9 102.9,118.5 						"/>
						<polygon class="st5" points="78.7,121.2 101.4,92.6 101.1,89.8 75.9,121.6 						"/>
						<polygon class="st5" points="69.6,122.3 100.4,83.6 100.1,80.8 66.8,122.6 						"/>
						<polygon class="st5" points="64.5,22.2 1.7,101.1 2.1,104 67.3,21.9 						"/>
						<polygon class="st5" points="87.7,120.2 102.5,101.6 102.1,98.8 84.9,120.5 						"/>
						<polygon class="st5" points="-6.3,30.3 -6.2,31.7 -4.9,30.1 						"/>
					</g>
				</g>
				<g class="st2">
					<g class="st3">
						
							<rect x="10.3" y="123.7" transform="matrix(0.9935 -0.1134 0.1134 0.9935 -19.3105 7.967)" class="st4" width="100" height="100"/>
						<polygon class="st4" points="60.6,123.3 11.3,185.2 12.1,191.5 66.8,122.6 						"/>
						<polygon class="st4" points="51.6,124.3 10.3,176.2 11,182.4 57.8,123.6 						"/>
						<polygon class="st4" points="42.5,125.4 9.3,167.2 10,173.4 48.8,124.7 						"/>
						<polygon class="st4" points="15.4,128.5 6.2,140.1 6.9,146.3 21.7,127.7 						"/>
						<polygon class="st4" points="6.4,129.5 5.2,131.1 5.9,137.3 12.6,128.8 						"/>
						<polygon class="st4" points="33.5,126.4 8.3,158.2 9,164.4 39.7,125.7 						"/>
						<polygon class="st4" points="24.5,127.4 7.2,149.1 7.9,155.3 30.7,126.7 						"/>
						<polygon class="st4" points="96.7,119.2 15.5,221.4 16.2,227.6 102.9,118.5 						"/>
						<polygon class="st4" points="69.6,122.3 12.4,194.3 13.1,200.5 75.9,121.6 						"/>
						<polygon class="st4" points="60.1,224 109.3,162.1 108.6,155.8 53.9,224.7 						"/>
						<polygon class="st4" points="78.2,221.9 111.4,180.1 110.7,173.9 71.9,222.7 						"/>
						<polygon class="st4" points="51.1,225 108.3,153 107.6,146.8 44.8,225.8 						"/>
						<polygon class="st4" points="69.1,223 110.4,171.1 109.7,164.9 62.9,223.7 						"/>
						<polygon class="st4" points="105.2,125.9 104.5,119.7 17.7,228.8 24,228.1 						"/>
						<polygon class="st4" points="42,226.1 107.3,144 106.6,137.8 35.8,226.8 						"/>
						<polygon class="st4" points="33,227.1 106.3,135 105.5,128.7 26.8,227.8 						"/>
						<polygon class="st4" points="87.2,220.9 112.4,189.2 111.7,182.9 81,221.6 						"/>
						<polygon class="st4" points="114.3,217.8 115.5,216.3 114.8,210 108.1,218.5 						"/>
						<polygon class="st4" points="96.2,219.9 113.5,198.2 112.8,192 90,220.6 						"/>
						<polygon class="st4" points="105.3,218.9 114.5,207.2 113.8,201 99,219.6 						"/>
						<polygon class="st4" points="87.7,120.2 14.4,212.3 15.2,218.6 93.9,119.5 						"/>
						<polygon class="st4" points="78.7,121.2 13.4,203.3 14.1,209.5 84.9,120.5 						"/>
						<polygon class="st5" points="53.9,224.7 108.6,155.8 108.3,153 51.1,225 						"/>
						<polygon class="st5" points="71.9,222.7 110.7,173.9 110.4,171.1 69.1,223 						"/>
						<polygon class="st5" points="57.8,123.6 11,182.4 11.3,185.2 60.6,123.3 						"/>
						<polygon class="st5" points="39.7,125.7 9,164.4 9.3,167.2 42.5,125.4 						"/>
						<polygon class="st5" points="21.7,127.7 6.9,146.3 7.2,149.1 24.5,127.4 						"/>
						<polygon class="st5" points="62.9,223.7 109.7,164.9 109.3,162.1 60.1,224 						"/>
						<polygon class="st5" points="30.7,126.7 7.9,155.3 8.3,158.2 33.5,126.4 						"/>
						<polygon class="st5" points="26.8,227.8 105.5,128.7 105.2,125.9 24,228.1 						"/>
						<polygon class="st5" points="48.8,124.7 10,173.4 10.3,176.2 51.6,124.3 						"/>
						<polygon class="st5" points="44.8,225.8 107.6,146.8 107.3,144 42,226.1 						"/>
						<polygon class="st5" points="35.8,226.8 106.6,137.8 106.3,135 33,227.1 						"/>
						<polygon class="st5" points="104.4,118.3 102.9,118.5 16.2,227.6 16.3,229 17.7,228.8 104.5,119.7 						"/>
						<polygon class="st5" points="66.8,122.6 12.1,191.5 12.4,194.3 69.6,122.3 						"/>
						<polygon class="st5" points="12.6,128.8 5.9,137.3 6.2,140.1 15.4,128.5 						"/>
						<polygon class="st5" points="84.9,120.5 14.1,209.5 14.4,212.3 87.7,120.2 						"/>
						<polygon class="st5" points="108.1,218.5 114.8,210 114.5,207.2 105.3,218.9 						"/>
						<polygon class="st5" points="93.9,119.5 15.2,218.6 15.5,221.4 96.7,119.2 						"/>
						<polygon class="st5" points="115.7,217.7 115.5,216.3 114.3,217.8 						"/>
						<polygon class="st5" points="90,220.6 112.8,192 112.4,189.2 87.2,220.9 						"/>
						<polygon class="st5" points="81,221.6 111.7,182.9 111.4,180.1 78.2,221.9 						"/>
						<polygon class="st5" points="75.9,121.6 13.1,200.5 13.4,203.3 78.7,121.2 						"/>
						<polygon class="st5" points="99,219.6 113.8,201 113.5,198.2 96.2,219.9 						"/>
						<polygon class="st5" points="5,129.7 5.2,131.1 6.4,129.5 						"/>
					</g>
				</g>
				<g class="st2">
					<g class="st3">
						
							<rect x="21.7" y="223" transform="matrix(0.9935 -0.1134 0.1134 0.9935 -30.5084 9.8954)" class="st4" width="100" height="100"/>
						<polygon class="st4" points="71.9,222.7 22.7,284.6 23.4,290.8 78.2,221.9 						"/>
						<polygon class="st4" points="62.9,223.7 21.7,275.6 22.4,281.8 69.1,223 						"/>
						<polygon class="st4" points="53.9,224.7 20.6,266.5 21.3,272.8 60.1,224 						"/>
						<polygon class="st4" points="26.8,227.8 17.5,239.4 18.2,245.7 33,227.1 						"/>
						<polygon class="st4" points="17.7,228.8 16.5,230.4 17.2,236.6 24,228.1 						"/>
						<polygon class="st4" points="44.8,225.8 19.6,257.5 20.3,263.7 51.1,225 						"/>
						<polygon class="st4" points="35.8,226.8 18.6,248.5 19.3,254.7 42,226.1 						"/>
						<polygon class="st4" points="108.1,218.5 26.8,320.7 27.5,327 114.3,217.8 						"/>
						<polygon class="st4" points="81,221.6 23.7,293.6 24.4,299.9 87.2,220.9 						"/>
						<polygon class="st4" points="71.4,323.4 120.7,261.4 120,255.2 65.2,324.1 						"/>
						<polygon class="st4" points="89.5,321.3 122.8,279.5 122,273.3 83.3,322 						"/>
						<polygon class="st4" points="62.4,324.4 119.7,252.4 119,246.2 56.2,325.1 						"/>
						<polygon class="st4" points="80.5,322.3 121.7,270.4 121,264.2 74.3,323 						"/>
						<polygon class="st4" points="116.6,225.3 115.9,219.1 29.1,328.2 35.3,327.5 						"/>
						<polygon class="st4" points="53.4,325.4 118.6,243.4 117.9,237.1 47.2,326.1 						"/>
						<polygon class="st4" points="44.3,326.5 117.6,234.3 116.9,228.1 38.1,327.2 						"/>
						<polygon class="st4" points="98.5,320.3 123.8,288.5 123.1,282.3 92.3,321 						"/>
						<polygon class="st4" points="125.6,317.2 126.9,315.6 126.2,309.4 119.4,317.9 						"/>
						<polygon class="st4" points="107.6,319.2 124.8,297.5 124.1,291.3 101.3,319.9 						"/>
						<polygon class="st4" points="116.6,318.2 125.8,306.6 125.1,300.4 110.4,318.9 						"/>
						<polygon class="st4" points="99,219.6 25.8,311.7 26.5,317.9 105.3,218.9 						"/>
						<polygon class="st4" points="90,220.6 24.8,302.7 25.5,308.9 96.2,219.9 						"/>
						<polygon class="st5" points="65.2,324.1 120,255.2 119.7,252.4 62.4,324.4 						"/>
						<polygon class="st5" points="83.3,322 122,273.3 121.7,270.4 80.5,322.3 						"/>
						<polygon class="st5" points="69.1,223 22.4,281.8 22.7,284.6 71.9,222.7 						"/>
						<polygon class="st5" points="51.1,225 20.3,263.7 20.6,266.5 53.9,224.7 						"/>
						<polygon class="st5" points="33,227.1 18.2,245.7 18.6,248.5 35.8,226.8 						"/>
						<polygon class="st5" points="74.3,323 121,264.2 120.7,261.4 71.4,323.4 						"/>
						<polygon class="st5" points="42,226.1 19.3,254.7 19.6,257.5 44.8,225.8 						"/>
						<polygon class="st5" points="38.1,327.2 116.9,228.1 116.6,225.3 35.3,327.5 						"/>
						<polygon class="st5" points="60.1,224 21.3,272.8 21.7,275.6 62.9,223.7 						"/>
						<polygon class="st5" points="56.2,325.1 119,246.2 118.6,243.4 53.4,325.4 						"/>
						<polygon class="st5" points="47.2,326.1 117.9,237.1 117.6,234.3 44.3,326.5 						"/>
						<polygon class="st5" points="115.7,217.7 114.3,217.8 27.5,327 27.7,328.4 29.1,328.2 115.9,219.1 						"/>
						<polygon class="st5" points="78.2,221.9 23.4,290.8 23.7,293.6 81,221.6 						"/>
						<polygon class="st5" points="24,228.1 17.2,236.6 17.5,239.4 26.8,227.8 						"/>
						<polygon class="st5" points="96.2,219.9 25.5,308.9 25.8,311.7 99,219.6 						"/>
						<polygon class="st5" points="119.4,317.9 126.2,309.4 125.8,306.6 116.6,318.2 						"/>
						<polygon class="st5" points="105.3,218.9 26.5,317.9 26.8,320.7 108.1,218.5 						"/>
						<polygon class="st5" points="127,317 126.9,315.6 125.6,317.2 						"/>
						<polygon class="st5" points="101.3,319.9 124.1,291.3 123.8,288.5 98.5,320.3 						"/>
						<polygon class="st5" points="92.3,321 123.1,282.3 122.8,279.5 89.5,321.3 						"/>
						<polygon class="st5" points="87.2,220.9 24.4,299.9 24.8,302.7 90,220.6 						"/>
						<polygon class="st5" points="110.4,318.9 125.1,300.4 124.8,297.5 107.6,319.2 						"/>
						<polygon class="st5" points="16.3,229 16.5,230.4 17.7,228.8 						"/>
					</g>
				</g>
				<g class="st2">
					<g class="st3">
						
							<rect x="33" y="322.4" transform="matrix(0.9935 -0.1134 0.1134 0.9935 -41.7062 11.8237)" class="st4" width="100" height="100"/>
						<polygon class="st4" points="83.3,322 34,384 34.7,390.2 89.5,321.3 						"/>
						<polygon class="st4" points="74.3,323 33,374.9 33.7,381.1 80.5,322.3 						"/>
						<polygon class="st4" points="65.2,324.1 32,365.9 32.7,372.1 71.4,323.4 						"/>
						<polygon class="st4" points="38.1,327.2 28.9,338.8 29.6,345 44.3,326.5 						"/>
						<polygon class="st4" points="29.1,328.2 27.8,329.8 28.6,336 35.3,327.5 						"/>
						<polygon class="st4" points="56.2,325.1 30.9,356.9 31.7,363.1 62.4,324.4 						"/>
						<polygon class="st4" points="47.2,326.1 29.9,347.8 30.6,354.1 53.4,325.4 						"/>
						<polygon class="st4" points="119.4,317.9 38.2,420.1 38.9,426.3 125.6,317.2 						"/>
						<polygon class="st4" points="92.3,321 35.1,393 35.8,399.2 98.5,320.3 						"/>
						<polygon class="st4" points="82.8,422.7 132,360.8 131.3,354.5 76.6,423.4 						"/>
						<polygon class="st4" points="100.9,420.7 134.1,378.8 133.4,372.6 94.6,421.4 						"/>
						<polygon class="st4" points="73.8,423.7 131,351.7 130.3,345.5 67.5,424.5 						"/>
						<polygon class="st4" points="91.8,421.7 133.1,369.8 132.4,363.6 85.6,422.4 						"/>
						<polygon class="st4" points="127.9,324.6 127.2,318.4 40.4,427.6 46.7,426.8 						"/>
						<polygon class="st4" points="64.7,424.8 130,342.7 129.3,336.5 58.5,425.5 						"/>
						<polygon class="st4" points="55.7,425.8 128.9,333.7 128.2,327.5 49.5,426.5 						"/>
						<polygon class="st4" points="109.9,419.6 135.1,387.9 134.4,381.6 103.7,420.3 						"/>
						<polygon class="st4" points="137,416.5 138.2,415 137.5,408.7 130.8,417.2 						"/>
						<polygon class="st4" points="118.9,418.6 136.2,396.9 135.5,390.7 112.7,419.3 						"/>
						<polygon class="st4" points="127.9,417.6 137.2,405.9 136.5,399.7 121.7,418.3 						"/>
						<polygon class="st4" points="110.4,318.9 37.1,411.1 37.8,417.3 116.6,318.2 						"/>
						<polygon class="st4" points="101.3,319.9 36.1,402 36.8,408.2 107.6,319.2 						"/>
						<polygon class="st5" points="76.6,423.4 131.3,354.5 131,351.7 73.8,423.7 						"/>
						<polygon class="st5" points="94.6,421.4 133.4,372.6 133.1,369.8 91.8,421.7 						"/>
						<polygon class="st5" points="80.5,322.3 33.7,381.1 34,384 83.3,322 						"/>
						<polygon class="st5" points="62.4,324.4 31.7,363.1 32,365.9 65.2,324.1 						"/>
						<polygon class="st5" points="44.3,326.5 29.6,345 29.9,347.8 47.2,326.1 						"/>
						<polygon class="st5" points="85.6,422.4 132.4,363.6 132,360.8 82.8,422.7 						"/>
						<polygon class="st5" points="53.4,325.4 30.6,354.1 30.9,356.9 56.2,325.1 						"/>
						<polygon class="st5" points="49.5,426.5 128.2,327.5 127.9,324.6 46.7,426.8 						"/>
						<polygon class="st5" points="71.4,323.4 32.7,372.1 33,374.9 74.3,323 						"/>
						<polygon class="st5" points="67.5,424.5 130.3,345.5 130,342.7 64.7,424.8 						"/>
						<polygon class="st5" points="58.5,425.5 129.3,336.5 128.9,333.7 55.7,425.8 						"/>
						<polygon class="st5" points="127,317 125.6,317.2 38.9,426.3 39,427.7 40.4,427.6 127.2,318.4 						"/>
						<polygon class="st5" points="89.5,321.3 34.7,390.2 35.1,393 92.3,321 						"/>
						<polygon class="st5" points="35.3,327.5 28.6,336 28.9,338.8 38.1,327.2 						"/>
						<polygon class="st5" points="107.6,319.2 36.8,408.2 37.1,411.1 110.4,318.9 						"/>
						<polygon class="st5" points="130.8,417.2 137.5,408.7 137.2,405.9 127.9,417.6 						"/>
						<polygon class="st5" points="116.6,318.2 37.8,417.3 38.2,420.1 119.4,317.9 						"/>
						<polygon class="st5" points="138.4,416.4 138.2,415 137,416.5 						"/>
						<polygon class="st5" points="112.7,419.3 135.5,390.7 135.1,387.9 109.9,419.6 						"/>
						<polygon class="st5" points="103.7,420.3 134.4,381.6 134.1,378.8 100.9,420.7 						"/>
						<polygon class="st5" points="98.5,320.3 35.8,399.2 36.1,402 101.3,319.9 						"/>
						<polygon class="st5" points="121.7,418.3 136.5,399.7 136.2,396.9 118.9,418.6 						"/>
						<polygon class="st5" points="27.7,328.4 27.8,329.8 29.1,328.2 						"/>
					</g>
				</g>
				<g class="st2">
					<g class="st3">
						
							<rect x="44.4" y="421.7" transform="matrix(0.9935 -0.1134 0.1134 0.9935 -52.904 13.752)" class="st4" width="100" height="100"/>
						<polygon class="st4" points="94.6,421.4 45.4,483.3 46.1,489.5 100.9,420.7 						"/>
						<polygon class="st4" points="85.6,422.4 44.3,474.3 45.1,480.5 91.8,421.7 						"/>
						<polygon class="st4" points="76.6,423.4 43.3,465.2 44,471.5 82.8,422.7 						"/>
						<polygon class="st4" points="49.5,426.5 40.2,438.2 40.9,444.4 55.7,425.8 						"/>
						<polygon class="st4" points="40.4,427.6 39.2,429.1 39.9,435.3 46.7,426.8 						"/>
						<polygon class="st4" points="67.5,424.5 42.3,456.2 43,462.4 73.8,423.7 						"/>
						<polygon class="st4" points="58.5,425.5 41.3,447.2 42,453.4 64.7,424.8 						"/>
						<polygon class="st4" points="130.8,417.2 49.5,519.4 50.2,525.7 137,416.5 						"/>
						<polygon class="st4" points="103.7,420.3 46.4,492.3 47.1,498.6 109.9,419.6 						"/>
						<polygon class="st4" points="94.1,522.1 143.4,460.1 142.7,453.9 87.9,522.8 						"/>
						<polygon class="st4" points="112.2,520 145.4,478.2 144.7,472 106,520.7 						"/>
						<polygon class="st4" points="85.1,523.1 142.4,451.1 141.6,444.9 78.9,523.8 						"/>
						<polygon class="st4" points="103.2,521 144.4,469.2 143.7,462.9 96.9,521.8 						"/>
						<polygon class="st4" points="139.3,424 138.5,417.8 51.8,526.9 58,526.2 						"/>
						<polygon class="st4" points="76.1,524.1 141.3,442.1 140.6,435.8 69.8,524.8 						"/>
						<polygon class="st4" points="67,525.2 140.3,433 139.6,426.8 60.8,525.9 						"/>
						<polygon class="st4" points="121.2,519 146.5,487.2 145.8,481 115,519.7 						"/>
						<polygon class="st4" points="148.3,515.9 149.6,514.3 148.9,508.1 142.1,516.6 						"/>
						<polygon class="st4" points="130.3,517.9 147.5,496.3 146.8,490 124,518.7 						"/>
						<polygon class="st4" points="139.3,516.9 148.5,505.3 147.8,499.1 133.1,517.6 						"/>
						<polygon class="st4" points="121.7,418.3 48.5,510.4 49.2,516.6 127.9,417.6 						"/>
						<polygon class="st4" points="112.7,419.3 47.4,501.4 48.2,507.6 118.9,418.6 						"/>
						<polygon class="st5" points="87.9,522.8 142.7,453.9 142.4,451.1 85.1,523.1 						"/>
						<polygon class="st5" points="106,520.7 144.7,472 144.4,469.2 103.2,521 						"/>
						<polygon class="st5" points="91.8,421.7 45.1,480.5 45.4,483.3 94.6,421.4 						"/>
						<polygon class="st5" points="73.8,423.7 43,462.4 43.3,465.2 76.6,423.4 						"/>
						<polygon class="st5" points="55.7,425.8 40.9,444.4 41.3,447.2 58.5,425.5 						"/>
						<polygon class="st5" points="96.9,521.8 143.7,462.9 143.4,460.1 94.1,522.1 						"/>
						<polygon class="st5" points="64.7,424.8 42,453.4 42.3,456.2 67.5,424.5 						"/>
						<polygon class="st5" points="60.8,525.9 139.6,426.8 139.3,424 58,526.2 						"/>
						<polygon class="st5" points="82.8,422.7 44,471.5 44.3,474.3 85.6,422.4 						"/>
						<polygon class="st5" points="78.9,523.8 141.6,444.9 141.3,442.1 76.1,524.1 						"/>
						<polygon class="st5" points="69.8,524.8 140.6,435.8 140.3,433 67,525.2 						"/>
						<polygon class="st5" points="138.4,416.4 137,416.5 50.2,525.7 50.4,527.1 51.8,526.9 138.5,417.8 						"/>
						<polygon class="st5" points="100.9,420.7 46.1,489.5 46.4,492.3 103.7,420.3 						"/>
						<polygon class="st5" points="46.7,426.8 39.9,435.3 40.2,438.2 49.5,426.5 						"/>
						<polygon class="st5" points="118.9,418.6 48.2,507.6 48.5,510.4 121.7,418.3 						"/>
						<polygon class="st5" points="142.1,516.6 148.9,508.1 148.5,505.3 139.3,516.9 						"/>
						<polygon class="st5" points="127.9,417.6 49.2,516.6 49.5,519.4 130.8,417.2 						"/>
						<polygon class="st5" points="149.7,515.7 149.6,514.3 148.3,515.9 						"/>
						<polygon class="st5" points="124,518.7 146.8,490 146.5,487.2 121.2,519 						"/>
						<polygon class="st5" points="115,519.7 145.8,481 145.4,478.2 112.2,520 						"/>
						<polygon class="st5" points="109.9,419.6 47.1,498.6 47.4,501.4 112.7,419.3 						"/>
						<polygon class="st5" points="133.1,517.6 147.8,499.1 147.5,496.3 130.3,517.9 						"/>
						<polygon class="st5" points="39,427.7 39.2,429.1 40.4,427.6 						"/>
					</g>
				</g>
				<g class="st2">
					<g class="st3">
						
							<rect x="-77.7" y="234.4" transform="matrix(0.9935 -0.1134 0.1134 0.9935 -32.4367 -1.3025)" class="st4" width="100" height="100"/>
						<polygon class="st4" points="-27.4,234 -76.7,295.9 -76,302.2 -21.2,233.3 						"/>
						<polygon class="st4" points="-36.4,235 -77.7,286.9 -77,293.1 -30.2,234.3 						"/>
						<polygon class="st4" points="-45.5,236.1 -78.7,277.9 -78,284.1 -39.3,235.4 						"/>
						<polygon class="st4" points="-72.6,239.2 -81.8,250.8 -81.1,257 -66.4,238.4 						"/>
						<polygon class="st4" points="-81.6,240.2 -82.9,241.8 -82.1,248 -75.4,239.5 						"/>
						<polygon class="st4" points="-54.5,237.1 -79.8,268.9 -79,275.1 -48.3,236.4 						"/>
						<polygon class="st4" points="-63.5,238.1 -80.8,259.8 -80.1,266 -57.3,237.4 						"/>
						<polygon class="st4" points="8.7,229.9 -72.5,332.1 -71.8,338.3 14.9,229.2 						"/>
						<polygon class="st4" points="-18.4,233 -75.6,305 -74.9,311.2 -12.2,232.3 						"/>
						<polygon class="st4" points="-27.9,334.7 21.3,272.8 20.6,266.5 -34.1,335.4 						"/>
						<polygon class="st4" points="-9.8,332.6 23.4,290.8 22.7,284.6 -16.1,333.4 						"/>
						<polygon class="st4" points="-36.9,335.7 20.3,263.7 19.6,257.5 -43.2,336.5 						"/>
						<polygon class="st4" points="-18.9,333.7 22.4,281.8 21.7,275.6 -25.1,334.4 						"/>
						<polygon class="st4" points="17.2,236.6 16.5,230.4 -70.3,339.5 -64,338.8 						"/>
						<polygon class="st4" points="-46,336.8 19.3,254.7 18.6,248.5 -52.2,337.5 						"/>
						<polygon class="st4" points="-55,337.8 18.2,245.7 17.5,239.4 -61.2,338.5 						"/>
						<polygon class="st4" points="-0.8,331.6 24.4,299.9 23.7,293.6 -7,332.3 						"/>
						<polygon class="st4" points="26.3,328.5 27.5,327 26.8,320.7 20.1,329.2 						"/>
						<polygon class="st4" points="8.2,330.6 25.5,308.9 24.8,302.7 2,331.3 						"/>
						<polygon class="st4" points="17.2,329.6 26.5,317.9 25.8,311.7 11,330.3 						"/>
						<polygon class="st4" points="-0.3,230.9 -73.6,323 -72.9,329.3 5.9,230.2 						"/>
						<polygon class="st4" points="-9.3,231.9 -74.6,314 -73.9,320.2 -3.1,231.2 						"/>
						<polygon class="st5" points="-34.1,335.4 20.6,266.5 20.3,263.7 -36.9,335.7 						"/>
						<polygon class="st5" points="-16.1,333.4 22.7,284.6 22.4,281.8 -18.9,333.7 						"/>
						<polygon class="st5" points="-30.2,234.3 -77,293.1 -76.7,295.9 -27.4,234 						"/>
						<polygon class="st5" points="-48.3,236.4 -79,275.1 -78.7,277.9 -45.5,236.1 						"/>
						<polygon class="st5" points="-66.4,238.4 -81.1,257 -80.8,259.8 -63.5,238.1 						"/>
						<polygon class="st5" points="-25.1,334.4 21.7,275.6 21.3,272.8 -27.9,334.7 						"/>
						<polygon class="st5" points="-57.3,237.4 -80.1,266 -79.8,268.9 -54.5,237.1 						"/>
						<polygon class="st5" points="-61.2,338.5 17.5,239.4 17.2,236.6 -64,338.8 						"/>
						<polygon class="st5" points="-39.3,235.4 -78,284.1 -77.7,286.9 -36.4,235 						"/>
						<polygon class="st5" points="-43.2,336.5 19.6,257.5 19.3,254.7 -46,336.8 						"/>
						<polygon class="st5" points="-52.2,337.5 18.6,248.5 18.2,245.7 -55,337.8 						"/>
						<polygon class="st5" points="16.3,229 14.9,229.2 -71.8,338.3 -71.7,339.7 -70.3,339.5 16.5,230.4 						"/>
						<polygon class="st5" points="-21.2,233.3 -76,302.2 -75.6,305 -18.4,233 						"/>
						<polygon class="st5" points="-75.4,239.5 -82.1,248 -81.8,250.8 -72.6,239.2 						"/>
						<polygon class="st5" points="-3.1,231.2 -73.9,320.2 -73.6,323 -0.3,230.9 						"/>
						<polygon class="st5" points="20.1,329.2 26.8,320.7 26.5,317.9 17.2,329.6 						"/>
						<polygon class="st5" points="5.9,230.2 -72.9,329.3 -72.5,332.1 8.7,229.9 						"/>
						<polygon class="st5" points="27.7,328.4 27.5,327 26.3,328.5 						"/>
						<polygon class="st5" points="2,331.3 24.8,302.7 24.4,299.9 -0.8,331.6 						"/>
						<polygon class="st5" points="-7,332.3 23.7,293.6 23.4,290.8 -9.8,332.6 						"/>
						<polygon class="st5" points="-12.2,232.3 -74.9,311.2 -74.6,314 -9.3,231.9 						"/>
						<polygon class="st5" points="11,330.3 25.8,311.7 25.5,308.9 8.2,330.6 						"/>
						<polygon class="st5" points="-83,240.4 -82.9,241.8 -81.6,240.2 						"/>
					</g>
				</g>
				<g class="st2">
					<g class="st3">
						
							<rect x="-66.3" y="333.7" transform="matrix(0.9935 -0.1134 0.1134 0.9935 -43.6345 0.6258)" class="st4" width="100" height="100"/>
						<polygon class="st4" points="-16.1,333.4 -65.3,395.3 -64.6,401.5 -9.8,332.6 						"/>
						<polygon class="st4" points="-25.1,334.4 -66.4,386.3 -65.6,392.5 -18.9,333.7 						"/>
						<polygon class="st4" points="-34.1,335.4 -67.4,377.2 -66.7,383.5 -27.9,334.7 						"/>
						<polygon class="st4" points="-61.2,338.5 -70.5,350.1 -69.8,356.4 -55,337.8 						"/>
						<polygon class="st4" points="-70.3,339.5 -71.5,341.1 -70.8,347.3 -64,338.8 						"/>
						<polygon class="st4" points="-43.2,336.5 -68.4,368.2 -67.7,374.4 -36.9,335.7 						"/>
						<polygon class="st4" points="-52.2,337.5 -69.4,359.2 -68.7,365.4 -46,336.8 						"/>
						<polygon class="st4" points="20.1,329.2 -61.2,431.4 -60.5,437.7 26.3,328.5 						"/>
						<polygon class="st4" points="-7,332.3 -64.3,404.3 -63.6,410.6 -0.8,331.6 						"/>
						<polygon class="st4" points="-16.6,434.1 32.7,372.1 32,365.9 -22.8,434.8 						"/>
						<polygon class="st4" points="1.5,432 34.7,390.2 34,384 -4.7,432.7 						"/>
						<polygon class="st4" points="-25.6,435.1 31.7,363.1 30.9,356.9 -31.8,435.8 						"/>
						<polygon class="st4" points="-7.5,433 33.7,381.1 33,374.9 -13.8,433.7 						"/>
						<polygon class="st4" points="28.6,336 27.8,329.8 -58.9,438.9 -52.7,438.2 						"/>
						<polygon class="st4" points="-34.6,436.1 30.6,354.1 29.9,347.8 -40.9,436.8 						"/>
						<polygon class="st4" points="-43.7,437.2 29.6,345 28.9,338.8 -49.9,437.9 						"/>
						<polygon class="st4" points="10.5,431 35.8,399.2 35.1,393 4.3,431.7 						"/>
						<polygon class="st4" points="37.6,427.9 38.9,426.3 38.2,420.1 31.4,428.6 						"/>
						<polygon class="st4" points="19.6,429.9 36.8,408.2 36.1,402 13.3,430.6 						"/>
						<polygon class="st4" points="28.6,428.9 37.8,417.3 37.1,411.1 22.4,429.6 						"/>
						<polygon class="st4" points="11,330.3 -62.2,422.4 -61.5,428.6 17.2,329.6 						"/>
						<polygon class="st4" points="2,331.3 -63.3,413.4 -62.5,419.6 8.2,330.6 						"/>
						<polygon class="st5" points="-22.8,434.8 32,365.9 31.7,363.1 -25.6,435.1 						"/>
						<polygon class="st5" points="-4.7,432.7 34,384 33.7,381.1 -7.5,433 						"/>
						<polygon class="st5" points="-18.9,333.7 -65.6,392.5 -65.3,395.3 -16.1,333.4 						"/>
						<polygon class="st5" points="-36.9,335.7 -67.7,374.4 -67.4,377.2 -34.1,335.4 						"/>
						<polygon class="st5" points="-55,337.8 -69.8,356.4 -69.4,359.2 -52.2,337.5 						"/>
						<polygon class="st5" points="-13.8,433.7 33,374.9 32.7,372.1 -16.6,434.1 						"/>
						<polygon class="st5" points="-46,336.8 -68.7,365.4 -68.4,368.2 -43.2,336.5 						"/>
						<polygon class="st5" points="-49.9,437.9 28.9,338.8 28.6,336 -52.7,438.2 						"/>
						<polygon class="st5" points="-27.9,334.7 -66.7,383.5 -66.4,386.3 -25.1,334.4 						"/>
						<polygon class="st5" points="-31.8,435.8 30.9,356.9 30.6,354.1 -34.6,436.1 						"/>
						<polygon class="st5" points="-40.9,436.8 29.9,347.8 29.6,345 -43.7,437.2 						"/>
						<polygon class="st5" points="27.7,328.4 26.3,328.5 -60.5,437.7 -60.3,439.1 -58.9,438.9 27.8,329.8 						"/>
						<polygon class="st5" points="-9.8,332.6 -64.6,401.5 -64.3,404.3 -7,332.3 						"/>
						<polygon class="st5" points="-64,338.8 -70.8,347.3 -70.5,350.1 -61.2,338.5 						"/>
						<polygon class="st5" points="8.2,330.6 -62.5,419.6 -62.2,422.4 11,330.3 						"/>
						<polygon class="st5" points="31.4,428.6 38.2,420.1 37.8,417.3 28.6,428.9 						"/>
						<polygon class="st5" points="17.2,329.6 -61.5,428.6 -61.2,431.4 20.1,329.2 						"/>
						<polygon class="st5" points="39,427.7 38.9,426.3 37.6,427.9 						"/>
						<polygon class="st5" points="13.3,430.6 36.1,402 35.8,399.2 10.5,431 						"/>
						<polygon class="st5" points="4.3,431.7 35.1,393 34.7,390.2 1.5,432 						"/>
						<polygon class="st5" points="-0.8,331.6 -63.6,410.6 -63.3,413.4 2,331.3 						"/>
						<polygon class="st5" points="22.4,429.6 37.1,411.1 36.8,408.2 19.6,429.9 						"/>
						<polygon class="st5" points="-71.7,339.7 -71.5,341.1 -70.3,339.5 						"/>
					</g>
				</g>
			</g>
		</g>
	</g>
</g>
</svg>
