<svg xmlns="http://www.w3.org/2000/svg" viewBox="0 0 221.48 71.31"><defs><style>.cls-1{fill:#f78bba;}.cls-2{fill:#fff;}</style></defs><title>manifest-tsuchi-word</title><g id="レイヤー_2" data-name="レイヤー 2"><g id="manifest"><path class="cls-1" d="M13.25,10.37l2.27.51V25.44H11.1L9.82,23h3.11V12.83l-.68-.16L6.78,25.44H0V11L4.48,9.09V5.5H0V3.1H4.48V.54H7V3.1h8V5.5H7V8.9l3.74.89L12.19,6.5,14.4,7.68ZM5.12,22.94,9.79,12.1,7,11.46V18H4.48V11.68l-1.92.83V22.94Z"/><path class="cls-1" d="M24.11,14.62l-2.27-1.21,3.65-8.48H22.55V2.53h4l1-2.24L29.75,1.5l-.45,1h3v2.4h-4Zm9.73-1.31,4.61,10.78-2.08,1.16-2.53-5.86v6H22.45L28,12.32h3.42V7.87h2.4ZM31.57,23V14.75H29.68L26.19,23ZM39,9.41l-2.3,1.28L34,4.38l2.34-1.31Z"/><path class="cls-1" d="M58.13,5.86h-7.2L46.2,16.8l-2.34-1.22,4.19-9.72H44.41V3.3h4.76L50.45.38,52.76,1.6l-.71,1.7h6.08ZM51.06,22.72h9.76l-1.41,2.62H48.47V19.58h2.59Zm.26-14.21v2.56h5.57l-1.35,3.14,2.15,1.15-.07,0,2.91-6.82Z"/><path class="cls-2" d="M76.67,3.36l6.24,2.72V25.41h-5L76.6,23h3.68V7.74L76.22,6h-6V21.34L76.35,7.07l2.33,1.25L71.36,25.41H67.58v-22Z"/><path class="cls-2" d="M105.48,5.66h-4.41v2.6h3.71v2.49h-3.71v3.62l3.71,8.73-1.41,2.66L101,20.19v5.09H89.45l4.86-11.42h4.16V10.75H91V8.26h7.45V5.66H90.19V3.17h8.28V.54h2.6V3.17h4.41ZM98.89,22.81V16.35H96l-2.78,6.46Z"/><path class="cls-2" d="M127.74,6H119l-1.85,4.32h10.27V25.41H115.32L114,22.85h10.85v-10H113.18L116.12,6h-3.74V3.36h4.86L118.68,0l2.37,1.28-.93,2.08h7.62Z"/><path class="cls-2" d="M143.72,3.36,150,6.08V25.41h-5L143.66,23h3.68V7.74L143.27,6h-6V21.34L143.4,7.07l2.34,1.25-7.33,17.09h-3.78v-22Z"/><path class="cls-2" d="M163.78,4V6.37h-8V4Zm-7.62,22V14.46h7.36V26Zm.16-18.4h6.88V9.7h-6.88Zm0,5.54V11h6.88v2.14ZM163.07.8V2.88h-6.62V.8Zm-4.35,15.81v7.26H161V16.61Zm16.89-1.67h-4.76v1.64l4.67,6.59-1.31,2.43-3.36-4.77V26h-2.47V21l-3.2,4.51-1.24-2.4,4.44-6.3V14.94h-4.76V12.58h4.76V11.14h-4.09V.8h10.65V11.14h-4.09v1.44h4.76Zm-7.07-12h-2V5h2Zm-2,4V9h2V7Zm6.08-2v-2h-1.95V5Zm-1.95,4h1.95V7h-1.95Z"/><path class="cls-2" d="M188.05,23.36h12.77v2.49h-15l-2.11-3.29-2,3.93-1.54-2.84,3-5.76h2.43V12.22h-5.31V10h10.24v2.27h-2.37v2.47h2.69v2.4h-2.69ZM189.4.51v9h-8.07v-9Zm-2.34,2h-3.3v1.6h3.3Zm-3.3,5h3.3V5.89h-3.3ZM185.49,19,185,20l.51.8Zm7.84-13.91,1.09-2.12h-4.13V.83h10V2.94h-3.17l-1.09,2.12h3.78V18.4h-8.55V5.06Zm-1,17.91L191,20.54l.89-1.73h2.56Zm5-14.43V7.17h-3.65V8.54Zm-3.65,2V12h3.65v-1.5Zm0,5.69h3.65V14h-3.65Zm2.72,2.59H199l1,1.89-1.28,2.47Z"/><path class="cls-2" d="M218.86,14.75l2.62-1.41V25.41h-12.7V11h-2.66V8.54h2.66V5.66h-2.66V3.17h2.66V.54h2.72V3.17h7.07V5.66H211.5V8.54h6.56V11H211.5v11.8h7.36Z"/><path class="cls-2" d="M10.64,45.66v3.67l10.77,2.48V70.57H14.85l-1.69-3.13h4.95V54.32l-7.47-1.77v18H1.4V52.22l5.9-2.56v-4H1.45V42.53H7.3V38.61h3.34v3.92H15.3v3.13ZM7.3,67.48V53L4.7,54.16V67.48ZM22.73,49,20,50.45l-4-5.78,2.77-1.44Z"/><path class="cls-2" d="M39.87,38.53V51.27H31.38v20H28V38.53Zm-2.93,2.8H31.38v2.23h5.56Zm-5.56,7.09h5.56V46.2H31.38Zm2,7.06V52.71H48v2.77H45.85V70.74H43v-2.4l-9.44,1.94L32.2,67.81l3.38-.7V55.48ZM43,57.42V55.48H38.3v1.94Zm0,4.12V60H38.3v1.53Zm-4.66,5,4.66-1V64.14H38.3Zm3.3-28H53.4V71.31H50v-20H41.6ZM50,41.33H44.53v2.23H50Zm-5.49,7.09H50V46.2H44.53Z"/><path class="cls-2" d="M74.85,39.14l-2.19,5.08,3.46,1.48V70.57l-7.29,0-1.74-3.3h5.74V47.76l-1.45-.61-10,23.34L58.47,69l9.74-22.64H60.45V43h9.16L72,37.58Zm3.54,3.51,4.17,9.69-2.85,1.53-4.16-9.69Z"/><path class="cls-2" d="M98.52,60.47,95.59,58.9l4.7-11H93.65V67.27h13.61l-1.73,3.3H90.27V47.85h-3v-3.3h3v-6h3.38v6h8L104,39l3,1.57-1.69,4h2v3.3h-3.38Z"/><path class="cls-2" d="M126.72,68.92l-3.21,1.69L109,53.33l12.83-15.22,3.09,1.65L113.53,53.29Z"/><path class="cls-2" d="M146.23,45.37H137l-6.11,14.11-3-1.57,5.41-12.54h-4.7v-3.3h6.14l1.65-3.75,3,1.57-.91,2.18h7.84Zm-9.12,17.7v4h12.58l-1.81,3.38H133.77V63.07Zm.33-14.28v3.3h7.18l-1.73,4,2.76,1.48-.08,0,3.75-8.79Zm8.25-10.22,2.52-1.32L151,43.8l-2.51,1.32Zm6.77-2,2.68,6.26-2.52,1.32-2.68-6.26Z"/><path class="cls-2" d="M177.82,42.81v3.51h-6.68L176.62,59l-3.05,1.65-6.15-14.35H158V42.81h7.88l-1.24-2.88,3.05-1.65,1.94,4.53ZM162.23,55.35V67.19H174.6l-1.81,3.38H158.72V55.35Z"/><path class="cls-2" d="M188.83,66.49l3.83-3.42,2.93,1.56L189,70.49H185.4V40.71h3.43ZM201.16,42.4l3.38,8v20H201.2V50.94h0l-3-7Z"/><path class="cls-2" d="M215.23,38.15h4.83l-1.28,26.94-1.15-1.24-1.16,1.24Zm.5,33.16V67.85h3.79v3.46Z"/></g></g></svg>