<?xml version="1.0" encoding="utf-8"?>
<!-- Generator: Adobe Illustrator 23.0.1, SVG Export Plug-In . SVG Version: 6.00 Build 0)  -->
<svg version="1.1" id="レイヤー_1" xmlns="http://www.w3.org/2000/svg" xmlns:xlink="http://www.w3.org/1999/xlink" x="0px"
	 y="0px" viewBox="0 0 250 450" style="enable-background:new 0 0 250 450;" xml:space="preserve">
<style type="text/css">
	.st0{opacity:5.000000e-02;}
	.st1{fill:#FFFFFF;}
	.st2{clip-path:url(#SVGID_2_);}
	.st3{opacity:0.15;}
	.st4{fill:none;}
	.st5{fill:#D9EFF4;}
</style>
<g id="num-2_1_">
	<g class="st0">
		<g>
			<path class="st1" d="M97.2,395.6l140.5-12l3.8,44.3L55.7,443.9L37.3,229.7l119.6-91.5l-5.2-60.8L33.1,87.5l-3.8-44.3l163.9-14
				l11,128.5L84.6,249.2L97.2,395.6z"/>
		</g>
	</g>
	<g>
		<g>
			<g>
				<defs>
					<path id="SVGID_1_" d="M76.4,366.5l140.5-12l3.8,44.3L34.8,414.8L16.5,200.5L136.1,109l-5.2-60.8L12.3,58.4L8.5,14L172.4,0
						l11,128.5L63.8,220.1L76.4,366.5z"/>
				</defs>
				<clipPath id="SVGID_2_">
					<use xlink:href="#SVGID_1_"  style="overflow:visible;"/>
				</clipPath>
				<g class="st2">
					<g class="st3">
						
							<rect x="206.7" y="-68.6" transform="matrix(0.9963 -8.537797e-02 8.537797e-02 0.9963 2.529 21.8509)" class="st4" width="100" height="100"/>
						<polygon class="st4" points="258.4,-69 207.4,-8.4 208,-2.2 264.6,-69.5 						"/>
						<polygon class="st4" points="249.3,-68.2 206.6,-17.5 207.2,-11.3 255.6,-68.7 						"/>
						<polygon class="st4" points="240.3,-67.4 205.9,-26.6 206.4,-20.3 246.5,-68 						"/>
						<polygon class="st4" points="213.1,-65.1 203.5,-53.7 204.1,-47.5 219.3,-65.6 						"/>
						<polygon class="st4" points="204.1,-64.3 202.8,-62.8 203.3,-56.5 210.3,-64.8 						"/>
						<polygon class="st4" points="231.2,-66.6 205.1,-35.6 205.6,-29.4 237.5,-67.2 						"/>
						<polygon class="st4" points="222.2,-65.9 204.3,-44.7 204.8,-38.4 228.4,-66.4 						"/>
						<polygon class="st4" points="294.6,-72.1 210.5,27.8 211.1,34 300.9,-72.6 						"/>
						<polygon class="st4" points="267.5,-69.7 208.2,0.6 208.7,6.9 273.7,-70.3 						"/>
						<polygon class="st4" points="255.1,31.7 306,-28.8 305.5,-35.1 248.8,32.2 						"/>
						<polygon class="st4" points="273.2,30.1 307.6,-10.7 307.1,-17 266.9,30.7 						"/>
						<polygon class="st4" points="246,32.5 305.3,-37.9 304.7,-44.1 239.8,33 						"/>
						<polygon class="st4" points="264.1,30.9 306.8,-19.8 306.3,-26 257.9,31.4 						"/>
						<polygon class="st4" points="302.9,-65.1 302.4,-71.3 212.6,35.3 218.8,34.8 						"/>
						<polygon class="st4" points="236.9,33.2 304.5,-47 303.9,-53.2 230.7,33.8 						"/>
						<polygon class="st4" points="227.9,34 303.7,-56 303.2,-62.3 221.6,34.5 						"/>
						<polygon class="st4" points="282.2,29.4 308.4,-1.7 307.8,-7.9 276,29.9 						"/>
						<polygon class="st4" points="309.4,27 310.7,25.5 310.2,19.3 303.2,27.6 						"/>
						<polygon class="st4" points="291.3,28.6 309.1,7.4 308.6,1.1 285,29.1 						"/>
						<polygon class="st4" points="300.3,27.8 309.9,16.4 309.4,10.2 294.1,28.3 						"/>
						<polygon class="st4" points="285.6,-71.3 209.7,18.7 210.3,25 291.8,-71.8 						"/>
						<polygon class="st4" points="276.5,-70.5 209,9.7 209.5,15.9 282.8,-71.1 						"/>
						<polygon class="st5" points="248.8,32.2 305.5,-35.1 305.3,-37.9 246,32.5 						"/>
						<polygon class="st5" points="266.9,30.7 307.1,-17 306.8,-19.8 264.1,30.9 						"/>
						<polygon class="st5" points="255.6,-68.7 207.2,-11.3 207.4,-8.4 258.4,-69 						"/>
						<polygon class="st5" points="237.5,-67.2 205.6,-29.4 205.9,-26.6 240.3,-67.4 						"/>
						<polygon class="st5" points="219.3,-65.6 204.1,-47.5 204.3,-44.7 222.2,-65.9 						"/>
						<polygon class="st5" points="257.9,31.4 306.3,-26 306,-28.8 255.1,31.7 						"/>
						<polygon class="st5" points="228.4,-66.4 204.8,-38.4 205.1,-35.6 231.2,-66.6 						"/>
						<polygon class="st5" points="221.6,34.5 303.2,-62.3 302.9,-65.1 218.8,34.8 						"/>
						<polygon class="st5" points="246.5,-68 206.4,-20.3 206.6,-17.5 249.3,-68.2 						"/>
						<polygon class="st5" points="239.8,33 304.7,-44.1 304.5,-47 236.9,33.2 						"/>
						<polygon class="st5" points="230.7,33.8 303.9,-53.2 303.7,-56 227.9,34 						"/>
						<polygon class="st5" points="302.3,-72.7 300.9,-72.6 211.1,34 211.2,35.4 212.6,35.3 302.4,-71.3 						"/>
						<polygon class="st5" points="264.6,-69.5 208,-2.2 208.2,0.6 267.5,-69.7 						"/>
						<polygon class="st5" points="210.3,-64.8 203.3,-56.5 203.5,-53.7 213.1,-65.1 						"/>
						<polygon class="st5" points="282.8,-71.1 209.5,15.9 209.7,18.7 285.6,-71.3 						"/>
						<polygon class="st5" points="303.2,27.6 310.2,19.3 309.9,16.4 300.3,27.8 						"/>
						<polygon class="st5" points="291.8,-71.8 210.3,25 210.5,27.8 294.6,-72.1 						"/>
						<polygon class="st5" points="310.8,26.9 310.7,25.5 309.4,27 						"/>
						<polygon class="st5" points="285,29.1 308.6,1.1 308.4,-1.7 282.2,29.4 						"/>
						<polygon class="st5" points="276,29.9 307.8,-7.9 307.6,-10.7 273.2,30.1 						"/>
						<polygon class="st5" points="273.7,-70.3 208.7,6.9 209,9.7 276.5,-70.5 						"/>
						<polygon class="st5" points="294.1,28.3 309.4,10.2 309.1,7.4 291.3,28.6 						"/>
						<polygon class="st5" points="202.6,-64.2 202.8,-62.8 204.1,-64.3 						"/>
					</g>
				</g>
				<g class="st2">
					<g class="st3">
						
							<rect x="215.3" y="31" transform="matrix(0.9963 -8.537797e-02 8.537797e-02 0.9963 -5.9464 22.9436)" class="st4" width="100" height="100"/>
						<polygon class="st4" points="266.9,30.7 216,91.2 216.5,97.4 273.2,30.1 						"/>
						<polygon class="st4" points="257.9,31.4 215.2,82.1 215.7,88.4 264.1,30.9 						"/>
						<polygon class="st4" points="248.8,32.2 214.4,73.1 214.9,79.3 255.1,31.7 						"/>
						<polygon class="st4" points="221.6,34.5 212.1,45.9 212.6,52.2 227.9,34 						"/>
						<polygon class="st4" points="212.6,35.3 211.3,36.9 211.8,43.1 218.8,34.8 						"/>
						<polygon class="st4" points="239.8,33 213.6,64 214.2,70.3 246,32.5 						"/>
						<polygon class="st4" points="230.7,33.8 212.9,55 213.4,61.2 236.9,33.2 						"/>
						<polygon class="st4" points="303.2,27.6 219.1,127.4 219.6,133.7 309.4,27 						"/>
						<polygon class="st4" points="276,29.9 216.7,100.3 217.3,106.5 282.2,29.4 						"/>
						<polygon class="st4" points="263.6,131.3 314.6,70.8 314,64.5 257.4,131.9 						"/>
						<polygon class="st4" points="281.7,129.8 316.1,88.9 315.6,82.7 275.5,130.3 						"/>
						<polygon class="st4" points="254.5,132.1 313.8,61.7 313.3,55.5 248.3,132.6 						"/>
						<polygon class="st4" points="272.7,130.5 315.4,79.8 314.8,73.6 266.4,131.1 						"/>
						<polygon class="st4" points="311.5,34.6 310.9,28.3 221.1,135 227.4,134.4 						"/>
						<polygon class="st4" points="245.5,132.9 313,52.7 312.5,46.4 239.2,133.4 						"/>
						<polygon class="st4" points="236.4,133.6 312.2,43.6 311.7,37.4 230.2,134.2 						"/>
						<polygon class="st4" points="290.8,129 316.9,98 316.4,91.7 284.5,129.5 						"/>
						<polygon class="st4" points="317.9,126.7 319.2,125.1 318.7,118.9 311.7,127.2 						"/>
						<polygon class="st4" points="299.8,128.2 317.7,107 317.1,100.8 293.6,128.7 						"/>
						<polygon class="st4" points="308.9,127.4 318.5,116.1 317.9,109.8 302.6,128 						"/>
						<polygon class="st4" points="294.1,28.3 218.3,118.4 218.8,124.6 300.3,27.8 						"/>
						<polygon class="st4" points="285,29.1 217.5,109.3 218,115.6 291.3,28.6 						"/>
						<polygon class="st5" points="257.4,131.9 314,64.5 313.8,61.7 254.5,132.1 						"/>
						<polygon class="st5" points="275.5,130.3 315.6,82.7 315.4,79.8 272.7,130.5 						"/>
						<polygon class="st5" points="264.1,30.9 215.7,88.4 216,91.2 266.9,30.7 						"/>
						<polygon class="st5" points="246,32.5 214.2,70.3 214.4,73.1 248.8,32.2 						"/>
						<polygon class="st5" points="227.9,34 212.6,52.2 212.9,55 230.7,33.8 						"/>
						<polygon class="st5" points="266.4,131.1 314.8,73.6 314.6,70.8 263.6,131.3 						"/>
						<polygon class="st5" points="236.9,33.2 213.4,61.2 213.6,64 239.8,33 						"/>
						<polygon class="st5" points="230.2,134.2 311.7,37.4 311.5,34.6 227.4,134.4 						"/>
						<polygon class="st5" points="255.1,31.7 214.9,79.3 215.2,82.1 257.9,31.4 						"/>
						<polygon class="st5" points="248.3,132.6 313.3,55.5 313,52.7 245.5,132.9 						"/>
						<polygon class="st5" points="239.2,133.4 312.5,46.4 312.2,43.6 236.4,133.6 						"/>
						<polygon class="st5" points="310.8,26.9 309.4,27 219.6,133.7 219.7,135.1 221.1,135 310.9,28.3 						"/>
						<polygon class="st5" points="273.2,30.1 216.5,97.4 216.7,100.3 276,29.9 						"/>
						<polygon class="st5" points="218.8,34.8 211.8,43.1 212.1,45.9 221.6,34.5 						"/>
						<polygon class="st5" points="291.3,28.6 218,115.6 218.3,118.4 294.1,28.3 						"/>
						<polygon class="st5" points="311.7,127.2 318.7,118.9 318.5,116.1 308.9,127.4 						"/>
						<polygon class="st5" points="300.3,27.8 218.8,124.6 219.1,127.4 303.2,27.6 						"/>
						<polygon class="st5" points="319.4,126.5 319.2,125.1 317.9,126.7 						"/>
						<polygon class="st5" points="293.6,128.7 317.1,100.8 316.9,98 290.8,129 						"/>
						<polygon class="st5" points="284.5,129.5 316.4,91.7 316.1,88.9 281.7,129.8 						"/>
						<polygon class="st5" points="282.2,29.4 217.3,106.5 217.5,109.3 285,29.1 						"/>
						<polygon class="st5" points="302.6,128 317.9,109.8 317.7,107 299.8,128.2 						"/>
						<polygon class="st5" points="211.2,35.4 211.3,36.9 212.6,35.3 						"/>
					</g>
				</g>
				<g class="st2">
					<g class="st3">
						
							<rect x="223.8" y="130.6" transform="matrix(0.9963 -8.537797e-02 8.537797e-02 0.9963 -14.4219 24.0364)" class="st4" width="100" height="100"/>
						<polygon class="st4" points="275.5,130.3 224.5,190.8 225,197.1 281.7,129.8 						"/>
						<polygon class="st4" points="266.4,131.1 223.7,181.8 224.3,188 272.7,130.5 						"/>
						<polygon class="st4" points="257.4,131.9 222.9,172.7 223.5,179 263.6,131.3 						"/>
						<polygon class="st4" points="230.2,134.2 220.6,145.5 221.1,151.8 236.4,133.6 						"/>
						<polygon class="st4" points="221.1,135 219.8,136.5 220.4,142.7 227.4,134.4 						"/>
						<polygon class="st4" points="248.3,132.6 222.2,163.7 222.7,169.9 254.5,132.1 						"/>
						<polygon class="st4" points="239.2,133.4 221.4,154.6 221.9,160.8 245.5,132.9 						"/>
						<polygon class="st4" points="311.7,127.2 227.6,227.1 228.1,233.3 317.9,126.7 						"/>
						<polygon class="st4" points="284.5,129.5 225.3,199.9 225.8,206.1 290.8,129 						"/>
						<polygon class="st4" points="272.1,231 323.1,170.4 322.6,164.2 265.9,231.5 						"/>
						<polygon class="st4" points="290.3,229.4 324.7,188.5 324.1,182.3 284,229.9 						"/>
						<polygon class="st4" points="263.1,231.7 322.3,161.4 321.8,155.1 256.8,232.3 						"/>
						<polygon class="st4" points="281.2,230.2 323.9,179.5 323.4,173.2 275,230.7 						"/>
						<polygon class="st4" points="320,134.2 319.5,128 229.7,234.6 235.9,234.1 						"/>
						<polygon class="st4" points="254,232.5 321.6,152.3 321,146.1 247.8,233 						"/>
						<polygon class="st4" points="245,233.3 320.8,143.2 320.2,137 238.7,233.8 						"/>
						<polygon class="st4" points="299.3,228.6 325.4,197.6 324.9,191.4 293.1,229.2 						"/>
						<polygon class="st4" points="326.5,226.3 327.8,224.8 327.2,218.5 320.2,226.8 						"/>
						<polygon class="st4" points="308.4,227.8 326.2,206.7 325.7,200.4 302.1,228.4 						"/>
						<polygon class="st4" points="317.4,227.1 327,215.7 326.5,209.5 311.2,227.6 						"/>
						<polygon class="st4" points="302.6,128 226.8,218 227.4,224.2 308.9,127.4 						"/>
						<polygon class="st4" points="293.6,128.7 226,208.9 226.6,215.2 299.8,128.2 						"/>
						<polygon class="st5" points="265.9,231.5 322.6,164.2 322.3,161.4 263.1,231.7 						"/>
						<polygon class="st5" points="284,229.9 324.1,182.3 323.9,179.5 281.2,230.2 						"/>
						<polygon class="st5" points="272.7,130.5 224.3,188 224.5,190.8 275.5,130.3 						"/>
						<polygon class="st5" points="254.5,132.1 222.7,169.9 222.9,172.7 257.4,131.9 						"/>
						<polygon class="st5" points="236.4,133.6 221.1,151.8 221.4,154.6 239.2,133.4 						"/>
						<polygon class="st5" points="275,230.7 323.4,173.2 323.1,170.4 272.1,231 						"/>
						<polygon class="st5" points="245.5,132.9 221.9,160.8 222.2,163.7 248.3,132.6 						"/>
						<polygon class="st5" points="238.7,233.8 320.2,137 320,134.2 235.9,234.1 						"/>
						<polygon class="st5" points="263.6,131.3 223.5,179 223.7,181.8 266.4,131.1 						"/>
						<polygon class="st5" points="256.8,232.3 321.8,155.1 321.6,152.3 254,232.5 						"/>
						<polygon class="st5" points="247.8,233 321,146.1 320.8,143.2 245,233.3 						"/>
						<polygon class="st5" points="319.4,126.5 317.9,126.7 228.1,233.3 228.3,234.7 229.7,234.6 319.5,128 						"/>
						<polygon class="st5" points="281.7,129.8 225,197.1 225.3,199.9 284.5,129.5 						"/>
						<polygon class="st5" points="227.4,134.4 220.4,142.7 220.6,145.5 230.2,134.2 						"/>
						<polygon class="st5" points="299.8,128.2 226.6,215.2 226.8,218 302.6,128 						"/>
						<polygon class="st5" points="320.2,226.8 327.2,218.5 327,215.7 317.4,227.1 						"/>
						<polygon class="st5" points="308.9,127.4 227.4,224.2 227.6,227.1 311.7,127.2 						"/>
						<polygon class="st5" points="327.9,226.2 327.8,224.8 326.5,226.3 						"/>
						<polygon class="st5" points="302.1,228.4 325.7,200.4 325.4,197.6 299.3,228.6 						"/>
						<polygon class="st5" points="293.1,229.2 324.9,191.4 324.7,188.5 290.3,229.4 						"/>
						<polygon class="st5" points="290.8,129 225.8,206.1 226,208.9 293.6,128.7 						"/>
						<polygon class="st5" points="311.2,227.6 326.5,209.5 326.2,206.7 308.4,227.8 						"/>
						<polygon class="st5" points="219.7,135.1 219.8,136.5 221.1,135 						"/>
					</g>
				</g>
				<g class="st2">
					<g class="st3">
						
							<rect x="107.1" y="-60.1" transform="matrix(0.9963 -8.537797e-02 8.537797e-02 0.9963 1.4363 13.3754)" class="st4" width="100" height="100"/>
						<polygon class="st4" points="158.8,-60.4 107.8,0.1 108.3,6.3 165,-61 						"/>
						<polygon class="st4" points="149.7,-59.7 107,-9 107.5,-2.7 155.9,-60.2 						"/>
						<polygon class="st4" points="140.6,-58.9 106.2,-18 106.8,-11.8 146.9,-59.4 						"/>
						<polygon class="st4" points="113.5,-56.5 103.9,-45.2 104.4,-38.9 119.7,-57.1 						"/>
						<polygon class="st4" points="104.4,-55.8 103.1,-54.2 103.7,-48 110.7,-56.3 						"/>
						<polygon class="st4" points="131.6,-58.1 105.5,-27.1 106,-20.8 137.8,-58.6 						"/>
						<polygon class="st4" points="122.5,-57.3 104.7,-36.1 105.2,-29.9 128.8,-57.9 						"/>
						<polygon class="st4" points="195,-63.5 110.9,36.3 111.4,42.6 201.2,-64.1 						"/>
						<polygon class="st4" points="167.8,-61.2 108.6,9.2 109.1,15.4 174.1,-61.7 						"/>
						<polygon class="st4" points="155.4,40.2 206.4,-20.3 205.9,-26.6 149.2,40.8 						"/>
						<polygon class="st4" points="173.5,38.7 208,-2.2 207.4,-8.4 167.3,39.2 						"/>
						<polygon class="st4" points="146.4,41 205.6,-29.4 205.1,-35.6 140.1,41.5 						"/>
						<polygon class="st4" points="164.5,39.4 207.2,-11.3 206.6,-17.5 158.2,40 						"/>
						<polygon class="st4" points="203.3,-56.5 202.8,-62.8 113,43.9 119.2,43.3 						"/>
						<polygon class="st4" points="137.3,41.8 204.8,-38.4 204.3,-44.7 131.1,42.3 						"/>
						<polygon class="st4" points="128.3,42.6 204.1,-47.5 203.5,-53.7 122,43.1 						"/>
						<polygon class="st4" points="182.6,37.9 208.7,6.9 208.2,0.6 176.4,38.4 						"/>
						<polygon class="st4" points="209.8,35.6 211.1,34 210.5,27.8 203.5,36.1 						"/>
						<polygon class="st4" points="191.7,37.1 209.5,15.9 209,9.7 185.4,37.7 						"/>
						<polygon class="st4" points="200.7,36.3 210.3,25 209.7,18.7 194.5,36.9 						"/>
						<polygon class="st4" points="185.9,-62.8 110.1,27.3 110.6,33.5 192.2,-63.3 						"/>
						<polygon class="st4" points="176.9,-62 109.3,18.2 109.9,24.5 183.1,-62.5 						"/>
						<polygon class="st5" points="149.2,40.8 205.9,-26.6 205.6,-29.4 146.4,41 						"/>
						<polygon class="st5" points="167.3,39.2 207.4,-8.4 207.2,-11.3 164.5,39.4 						"/>
						<polygon class="st5" points="155.9,-60.2 107.5,-2.7 107.8,0.1 158.8,-60.4 						"/>
						<polygon class="st5" points="137.8,-58.6 106,-20.8 106.2,-18 140.6,-58.9 						"/>
						<polygon class="st5" points="119.7,-57.1 104.4,-38.9 104.7,-36.1 122.5,-57.3 						"/>
						<polygon class="st5" points="158.2,40 206.6,-17.5 206.4,-20.3 155.4,40.2 						"/>
						<polygon class="st5" points="128.8,-57.9 105.2,-29.9 105.5,-27.1 131.6,-58.1 						"/>
						<polygon class="st5" points="122,43.1 203.5,-53.7 203.3,-56.5 119.2,43.3 						"/>
						<polygon class="st5" points="146.9,-59.4 106.8,-11.8 107,-9 149.7,-59.7 						"/>
						<polygon class="st5" points="140.1,41.5 205.1,-35.6 204.8,-38.4 137.3,41.8 						"/>
						<polygon class="st5" points="131.1,42.3 204.3,-44.7 204.1,-47.5 128.3,42.6 						"/>
						<polygon class="st5" points="202.6,-64.2 201.2,-64.1 111.4,42.6 111.5,44 113,43.9 202.8,-62.8 						"/>
						<polygon class="st5" points="165,-61 108.3,6.3 108.6,9.2 167.8,-61.2 						"/>
						<polygon class="st5" points="110.7,-56.3 103.7,-48 103.9,-45.2 113.5,-56.5 						"/>
						<polygon class="st5" points="183.1,-62.5 109.9,24.5 110.1,27.3 185.9,-62.8 						"/>
						<polygon class="st5" points="203.5,36.1 210.5,27.8 210.3,25 200.7,36.3 						"/>
						<polygon class="st5" points="192.2,-63.3 110.6,33.5 110.9,36.3 195,-63.5 						"/>
						<polygon class="st5" points="211.2,35.4 211.1,34 209.8,35.6 						"/>
						<polygon class="st5" points="185.4,37.7 209,9.7 208.7,6.9 182.6,37.9 						"/>
						<polygon class="st5" points="176.4,38.4 208.2,0.6 208,-2.2 173.5,38.7 						"/>
						<polygon class="st5" points="174.1,-61.7 109.1,15.4 109.3,18.2 176.9,-62 						"/>
						<polygon class="st5" points="194.5,36.9 209.7,18.7 209.5,15.9 191.7,37.1 						"/>
						<polygon class="st5" points="103,-55.7 103.1,-54.2 104.4,-55.8 						"/>
					</g>
				</g>
				<g class="st2">
					<g class="st3">
						
							<rect x="115.6" y="39.5" transform="matrix(0.9963 -8.537797e-02 8.537797e-02 0.9963 -7.0391 14.4682)" class="st4" width="100" height="100"/>
						<polygon class="st4" points="167.3,39.2 116.3,99.7 116.9,106 173.5,38.7 						"/>
						<polygon class="st4" points="158.2,40 115.5,90.7 116.1,96.9 164.5,39.4 						"/>
						<polygon class="st4" points="149.2,40.8 114.8,81.6 115.3,87.9 155.4,40.2 						"/>
						<polygon class="st4" points="122,43.1 112.4,54.4 113,60.7 128.3,42.6 						"/>
						<polygon class="st4" points="113,43.9 111.7,45.4 112.2,51.6 119.2,43.3 						"/>
						<polygon class="st4" points="140.1,41.5 114,72.6 114.5,78.8 146.4,41 						"/>
						<polygon class="st4" points="131.1,42.3 113.2,63.5 113.8,69.7 137.3,41.8 						"/>
						<polygon class="st4" points="203.5,36.1 119.4,136 120,142.2 209.8,35.6 						"/>
						<polygon class="st4" points="176.4,38.4 117.1,108.8 117.6,115 182.6,37.9 						"/>
						<polygon class="st4" points="164,139.9 214.9,79.3 214.4,73.1 157.7,140.4 						"/>
						<polygon class="st4" points="182.1,138.3 216.5,97.4 216,91.2 175.8,138.8 						"/>
						<polygon class="st4" points="154.9,140.6 214.2,70.3 213.6,64 148.7,141.2 						"/>
						<polygon class="st4" points="173,139.1 215.7,88.4 215.2,82.1 166.8,139.6 						"/>
						<polygon class="st4" points="211.8,43.1 211.3,36.9 121.5,143.5 127.7,143 						"/>
						<polygon class="st4" points="145.8,141.4 213.4,61.2 212.9,55 139.6,141.9 						"/>
						<polygon class="st4" points="136.8,142.2 212.6,52.2 212.1,45.9 130.5,142.7 						"/>
						<polygon class="st4" points="191.1,137.5 217.3,106.5 216.7,100.3 184.9,138.1 						"/>
						<polygon class="st4" points="218.3,135.2 219.6,133.7 219.1,127.4 212.1,135.7 						"/>
						<polygon class="st4" points="200.2,136.8 218,115.6 217.5,109.3 194,137.3 						"/>
						<polygon class="st4" points="209.3,136 218.8,124.6 218.3,118.4 203,136.5 						"/>
						<polygon class="st4" points="194.5,36.9 118.7,126.9 119.2,133.2 200.7,36.3 						"/>
						<polygon class="st4" points="185.4,37.7 117.9,117.9 118.4,124.1 191.7,37.1 						"/>
						<polygon class="st5" points="157.7,140.4 214.4,73.1 214.2,70.3 154.9,140.6 						"/>
						<polygon class="st5" points="175.8,138.8 216,91.2 215.7,88.4 173,139.1 						"/>
						<polygon class="st5" points="164.5,39.4 116.1,96.9 116.3,99.7 167.3,39.2 						"/>
						<polygon class="st5" points="146.4,41 114.5,78.8 114.8,81.6 149.2,40.8 						"/>
						<polygon class="st5" points="128.3,42.6 113,60.7 113.2,63.5 131.1,42.3 						"/>
						<polygon class="st5" points="166.8,139.6 215.2,82.1 214.9,79.3 164,139.9 						"/>
						<polygon class="st5" points="137.3,41.8 113.8,69.7 114,72.6 140.1,41.5 						"/>
						<polygon class="st5" points="130.5,142.7 212.1,45.9 211.8,43.1 127.7,143 						"/>
						<polygon class="st5" points="155.4,40.2 115.3,87.9 115.5,90.7 158.2,40 						"/>
						<polygon class="st5" points="148.7,141.2 213.6,64 213.4,61.2 145.8,141.4 						"/>
						<polygon class="st5" points="139.6,141.9 212.9,55 212.6,52.2 136.8,142.2 						"/>
						<polygon class="st5" points="211.2,35.4 209.8,35.6 120,142.2 120.1,143.6 121.5,143.5 211.3,36.9 						"/>
						<polygon class="st5" points="173.5,38.7 116.9,106 117.1,108.8 176.4,38.4 						"/>
						<polygon class="st5" points="119.2,43.3 112.2,51.6 112.4,54.4 122,43.1 						"/>
						<polygon class="st5" points="191.7,37.1 118.4,124.1 118.7,126.9 194.5,36.9 						"/>
						<polygon class="st5" points="212.1,135.7 219.1,127.4 218.8,124.6 209.3,136 						"/>
						<polygon class="st5" points="200.7,36.3 119.2,133.2 119.4,136 203.5,36.1 						"/>
						<polygon class="st5" points="219.7,135.1 219.6,133.7 218.3,135.2 						"/>
						<polygon class="st5" points="194,137.3 217.5,109.3 217.3,106.5 191.1,137.5 						"/>
						<polygon class="st5" points="184.9,138.1 216.7,100.3 216.5,97.4 182.1,138.3 						"/>
						<polygon class="st5" points="182.6,37.9 117.6,115 117.9,117.9 185.4,37.7 						"/>
						<polygon class="st5" points="203,136.5 218.3,118.4 218,115.6 200.2,136.8 						"/>
						<polygon class="st5" points="111.5,44 111.7,45.4 113,43.9 						"/>
					</g>
				</g>
				<g class="st2">
					<g class="st3">
						
							<rect x="124.2" y="139.2" transform="matrix(0.9963 -8.537797e-02 8.537797e-02 0.9963 -15.5146 15.5609)" class="st4" width="100" height="100"/>
						<polygon class="st4" points="175.8,138.8 124.9,199.4 125.4,205.6 182.1,138.3 						"/>
						<polygon class="st4" points="166.8,139.6 124.1,190.3 124.6,196.6 173,139.1 						"/>
						<polygon class="st4" points="157.7,140.4 123.3,181.3 123.8,187.5 164,139.9 						"/>
						<polygon class="st4" points="130.5,142.7 121,154.1 121.5,160.3 136.8,142.2 						"/>
						<polygon class="st4" points="121.5,143.5 120.2,145 120.7,151.3 127.7,143 						"/>
						<polygon class="st4" points="148.7,141.2 122.5,172.2 123.1,178.4 154.9,140.6 						"/>
						<polygon class="st4" points="139.6,141.9 121.8,163.1 122.3,169.4 145.8,141.4 						"/>
						<polygon class="st4" points="212.1,135.7 128,235.6 128.5,241.8 218.3,135.2 						"/>
						<polygon class="st4" points="184.9,138.1 125.6,208.4 126.2,214.7 191.1,137.5 						"/>
						<polygon class="st4" points="172.5,239.5 223.5,179 222.9,172.7 166.3,240 						"/>
						<polygon class="st4" points="190.6,237.9 225,197.1 224.5,190.8 184.4,238.5 						"/>
						<polygon class="st4" points="163.4,240.3 222.7,169.9 222.2,163.7 157.2,240.8 						"/>
						<polygon class="st4" points="181.6,238.7 224.3,188 223.7,181.8 175.3,239.3 						"/>
						<polygon class="st4" points="220.4,142.7 219.8,136.5 130,243.1 136.3,242.6 						"/>
						<polygon class="st4" points="154.4,241 221.9,160.8 221.4,154.6 148.1,241.6 						"/>
						<polygon class="st4" points="145.3,241.8 221.1,151.8 220.6,145.5 139.1,242.4 						"/>
						<polygon class="st4" points="199.7,237.2 225.8,206.1 225.3,199.9 193.4,237.7 						"/>
						<polygon class="st4" points="226.8,234.8 228.1,233.3 227.6,227.1 220.6,235.4 						"/>
						<polygon class="st4" points="208.7,236.4 226.6,215.2 226,208.9 202.5,236.9 						"/>
						<polygon class="st4" points="217.8,235.6 227.4,224.2 226.8,218 211.5,236.1 						"/>
						<polygon class="st4" points="203,136.5 127.2,226.5 127.7,232.8 209.3,136 						"/>
						<polygon class="st4" points="194,137.3 126.4,217.5 126.9,223.7 200.2,136.8 						"/>
						<polygon class="st5" points="166.3,240 222.9,172.7 222.7,169.9 163.4,240.3 						"/>
						<polygon class="st5" points="184.4,238.5 224.5,190.8 224.3,188 181.6,238.7 						"/>
						<polygon class="st5" points="173,139.1 124.6,196.6 124.9,199.4 175.8,138.8 						"/>
						<polygon class="st5" points="154.9,140.6 123.1,178.4 123.3,181.3 157.7,140.4 						"/>
						<polygon class="st5" points="136.8,142.2 121.5,160.3 121.8,163.1 139.6,141.9 						"/>
						<polygon class="st5" points="175.3,239.3 223.7,181.8 223.5,179 172.5,239.5 						"/>
						<polygon class="st5" points="145.8,141.4 122.3,169.4 122.5,172.2 148.7,141.2 						"/>
						<polygon class="st5" points="139.1,242.4 220.6,145.5 220.4,142.7 136.3,242.6 						"/>
						<polygon class="st5" points="164,139.9 123.8,187.5 124.1,190.3 166.8,139.6 						"/>
						<polygon class="st5" points="157.2,240.8 222.2,163.7 221.9,160.8 154.4,241 						"/>
						<polygon class="st5" points="148.1,241.6 221.4,154.6 221.1,151.8 145.3,241.8 						"/>
						<polygon class="st5" points="219.7,135.1 218.3,135.2 128.5,241.8 128.6,243.3 130,243.1 219.8,136.5 						"/>
						<polygon class="st5" points="182.1,138.3 125.4,205.6 125.6,208.4 184.9,138.1 						"/>
						<polygon class="st5" points="127.7,143 120.7,151.3 121,154.1 130.5,142.7 						"/>
						<polygon class="st5" points="200.2,136.8 126.9,223.7 127.2,226.5 203,136.5 						"/>
						<polygon class="st5" points="220.6,235.4 227.6,227.1 227.4,224.2 217.8,235.6 						"/>
						<polygon class="st5" points="209.3,136 127.7,232.8 128,235.6 212.1,135.7 						"/>
						<polygon class="st5" points="228.3,234.7 228.1,233.3 226.8,234.8 						"/>
						<polygon class="st5" points="202.5,236.9 226,208.9 225.8,206.1 199.7,237.2 						"/>
						<polygon class="st5" points="193.4,237.7 225.3,199.9 225,197.1 190.6,237.9 						"/>
						<polygon class="st5" points="191.1,137.5 126.2,214.7 126.4,217.5 194,137.3 						"/>
						<polygon class="st5" points="211.5,236.1 226.8,218 226.6,215.2 208.7,236.4 						"/>
						<polygon class="st5" points="120.1,143.6 120.2,145 121.5,143.5 						"/>
					</g>
				</g>
				<g class="st2">
					<g class="st3">
						
							<rect x="132.7" y="238.8" transform="matrix(0.9963 -8.537797e-02 8.537797e-02 0.9963 -23.99 16.6536)" class="st4" width="100" height="100"/>
						<polygon class="st4" points="184.4,238.5 133.4,299 133.9,305.2 190.6,237.9 						"/>
						<polygon class="st4" points="175.3,239.3 132.6,289.9 133.2,296.2 181.6,238.7 						"/>
						<polygon class="st4" points="166.3,240 131.8,280.9 132.4,287.1 172.5,239.5 						"/>
						<polygon class="st4" points="139.1,242.4 129.5,253.7 130.1,260 145.3,241.8 						"/>
						<polygon class="st4" points="130,243.1 128.7,244.7 129.3,250.9 136.3,242.6 						"/>
						<polygon class="st4" points="157.2,240.8 131.1,271.8 131.6,278.1 163.4,240.3 						"/>
						<polygon class="st4" points="148.1,241.6 130.3,262.8 130.8,269 154.4,241 						"/>
						<polygon class="st4" points="220.6,235.4 136.5,335.2 137,341.5 226.8,234.8 						"/>
						<polygon class="st4" points="193.4,237.7 134.2,308.1 134.7,314.3 199.7,237.2 						"/>
						<polygon class="st4" points="181,339.1 232,278.6 231.5,272.4 174.8,339.7 						"/>
						<polygon class="st4" points="199.2,337.6 233.6,296.7 233,290.5 192.9,338.1 						"/>
						<polygon class="st4" points="172,339.9 231.2,269.5 230.7,263.3 165.7,340.4 						"/>
						<polygon class="st4" points="190.1,338.4 232.8,287.7 232.3,281.4 183.9,338.9 						"/>
						<polygon class="st4" points="228.9,242.4 228.4,236.1 138.6,342.8 144.8,342.2 						"/>
						<polygon class="st4" points="162.9,340.7 230.5,260.5 229.9,254.2 156.7,341.2 						"/>
						<polygon class="st4" points="153.9,341.5 229.7,251.4 229.2,245.2 147.6,342 						"/>
						<polygon class="st4" points="208.2,336.8 234.3,305.8 233.8,299.5 202,337.3 						"/>
						<polygon class="st4" points="235.4,334.5 236.7,332.9 236.1,326.7 229.1,335 						"/>
						<polygon class="st4" points="217.3,336 235.1,314.8 234.6,308.6 211,336.6 						"/>
						<polygon class="st4" points="226.3,335.2 235.9,323.9 235.4,317.6 220.1,335.8 						"/>
						<polygon class="st4" points="211.5,236.1 135.7,326.2 136.3,332.4 217.8,235.6 						"/>
						<polygon class="st4" points="202.5,236.9 135,317.1 135.5,323.4 208.7,236.4 						"/>
						<polygon class="st5" points="174.8,339.7 231.5,272.4 231.2,269.5 172,339.9 						"/>
						<polygon class="st5" points="192.9,338.1 233,290.5 232.8,287.7 190.1,338.4 						"/>
						<polygon class="st5" points="181.6,238.7 133.2,296.2 133.4,299 184.4,238.5 						"/>
						<polygon class="st5" points="163.4,240.3 131.6,278.1 131.8,280.9 166.3,240 						"/>
						<polygon class="st5" points="145.3,241.8 130.1,260 130.3,262.8 148.1,241.6 						"/>
						<polygon class="st5" points="183.9,338.9 232.3,281.4 232,278.6 181,339.1 						"/>
						<polygon class="st5" points="154.4,241 130.8,269 131.1,271.8 157.2,240.8 						"/>
						<polygon class="st5" points="147.6,342 229.2,245.2 228.9,242.4 144.8,342.2 						"/>
						<polygon class="st5" points="172.5,239.5 132.4,287.1 132.6,289.9 175.3,239.3 						"/>
						<polygon class="st5" points="165.7,340.4 230.7,263.3 230.5,260.5 162.9,340.7 						"/>
						<polygon class="st5" points="156.7,341.2 229.9,254.2 229.7,251.4 153.9,341.5 						"/>
						<polygon class="st5" points="228.3,234.7 226.8,234.8 137,341.5 137.2,342.9 138.6,342.8 228.4,236.1 						"/>
						<polygon class="st5" points="190.6,237.9 133.9,305.2 134.2,308.1 193.4,237.7 						"/>
						<polygon class="st5" points="136.3,242.6 129.3,250.9 129.5,253.7 139.1,242.4 						"/>
						<polygon class="st5" points="208.7,236.4 135.5,323.4 135.7,326.2 211.5,236.1 						"/>
						<polygon class="st5" points="229.1,335 236.1,326.7 235.9,323.9 226.3,335.2 						"/>
						<polygon class="st5" points="217.8,235.6 136.3,332.4 136.5,335.2 220.6,235.4 						"/>
						<polygon class="st5" points="236.8,334.3 236.7,332.9 235.4,334.5 						"/>
						<polygon class="st5" points="211,336.6 234.6,308.6 234.3,305.8 208.2,336.8 						"/>
						<polygon class="st5" points="202,337.3 233.8,299.5 233.6,296.7 199.2,337.6 						"/>
						<polygon class="st5" points="199.7,237.2 134.7,314.3 135,317.1 202.5,236.9 						"/>
						<polygon class="st5" points="220.1,335.8 235.4,317.6 235.1,314.8 217.3,336 						"/>
						<polygon class="st5" points="128.6,243.3 128.7,244.7 130,243.1 						"/>
					</g>
				</g>
				<g class="st2">
					<g class="st3">
						
							<rect x="141.2" y="338.4" transform="matrix(0.9963 -8.537797e-02 8.537797e-02 0.9963 -32.4655 17.7464)" class="st4" width="100" height="100"/>
						<polygon class="st4" points="192.9,338.1 141.9,398.6 142.5,404.9 199.2,337.6 						"/>
						<polygon class="st4" points="183.9,338.9 141.2,389.6 141.7,395.8 190.1,338.4 						"/>
						<polygon class="st4" points="174.8,339.7 140.4,380.5 140.9,386.8 181,339.1 						"/>
						<polygon class="st4" points="147.6,342 138.1,353.4 138.6,359.6 153.9,341.5 						"/>
						<polygon class="st4" points="138.6,342.8 137.3,344.3 137.8,350.5 144.8,342.2 						"/>
						<polygon class="st4" points="165.7,340.4 139.6,371.5 140.1,377.7 172,339.9 						"/>
						<polygon class="st4" points="156.7,341.2 138.8,362.4 139.4,368.7 162.9,340.7 						"/>
						<polygon class="st4" points="229.1,335 145,434.9 145.6,441.1 235.4,334.5 						"/>
						<polygon class="st4" points="202,337.3 142.7,407.7 143.2,413.9 208.2,336.8 						"/>
						<polygon class="st4" points="189.6,438.8 240.6,378.2 240,372 183.3,439.3 						"/>
						<polygon class="st4" points="207.7,437.2 242.1,396.3 241.6,390.1 201.5,437.7 						"/>
						<polygon class="st4" points="180.5,439.5 239.8,369.2 239.2,362.9 174.3,440.1 						"/>
						<polygon class="st4" points="198.6,438 241.3,387.3 240.8,381 192.4,438.5 						"/>
						<polygon class="st4" points="237.4,342 236.9,335.8 147.1,442.4 153.3,441.9 						"/>
						<polygon class="st4" points="171.5,440.3 239,360.1 238.5,353.9 165.2,440.8 						"/>
						<polygon class="st4" points="162.4,441.1 238.2,351.1 237.7,344.8 156.2,441.6 						"/>
						<polygon class="st4" points="216.7,436.4 242.9,405.4 242.3,399.2 210.5,437 						"/>
						<polygon class="st4" points="243.9,434.1 245.2,432.6 244.7,426.3 237.7,434.6 						"/>
						<polygon class="st4" points="225.8,435.7 243.7,414.5 243.1,408.2 219.6,436.2 						"/>
						<polygon class="st4" points="234.9,434.9 244.4,423.5 243.9,417.3 228.6,435.4 						"/>
						<polygon class="st4" points="220.1,335.8 144.3,425.8 144.8,432.1 226.3,335.2 						"/>
						<polygon class="st4" points="211,336.6 143.5,416.8 144,423 217.3,336 						"/>
						<polygon class="st5" points="183.3,439.3 240,372 239.8,369.2 180.5,439.5 						"/>
						<polygon class="st5" points="201.5,437.7 241.6,390.1 241.3,387.3 198.6,438 						"/>
						<polygon class="st5" points="190.1,338.4 141.7,395.8 141.9,398.6 192.9,338.1 						"/>
						<polygon class="st5" points="172,339.9 140.1,377.7 140.4,380.5 174.8,339.7 						"/>
						<polygon class="st5" points="153.9,341.5 138.6,359.6 138.8,362.4 156.7,341.2 						"/>
						<polygon class="st5" points="192.4,438.5 240.8,381 240.6,378.2 189.6,438.8 						"/>
						<polygon class="st5" points="162.9,340.7 139.4,368.7 139.6,371.5 165.7,340.4 						"/>
						<polygon class="st5" points="156.2,441.6 237.7,344.8 237.4,342 153.3,441.9 						"/>
						<polygon class="st5" points="181,339.1 140.9,386.8 141.2,389.6 183.9,338.9 						"/>
						<polygon class="st5" points="174.3,440.1 239.2,362.9 239,360.1 171.5,440.3 						"/>
						<polygon class="st5" points="165.2,440.8 238.5,353.9 238.2,351.1 162.4,441.1 						"/>
						<polygon class="st5" points="236.8,334.3 235.4,334.5 145.6,441.1 145.7,442.5 147.1,442.4 236.9,335.8 						"/>
						<polygon class="st5" points="199.2,337.6 142.5,404.9 142.7,407.7 202,337.3 						"/>
						<polygon class="st5" points="144.8,342.2 137.8,350.5 138.1,353.4 147.6,342 						"/>
						<polygon class="st5" points="217.3,336 144,423 144.3,425.8 220.1,335.8 						"/>
						<polygon class="st5" points="237.7,434.6 244.7,426.3 244.4,423.5 234.9,434.9 						"/>
						<polygon class="st5" points="226.3,335.2 144.8,432.1 145,434.9 229.1,335 						"/>
						<polygon class="st5" points="245.3,434 245.2,432.6 243.9,434.1 						"/>
						<polygon class="st5" points="219.6,436.2 243.1,408.2 242.9,405.4 216.7,436.4 						"/>
						<polygon class="st5" points="210.5,437 242.3,399.2 242.1,396.3 207.7,437.2 						"/>
						<polygon class="st5" points="208.2,336.8 143.2,413.9 143.5,416.8 211,336.6 						"/>
						<polygon class="st5" points="228.6,435.4 243.9,417.3 243.7,414.5 225.8,435.7 						"/>
						<polygon class="st5" points="137.2,342.9 137.3,344.3 138.6,342.8 						"/>
					</g>
				</g>
				<g class="st2">
					<g class="st3">
						
							<rect x="7.5" y="-51.6" transform="matrix(0.9963 -8.537797e-02 8.537797e-02 0.9963 0.3436 4.9)" class="st4" width="100" height="100"/>
						<polygon class="st4" points="59.1,-51.9 8.1,8.6 8.7,14.9 65.4,-52.4 						"/>
						<polygon class="st4" points="50.1,-51.1 7.4,-0.4 7.9,5.8 56.3,-51.7 						"/>
						<polygon class="st4" points="41,-50.3 6.6,-9.5 7.1,-3.2 47.3,-50.9 						"/>
						<polygon class="st4" points="13.8,-48 4.3,-36.6 4.8,-30.4 20.1,-48.5 						"/>
						<polygon class="st4" points="4.8,-47.2 3.5,-45.7 4,-39.5 11,-47.8 						"/>
						<polygon class="st4" points="32,-49.6 5.8,-18.5 6.4,-12.3 38.2,-50.1 						"/>
						<polygon class="st4" points="22.9,-48.8 5,-27.6 5.6,-21.4 29.1,-49.3 						"/>
						<polygon class="st4" points="95.4,-55 11.3,44.9 11.8,51.1 101.6,-55.5 						"/>
						<polygon class="st4" points="68.2,-52.7 8.9,17.7 9.5,23.9 74.4,-53.2 						"/>
						<polygon class="st4" points="55.8,48.8 106.8,-11.8 106.2,-18 49.5,49.3 						"/>
						<polygon class="st4" points="73.9,47.2 108.3,6.3 107.8,0.1 67.7,47.7 						"/>
						<polygon class="st4" points="46.7,49.5 106,-20.8 105.5,-27.1 40.5,50.1 						"/>
						<polygon class="st4" points="64.8,48 107.5,-2.7 107,-9 58.6,48.5 						"/>
						<polygon class="st4" points="103.7,-48 103.1,-54.2 13.3,52.4 19.6,51.9 						"/>
						<polygon class="st4" points="37.7,50.3 105.2,-29.9 104.7,-36.1 31.4,50.8 						"/>
						<polygon class="st4" points="28.6,51.1 104.4,-38.9 103.9,-45.2 22.4,51.6 						"/>
						<polygon class="st4" points="83,46.4 109.1,15.4 108.6,9.2 76.7,47 						"/>
						<polygon class="st4" points="110.1,44.1 111.4,42.6 110.9,36.3 103.9,44.6 						"/>
						<polygon class="st4" points="92,45.7 109.9,24.5 109.3,18.2 85.8,46.2 						"/>
						<polygon class="st4" points="101.1,44.9 110.6,33.5 110.1,27.3 94.8,45.4 						"/>
						<polygon class="st4" points="86.3,-54.2 10.5,35.8 11,42.1 92.5,-54.8 						"/>
						<polygon class="st4" points="77.2,-53.4 9.7,26.8 10.2,33 83.5,-54 						"/>
						<polygon class="st5" points="49.5,49.3 106.2,-18 106,-20.8 46.7,49.5 						"/>
						<polygon class="st5" points="67.7,47.7 107.8,0.1 107.5,-2.7 64.8,48 						"/>
						<polygon class="st5" points="56.3,-51.7 7.9,5.8 8.1,8.6 59.1,-51.9 						"/>
						<polygon class="st5" points="38.2,-50.1 6.4,-12.3 6.6,-9.5 41,-50.3 						"/>
						<polygon class="st5" points="20.1,-48.5 4.8,-30.4 5,-27.6 22.9,-48.8 						"/>
						<polygon class="st5" points="58.6,48.5 107,-9 106.8,-11.8 55.8,48.8 						"/>
						<polygon class="st5" points="29.1,-49.3 5.6,-21.4 5.8,-18.5 32,-49.6 						"/>
						<polygon class="st5" points="22.4,51.6 103.9,-45.2 103.7,-48 19.6,51.9 						"/>
						<polygon class="st5" points="47.3,-50.9 7.1,-3.2 7.4,-0.4 50.1,-51.1 						"/>
						<polygon class="st5" points="40.5,50.1 105.5,-27.1 105.2,-29.9 37.7,50.3 						"/>
						<polygon class="st5" points="31.4,50.8 104.7,-36.1 104.4,-38.9 28.6,51.1 						"/>
						<polygon class="st5" points="103,-55.7 101.6,-55.5 11.8,51.1 11.9,52.5 13.3,52.4 103.1,-54.2 						"/>
						<polygon class="st5" points="65.4,-52.4 8.7,14.9 8.9,17.7 68.2,-52.7 						"/>
						<polygon class="st5" points="11,-47.8 4,-39.5 4.3,-36.6 13.8,-48 						"/>
						<polygon class="st5" points="83.5,-54 10.2,33 10.5,35.8 86.3,-54.2 						"/>
						<polygon class="st5" points="103.9,44.6 110.9,36.3 110.6,33.5 101.1,44.9 						"/>
						<polygon class="st5" points="92.5,-54.8 11,42.1 11.3,44.9 95.4,-55 						"/>
						<polygon class="st5" points="111.5,44 111.4,42.6 110.1,44.1 						"/>
						<polygon class="st5" points="85.8,46.2 109.3,18.2 109.1,15.4 83,46.4 						"/>
						<polygon class="st5" points="76.7,47 108.6,9.2 108.3,6.3 73.9,47.2 						"/>
						<polygon class="st5" points="74.4,-53.2 9.5,23.9 9.7,26.8 77.2,-53.4 						"/>
						<polygon class="st5" points="94.8,45.4 110.1,27.3 109.9,24.5 92,45.7 						"/>
						<polygon class="st5" points="3.4,-47.1 3.5,-45.7 4.8,-47.2 						"/>
					</g>
				</g>
				<g class="st2">
					<g class="st3">
						
							<rect x="16" y="48.1" transform="matrix(0.9963 -8.537797e-02 8.537797e-02 0.9963 -8.1319 5.9927)" class="st4" width="100" height="100"/>
						<polygon class="st4" points="67.7,47.7 16.7,108.3 17.2,114.5 73.9,47.2 						"/>
						<polygon class="st4" points="58.6,48.5 15.9,99.2 16.4,105.5 64.8,48 						"/>
						<polygon class="st4" points="49.5,49.3 15.1,90.2 15.7,96.4 55.8,48.8 						"/>
						<polygon class="st4" points="22.4,51.6 12.8,63 13.3,69.2 28.6,51.1 						"/>
						<polygon class="st4" points="13.3,52.4 12,53.9 12.6,60.2 19.6,51.9 						"/>
						<polygon class="st4" points="40.5,50.1 14.4,81.1 14.9,87.3 46.7,49.5 						"/>
						<polygon class="st4" points="31.4,50.8 13.6,72 14.1,78.3 37.7,50.3 						"/>
						<polygon class="st4" points="103.9,44.6 19.8,144.5 20.3,150.7 110.1,44.1 						"/>
						<polygon class="st4" points="76.7,47 17.5,117.3 18,123.6 83,46.4 						"/>
						<polygon class="st4" points="64.3,148.4 115.3,87.9 114.8,81.6 58.1,148.9 						"/>
						<polygon class="st4" points="82.4,146.8 116.9,106 116.3,99.7 76.2,147.4 						"/>
						<polygon class="st4" points="55.3,149.2 114.5,78.8 114,72.6 49,149.7 						"/>
						<polygon class="st4" points="73.4,147.6 116.1,96.9 115.5,90.7 67.1,148.2 						"/>
						<polygon class="st4" points="112.2,51.6 111.7,45.4 21.9,152 28.1,151.5 						"/>
						<polygon class="st4" points="46.2,149.9 113.8,69.7 113.2,63.5 40,150.5 						"/>
						<polygon class="st4" points="37.2,150.7 113,60.7 112.4,54.4 30.9,151.3 						"/>
						<polygon class="st4" points="91.5,146.1 117.6,115 117.1,108.8 85.3,146.6 						"/>
						<polygon class="st4" points="118.7,143.7 120,142.2 119.4,136 112.4,144.3 						"/>
						<polygon class="st4" points="100.6,145.3 118.4,124.1 117.9,117.9 94.3,145.8 						"/>
						<polygon class="st4" points="109.6,144.5 119.2,133.2 118.7,126.9 103.4,145 						"/>
						<polygon class="st4" points="94.8,45.4 19,135.4 19.6,141.7 101.1,44.9 						"/>
						<polygon class="st4" points="85.8,46.2 18.2,126.4 18.8,132.6 92,45.7 						"/>
						<polygon class="st5" points="58.1,148.9 114.8,81.6 114.5,78.8 55.3,149.2 						"/>
						<polygon class="st5" points="76.2,147.4 116.3,99.7 116.1,96.9 73.4,147.6 						"/>
						<polygon class="st5" points="64.8,48 16.4,105.5 16.7,108.3 67.7,47.7 						"/>
						<polygon class="st5" points="46.7,49.5 14.9,87.3 15.1,90.2 49.5,49.3 						"/>
						<polygon class="st5" points="28.6,51.1 13.3,69.2 13.6,72 31.4,50.8 						"/>
						<polygon class="st5" points="67.1,148.2 115.5,90.7 115.3,87.9 64.3,148.4 						"/>
						<polygon class="st5" points="37.7,50.3 14.1,78.3 14.4,81.1 40.5,50.1 						"/>
						<polygon class="st5" points="30.9,151.3 112.4,54.4 112.2,51.6 28.1,151.5 						"/>
						<polygon class="st5" points="55.8,48.8 15.7,96.4 15.9,99.2 58.6,48.5 						"/>
						<polygon class="st5" points="49,149.7 114,72.6 113.8,69.7 46.2,149.9 						"/>
						<polygon class="st5" points="40,150.5 113.2,63.5 113,60.7 37.2,150.7 						"/>
						<polygon class="st5" points="111.5,44 110.1,44.1 20.3,150.7 20.4,152.2 21.9,152 111.7,45.4 						"/>
						<polygon class="st5" points="73.9,47.2 17.2,114.5 17.5,117.3 76.7,47 						"/>
						<polygon class="st5" points="19.6,51.9 12.6,60.2 12.8,63 22.4,51.6 						"/>
						<polygon class="st5" points="92,45.7 18.8,132.6 19,135.4 94.8,45.4 						"/>
						<polygon class="st5" points="112.4,144.3 119.4,136 119.2,133.2 109.6,144.5 						"/>
						<polygon class="st5" points="101.1,44.9 19.6,141.7 19.8,144.5 103.9,44.6 						"/>
						<polygon class="st5" points="120.1,143.6 120,142.2 118.7,143.7 						"/>
						<polygon class="st5" points="94.3,145.8 117.9,117.9 117.6,115 91.5,146.1 						"/>
						<polygon class="st5" points="85.3,146.6 117.1,108.8 116.9,106 82.4,146.8 						"/>
						<polygon class="st5" points="83,46.4 18,123.6 18.2,126.4 85.8,46.2 						"/>
						<polygon class="st5" points="103.4,145 118.7,126.9 118.4,124.1 100.6,145.3 						"/>
						<polygon class="st5" points="11.9,52.5 12,53.9 13.3,52.4 						"/>
					</g>
				</g>
				<g class="st2">
					<g class="st3">
						
							<rect x="24.5" y="147.7" transform="matrix(0.9963 -8.537797e-02 8.537797e-02 0.9963 -16.6073 7.0855)" class="st4" width="100" height="100"/>
						<polygon class="st4" points="76.2,147.4 25.2,207.9 25.8,214.2 82.4,146.8 						"/>
						<polygon class="st4" points="67.1,148.2 24.4,198.9 25,205.1 73.4,147.6 						"/>
						<polygon class="st4" points="58.1,148.9 23.7,189.8 24.2,196 64.3,148.4 						"/>
						<polygon class="st4" points="30.9,151.3 21.3,162.6 21.9,168.9 37.2,150.7 						"/>
						<polygon class="st4" points="21.9,152 20.6,153.6 21.1,159.8 28.1,151.5 						"/>
						<polygon class="st4" points="49,149.7 22.9,180.7 23.4,187 55.3,149.2 						"/>
						<polygon class="st4" points="40,150.5 22.1,171.7 22.7,177.9 46.2,149.9 						"/>
						<polygon class="st4" points="112.4,144.3 28.3,244.1 28.9,250.4 118.7,143.7 						"/>
						<polygon class="st4" points="85.3,146.6 26,217 26.5,223.2 91.5,146.1 						"/>
						<polygon class="st4" points="72.9,248 123.8,187.5 123.3,181.3 66.6,248.6 						"/>
						<polygon class="st4" points="91,246.5 125.4,205.6 124.9,199.4 84.7,247 						"/>
						<polygon class="st4" points="63.8,248.8 123.1,178.4 122.5,172.2 57.6,249.3 						"/>
						<polygon class="st4" points="81.9,247.3 124.6,196.6 124.1,190.3 75.7,247.8 						"/>
						<polygon class="st4" points="120.7,151.3 120.2,145 30.4,251.7 36.6,251.1 						"/>
						<polygon class="st4" points="54.8,249.6 122.3,169.4 121.8,163.1 48.5,250.1 						"/>
						<polygon class="st4" points="45.7,250.4 121.5,160.3 121,154.1 39.5,250.9 						"/>
						<polygon class="st4" points="100,245.7 126.2,214.7 125.6,208.4 93.8,246.2 						"/>
						<polygon class="st4" points="127.2,243.4 128.5,241.8 128,235.6 121,243.9 						"/>
						<polygon class="st4" points="109.1,244.9 126.9,223.7 126.4,217.5 102.9,245.5 						"/>
						<polygon class="st4" points="118.2,244.1 127.7,232.8 127.2,226.5 111.9,244.7 						"/>
						<polygon class="st4" points="103.4,145 27.6,235.1 28.1,241.3 109.6,144.5 						"/>
						<polygon class="st4" points="94.3,145.8 26.8,226 27.3,232.3 100.6,145.3 						"/>
						<polygon class="st5" points="66.6,248.6 123.3,181.3 123.1,178.4 63.8,248.8 						"/>
						<polygon class="st5" points="84.7,247 124.9,199.4 124.6,196.6 81.9,247.3 						"/>
						<polygon class="st5" points="73.4,147.6 25,205.1 25.2,207.9 76.2,147.4 						"/>
						<polygon class="st5" points="55.3,149.2 23.4,187 23.7,189.8 58.1,148.9 						"/>
						<polygon class="st5" points="37.2,150.7 21.9,168.9 22.1,171.7 40,150.5 						"/>
						<polygon class="st5" points="75.7,247.8 124.1,190.3 123.8,187.5 72.9,248 						"/>
						<polygon class="st5" points="46.2,149.9 22.7,177.9 22.9,180.7 49,149.7 						"/>
						<polygon class="st5" points="39.5,250.9 121,154.1 120.7,151.3 36.6,251.1 						"/>
						<polygon class="st5" points="64.3,148.4 24.2,196 24.4,198.9 67.1,148.2 						"/>
						<polygon class="st5" points="57.6,249.3 122.5,172.2 122.3,169.4 54.8,249.6 						"/>
						<polygon class="st5" points="48.5,250.1 121.8,163.1 121.5,160.3 45.7,250.4 						"/>
						<polygon class="st5" points="120.1,143.6 118.7,143.7 28.9,250.4 29,251.8 30.4,251.7 120.2,145 						"/>
						<polygon class="st5" points="82.4,146.8 25.8,214.2 26,217 85.3,146.6 						"/>
						<polygon class="st5" points="28.1,151.5 21.1,159.8 21.3,162.6 30.9,151.3 						"/>
						<polygon class="st5" points="100.6,145.3 27.3,232.3 27.6,235.1 103.4,145 						"/>
						<polygon class="st5" points="121,243.9 128,235.6 127.7,232.8 118.2,244.1 						"/>
						<polygon class="st5" points="109.6,144.5 28.1,241.3 28.3,244.1 112.4,144.3 						"/>
						<polygon class="st5" points="128.6,243.3 128.5,241.8 127.2,243.4 						"/>
						<polygon class="st5" points="102.9,245.5 126.4,217.5 126.2,214.7 100,245.7 						"/>
						<polygon class="st5" points="93.8,246.2 125.6,208.4 125.4,205.6 91,246.5 						"/>
						<polygon class="st5" points="91.5,146.1 26.5,223.2 26.8,226 94.3,145.8 						"/>
						<polygon class="st5" points="111.9,244.7 127.2,226.5 126.9,223.7 109.1,244.9 						"/>
						<polygon class="st5" points="20.4,152.2 20.6,153.6 21.9,152 						"/>
					</g>
				</g>
				<g class="st2">
					<g class="st3">
						
							<rect x="33.1" y="247.3" transform="matrix(0.9963 -8.537797e-02 8.537797e-02 0.9963 -25.0828 8.1782)" class="st4" width="100" height="100"/>
						<polygon class="st4" points="84.7,247 33.8,307.5 34.3,313.8 91,246.5 						"/>
						<polygon class="st4" points="75.7,247.8 33,298.5 33.5,304.7 81.9,247.3 						"/>
						<polygon class="st4" points="66.6,248.6 32.2,289.4 32.7,295.7 72.9,248 						"/>
						<polygon class="st4" points="39.5,250.9 29.9,262.3 30.4,268.5 45.7,250.4 						"/>
						<polygon class="st4" points="30.4,251.7 29.1,253.2 29.6,259.4 36.6,251.1 						"/>
						<polygon class="st4" points="57.6,249.3 31.4,280.4 32,286.6 63.8,248.8 						"/>
						<polygon class="st4" points="48.5,250.1 30.7,271.3 31.2,277.6 54.8,249.6 						"/>
						<polygon class="st4" points="121,243.9 36.9,343.8 37.4,350 127.2,243.4 						"/>
						<polygon class="st4" points="93.8,246.2 34.5,316.6 35.1,322.8 100,245.7 						"/>
						<polygon class="st4" points="81.4,347.7 132.4,287.1 131.8,280.9 75.2,348.2 						"/>
						<polygon class="st4" points="99.5,346.1 133.9,305.2 133.4,299 93.3,346.6 						"/>
						<polygon class="st4" points="72.3,348.4 131.6,278.1 131.1,271.8 66.1,349 						"/>
						<polygon class="st4" points="90.5,346.9 133.2,296.2 132.6,289.9 84.2,347.4 						"/>
						<polygon class="st4" points="129.3,250.9 128.7,244.7 38.9,351.3 45.2,350.8 						"/>
						<polygon class="st4" points="63.3,349.2 130.8,269 130.3,262.8 57,349.8 						"/>
						<polygon class="st4" points="54.2,350 130.1,260 129.5,253.7 48,350.5 						"/>
						<polygon class="st4" points="108.6,345.3 134.7,314.3 134.2,308.1 102.3,345.9 						"/>
						<polygon class="st4" points="135.7,343 137,341.5 136.5,335.2 129.5,343.5 						"/>
						<polygon class="st4" points="117.6,344.6 135.5,323.4 135,317.1 111.4,345.1 						"/>
						<polygon class="st4" points="126.7,343.8 136.3,332.4 135.7,326.2 120.5,344.3 						"/>
						<polygon class="st4" points="111.9,244.7 36.1,334.7 36.6,341 118.2,244.1 						"/>
						<polygon class="st4" points="102.9,245.5 35.3,325.7 35.9,331.9 109.1,244.9 						"/>
						<polygon class="st5" points="75.2,348.2 131.8,280.9 131.6,278.1 72.3,348.4 						"/>
						<polygon class="st5" points="93.3,346.6 133.4,299 133.2,296.2 90.5,346.9 						"/>
						<polygon class="st5" points="81.9,247.3 33.5,304.7 33.8,307.5 84.7,247 						"/>
						<polygon class="st5" points="63.8,248.8 32,286.6 32.2,289.4 66.6,248.6 						"/>
						<polygon class="st5" points="45.7,250.4 30.4,268.5 30.7,271.3 48.5,250.1 						"/>
						<polygon class="st5" points="84.2,347.4 132.6,289.9 132.4,287.1 81.4,347.7 						"/>
						<polygon class="st5" points="54.8,249.6 31.2,277.6 31.4,280.4 57.6,249.3 						"/>
						<polygon class="st5" points="48,350.5 129.5,253.7 129.3,250.9 45.2,350.8 						"/>
						<polygon class="st5" points="72.9,248 32.7,295.7 33,298.5 75.7,247.8 						"/>
						<polygon class="st5" points="66.1,349 131.1,271.8 130.8,269 63.3,349.2 						"/>
						<polygon class="st5" points="57,349.8 130.3,262.8 130.1,260 54.2,350 						"/>
						<polygon class="st5" points="128.6,243.3 127.2,243.4 37.4,350 37.5,351.4 38.9,351.3 128.7,244.7 						"/>
						<polygon class="st5" points="91,246.5 34.3,313.8 34.5,316.6 93.8,246.2 						"/>
						<polygon class="st5" points="36.6,251.1 29.6,259.4 29.9,262.3 39.5,250.9 						"/>
						<polygon class="st5" points="109.1,244.9 35.9,331.9 36.1,334.7 111.9,244.7 						"/>
						<polygon class="st5" points="129.5,343.5 136.5,335.2 136.3,332.4 126.7,343.8 						"/>
						<polygon class="st5" points="118.2,244.1 36.6,341 36.9,343.8 121,243.9 						"/>
						<polygon class="st5" points="137.2,342.9 137,341.5 135.7,343 						"/>
						<polygon class="st5" points="111.4,345.1 135,317.1 134.7,314.3 108.6,345.3 						"/>
						<polygon class="st5" points="102.3,345.9 134.2,308.1 133.9,305.2 99.5,346.1 						"/>
						<polygon class="st5" points="100,245.7 35.1,322.8 35.3,325.7 102.9,245.5 						"/>
						<polygon class="st5" points="120.5,344.3 135.7,326.2 135.5,323.4 117.6,344.6 						"/>
						<polygon class="st5" points="29,251.8 29.1,253.2 30.4,251.7 						"/>
					</g>
				</g>
				<g class="st2">
					<g class="st3">
						
							<rect x="41.6" y="347" transform="matrix(0.9963 -8.537797e-02 8.537797e-02 0.9963 -33.5582 9.2709)" class="st4" width="100" height="100"/>
						<polygon class="st4" points="93.3,346.6 42.3,407.2 42.8,413.4 99.5,346.1 						"/>
						<polygon class="st4" points="84.2,347.4 41.5,398.1 42.1,404.4 90.5,346.9 						"/>
						<polygon class="st4" points="75.2,348.2 40.7,389.1 41.3,395.3 81.4,347.7 						"/>
						<polygon class="st4" points="48,350.5 38.4,361.9 39,368.1 54.2,350 						"/>
						<polygon class="st4" points="38.9,351.3 37.6,352.8 38.2,359.1 45.2,350.8 						"/>
						<polygon class="st4" points="66.1,349 40,380 40.5,386.2 72.3,348.4 						"/>
						<polygon class="st4" points="57,349.8 39.2,370.9 39.7,377.2 63.3,349.2 						"/>
						<polygon class="st4" points="129.5,343.5 45.4,443.4 45.9,449.7 135.7,343 						"/>
						<polygon class="st4" points="102.3,345.9 43.1,416.2 43.6,422.5 108.6,345.3 						"/>
						<polygon class="st4" points="89.9,447.3 140.9,386.8 140.4,380.5 83.7,447.8 						"/>
						<polygon class="st4" points="108.1,445.7 142.5,404.9 141.9,398.6 101.8,446.3 						"/>
						<polygon class="st4" points="80.9,448.1 140.1,377.7 139.6,371.5 74.6,448.6 						"/>
						<polygon class="st4" points="99,446.5 141.7,395.8 141.2,389.6 92.8,447.1 						"/>
						<polygon class="st4" points="137.8,350.5 137.3,344.3 47.5,450.9 53.7,450.4 						"/>
						<polygon class="st4" points="71.8,448.9 139.4,368.7 138.8,362.4 65.6,449.4 						"/>
						<polygon class="st4" points="62.8,449.6 138.6,359.6 138.1,353.4 56.5,450.2 						"/>
						<polygon class="st4" points="117.1,445 143.2,413.9 142.7,407.7 110.9,445.5 						"/>
						<polygon class="st4" points="144.3,442.6 145.6,441.1 145,434.9 138,443.2 						"/>
						<polygon class="st4" points="126.2,444.2 144,423 143.5,416.8 119.9,444.7 						"/>
						<polygon class="st4" points="135.2,443.4 144.8,432.1 144.3,425.8 129,444 						"/>
						<polygon class="st4" points="120.5,344.3 44.6,434.4 45.2,440.6 126.7,343.8 						"/>
						<polygon class="st4" points="111.4,345.1 43.9,425.3 44.4,431.5 117.6,344.6 						"/>
						<polygon class="st5" points="83.7,447.8 140.4,380.5 140.1,377.7 80.9,448.1 						"/>
						<polygon class="st5" points="101.8,446.3 141.9,398.6 141.7,395.8 99,446.5 						"/>
						<polygon class="st5" points="90.5,346.9 42.1,404.4 42.3,407.2 93.3,346.6 						"/>
						<polygon class="st5" points="72.3,348.4 40.5,386.2 40.7,389.1 75.2,348.2 						"/>
						<polygon class="st5" points="54.2,350 39,368.1 39.2,370.9 57,349.8 						"/>
						<polygon class="st5" points="92.8,447.1 141.2,389.6 140.9,386.8 89.9,447.3 						"/>
						<polygon class="st5" points="63.3,349.2 39.7,377.2 40,380 66.1,349 						"/>
						<polygon class="st5" points="56.5,450.2 138.1,353.4 137.8,350.5 53.7,450.4 						"/>
						<polygon class="st5" points="81.4,347.7 41.3,395.3 41.5,398.1 84.2,347.4 						"/>
						<polygon class="st5" points="74.6,448.6 139.6,371.5 139.4,368.7 71.8,448.9 						"/>
						<polygon class="st5" points="65.6,449.4 138.8,362.4 138.6,359.6 62.8,449.6 						"/>
						<polygon class="st5" points="137.2,342.9 135.7,343 45.9,449.7 46.1,451.1 47.5,450.9 137.3,344.3 						"/>
						<polygon class="st5" points="99.5,346.1 42.8,413.4 43.1,416.2 102.3,345.9 						"/>
						<polygon class="st5" points="45.2,350.8 38.2,359.1 38.4,361.9 48,350.5 						"/>
						<polygon class="st5" points="117.6,344.6 44.4,431.5 44.6,434.4 120.5,344.3 						"/>
						<polygon class="st5" points="138,443.2 145,434.9 144.8,432.1 135.2,443.4 						"/>
						<polygon class="st5" points="126.7,343.8 45.2,440.6 45.4,443.4 129.5,343.5 						"/>
						<polygon class="st5" points="145.7,442.5 145.6,441.1 144.3,442.6 						"/>
						<polygon class="st5" points="119.9,444.7 143.5,416.8 143.2,413.9 117.1,445 						"/>
						<polygon class="st5" points="110.9,445.5 142.7,407.7 142.5,404.9 108.1,445.7 						"/>
						<polygon class="st5" points="108.6,345.3 43.6,422.5 43.9,425.3 111.4,345.1 						"/>
						<polygon class="st5" points="129,444 144.3,425.8 144,423 126.2,444.2 						"/>
						<polygon class="st5" points="37.5,351.4 37.6,352.8 38.9,351.3 						"/>
					</g>
				</g>
				<g class="st2">
					<g class="st3">
						
							<rect x="-92.2" y="-43" transform="matrix(0.9963 -8.537797e-02 8.537797e-02 0.9963 -0.7492 -3.5755)" class="st4" width="100" height="100"/>
						<polygon class="st4" points="-40.5,-43.4 -91.5,17.2 -91,23.4 -34.3,-43.9 						"/>
						<polygon class="st4" points="-49.6,-42.6 -92.3,8.1 -91.7,14.4 -43.3,-43.1 						"/>
						<polygon class="st4" points="-58.6,-41.8 -93,-0.9 -92.5,5.3 -52.4,-42.3 						"/>
						<polygon class="st4" points="-85.8,-39.5 -95.4,-28.1 -94.8,-21.9 -79.6,-40 						"/>
						<polygon class="st4" points="-94.9,-38.7 -96.1,-37.2 -95.6,-30.9 -88.6,-39.2 						"/>
						<polygon class="st4" points="-67.7,-41 -93.8,-10 -93.3,-3.8 -61.4,-41.6 						"/>
						<polygon class="st4" points="-76.7,-40.3 -94.6,-19.1 -94.1,-12.8 -70.5,-40.8 						"/>
						<polygon class="st4" points="-4.3,-46.5 -88.4,53.4 -87.8,59.6 2,-47 						"/>
						<polygon class="st4" points="-31.4,-44.1 -90.7,26.2 -90.2,32.5 -25.2,-44.7 						"/>
						<polygon class="st4" points="-43.8,57.3 7.1,-3.2 6.6,-9.5 -50.1,57.8 						"/>
						<polygon class="st4" points="-25.7,55.7 8.7,14.9 8.1,8.6 -32,56.3 						"/>
						<polygon class="st4" points="-52.9,58.1 6.4,-12.3 5.8,-18.5 -59.1,58.6 						"/>
						<polygon class="st4" points="-34.8,56.5 7.9,5.8 7.4,-0.4 -41,57.1 						"/>
						<polygon class="st4" points="4,-39.5 3.5,-45.7 -86.3,60.9 -80.1,60.4 						"/>
						<polygon class="st4" points="-62,58.8 5.6,-21.4 5,-27.6 -68.2,59.4 						"/>
						<polygon class="st4" points="-71,59.6 4.8,-30.4 4.3,-36.6 -77.3,60.2 						"/>
						<polygon class="st4" points="-16.7,55 9.5,23.9 8.9,17.7 -22.9,55.5 						"/>
						<polygon class="st4" points="10.5,52.6 11.8,51.1 11.3,44.9 4.3,53.2 						"/>
						<polygon class="st4" points="-7.6,54.2 10.2,33 9.7,26.8 -13.9,54.7 						"/>
						<polygon class="st4" points="1.4,53.4 11,42.1 10.5,35.8 -4.8,54 						"/>
						<polygon class="st4" points="-13.3,-45.7 -89.2,44.4 -88.6,50.6 -7.1,-46.2 						"/>
						<polygon class="st4" points="-22.4,-44.9 -89.9,35.3 -89.4,41.5 -16.2,-45.4 						"/>
						<polygon class="st5" points="-50.1,57.8 6.6,-9.5 6.4,-12.3 -52.9,58.1 						"/>
						<polygon class="st5" points="-32,56.3 8.1,8.6 7.9,5.8 -34.8,56.5 						"/>
						<polygon class="st5" points="-43.3,-43.1 -91.7,14.4 -91.5,17.2 -40.5,-43.4 						"/>
						<polygon class="st5" points="-61.4,-41.6 -93.3,-3.8 -93,-0.9 -58.6,-41.8 						"/>
						<polygon class="st5" points="-79.6,-40 -94.8,-21.9 -94.6,-19.1 -76.7,-40.3 						"/>
						<polygon class="st5" points="-41,57.1 7.4,-0.4 7.1,-3.2 -43.8,57.3 						"/>
						<polygon class="st5" points="-70.5,-40.8 -94.1,-12.8 -93.8,-10 -67.7,-41 						"/>
						<polygon class="st5" points="-77.3,60.2 4.3,-36.6 4,-39.5 -80.1,60.4 						"/>
						<polygon class="st5" points="-52.4,-42.3 -92.5,5.3 -92.3,8.1 -49.6,-42.6 						"/>
						<polygon class="st5" points="-59.1,58.6 5.8,-18.5 5.6,-21.4 -62,58.8 						"/>
						<polygon class="st5" points="-68.2,59.4 5,-27.6 4.8,-30.4 -71,59.6 						"/>
						<polygon class="st5" points="3.4,-47.1 2,-47 -87.8,59.6 -87.7,61.1 -86.3,60.9 3.5,-45.7 						"/>
						<polygon class="st5" points="-34.3,-43.9 -91,23.4 -90.7,26.2 -31.4,-44.1 						"/>
						<polygon class="st5" points="-88.6,-39.2 -95.6,-30.9 -95.4,-28.1 -85.8,-39.5 						"/>
						<polygon class="st5" points="-16.2,-45.4 -89.4,41.5 -89.2,44.4 -13.3,-45.7 						"/>
						<polygon class="st5" points="4.3,53.2 11.3,44.9 11,42.1 1.4,53.4 						"/>
						<polygon class="st5" points="-7.1,-46.2 -88.6,50.6 -88.4,53.4 -4.3,-46.5 						"/>
						<polygon class="st5" points="11.9,52.5 11.8,51.1 10.5,52.6 						"/>
						<polygon class="st5" points="-13.9,54.7 9.7,26.8 9.5,23.9 -16.7,55 						"/>
						<polygon class="st5" points="-22.9,55.5 8.9,17.7 8.7,14.9 -25.7,55.7 						"/>
						<polygon class="st5" points="-25.2,-44.7 -90.2,32.5 -89.9,35.3 -22.4,-44.9 						"/>
						<polygon class="st5" points="-4.8,54 10.5,35.8 10.2,33 -7.6,54.2 						"/>
						<polygon class="st5" points="-96.3,-38.6 -96.1,-37.2 -94.9,-38.7 						"/>
					</g>
				</g>
				<g class="st2">
					<g class="st3">
						
							<rect x="-83.6" y="56.6" transform="matrix(0.9963 -8.537797e-02 8.537797e-02 0.9963 -9.2246 -2.4827)" class="st4" width="100" height="100"/>
						<polygon class="st4" points="-32,56.3 -82.9,116.8 -82.4,123.1 -25.7,55.7 						"/>
						<polygon class="st4" points="-41,57.1 -83.7,107.8 -83.2,114 -34.8,56.5 						"/>
						<polygon class="st4" points="-50.1,57.8 -84.5,98.7 -84,104.9 -43.8,57.3 						"/>
						<polygon class="st4" points="-77.3,60.2 -86.8,71.5 -86.3,77.8 -71,59.6 						"/>
						<polygon class="st4" points="-86.3,60.9 -87.6,62.5 -87.1,68.7 -80.1,60.4 						"/>
						<polygon class="st4" points="-59.1,58.6 -85.3,89.6 -84.7,95.9 -52.9,58.1 						"/>
						<polygon class="st4" points="-68.2,59.4 -86.1,80.6 -85.5,86.8 -62,58.8 						"/>
						<polygon class="st4" points="4.3,53.2 -79.8,153 -79.3,159.3 10.5,52.6 						"/>
						<polygon class="st4" points="-22.9,55.5 -82.2,125.9 -81.6,132.1 -16.7,55 						"/>
						<polygon class="st4" points="-35.3,156.9 15.7,96.4 15.1,90.2 -41.5,157.5 						"/>
						<polygon class="st4" points="-17.2,155.4 17.2,114.5 16.7,108.3 -23.4,155.9 						"/>
						<polygon class="st4" points="-44.4,157.7 14.9,87.3 14.4,81.1 -50.6,158.2 						"/>
						<polygon class="st4" points="-26.2,156.2 16.4,105.5 15.9,99.2 -32.5,156.7 						"/>
						<polygon class="st4" points="12.6,60.2 12,53.9 -77.8,160.6 -71.5,160 						"/>
						<polygon class="st4" points="-53.4,158.5 14.1,78.3 13.6,72 -59.7,159 						"/>
						<polygon class="st4" points="-62.5,159.3 13.3,69.2 12.8,63 -68.7,159.8 						"/>
						<polygon class="st4" points="-8.1,154.6 18,123.6 17.5,117.3 -14.4,155.1 						"/>
						<polygon class="st4" points="19,152.3 20.3,150.7 19.8,144.5 12.8,152.8 						"/>
						<polygon class="st4" points="0.9,153.8 18.8,132.6 18.2,126.4 -5.3,154.4 						"/>
						<polygon class="st4" points="10,153.1 19.6,141.7 19,135.4 3.7,153.6 						"/>
						<polygon class="st4" points="-4.8,54 -80.6,144 -80.1,150.2 1.4,53.4 						"/>
						<polygon class="st4" points="-13.9,54.7 -81.4,134.9 -80.9,141.2 -7.6,54.2 						"/>
						<polygon class="st5" points="-41.5,157.5 15.1,90.2 14.9,87.3 -44.4,157.7 						"/>
						<polygon class="st5" points="-23.4,155.9 16.7,108.3 16.4,105.5 -26.2,156.2 						"/>
						<polygon class="st5" points="-34.8,56.5 -83.2,114 -82.9,116.8 -32,56.3 						"/>
						<polygon class="st5" points="-52.9,58.1 -84.7,95.9 -84.5,98.7 -50.1,57.8 						"/>
						<polygon class="st5" points="-71,59.6 -86.3,77.8 -86.1,80.6 -68.2,59.4 						"/>
						<polygon class="st5" points="-32.5,156.7 15.9,99.2 15.7,96.4 -35.3,156.9 						"/>
						<polygon class="st5" points="-62,58.8 -85.5,86.8 -85.3,89.6 -59.1,58.6 						"/>
						<polygon class="st5" points="-68.7,159.8 12.8,63 12.6,60.2 -71.5,160 						"/>
						<polygon class="st5" points="-43.8,57.3 -84,104.9 -83.7,107.8 -41,57.1 						"/>
						<polygon class="st5" points="-50.6,158.2 14.4,81.1 14.1,78.3 -53.4,158.5 						"/>
						<polygon class="st5" points="-59.7,159 13.6,72 13.3,69.2 -62.5,159.3 						"/>
						<polygon class="st5" points="11.9,52.5 10.5,52.6 -79.3,159.3 -79.2,160.7 -77.8,160.6 12,53.9 						"/>
						<polygon class="st5" points="-25.7,55.7 -82.4,123.1 -82.2,125.9 -22.9,55.5 						"/>
						<polygon class="st5" points="-80.1,60.4 -87.1,68.7 -86.8,71.5 -77.3,60.2 						"/>
						<polygon class="st5" points="-7.6,54.2 -80.9,141.2 -80.6,144 -4.8,54 						"/>
						<polygon class="st5" points="12.8,152.8 19.8,144.5 19.6,141.7 10,153.1 						"/>
						<polygon class="st5" points="1.4,53.4 -80.1,150.2 -79.8,153 4.3,53.2 						"/>
						<polygon class="st5" points="20.4,152.2 20.3,150.7 19,152.3 						"/>
						<polygon class="st5" points="-5.3,154.4 18.2,126.4 18,123.6 -8.1,154.6 						"/>
						<polygon class="st5" points="-14.4,155.1 17.5,117.3 17.2,114.5 -17.2,155.4 						"/>
						<polygon class="st5" points="-16.7,55 -81.6,132.1 -81.4,134.9 -13.9,54.7 						"/>
						<polygon class="st5" points="3.7,153.6 19,135.4 18.8,132.6 0.9,153.8 						"/>
						<polygon class="st5" points="-87.7,61.1 -87.6,62.5 -86.3,60.9 						"/>
					</g>
				</g>
				<g class="st2">
					<g class="st3">
						
							<rect x="-75.1" y="156.2" transform="matrix(0.9963 -8.537797e-02 8.537797e-02 0.9963 -17.7001 -1.39)" class="st4" width="100" height="100"/>
						<polygon class="st4" points="-23.4,155.9 -74.4,216.4 -73.9,222.7 -17.2,155.4 						"/>
						<polygon class="st4" points="-32.5,156.7 -75.2,207.4 -74.7,213.6 -26.2,156.2 						"/>
						<polygon class="st4" points="-41.5,157.5 -76,198.3 -75.4,204.6 -35.3,156.9 						"/>
						<polygon class="st4" points="-68.7,159.8 -78.3,171.2 -77.8,177.4 -62.5,159.3 						"/>
						<polygon class="st4" points="-77.8,160.6 -79.1,162.1 -78.5,168.3 -71.5,160 						"/>
						<polygon class="st4" points="-50.6,158.2 -76.7,189.3 -76.2,195.5 -44.4,157.7 						"/>
						<polygon class="st4" points="-59.7,159 -77.5,180.2 -77,186.5 -53.4,158.5 						"/>
						<polygon class="st4" points="12.8,152.8 -71.3,252.7 -70.8,258.9 19,152.3 						"/>
						<polygon class="st4" points="-14.4,155.1 -73.6,225.5 -73.1,231.7 -8.1,154.6 						"/>
						<polygon class="st4" points="-26.8,256.6 24.2,196 23.7,189.8 -33,257.1 						"/>
						<polygon class="st4" points="-8.7,255 25.8,214.2 25.2,207.9 -14.9,255.5 						"/>
						<polygon class="st4" points="-35.8,257.3 23.4,187 22.9,180.7 -42.1,257.9 						"/>
						<polygon class="st4" points="-17.7,255.8 25,205.1 24.4,198.9 -24,256.3 						"/>
						<polygon class="st4" points="21.1,159.8 20.6,153.6 -69.2,260.2 -63,259.7 						"/>
						<polygon class="st4" points="-44.9,258.1 22.7,177.9 22.1,171.7 -51.1,258.7 						"/>
						<polygon class="st4" points="-53.9,258.9 21.9,168.9 21.3,162.6 -60.2,259.4 						"/>
						<polygon class="st4" points="0.4,254.2 26.5,223.2 26,217 -5.8,254.8 						"/>
						<polygon class="st4" points="27.6,251.9 28.9,250.4 28.3,244.1 21.3,252.4 						"/>
						<polygon class="st4" points="9.5,253.5 27.3,232.3 26.8,226 3.2,254 						"/>
						<polygon class="st4" points="18.5,252.7 28.1,241.3 27.6,235.1 12.3,253.2 						"/>
						<polygon class="st4" points="3.7,153.6 -72.1,243.6 -71.5,249.9 10,153.1 						"/>
						<polygon class="st4" points="-5.3,154.4 -72.9,234.6 -72.3,240.8 0.9,153.8 						"/>
						<polygon class="st5" points="-33,257.1 23.7,189.8 23.4,187 -35.8,257.3 						"/>
						<polygon class="st5" points="-14.9,255.5 25.2,207.9 25,205.1 -17.7,255.8 						"/>
						<polygon class="st5" points="-26.2,156.2 -74.7,213.6 -74.4,216.4 -23.4,155.9 						"/>
						<polygon class="st5" points="-44.4,157.7 -76.2,195.5 -76,198.3 -41.5,157.5 						"/>
						<polygon class="st5" points="-62.5,159.3 -77.8,177.4 -77.5,180.2 -59.7,159 						"/>
						<polygon class="st5" points="-24,256.3 24.4,198.9 24.2,196 -26.8,256.6 						"/>
						<polygon class="st5" points="-53.4,158.5 -77,186.5 -76.7,189.3 -50.6,158.2 						"/>
						<polygon class="st5" points="-60.2,259.4 21.3,162.6 21.1,159.8 -63,259.7 						"/>
						<polygon class="st5" points="-35.3,156.9 -75.4,204.6 -75.2,207.4 -32.5,156.7 						"/>
						<polygon class="st5" points="-42.1,257.9 22.9,180.7 22.7,177.9 -44.9,258.1 						"/>
						<polygon class="st5" points="-51.1,258.7 22.1,171.7 21.9,168.9 -53.9,258.9 						"/>
						<polygon class="st5" points="20.4,152.2 19,152.3 -70.8,258.9 -70.6,260.3 -69.2,260.2 20.6,153.6 						"/>
						<polygon class="st5" points="-17.2,155.4 -73.9,222.7 -73.6,225.5 -14.4,155.1 						"/>
						<polygon class="st5" points="-71.5,160 -78.5,168.3 -78.3,171.2 -68.7,159.8 						"/>
						<polygon class="st5" points="0.9,153.8 -72.3,240.8 -72.1,243.6 3.7,153.6 						"/>
						<polygon class="st5" points="21.3,252.4 28.3,244.1 28.1,241.3 18.5,252.7 						"/>
						<polygon class="st5" points="10,153.1 -71.5,249.9 -71.3,252.7 12.8,152.8 						"/>
						<polygon class="st5" points="29,251.8 28.9,250.4 27.6,251.9 						"/>
						<polygon class="st5" points="3.2,254 26.8,226 26.5,223.2 0.4,254.2 						"/>
						<polygon class="st5" points="-5.8,254.8 26,217 25.8,214.2 -8.7,255 						"/>
						<polygon class="st5" points="-8.1,154.6 -73.1,231.7 -72.9,234.6 -5.3,154.4 						"/>
						<polygon class="st5" points="12.3,253.2 27.6,235.1 27.3,232.3 9.5,253.5 						"/>
						<polygon class="st5" points="-79.2,160.7 -79.1,162.1 -77.8,160.6 						"/>
					</g>
				</g>
				<g class="st2">
					<g class="st3">
						
							<rect x="-66.6" y="255.9" transform="matrix(0.9963 -8.537797e-02 8.537797e-02 0.9963 -26.1755 -0.2972)" class="st4" width="100" height="100"/>
						<polygon class="st4" points="-14.9,255.5 -65.9,316.1 -65.3,322.3 -8.7,255 						"/>
						<polygon class="st4" points="-24,256.3 -66.6,307 -66.1,313.3 -17.7,255.8 						"/>
						<polygon class="st4" points="-33,257.1 -67.4,298 -66.9,304.2 -26.8,256.6 						"/>
						<polygon class="st4" points="-60.2,259.4 -69.8,270.8 -69.2,277 -53.9,258.9 						"/>
						<polygon class="st4" points="-69.2,260.2 -70.5,261.7 -70,268 -63,259.7 						"/>
						<polygon class="st4" points="-42.1,257.9 -68.2,288.9 -67.7,295.1 -35.8,257.3 						"/>
						<polygon class="st4" points="-51.1,258.7 -69,279.9 -68.4,286.1 -44.9,258.1 						"/>
						<polygon class="st4" points="21.3,252.4 -62.8,352.3 -62.2,358.6 27.6,251.9 						"/>
						<polygon class="st4" points="-5.8,254.8 -65.1,325.1 -64.6,331.4 0.4,254.2 						"/>
						<polygon class="st4" points="-18.2,356.2 32.7,295.7 32.2,289.4 -24.5,356.7 						"/>
						<polygon class="st4" points="-0.1,354.6 34.3,313.8 33.8,307.5 -6.4,355.2 						"/>
						<polygon class="st4" points="-27.3,357 32,286.6 31.4,280.4 -33.5,357.5 						"/>
						<polygon class="st4" points="-9.2,355.4 33.5,304.7 33,298.5 -15.4,356 						"/>
						<polygon class="st4" points="29.6,259.4 29.1,253.2 -60.7,359.8 -54.5,359.3 						"/>
						<polygon class="st4" points="-36.3,357.8 31.2,277.6 30.7,271.3 -42.6,358.3 						"/>
						<polygon class="st4" points="-45.4,358.5 30.4,268.5 29.9,262.3 -51.6,359.1 						"/>
						<polygon class="st4" points="8.9,353.9 35.1,322.8 34.5,316.6 2.7,354.4 						"/>
						<polygon class="st4" points="36.1,351.5 37.4,350 36.9,343.8 29.9,352.1 						"/>
						<polygon class="st4" points="18,353.1 35.9,331.9 35.3,325.7 11.8,353.6 						"/>
						<polygon class="st4" points="27.1,352.3 36.6,341 36.1,334.7 20.8,352.9 						"/>
						<polygon class="st4" points="12.3,253.2 -63.5,343.3 -63,349.5 18.5,252.7 						"/>
						<polygon class="st4" points="3.2,254 -64.3,334.2 -63.8,340.4 9.5,253.5 						"/>
						<polygon class="st5" points="-24.5,356.7 32.2,289.4 32,286.6 -27.3,357 						"/>
						<polygon class="st5" points="-6.4,355.2 33.8,307.5 33.5,304.7 -9.2,355.4 						"/>
						<polygon class="st5" points="-17.7,255.8 -66.1,313.3 -65.9,316.1 -14.9,255.5 						"/>
						<polygon class="st5" points="-35.8,257.3 -67.7,295.1 -67.4,298 -33,257.1 						"/>
						<polygon class="st5" points="-53.9,258.9 -69.2,277 -69,279.9 -51.1,258.7 						"/>
						<polygon class="st5" points="-15.4,356 33,298.5 32.7,295.7 -18.2,356.2 						"/>
						<polygon class="st5" points="-44.9,258.1 -68.4,286.1 -68.2,288.9 -42.1,257.9 						"/>
						<polygon class="st5" points="-51.6,359.1 29.9,262.3 29.6,259.4 -54.5,359.3 						"/>
						<polygon class="st5" points="-26.8,256.6 -66.9,304.2 -66.6,307 -24,256.3 						"/>
						<polygon class="st5" points="-33.5,357.5 31.4,280.4 31.2,277.6 -36.3,357.8 						"/>
						<polygon class="st5" points="-42.6,358.3 30.7,271.3 30.4,268.5 -45.4,358.5 						"/>
						<polygon class="st5" points="29,251.8 27.6,251.9 -62.2,358.6 -62.1,360 -60.7,359.8 29.1,253.2 						"/>
						<polygon class="st5" points="-8.7,255 -65.3,322.3 -65.1,325.1 -5.8,254.8 						"/>
						<polygon class="st5" points="-63,259.7 -70,268 -69.8,270.8 -60.2,259.4 						"/>
						<polygon class="st5" points="9.5,253.5 -63.8,340.4 -63.5,343.3 12.3,253.2 						"/>
						<polygon class="st5" points="29.9,352.1 36.9,343.8 36.6,341 27.1,352.3 						"/>
						<polygon class="st5" points="18.5,252.7 -63,349.5 -62.8,352.3 21.3,252.4 						"/>
						<polygon class="st5" points="37.5,351.4 37.4,350 36.1,351.5 						"/>
						<polygon class="st5" points="11.8,353.6 35.3,325.7 35.1,322.8 8.9,353.9 						"/>
						<polygon class="st5" points="2.7,354.4 34.5,316.6 34.3,313.8 -0.1,354.6 						"/>
						<polygon class="st5" points="0.4,254.2 -64.6,331.4 -64.3,334.2 3.2,254 						"/>
						<polygon class="st5" points="20.8,352.9 36.1,334.7 35.9,331.9 18,353.1 						"/>
						<polygon class="st5" points="-70.6,260.3 -70.5,261.7 -69.2,260.2 						"/>
					</g>
				</g>
				<g class="st2">
					<g class="st3">
						
							<rect x="-58" y="355.5" transform="matrix(0.9963 -8.537797e-02 8.537797e-02 0.9963 -34.651 0.7955)" class="st4" width="100" height="100"/>
						<polygon class="st4" points="-6.4,355.2 -57.3,415.7 -56.8,422 -0.1,354.6 						"/>
						<polygon class="st4" points="-15.4,356 -58.1,406.7 -57.6,412.9 -9.2,355.4 						"/>
						<polygon class="st4" points="-24.5,356.7 -58.9,397.6 -58.4,403.8 -18.2,356.2 						"/>
						<polygon class="st4" points="-51.6,359.1 -61.2,370.4 -60.7,376.7 -45.4,358.5 						"/>
						<polygon class="st4" points="-60.7,359.8 -62,361.4 -61.5,367.6 -54.5,359.3 						"/>
						<polygon class="st4" points="-33.5,357.5 -59.7,388.5 -59.1,394.8 -27.3,357 						"/>
						<polygon class="st4" points="-42.6,358.3 -60.4,379.5 -59.9,385.7 -36.3,357.8 						"/>
						<polygon class="st4" points="29.9,352.1 -54.2,451.9 -53.7,458.2 36.1,351.5 						"/>
						<polygon class="st4" points="2.7,354.4 -56.6,424.8 -56,431 8.9,353.9 						"/>
						<polygon class="st4" points="-9.7,455.8 41.3,395.3 40.7,389.1 -15.9,456.4 						"/>
						<polygon class="st4" points="8.4,454.3 42.8,413.4 42.3,407.2 2.2,454.8 						"/>
						<polygon class="st4" points="-18.8,456.6 40.5,386.2 40,380 -25,457.1 						"/>
						<polygon class="st4" points="-0.6,455.1 42.1,404.4 41.5,398.1 -6.9,455.6 						"/>
						<polygon class="st4" points="38.2,359.1 37.6,352.8 -52.2,459.5 -45.9,458.9 						"/>
						<polygon class="st4" points="-27.8,457.4 39.7,377.2 39.2,370.9 -34,457.9 						"/>
						<polygon class="st4" points="-36.9,458.2 39,368.1 38.4,361.9 -43.1,458.7 						"/>
						<polygon class="st4" points="17.5,453.5 43.6,422.5 43.1,416.2 11.2,454 						"/>
						<polygon class="st4" points="44.7,451.2 45.9,449.7 45.4,443.4 38.4,451.7 						"/>
						<polygon class="st4" points="26.5,452.7 44.4,431.5 43.9,425.3 20.3,453.3 						"/>
						<polygon class="st4" points="35.6,452 45.2,440.6 44.6,434.4 29.4,452.5 						"/>
						<polygon class="st4" points="20.8,352.9 -55,442.9 -54.5,449.1 27.1,352.3 						"/>
						<polygon class="st4" points="11.8,353.6 -55.8,433.8 -55.2,440.1 18,353.1 						"/>
						<polygon class="st5" points="-15.9,456.4 40.7,389.1 40.5,386.2 -18.8,456.6 						"/>
						<polygon class="st5" points="2.2,454.8 42.3,407.2 42.1,404.4 -0.6,455.1 						"/>
						<polygon class="st5" points="-9.2,355.4 -57.6,412.9 -57.3,415.7 -6.4,355.2 						"/>
						<polygon class="st5" points="-27.3,357 -59.1,394.8 -58.9,397.6 -24.5,356.7 						"/>
						<polygon class="st5" points="-45.4,358.5 -60.7,376.7 -60.4,379.5 -42.6,358.3 						"/>
						<polygon class="st5" points="-6.9,455.6 41.5,398.1 41.3,395.3 -9.7,455.8 						"/>
						<polygon class="st5" points="-36.3,357.8 -59.9,385.7 -59.7,388.5 -33.5,357.5 						"/>
						<polygon class="st5" points="-43.1,458.7 38.4,361.9 38.2,359.1 -45.9,458.9 						"/>
						<polygon class="st5" points="-18.2,356.2 -58.4,403.8 -58.1,406.7 -15.4,356 						"/>
						<polygon class="st5" points="-25,457.1 40,380 39.7,377.2 -27.8,457.4 						"/>
						<polygon class="st5" points="-34,457.9 39.2,370.9 39,368.1 -36.9,458.2 						"/>
						<polygon class="st5" points="37.5,351.4 36.1,351.5 -53.7,458.2 -53.6,459.6 -52.2,459.5 37.6,352.8 						"/>
						<polygon class="st5" points="-0.1,354.6 -56.8,422 -56.6,424.8 2.7,354.4 						"/>
						<polygon class="st5" points="-54.5,359.3 -61.5,367.6 -61.2,370.4 -51.6,359.1 						"/>
						<polygon class="st5" points="18,353.1 -55.2,440.1 -55,442.9 20.8,352.9 						"/>
						<polygon class="st5" points="38.4,451.7 45.4,443.4 45.2,440.6 35.6,452 						"/>
						<polygon class="st5" points="27.1,352.3 -54.5,449.1 -54.2,451.9 29.9,352.1 						"/>
						<polygon class="st5" points="46.1,451.1 45.9,449.7 44.7,451.2 						"/>
						<polygon class="st5" points="20.3,453.3 43.9,425.3 43.6,422.5 17.5,453.5 						"/>
						<polygon class="st5" points="11.2,454 43.1,416.2 42.8,413.4 8.4,454.3 						"/>
						<polygon class="st5" points="8.9,353.9 -56,431 -55.8,433.8 11.8,353.6 						"/>
						<polygon class="st5" points="29.4,452.5 44.6,434.4 44.4,431.5 26.5,452.7 						"/>
						<polygon class="st5" points="-62.1,360 -62,361.4 -60.7,359.8 						"/>
					</g>
				</g>
			</g>
		</g>
	</g>
</g>
</svg>
