<?xml version="1.0" encoding="utf-8"?>
<!-- Generator: Adobe Illustrator 23.0.1, SVG Export Plug-In . SVG Version: 6.00 Build 0)  -->
<svg version="1.1" id="レイヤー_1" xmlns="http://www.w3.org/2000/svg" xmlns:xlink="http://www.w3.org/1999/xlink" x="0px"
	 y="0px" viewBox="0 0 250 450" style="enable-background:new 0 0 250 450;" xml:space="preserve">
<style type="text/css">
	.st0{opacity:5.000000e-02;}
	.st1{fill:#FFFFFF;}
	.st2{clip-path:url(#SVGID_2_);}
	.st3{opacity:0.15;}
	.st4{fill:none;}
	.st5{fill:#D9EFF4;}
</style>
<g id="num-4_2_">
	<g class="st0">
		<g>
			<path class="st1" d="M232.1,249.1l-4.7,43.2l-29.8-3.3l-15.4,141.2l-45.2-4.9l15.4-141.2L37,271.5L64.6,19l44.2,4.8L86,233.1
				l71.1,7.8l23.5-215.2l45.2,4.9l-23.5,215.2L232.1,249.1z"/>
		</g>
	</g>
	<g>
		<g>
			<g>
				<defs>
					<path id="SVGID_1_" d="M213,230.1l-4.7,43.2l-29.8-3.3L163,411.2l-45.2-4.9l15.4-141.2L17.9,252.5L45.5,0l44.2,4.8L66.9,214.1
						l71.1,7.8L161.5,6.6l45.2,4.9l-23.5,215.2L213,230.1z"/>
				</defs>
				<clipPath id="SVGID_2_">
					<use xlink:href="#SVGID_1_"  style="overflow:visible;"/>
				</clipPath>
				<g class="st2">
					<g class="st3">
						
							<rect x="207.6" y="311.6" transform="matrix(0.1087 -0.9941 0.9941 0.1087 -129.9078 578.384)" class="st4" width="100" height="100"/>
						<polygon class="st4" points="269,312.6 207.2,362.1 206.6,368.4 275.2,313.3 						"/>
						<polygon class="st4" points="259.9,311.6 208.2,353.1 207.5,359.3 266.1,312.3 						"/>
						<polygon class="st4" points="250.9,310.6 209.2,344.1 208.5,350.3 257.1,311.3 						"/>
						<polygon class="st4" points="223.8,307.6 212.2,316.9 211.5,323.2 230,308.3 						"/>
						<polygon class="st4" points="214.7,306.7 213.2,307.9 212.5,314.1 221,307.3 						"/>
						<polygon class="st4" points="241.8,309.6 210.2,335 209.5,341.2 248.1,310.3 						"/>
						<polygon class="st4" points="232.8,308.6 211.2,326 210.5,332.2 239,309.3 						"/>
						<polygon class="st4" points="305.1,316.5 203.3,398.3 202.6,404.5 311.3,317.2 						"/>
						<polygon class="st4" points="278,313.6 206.3,371.2 205.6,377.4 284.2,314.3 						"/>
						<polygon class="st4" points="246.2,410.7 307.9,361.1 308.6,354.9 240,410 						"/>
						<polygon class="st4" points="264.3,412.7 306,379.2 306.6,373 258.1,412 						"/>
						<polygon class="st4" points="237.2,409.7 308.9,352.1 309.6,345.9 231,409 						"/>
						<polygon class="st4" points="255.3,411.7 307,370.2 307.6,364 249,411 						"/>
						<polygon class="st4" points="311.9,325 312.6,318.8 203.9,406.1 210.1,406.7 						"/>
						<polygon class="st4" points="228.2,408.7 309.9,343.1 310.6,336.8 221.9,408 						"/>
						<polygon class="st4" points="219.1,407.7 310.9,334 311.6,327.8 212.9,407 						"/>
						<polygon class="st4" points="273.3,413.7 305,388.3 305.7,382 267.1,413 						"/>
						<polygon class="st4" points="300.5,416.6 302,415.4 302.7,409.1 294.2,415.9 						"/>
						<polygon class="st4" points="282.4,414.6 304,397.3 304.7,391.1 276.2,414 						"/>
						<polygon class="st4" points="291.4,415.6 303,406.3 303.7,400.1 285.2,415 						"/>
						<polygon class="st4" points="296.1,315.5 204.3,389.2 203.6,395.5 302.3,316.2 						"/>
						<polygon class="st4" points="287,314.6 205.3,380.2 204.6,386.4 293.3,315.2 						"/>
						<polygon class="st5" points="240,410 308.6,354.9 308.9,352.1 237.2,409.7 						"/>
						<polygon class="st5" points="258.1,412 306.6,373 307,370.2 255.3,411.7 						"/>
						<polygon class="st5" points="266.1,312.3 207.5,359.3 207.2,362.1 269,312.6 						"/>
						<polygon class="st5" points="248.1,310.3 209.5,341.2 209.2,344.1 250.9,310.6 						"/>
						<polygon class="st5" points="230,308.3 211.5,323.2 211.2,326 232.8,308.6 						"/>
						<polygon class="st5" points="249,411 307.6,364 307.9,361.1 246.2,410.7 						"/>
						<polygon class="st5" points="239,309.3 210.5,332.2 210.2,335 241.8,309.6 						"/>
						<polygon class="st5" points="212.9,407 311.6,327.8 311.9,325 210.1,406.7 						"/>
						<polygon class="st5" points="257.1,311.3 208.5,350.3 208.2,353.1 259.9,311.6 						"/>
						<polygon class="st5" points="231,409 309.6,345.9 309.9,343.1 228.2,408.7 						"/>
						<polygon class="st5" points="221.9,408 310.6,336.8 310.9,334 219.1,407.7 						"/>
						<polygon class="st5" points="312.7,317.4 311.3,317.2 202.6,404.5 202.5,405.9 203.9,406.1 312.6,318.8 						"/>
						<polygon class="st5" points="275.2,313.3 206.6,368.4 206.3,371.2 278,313.6 						"/>
						<polygon class="st5" points="221,307.3 212.5,314.1 212.2,316.9 223.8,307.6 						"/>
						<polygon class="st5" points="293.3,315.2 204.6,386.4 204.3,389.2 296.1,315.5 						"/>
						<polygon class="st5" points="294.2,415.9 302.7,409.1 303,406.3 291.4,415.6 						"/>
						<polygon class="st5" points="302.3,316.2 203.6,395.5 203.3,398.3 305.1,316.5 						"/>
						<polygon class="st5" points="301.9,416.8 302,415.4 300.5,416.6 						"/>
						<polygon class="st5" points="276.2,414 304.7,391.1 305,388.3 273.3,413.7 						"/>
						<polygon class="st5" points="267.1,413 305.7,382 306,379.2 264.3,412.7 						"/>
						<polygon class="st5" points="284.2,314.3 205.6,377.4 205.3,380.2 287,314.6 						"/>
						<polygon class="st5" points="285.2,415 303.7,400.1 304,397.3 282.4,414.6 						"/>
						<polygon class="st5" points="213.3,306.5 213.2,307.9 214.7,306.7 						"/>
					</g>
				</g>
				<g class="st2">
					<g class="st3">
						
							<rect x="196.7" y="411" transform="matrix(0.1087 -0.9941 0.9941 0.1087 -238.4159 656.176)" class="st4" width="100" height="100"/>
						<polygon class="st4" points="258.1,412 196.4,461.5 195.7,467.8 264.3,412.7 						"/>
						<polygon class="st4" points="249,411 197.4,452.5 196.7,458.7 255.3,411.7 						"/>
						<polygon class="st4" points="240,410 198.3,443.5 197.7,449.7 246.2,410.7 						"/>
						<polygon class="st4" points="212.9,407 201.3,416.3 200.6,422.6 219.1,407.7 						"/>
						<polygon class="st4" points="203.9,406.1 202.3,407.3 201.6,413.5 210.1,406.7 						"/>
						<polygon class="st4" points="231,409 199.3,434.4 198.7,440.6 237.2,409.7 						"/>
						<polygon class="st4" points="221.9,408 200.3,425.4 199.6,431.6 228.2,408.7 						"/>
						<polygon class="st4" points="294.2,415.9 192.4,497.7 191.7,503.9 300.5,416.6 						"/>
						<polygon class="st4" points="267.1,413 195.4,470.6 194.7,476.8 273.3,413.7 						"/>
						<polygon class="st4" points="235.4,510.1 297.1,460.6 297.8,454.3 229.1,509.4 						"/>
						<polygon class="st4" points="253.4,512.1 295.1,478.6 295.8,472.4 247.2,511.4 						"/>
						<polygon class="st4" points="226.3,509.1 298.1,451.5 298.7,445.3 220.1,508.4 						"/>
						<polygon class="st4" points="244.4,511.1 296.1,469.6 296.8,463.4 238.2,510.4 						"/>
						<polygon class="st4" points="301,424.4 301.7,418.2 193,505.5 199.2,506.1 						"/>
						<polygon class="st4" points="217.3,508.1 299,442.5 299.7,436.3 211.1,507.4 						"/>
						<polygon class="st4" points="208.2,507.1 300,433.4 300.7,427.2 202,506.5 						"/>
						<polygon class="st4" points="262.5,513.1 294.1,487.7 294.8,481.4 256.2,512.4 						"/>
						<polygon class="st4" points="289.6,516 291.1,514.8 291.8,508.6 283.4,515.3 						"/>
						<polygon class="st4" points="271.5,514.1 293.1,496.7 293.8,490.5 265.3,513.4 						"/>
						<polygon class="st4" points="280.5,515 292.1,505.7 292.8,499.5 274.3,514.4 						"/>
						<polygon class="st4" points="285.2,415 193.4,488.6 192.7,494.9 291.4,415.6 						"/>
						<polygon class="st4" points="276.2,414 194.4,479.6 193.7,485.8 282.4,414.6 						"/>
						<polygon class="st5" points="229.1,509.4 297.8,454.3 298.1,451.5 226.3,509.1 						"/>
						<polygon class="st5" points="247.2,511.4 295.8,472.4 296.1,469.6 244.4,511.1 						"/>
						<polygon class="st5" points="255.3,411.7 196.7,458.7 196.4,461.5 258.1,412 						"/>
						<polygon class="st5" points="237.2,409.7 198.7,440.6 198.3,443.5 240,410 						"/>
						<polygon class="st5" points="219.1,407.7 200.6,422.6 200.3,425.4 221.9,408 						"/>
						<polygon class="st5" points="238.2,510.4 296.8,463.4 297.1,460.6 235.4,510.1 						"/>
						<polygon class="st5" points="228.2,408.7 199.6,431.6 199.3,434.4 231,409 						"/>
						<polygon class="st5" points="202,506.5 300.7,427.2 301,424.4 199.2,506.1 						"/>
						<polygon class="st5" points="246.2,410.7 197.7,449.7 197.4,452.5 249,411 						"/>
						<polygon class="st5" points="220.1,508.4 298.7,445.3 299,442.5 217.3,508.1 						"/>
						<polygon class="st5" points="211.1,507.4 299.7,436.3 300,433.4 208.2,507.1 						"/>
						<polygon class="st5" points="301.9,416.8 300.5,416.6 191.7,503.9 191.6,505.3 193,505.5 301.7,418.2 						"/>
						<polygon class="st5" points="264.3,412.7 195.7,467.8 195.4,470.6 267.1,413 						"/>
						<polygon class="st5" points="210.1,406.7 201.6,413.5 201.3,416.3 212.9,407 						"/>
						<polygon class="st5" points="282.4,414.6 193.7,485.8 193.4,488.6 285.2,415 						"/>
						<polygon class="st5" points="283.4,515.3 291.8,508.6 292.1,505.7 280.5,515 						"/>
						<polygon class="st5" points="291.4,415.6 192.7,494.9 192.4,497.7 294.2,415.9 						"/>
						<polygon class="st5" points="291,516.2 291.1,514.8 289.6,516 						"/>
						<polygon class="st5" points="265.3,513.4 293.8,490.5 294.1,487.7 262.5,513.1 						"/>
						<polygon class="st5" points="256.2,512.4 294.8,481.4 295.1,478.6 253.4,512.1 						"/>
						<polygon class="st5" points="273.3,413.7 194.7,476.8 194.4,479.6 276.2,414 						"/>
						<polygon class="st5" points="274.3,514.4 292.8,499.5 293.1,496.7 271.5,514.1 						"/>
						<polygon class="st5" points="202.5,405.9 202.3,407.3 203.9,406.1 						"/>
					</g>
				</g>
				<g class="st2">
					<g class="st3">
						
							<rect x="151.7" y="-96.9" transform="matrix(0.1087 -0.9941 0.9941 0.1087 226.3325 158.7083)" class="st4" width="100" height="100"/>
						<polygon class="st4" points="213,-95.9 151.3,-46.4 150.6,-40.1 219.3,-95.2 						"/>
						<polygon class="st4" points="204,-96.9 152.3,-55.4 151.6,-49.2 210.2,-96.2 						"/>
						<polygon class="st4" points="195,-97.9 153.3,-64.5 152.6,-58.2 201.2,-97.2 						"/>
						<polygon class="st4" points="167.8,-100.9 156.3,-91.6 155.6,-85.3 174.1,-100.2 						"/>
						<polygon class="st4" points="158.8,-101.8 157.3,-100.6 156.6,-94.4 165,-101.2 						"/>
						<polygon class="st4" points="185.9,-98.9 154.3,-73.5 153.6,-67.3 192.1,-98.2 						"/>
						<polygon class="st4" points="176.9,-99.9 155.3,-82.5 154.6,-76.3 183.1,-99.2 						"/>
						<polygon class="st4" points="249.2,-92 147.4,-10.2 146.7,-4 255.4,-91.3 						"/>
						<polygon class="st4" points="222.1,-94.9 150.3,-37.3 149.7,-31.1 228.3,-94.3 						"/>
						<polygon class="st4" points="190.3,2.2 252,-47.4 252.7,-53.6 184.1,1.5 						"/>
						<polygon class="st4" points="208.4,4.2 250,-29.3 250.7,-35.5 202.2,3.5 						"/>
						<polygon class="st4" points="181.3,1.2 253,-56.4 253.7,-62.6 175,0.5 						"/>
						<polygon class="st4" points="199.3,3.2 251,-38.3 251.7,-44.5 193.1,2.5 						"/>
						<polygon class="st4" points="256,-83.5 256.7,-89.7 147.9,-2.4 154.2,-1.8 						"/>
						<polygon class="st4" points="172.2,0.2 254,-65.4 254.7,-71.7 166,-0.5 						"/>
						<polygon class="st4" points="163.2,-0.8 255,-74.5 255.7,-80.7 157,-1.5 						"/>
						<polygon class="st4" points="217.4,5.2 249.1,-20.2 249.7,-26.5 211.2,4.5 						"/>
						<polygon class="st4" points="244.5,8.1 246.1,6.9 246.8,0.6 238.3,7.4 						"/>
						<polygon class="st4" points="226.5,6.1 248.1,-11.2 248.8,-17.4 220.2,5.5 						"/>
						<polygon class="st4" points="235.5,7.1 247.1,-2.2 247.8,-8.4 229.3,6.5 						"/>
						<polygon class="st4" points="240.1,-93 148.4,-19.3 147.7,-13 246.4,-92.3 						"/>
						<polygon class="st4" points="231.1,-93.9 149.3,-28.3 148.7,-22.1 237.3,-93.3 						"/>
						<polygon class="st5" points="184.1,1.5 252.7,-53.6 253,-56.4 181.3,1.2 						"/>
						<polygon class="st5" points="202.2,3.5 250.7,-35.5 251,-38.3 199.3,3.2 						"/>
						<polygon class="st5" points="210.2,-96.2 151.6,-49.2 151.3,-46.4 213,-95.9 						"/>
						<polygon class="st5" points="192.1,-98.2 153.6,-67.3 153.3,-64.5 195,-97.9 						"/>
						<polygon class="st5" points="174.1,-100.2 155.6,-85.3 155.3,-82.5 176.9,-99.9 						"/>
						<polygon class="st5" points="193.1,2.5 251.7,-44.5 252,-47.4 190.3,2.2 						"/>
						<polygon class="st5" points="183.1,-99.2 154.6,-76.3 154.3,-73.5 185.9,-98.9 						"/>
						<polygon class="st5" points="157,-1.5 255.7,-80.7 256,-83.5 154.2,-1.8 						"/>
						<polygon class="st5" points="201.2,-97.2 152.6,-58.2 152.3,-55.4 204,-96.9 						"/>
						<polygon class="st5" points="175,0.5 253.7,-62.6 254,-65.4 172.2,0.2 						"/>
						<polygon class="st5" points="166,-0.5 254.7,-71.7 255,-74.5 163.2,-0.8 						"/>
						<polygon class="st5" points="256.8,-91.1 255.4,-91.3 146.7,-4 146.5,-2.6 147.9,-2.4 256.7,-89.7 						"/>
						<polygon class="st5" points="219.3,-95.2 150.6,-40.1 150.3,-37.3 222.1,-94.9 						"/>
						<polygon class="st5" points="165,-101.2 156.6,-94.4 156.3,-91.6 167.8,-100.9 						"/>
						<polygon class="st5" points="237.3,-93.3 148.7,-22.1 148.4,-19.3 240.1,-93 						"/>
						<polygon class="st5" points="238.3,7.4 246.8,0.6 247.1,-2.2 235.5,7.1 						"/>
						<polygon class="st5" points="246.4,-92.3 147.7,-13 147.4,-10.2 249.2,-92 						"/>
						<polygon class="st5" points="245.9,8.3 246.1,6.9 244.5,8.1 						"/>
						<polygon class="st5" points="220.2,5.5 248.8,-17.4 249.1,-20.2 217.4,5.2 						"/>
						<polygon class="st5" points="211.2,4.5 249.7,-26.5 250,-29.3 208.4,4.2 						"/>
						<polygon class="st5" points="228.3,-94.3 149.7,-31.1 149.3,-28.3 231.1,-93.9 						"/>
						<polygon class="st5" points="229.3,6.5 247.8,-8.4 248.1,-11.2 226.5,6.1 						"/>
						<polygon class="st5" points="157.4,-102 157.3,-100.6 158.8,-101.8 						"/>
					</g>
				</g>
				<g class="st2">
					<g class="st3">
						
							<rect x="140.8" y="2.5" transform="matrix(0.1087 -0.9941 0.9941 0.1087 117.8244 236.5002)" class="st4" width="100" height="100"/>
						<polygon class="st4" points="202.2,3.5 140.4,53 139.8,59.3 208.4,4.2 						"/>
						<polygon class="st4" points="193.1,2.5 141.4,44 140.8,50.2 199.3,3.2 						"/>
						<polygon class="st4" points="184.1,1.5 142.4,35 141.7,41.2 190.3,2.2 						"/>
						<polygon class="st4" points="157,-1.5 145.4,7.8 144.7,14.1 163.2,-0.8 						"/>
						<polygon class="st4" points="147.9,-2.4 146.4,-1.2 145.7,5 154.2,-1.8 						"/>
						<polygon class="st4" points="175,0.5 143.4,25.9 142.7,32.1 181.3,1.2 						"/>
						<polygon class="st4" points="166,-0.5 144.4,16.9 143.7,23.1 172.2,0.2 						"/>
						<polygon class="st4" points="238.3,7.4 136.5,89.2 135.8,95.4 244.5,8.1 						"/>
						<polygon class="st4" points="211.2,4.5 139.5,62.1 138.8,68.3 217.4,5.2 						"/>
						<polygon class="st4" points="179.4,101.6 241.2,52.1 241.8,45.8 173.2,100.9 						"/>
						<polygon class="st4" points="197.5,103.6 239.2,70.1 239.9,63.9 191.3,102.9 						"/>
						<polygon class="st4" points="170.4,100.6 242.1,43 242.8,36.8 164.2,99.9 						"/>
						<polygon class="st4" points="188.5,102.6 240.2,61.1 240.8,54.9 182.3,101.9 						"/>
						<polygon class="st4" points="245.1,15.9 245.8,9.7 137.1,97 143.3,97.6 						"/>
						<polygon class="st4" points="161.4,99.6 243.1,34 243.8,27.8 155.1,98.9 						"/>
						<polygon class="st4" points="152.3,98.6 244.1,24.9 244.8,18.7 146.1,98 						"/>
						<polygon class="st4" points="206.6,104.6 238.2,79.2 238.9,72.9 200.3,103.9 						"/>
						<polygon class="st4" points="233.7,107.5 235.2,106.3 235.9,100.1 227.4,106.8 						"/>
						<polygon class="st4" points="215.6,105.6 237.2,88.2 237.9,82 209.4,104.9 						"/>
						<polygon class="st4" points="224.6,106.5 236.2,97.2 236.9,91 218.4,105.9 						"/>
						<polygon class="st4" points="229.3,6.5 137.5,80.1 136.8,86.4 235.5,7.1 						"/>
						<polygon class="st4" points="220.2,5.5 138.5,71.1 137.8,77.3 226.5,6.1 						"/>
						<polygon class="st5" points="173.2,100.9 241.8,45.8 242.1,43 170.4,100.6 						"/>
						<polygon class="st5" points="191.3,102.9 239.9,63.9 240.2,61.1 188.5,102.6 						"/>
						<polygon class="st5" points="199.3,3.2 140.8,50.2 140.4,53 202.2,3.5 						"/>
						<polygon class="st5" points="181.3,1.2 142.7,32.1 142.4,35 184.1,1.5 						"/>
						<polygon class="st5" points="163.2,-0.8 144.7,14.1 144.4,16.9 166,-0.5 						"/>
						<polygon class="st5" points="182.3,101.9 240.8,54.9 241.2,52.1 179.4,101.6 						"/>
						<polygon class="st5" points="172.2,0.2 143.7,23.1 143.4,25.9 175,0.5 						"/>
						<polygon class="st5" points="146.1,98 244.8,18.7 245.1,15.9 143.3,97.6 						"/>
						<polygon class="st5" points="190.3,2.2 141.7,41.2 141.4,44 193.1,2.5 						"/>
						<polygon class="st5" points="164.2,99.9 242.8,36.8 243.1,34 161.4,99.6 						"/>
						<polygon class="st5" points="155.1,98.9 243.8,27.8 244.1,24.9 152.3,98.6 						"/>
						<polygon class="st5" points="245.9,8.3 244.5,8.1 135.8,95.4 135.7,96.8 137.1,97 245.8,9.7 						"/>
						<polygon class="st5" points="208.4,4.2 139.8,59.3 139.5,62.1 211.2,4.5 						"/>
						<polygon class="st5" points="154.2,-1.8 145.7,5 145.4,7.8 157,-1.5 						"/>
						<polygon class="st5" points="226.5,6.1 137.8,77.3 137.5,80.1 229.3,6.5 						"/>
						<polygon class="st5" points="227.4,106.8 235.9,100.1 236.2,97.2 224.6,106.5 						"/>
						<polygon class="st5" points="235.5,7.1 136.8,86.4 136.5,89.2 238.3,7.4 						"/>
						<polygon class="st5" points="235.1,107.7 235.2,106.3 233.7,107.5 						"/>
						<polygon class="st5" points="209.4,104.9 237.9,82 238.2,79.2 206.6,104.6 						"/>
						<polygon class="st5" points="200.3,103.9 238.9,72.9 239.2,70.1 197.5,103.6 						"/>
						<polygon class="st5" points="217.4,5.2 138.8,68.3 138.5,71.1 220.2,5.5 						"/>
						<polygon class="st5" points="218.4,105.9 236.9,91 237.2,88.2 215.6,105.6 						"/>
						<polygon class="st5" points="146.5,-2.6 146.4,-1.2 147.9,-2.4 						"/>
					</g>
				</g>
				<g class="st2">
					<g class="st3">
						
							<rect x="129.9" y="102" transform="matrix(0.1087 -0.9941 0.9941 0.1087 9.3164 314.2922)" class="st4" width="100" height="100"/>
						<polygon class="st4" points="191.3,102.9 129.6,152.4 128.9,158.7 197.5,103.6 						"/>
						<polygon class="st4" points="182.3,101.9 130.6,143.4 129.9,149.6 188.5,102.6 						"/>
						<polygon class="st4" points="173.2,100.9 131.6,134.4 130.9,140.6 179.4,101.6 						"/>
						<polygon class="st4" points="146.1,98 134.5,107.3 133.8,113.5 152.3,98.6 						"/>
						<polygon class="st4" points="137.1,97 135.5,98.2 134.8,104.4 143.3,97.6 						"/>
						<polygon class="st4" points="164.2,99.9 132.5,125.3 131.9,131.6 170.4,100.6 						"/>
						<polygon class="st4" points="155.1,98.9 133.5,116.3 132.8,122.5 161.4,99.6 						"/>
						<polygon class="st4" points="227.4,106.8 125.6,188.6 124.9,194.8 233.7,107.5 						"/>
						<polygon class="st4" points="200.3,103.9 128.6,161.5 127.9,167.7 206.6,104.6 						"/>
						<polygon class="st4" points="168.6,201 230.3,151.5 231,145.2 162.3,200.3 						"/>
						<polygon class="st4" points="186.6,203 228.3,169.5 229,163.3 180.4,202.3 						"/>
						<polygon class="st4" points="159.5,200 231.3,142.4 231.9,136.2 153.3,199.3 						"/>
						<polygon class="st4" points="177.6,202 229.3,160.5 230,154.3 171.4,201.3 						"/>
						<polygon class="st4" points="234.2,115.3 234.9,109.1 126.2,196.4 132.4,197.1 						"/>
						<polygon class="st4" points="150.5,199 232.3,133.4 232.9,127.2 144.3,198.3 						"/>
						<polygon class="st4" points="141.5,198 233.2,124.4 233.9,118.1 135.2,197.4 						"/>
						<polygon class="st4" points="195.7,204 227.3,178.6 228,172.3 189.5,203.3 						"/>
						<polygon class="st4" points="222.8,206.9 224.3,205.7 225,199.5 216.6,206.3 						"/>
						<polygon class="st4" points="204.7,205 226.3,187.6 227,181.4 198.5,204.3 						"/>
						<polygon class="st4" points="213.8,205.9 225.3,196.6 226,190.4 207.5,205.3 						"/>
						<polygon class="st4" points="218.4,105.9 126.6,179.6 125.9,185.8 224.6,106.5 						"/>
						<polygon class="st4" points="209.4,104.9 127.6,170.5 126.9,176.7 215.6,105.6 						"/>
						<polygon class="st5" points="162.3,200.3 231,145.2 231.3,142.4 159.5,200 						"/>
						<polygon class="st5" points="180.4,202.3 229,163.3 229.3,160.5 177.6,202 						"/>
						<polygon class="st5" points="188.5,102.6 129.9,149.6 129.6,152.4 191.3,102.9 						"/>
						<polygon class="st5" points="170.4,100.6 131.9,131.6 131.6,134.4 173.2,100.9 						"/>
						<polygon class="st5" points="152.3,98.6 133.8,113.5 133.5,116.3 155.1,98.9 						"/>
						<polygon class="st5" points="171.4,201.3 230,154.3 230.3,151.5 168.6,201 						"/>
						<polygon class="st5" points="161.4,99.6 132.8,122.5 132.5,125.3 164.2,99.9 						"/>
						<polygon class="st5" points="135.2,197.4 233.9,118.1 234.2,115.3 132.4,197.1 						"/>
						<polygon class="st5" points="179.4,101.6 130.9,140.6 130.6,143.4 182.3,101.9 						"/>
						<polygon class="st5" points="153.3,199.3 231.9,136.2 232.3,133.4 150.5,199 						"/>
						<polygon class="st5" points="144.3,198.3 232.9,127.2 233.2,124.4 141.5,198 						"/>
						<polygon class="st5" points="235.1,107.7 233.7,107.5 124.9,194.8 124.8,196.2 126.2,196.4 234.9,109.1 						"/>
						<polygon class="st5" points="197.5,103.6 128.9,158.7 128.6,161.5 200.3,103.9 						"/>
						<polygon class="st5" points="143.3,97.6 134.8,104.4 134.5,107.3 146.1,98 						"/>
						<polygon class="st5" points="215.6,105.6 126.9,176.7 126.6,179.6 218.4,105.9 						"/>
						<polygon class="st5" points="216.6,206.3 225,199.5 225.3,196.6 213.8,205.9 						"/>
						<polygon class="st5" points="224.6,106.5 125.9,185.8 125.6,188.6 227.4,106.8 						"/>
						<polygon class="st5" points="224.2,207.1 224.3,205.7 222.8,206.9 						"/>
						<polygon class="st5" points="198.5,204.3 227,181.4 227.3,178.6 195.7,204 						"/>
						<polygon class="st5" points="189.5,203.3 228,172.3 228.3,169.5 186.6,203 						"/>
						<polygon class="st5" points="206.6,104.6 127.9,167.7 127.6,170.5 209.4,104.9 						"/>
						<polygon class="st5" points="207.5,205.3 226,190.4 226.3,187.6 204.7,205 						"/>
						<polygon class="st5" points="135.7,96.8 135.5,98.2 137.1,97 						"/>
					</g>
				</g>
				<g class="st2">
					<g class="st3">
						
							<rect x="119.1" y="201.4" transform="matrix(0.1087 -0.9941 0.9941 0.1087 -99.1917 392.0841)" class="st4" width="100" height="100"/>
						<polygon class="st4" points="180.4,202.3 118.7,251.8 118,258.1 186.6,203 						"/>
						<polygon class="st4" points="171.4,201.3 119.7,242.8 119,249 177.6,202 						"/>
						<polygon class="st4" points="162.3,200.3 120.7,233.8 120,240 168.6,201 						"/>
						<polygon class="st4" points="135.2,197.4 123.6,206.7 123,212.9 141.5,198 						"/>
						<polygon class="st4" points="126.2,196.4 124.6,197.6 124,203.8 132.4,197.1 						"/>
						<polygon class="st4" points="153.3,199.3 121.7,224.7 121,231 159.5,200 						"/>
						<polygon class="st4" points="144.3,198.3 122.7,215.7 122,221.9 150.5,199 						"/>
						<polygon class="st4" points="216.6,206.3 114.8,288 114.1,294.2 222.8,206.9 						"/>
						<polygon class="st4" points="189.5,203.3 117.7,260.9 117,267.1 195.7,204 						"/>
						<polygon class="st4" points="157.7,300.4 219.4,250.9 220.1,244.6 151.5,299.7 						"/>
						<polygon class="st4" points="175.8,302.4 217.4,268.9 218.1,262.7 169.5,301.7 						"/>
						<polygon class="st4" points="148.7,299.4 220.4,241.8 221.1,235.6 142.4,298.7 						"/>
						<polygon class="st4" points="166.7,301.4 218.4,259.9 219.1,253.7 160.5,300.7 						"/>
						<polygon class="st4" points="223.4,214.7 224,208.5 115.3,295.8 121.5,296.5 						"/>
						<polygon class="st4" points="139.6,298.4 221.4,232.8 222.1,226.6 133.4,297.8 						"/>
						<polygon class="st4" points="130.6,297.4 222.4,223.8 223.1,217.5 124.4,296.8 						"/>
						<polygon class="st4" points="184.8,303.4 216.4,278 217.1,271.8 178.6,302.7 						"/>
						<polygon class="st4" points="211.9,306.3 213.5,305.1 214.2,298.9 205.7,305.7 						"/>
						<polygon class="st4" points="193.8,304.4 215.5,287 216.1,280.8 187.6,303.7 						"/>
						<polygon class="st4" points="202.9,305.4 214.5,296.1 215.1,289.8 196.7,304.7 						"/>
						<polygon class="st4" points="207.5,205.3 115.7,279 115.1,285.2 213.8,205.9 						"/>
						<polygon class="st4" points="198.5,204.3 116.7,269.9 116,276.1 204.7,205 						"/>
						<polygon class="st5" points="151.5,299.7 220.1,244.6 220.4,241.8 148.7,299.4 						"/>
						<polygon class="st5" points="169.5,301.7 218.1,262.7 218.4,259.9 166.7,301.4 						"/>
						<polygon class="st5" points="177.6,202 119,249 118.7,251.8 180.4,202.3 						"/>
						<polygon class="st5" points="159.5,200 121,231 120.7,233.8 162.3,200.3 						"/>
						<polygon class="st5" points="141.5,198 123,212.9 122.7,215.7 144.3,198.3 						"/>
						<polygon class="st5" points="160.5,300.7 219.1,253.7 219.4,250.9 157.7,300.4 						"/>
						<polygon class="st5" points="150.5,199 122,221.9 121.7,224.7 153.3,199.3 						"/>
						<polygon class="st5" points="124.4,296.8 223.1,217.5 223.4,214.7 121.5,296.5 						"/>
						<polygon class="st5" points="168.6,201 120,240 119.7,242.8 171.4,201.3 						"/>
						<polygon class="st5" points="142.4,298.7 221.1,235.6 221.4,232.8 139.6,298.4 						"/>
						<polygon class="st5" points="133.4,297.8 222.1,226.6 222.4,223.8 130.6,297.4 						"/>
						<polygon class="st5" points="224.2,207.1 222.8,206.9 114.1,294.2 113.9,295.6 115.3,295.8 224,208.5 						"/>
						<polygon class="st5" points="186.6,203 118,258.1 117.7,260.9 189.5,203.3 						"/>
						<polygon class="st5" points="132.4,197.1 124,203.8 123.6,206.7 135.2,197.4 						"/>
						<polygon class="st5" points="204.7,205 116,276.1 115.7,279 207.5,205.3 						"/>
						<polygon class="st5" points="205.7,305.7 214.2,298.9 214.5,296.1 202.9,305.4 						"/>
						<polygon class="st5" points="213.8,205.9 115.1,285.2 114.8,288 216.6,206.3 						"/>
						<polygon class="st5" points="213.3,306.5 213.5,305.1 211.9,306.3 						"/>
						<polygon class="st5" points="187.6,303.7 216.1,280.8 216.4,278 184.8,303.4 						"/>
						<polygon class="st5" points="178.6,302.7 217.1,271.8 217.4,268.9 175.8,302.4 						"/>
						<polygon class="st5" points="195.7,204 117,267.1 116.7,269.9 198.5,204.3 						"/>
						<polygon class="st5" points="196.7,304.7 215.1,289.8 215.5,287 193.8,304.4 						"/>
						<polygon class="st5" points="124.8,196.2 124.6,197.6 126.2,196.4 						"/>
					</g>
				</g>
				<g class="st2">
					<g class="st3">
						
							<rect x="108.2" y="300.8" transform="matrix(0.1087 -0.9941 0.9941 0.1087 -207.6997 469.876)" class="st4" width="100" height="100"/>
						<polygon class="st4" points="169.5,301.7 107.8,351.3 107.2,357.5 175.8,302.4 						"/>
						<polygon class="st4" points="160.5,300.7 108.8,342.2 108.1,348.4 166.7,301.4 						"/>
						<polygon class="st4" points="151.5,299.7 109.8,333.2 109.1,339.4 157.7,300.4 						"/>
						<polygon class="st4" points="124.4,296.8 112.8,306.1 112.1,312.3 130.6,297.4 						"/>
						<polygon class="st4" points="115.3,295.8 113.8,297 113.1,303.3 121.5,296.5 						"/>
						<polygon class="st4" points="142.4,298.7 110.8,324.1 110.1,330.4 148.7,299.4 						"/>
						<polygon class="st4" points="133.4,297.8 111.8,315.1 111.1,321.3 139.6,298.4 						"/>
						<polygon class="st4" points="205.7,305.7 103.9,387.4 103.2,393.6 211.9,306.3 						"/>
						<polygon class="st4" points="178.6,302.7 106.8,360.3 106.2,366.5 184.8,303.4 						"/>
						<polygon class="st4" points="146.8,399.8 208.5,350.3 209.2,344.1 140.6,399.1 						"/>
						<polygon class="st4" points="164.9,401.8 206.6,368.4 207.2,362.1 158.7,401.1 						"/>
						<polygon class="st4" points="137.8,398.8 209.5,341.2 210.2,335 131.6,398.2 						"/>
						<polygon class="st4" points="155.9,400.8 207.5,359.3 208.2,353.1 149.6,400.1 						"/>
						<polygon class="st4" points="212.5,314.1 213.2,307.9 104.5,395.2 110.7,395.9 						"/>
						<polygon class="st4" points="128.8,397.8 210.5,332.2 211.2,326 122.5,397.2 						"/>
						<polygon class="st4" points="119.7,396.9 211.5,323.2 212.2,316.9 113.5,396.2 						"/>
						<polygon class="st4" points="173.9,402.8 205.6,377.4 206.3,371.2 167.7,402.1 						"/>
						<polygon class="st4" points="201,405.8 202.6,404.5 203.3,398.3 194.8,405.1 						"/>
						<polygon class="st4" points="183,403.8 204.6,386.4 205.3,380.2 176.7,403.1 						"/>
						<polygon class="st4" points="192,404.8 203.6,395.5 204.3,389.2 185.8,404.1 						"/>
						<polygon class="st4" points="196.7,304.7 104.9,378.4 104.2,384.6 202.9,305.4 						"/>
						<polygon class="st4" points="187.6,303.7 105.9,369.3 105.2,375.6 193.8,304.4 						"/>
						<polygon class="st5" points="140.6,399.1 209.2,344.1 209.5,341.2 137.8,398.8 						"/>
						<polygon class="st5" points="158.7,401.1 207.2,362.1 207.5,359.3 155.9,400.8 						"/>
						<polygon class="st5" points="166.7,301.4 108.1,348.4 107.8,351.3 169.5,301.7 						"/>
						<polygon class="st5" points="148.7,299.4 110.1,330.4 109.8,333.2 151.5,299.7 						"/>
						<polygon class="st5" points="130.6,297.4 112.1,312.3 111.8,315.1 133.4,297.8 						"/>
						<polygon class="st5" points="149.6,400.1 208.2,353.1 208.5,350.3 146.8,399.8 						"/>
						<polygon class="st5" points="139.6,298.4 111.1,321.3 110.8,324.1 142.4,298.7 						"/>
						<polygon class="st5" points="113.5,396.2 212.2,316.9 212.5,314.1 110.7,395.9 						"/>
						<polygon class="st5" points="157.7,300.4 109.1,339.4 108.8,342.2 160.5,300.7 						"/>
						<polygon class="st5" points="131.6,398.2 210.2,335 210.5,332.2 128.8,397.8 						"/>
						<polygon class="st5" points="122.5,397.2 211.2,326 211.5,323.2 119.7,396.9 						"/>
						<polygon class="st5" points="213.3,306.5 211.9,306.3 103.2,393.6 103,395 104.5,395.2 213.2,307.9 						"/>
						<polygon class="st5" points="175.8,302.4 107.2,357.5 106.8,360.3 178.6,302.7 						"/>
						<polygon class="st5" points="121.5,296.5 113.1,303.3 112.8,306.1 124.4,296.8 						"/>
						<polygon class="st5" points="193.8,304.4 105.2,375.6 104.9,378.4 196.7,304.7 						"/>
						<polygon class="st5" points="194.8,405.1 203.3,398.3 203.6,395.5 192,404.8 						"/>
						<polygon class="st5" points="202.9,305.4 104.2,384.6 103.9,387.4 205.7,305.7 						"/>
						<polygon class="st5" points="202.5,405.9 202.6,404.5 201,405.8 						"/>
						<polygon class="st5" points="176.7,403.1 205.3,380.2 205.6,377.4 173.9,402.8 						"/>
						<polygon class="st5" points="167.7,402.1 206.3,371.2 206.6,368.4 164.9,401.8 						"/>
						<polygon class="st5" points="184.8,303.4 106.2,366.5 105.9,369.3 187.6,303.7 						"/>
						<polygon class="st5" points="185.8,404.1 204.3,389.2 204.6,386.4 183,403.8 						"/>
						<polygon class="st5" points="113.9,295.6 113.8,297 115.3,295.8 						"/>
					</g>
				</g>
				<g class="st2">
					<g class="st3">
						
							<rect x="97.3" y="400.2" transform="matrix(0.1087 -0.9941 0.9941 0.1087 -316.2078 547.6679)" class="st4" width="100" height="100"/>
						<polygon class="st4" points="158.7,401.1 97,450.7 96.3,456.9 164.9,401.8 						"/>
						<polygon class="st4" points="149.6,400.1 97.9,441.6 97.3,447.8 155.9,400.8 						"/>
						<polygon class="st4" points="140.6,399.1 98.9,432.6 98.3,438.8 146.8,399.8 						"/>
						<polygon class="st4" points="113.5,396.2 101.9,405.5 101.2,411.7 119.7,396.9 						"/>
						<polygon class="st4" points="104.5,395.2 102.9,396.4 102.2,402.7 110.7,395.9 						"/>
						<polygon class="st4" points="131.6,398.2 99.9,423.6 99.2,429.8 137.8,398.8 						"/>
						<polygon class="st4" points="122.5,397.2 100.9,414.5 100.2,420.7 128.8,397.8 						"/>
						<polygon class="st4" points="194.8,405.1 93,486.8 92.3,493 201,405.8 						"/>
						<polygon class="st4" points="167.7,402.1 96,459.7 95.3,465.9 173.9,402.8 						"/>
						<polygon class="st4" points="136,499.2 197.7,449.7 198.3,443.5 129.7,498.5 						"/>
						<polygon class="st4" points="154,501.2 195.7,467.8 196.4,461.5 147.8,500.5 						"/>
						<polygon class="st4" points="126.9,498.2 198.7,440.6 199.3,434.4 120.7,497.6 						"/>
						<polygon class="st4" points="145,500.2 196.7,458.7 197.4,452.5 138.8,499.5 						"/>
						<polygon class="st4" points="201.6,413.5 202.3,407.3 93.6,494.6 99.8,495.3 						"/>
						<polygon class="st4" points="117.9,497.3 199.6,431.6 200.3,425.4 111.7,496.6 						"/>
						<polygon class="st4" points="108.8,496.3 200.6,422.6 201.3,416.3 102.6,495.6 						"/>
						<polygon class="st4" points="163.1,502.2 194.7,476.8 195.4,470.6 156.8,501.5 						"/>
						<polygon class="st4" points="190.2,505.2 191.7,503.9 192.4,497.7 183.9,504.5 						"/>
						<polygon class="st4" points="172.1,503.2 193.7,485.8 194.4,479.6 165.9,502.5 						"/>
						<polygon class="st4" points="181.1,504.2 192.7,494.9 193.4,488.6 174.9,503.5 						"/>
						<polygon class="st4" points="185.8,404.1 94,477.8 93.3,484 192,404.8 						"/>
						<polygon class="st4" points="176.7,403.1 95,468.7 94.3,475 183,403.8 						"/>
						<polygon class="st5" points="129.7,498.5 198.3,443.5 198.7,440.6 126.9,498.2 						"/>
						<polygon class="st5" points="147.8,500.5 196.4,461.5 196.7,458.7 145,500.2 						"/>
						<polygon class="st5" points="155.9,400.8 97.3,447.8 97,450.7 158.7,401.1 						"/>
						<polygon class="st5" points="137.8,398.8 99.2,429.8 98.9,432.6 140.6,399.1 						"/>
						<polygon class="st5" points="119.7,396.9 101.2,411.7 100.9,414.5 122.5,397.2 						"/>
						<polygon class="st5" points="138.8,499.5 197.4,452.5 197.7,449.7 136,499.2 						"/>
						<polygon class="st5" points="128.8,397.8 100.2,420.7 99.9,423.6 131.6,398.2 						"/>
						<polygon class="st5" points="102.6,495.6 201.3,416.3 201.6,413.5 99.8,495.3 						"/>
						<polygon class="st5" points="146.8,399.8 98.3,438.8 97.9,441.6 149.6,400.1 						"/>
						<polygon class="st5" points="120.7,497.6 199.3,434.4 199.6,431.6 117.9,497.3 						"/>
						<polygon class="st5" points="111.7,496.6 200.3,425.4 200.6,422.6 108.8,496.3 						"/>
						<polygon class="st5" points="202.5,405.9 201,405.8 92.3,493 92.2,494.4 93.6,494.6 202.3,407.3 						"/>
						<polygon class="st5" points="164.9,401.8 96.3,456.9 96,459.7 167.7,402.1 						"/>
						<polygon class="st5" points="110.7,395.9 102.2,402.7 101.9,405.5 113.5,396.2 						"/>
						<polygon class="st5" points="183,403.8 94.3,475 94,477.8 185.8,404.1 						"/>
						<polygon class="st5" points="183.9,504.5 192.4,497.7 192.7,494.9 181.1,504.2 						"/>
						<polygon class="st5" points="192,404.8 93.3,484 93,486.8 194.8,405.1 						"/>
						<polygon class="st5" points="191.6,505.3 191.7,503.9 190.2,505.2 						"/>
						<polygon class="st5" points="165.9,502.5 194.4,479.6 194.7,476.8 163.1,502.2 						"/>
						<polygon class="st5" points="156.8,501.5 195.4,470.6 195.7,467.8 154,501.2 						"/>
						<polygon class="st5" points="173.9,402.8 95.3,465.9 95,468.7 176.7,403.1 						"/>
						<polygon class="st5" points="174.9,503.5 193.4,488.6 193.7,485.8 172.1,503.2 						"/>
						<polygon class="st5" points="103,395 102.9,396.4 104.5,395.2 						"/>
					</g>
				</g>
				<g class="st2">
					<g class="st3">
						
							<rect x="41.4" y="-8.3" transform="matrix(0.1087 -0.9941 0.9941 0.1087 40.0325 127.9922)" class="st4" width="100" height="100"/>
						<polygon class="st4" points="102.8,-7.4 41,42.2 40.4,48.4 109,-6.7 						"/>
						<polygon class="st4" points="93.7,-8.4 42,33.1 41.3,39.3 99.9,-7.7 						"/>
						<polygon class="st4" points="84.7,-9.4 43,24.1 42.3,30.3 90.9,-8.7 						"/>
						<polygon class="st4" points="57.6,-12.3 46,-3 45.3,3.2 63.8,-11.6 						"/>
						<polygon class="st4" points="48.5,-13.3 47,-12.1 46.3,-5.8 54.8,-12.6 						"/>
						<polygon class="st4" points="75.6,-10.3 44,15 43.3,21.3 81.9,-9.7 						"/>
						<polygon class="st4" points="66.6,-11.3 45,6 44.3,12.2 72.8,-10.7 						"/>
						<polygon class="st4" points="138.9,-3.4 37.1,78.3 36.4,84.5 145.1,-2.7 						"/>
						<polygon class="st4" points="111.8,-6.4 40.1,51.2 39.4,57.4 118,-5.7 						"/>
						<polygon class="st4" points="80,90.7 141.7,41.2 142.4,35 73.8,90 						"/>
						<polygon class="st4" points="98.1,92.7 139.8,59.3 140.4,53 91.9,92 						"/>
						<polygon class="st4" points="71,89.7 142.7,32.1 143.4,25.9 64.8,89.1 						"/>
						<polygon class="st4" points="89.1,91.7 140.8,50.2 141.4,44 82.8,91 						"/>
						<polygon class="st4" points="145.7,5 146.4,-1.2 37.7,86.1 43.9,86.8 						"/>
						<polygon class="st4" points="62,88.8 143.7,23.1 144.4,16.9 55.7,88.1 						"/>
						<polygon class="st4" points="52.9,87.8 144.7,14.1 145.4,7.8 46.7,87.1 						"/>
						<polygon class="st4" points="107.1,93.7 138.8,68.3 139.5,62.1 100.9,93 						"/>
						<polygon class="st4" points="134.3,96.7 135.8,95.4 136.5,89.2 128,96 						"/>
						<polygon class="st4" points="116.2,94.7 137.8,77.3 138.5,71.1 110,94 						"/>
						<polygon class="st4" points="125.2,95.7 136.8,86.4 137.5,80.1 119,95 						"/>
						<polygon class="st4" points="129.9,-4.4 38.1,69.3 37.4,75.5 136.1,-3.7 						"/>
						<polygon class="st4" points="120.8,-5.4 39.1,60.2 38.4,66.5 127.1,-4.7 						"/>
						<polygon class="st5" points="73.8,90 142.4,35 142.7,32.1 71,89.7 						"/>
						<polygon class="st5" points="91.9,92 140.4,53 140.8,50.2 89.1,91.7 						"/>
						<polygon class="st5" points="99.9,-7.7 41.3,39.3 41,42.2 102.8,-7.4 						"/>
						<polygon class="st5" points="81.9,-9.7 43.3,21.3 43,24.1 84.7,-9.4 						"/>
						<polygon class="st5" points="63.8,-11.6 45.3,3.2 45,6 66.6,-11.3 						"/>
						<polygon class="st5" points="82.8,91 141.4,44 141.7,41.2 80,90.7 						"/>
						<polygon class="st5" points="72.8,-10.7 44.3,12.2 44,15 75.6,-10.3 						"/>
						<polygon class="st5" points="46.7,87.1 145.4,7.8 145.7,5 43.9,86.8 						"/>
						<polygon class="st5" points="90.9,-8.7 42.3,30.3 42,33.1 93.7,-8.4 						"/>
						<polygon class="st5" points="64.8,89.1 143.4,25.9 143.7,23.1 62,88.8 						"/>
						<polygon class="st5" points="55.7,88.1 144.4,16.9 144.7,14.1 52.9,87.8 						"/>
						<polygon class="st5" points="146.5,-2.6 145.1,-2.7 36.4,84.5 36.3,85.9 37.7,86.1 146.4,-1.2 						"/>
						<polygon class="st5" points="109,-6.7 40.4,48.4 40.1,51.2 111.8,-6.4 						"/>
						<polygon class="st5" points="54.8,-12.6 46.3,-5.8 46,-3 57.6,-12.3 						"/>
						<polygon class="st5" points="127.1,-4.7 38.4,66.5 38.1,69.3 129.9,-4.4 						"/>
						<polygon class="st5" points="128,96 136.5,89.2 136.8,86.4 125.2,95.7 						"/>
						<polygon class="st5" points="136.1,-3.7 37.4,75.5 37.1,78.3 138.9,-3.4 						"/>
						<polygon class="st5" points="135.7,96.8 135.8,95.4 134.3,96.7 						"/>
						<polygon class="st5" points="110,94 138.5,71.1 138.8,68.3 107.1,93.7 						"/>
						<polygon class="st5" points="100.9,93 139.5,62.1 139.8,59.3 98.1,92.7 						"/>
						<polygon class="st5" points="118,-5.7 39.4,57.4 39.1,60.2 120.8,-5.4 						"/>
						<polygon class="st5" points="119,95 137.5,80.1 137.8,77.3 116.2,94.7 						"/>
						<polygon class="st5" points="47.1,-13.5 47,-12.1 48.5,-13.3 						"/>
					</g>
				</g>
				<g class="st2">
					<g class="st3">
						
							<rect x="30.5" y="91.1" transform="matrix(0.1087 -0.9941 0.9941 0.1087 -68.4756 205.7841)" class="st4" width="100" height="100"/>
						<polygon class="st4" points="91.9,92 30.2,141.6 29.5,147.8 98.1,92.7 						"/>
						<polygon class="st4" points="82.8,91 31.2,132.5 30.5,138.8 89.1,91.7 						"/>
						<polygon class="st4" points="73.8,90 32.1,123.5 31.5,129.7 80,90.7 						"/>
						<polygon class="st4" points="46.7,87.1 35.1,96.4 34.4,102.6 52.9,87.8 						"/>
						<polygon class="st4" points="37.7,86.1 36.1,87.3 35.4,93.6 43.9,86.8 						"/>
						<polygon class="st4" points="64.8,89.1 33.1,114.5 32.5,120.7 71,89.7 						"/>
						<polygon class="st4" points="55.7,88.1 34.1,105.4 33.4,111.6 62,88.8 						"/>
						<polygon class="st4" points="128,96 26.2,177.7 25.5,183.9 134.3,96.7 						"/>
						<polygon class="st4" points="100.9,93 29.2,150.6 28.5,156.8 107.1,93.7 						"/>
						<polygon class="st4" points="69.2,190.1 130.9,140.6 131.6,134.4 62.9,189.5 						"/>
						<polygon class="st4" points="87.2,192.1 128.9,158.7 129.6,152.4 81,191.4 						"/>
						<polygon class="st4" points="60.1,189.1 131.9,131.6 132.5,125.3 53.9,188.5 						"/>
						<polygon class="st4" points="78.2,191.1 129.9,149.6 130.6,143.4 72,190.4 						"/>
						<polygon class="st4" points="134.8,104.4 135.5,98.2 26.8,185.5 33,186.2 						"/>
						<polygon class="st4" points="51.1,188.2 132.8,122.5 133.5,116.3 44.9,187.5 						"/>
						<polygon class="st4" points="42,187.2 133.8,113.5 134.5,107.3 35.8,186.5 						"/>
						<polygon class="st4" points="96.3,193.1 127.9,167.7 128.6,161.5 90,192.4 						"/>
						<polygon class="st4" points="123.4,196.1 124.9,194.8 125.6,188.6 117.2,195.4 						"/>
						<polygon class="st4" points="105.3,194.1 126.9,176.7 127.6,170.5 99.1,193.4 						"/>
						<polygon class="st4" points="114.3,195.1 125.9,185.8 126.6,179.6 108.1,194.4 						"/>
						<polygon class="st4" points="119,95 27.2,168.7 26.5,174.9 125.2,95.7 						"/>
						<polygon class="st4" points="110,94 28.2,159.6 27.5,165.9 116.2,94.7 						"/>
						<polygon class="st5" points="62.9,189.5 131.6,134.4 131.9,131.6 60.1,189.1 						"/>
						<polygon class="st5" points="81,191.4 129.6,152.4 129.9,149.6 78.2,191.1 						"/>
						<polygon class="st5" points="89.1,91.7 30.5,138.8 30.2,141.6 91.9,92 						"/>
						<polygon class="st5" points="71,89.7 32.5,120.7 32.1,123.5 73.8,90 						"/>
						<polygon class="st5" points="52.9,87.8 34.4,102.6 34.1,105.4 55.7,88.1 						"/>
						<polygon class="st5" points="72,190.4 130.6,143.4 130.9,140.6 69.2,190.1 						"/>
						<polygon class="st5" points="62,88.8 33.4,111.6 33.1,114.5 64.8,89.1 						"/>
						<polygon class="st5" points="35.8,186.5 134.5,107.3 134.8,104.4 33,186.2 						"/>
						<polygon class="st5" points="80,90.7 31.5,129.7 31.2,132.5 82.8,91 						"/>
						<polygon class="st5" points="53.9,188.5 132.5,125.3 132.8,122.5 51.1,188.2 						"/>
						<polygon class="st5" points="44.9,187.5 133.5,116.3 133.8,113.5 42,187.2 						"/>
						<polygon class="st5" points="135.7,96.8 134.3,96.7 25.5,183.9 25.4,185.3 26.8,185.5 135.5,98.2 						"/>
						<polygon class="st5" points="98.1,92.7 29.5,147.8 29.2,150.6 100.9,93 						"/>
						<polygon class="st5" points="43.9,86.8 35.4,93.6 35.1,96.4 46.7,87.1 						"/>
						<polygon class="st5" points="116.2,94.7 27.5,165.9 27.2,168.7 119,95 						"/>
						<polygon class="st5" points="117.2,195.4 125.6,188.6 125.9,185.8 114.3,195.1 						"/>
						<polygon class="st5" points="125.2,95.7 26.5,174.9 26.2,177.7 128,96 						"/>
						<polygon class="st5" points="124.8,196.2 124.9,194.8 123.4,196.1 						"/>
						<polygon class="st5" points="99.1,193.4 127.6,170.5 127.9,167.7 96.3,193.1 						"/>
						<polygon class="st5" points="90,192.4 128.6,161.5 128.9,158.7 87.2,192.1 						"/>
						<polygon class="st5" points="107.1,93.7 28.5,156.8 28.2,159.6 110,94 						"/>
						<polygon class="st5" points="108.1,194.4 126.6,179.6 126.9,176.7 105.3,194.1 						"/>
						<polygon class="st5" points="36.3,85.9 36.1,87.3 37.7,86.1 						"/>
					</g>
				</g>
				<g class="st2">
					<g class="st3">
						
							<rect x="19.6" y="190.5" transform="matrix(0.1087 -0.9941 0.9941 0.1087 -176.9836 283.576)" class="st4" width="100" height="100"/>
						<polygon class="st4" points="81,191.4 19.3,241 18.6,247.2 87.2,192.1 						"/>
						<polygon class="st4" points="72,190.4 20.3,231.9 19.6,238.2 78.2,191.1 						"/>
						<polygon class="st4" points="62.9,189.5 21.3,222.9 20.6,229.1 69.2,190.1 						"/>
						<polygon class="st4" points="35.8,186.5 24.2,195.8 23.6,202 42,187.2 						"/>
						<polygon class="st4" points="26.8,185.5 25.2,186.8 24.5,193 33,186.2 						"/>
						<polygon class="st4" points="53.9,188.5 22.3,213.9 21.6,220.1 60.1,189.1 						"/>
						<polygon class="st4" points="44.9,187.5 23.3,204.8 22.6,211.1 51.1,188.2 						"/>
						<polygon class="st4" points="117.2,195.4 15.3,277.1 14.7,283.3 123.4,196.1 						"/>
						<polygon class="st4" points="90,192.4 18.3,250 17.6,256.2 96.3,193.1 						"/>
						<polygon class="st4" points="58.3,289.5 120,240 120.7,233.8 52.1,288.9 						"/>
						<polygon class="st4" points="76.4,291.5 118,258.1 118.7,251.8 70.1,290.8 						"/>
						<polygon class="st4" points="49.3,288.6 121,231 121.7,224.7 43,287.9 						"/>
						<polygon class="st4" points="67.3,290.5 119,249 119.7,242.8 61.1,289.8 						"/>
						<polygon class="st4" points="124,203.8 124.6,197.6 15.9,284.9 22.1,285.6 						"/>
						<polygon class="st4" points="40.2,287.6 122,221.9 122.7,215.7 34,286.9 						"/>
						<polygon class="st4" points="31.2,286.6 123,212.9 123.6,206.7 25,285.9 						"/>
						<polygon class="st4" points="85.4,292.5 117,267.1 117.7,260.9 79.2,291.8 						"/>
						<polygon class="st4" points="112.5,295.5 114.1,294.2 114.8,288 106.3,294.8 						"/>
						<polygon class="st4" points="94.4,293.5 116,276.1 116.7,269.9 88.2,292.8 						"/>
						<polygon class="st4" points="103.5,294.5 115.1,285.2 115.7,279 97.2,293.8 						"/>
						<polygon class="st4" points="108.1,194.4 16.3,268.1 15.7,274.3 114.3,195.1 						"/>
						<polygon class="st4" points="99.1,193.4 17.3,259 16.6,265.3 105.3,194.1 						"/>
						<polygon class="st5" points="52.1,288.9 120.7,233.8 121,231 49.3,288.6 						"/>
						<polygon class="st5" points="70.1,290.8 118.7,251.8 119,249 67.3,290.5 						"/>
						<polygon class="st5" points="78.2,191.1 19.6,238.2 19.3,241 81,191.4 						"/>
						<polygon class="st5" points="60.1,189.1 21.6,220.1 21.3,222.9 62.9,189.5 						"/>
						<polygon class="st5" points="42,187.2 23.6,202 23.3,204.8 44.9,187.5 						"/>
						<polygon class="st5" points="61.1,289.8 119.7,242.8 120,240 58.3,289.5 						"/>
						<polygon class="st5" points="51.1,188.2 22.6,211.1 22.3,213.9 53.9,188.5 						"/>
						<polygon class="st5" points="25,285.9 123.6,206.7 124,203.8 22.1,285.6 						"/>
						<polygon class="st5" points="69.2,190.1 20.6,229.1 20.3,231.9 72,190.4 						"/>
						<polygon class="st5" points="43,287.9 121.7,224.7 122,221.9 40.2,287.6 						"/>
						<polygon class="st5" points="34,286.9 122.7,215.7 123,212.9 31.2,286.6 						"/>
						<polygon class="st5" points="124.8,196.2 123.4,196.1 14.7,283.3 14.5,284.8 15.9,284.9 124.6,197.6 						"/>
						<polygon class="st5" points="87.2,192.1 18.6,247.2 18.3,250 90,192.4 						"/>
						<polygon class="st5" points="33,186.2 24.5,193 24.2,195.8 35.8,186.5 						"/>
						<polygon class="st5" points="105.3,194.1 16.6,265.3 16.3,268.1 108.1,194.4 						"/>
						<polygon class="st5" points="106.3,294.8 114.8,288 115.1,285.2 103.5,294.5 						"/>
						<polygon class="st5" points="114.3,195.1 15.7,274.3 15.3,277.1 117.2,195.4 						"/>
						<polygon class="st5" points="113.9,295.6 114.1,294.2 112.5,295.5 						"/>
						<polygon class="st5" points="88.2,292.8 116.7,269.9 117,267.1 85.4,292.5 						"/>
						<polygon class="st5" points="79.2,291.8 117.7,260.9 118,258.1 76.4,291.5 						"/>
						<polygon class="st5" points="96.3,193.1 17.6,256.2 17.3,259 99.1,193.4 						"/>
						<polygon class="st5" points="97.2,293.8 115.7,279 116,276.1 94.4,293.5 						"/>
						<polygon class="st5" points="25.4,185.3 25.2,186.8 26.8,185.5 						"/>
					</g>
				</g>
				<g class="st2">
					<g class="st3">
						
							<rect x="8.8" y="289.9" transform="matrix(0.1087 -0.9941 0.9941 0.1087 -285.4917 361.368)" class="st4" width="100" height="100"/>
						<polygon class="st4" points="70.1,290.8 8.4,340.4 7.7,346.6 76.4,291.5 						"/>
						<polygon class="st4" points="61.1,289.8 9.4,331.3 8.7,337.6 67.3,290.5 						"/>
						<polygon class="st4" points="52.1,288.9 10.4,322.3 9.7,328.5 58.3,289.5 						"/>
						<polygon class="st4" points="25,285.9 13.4,295.2 12.7,301.4 31.2,286.6 						"/>
						<polygon class="st4" points="15.9,284.9 14.4,286.2 13.7,292.4 22.1,285.6 						"/>
						<polygon class="st4" points="43,287.9 11.4,313.3 10.7,319.5 49.3,288.6 						"/>
						<polygon class="st4" points="34,286.9 12.4,304.2 11.7,310.5 40.2,287.6 						"/>
						<polygon class="st4" points="106.3,294.8 4.5,376.5 3.8,382.8 112.5,295.5 						"/>
						<polygon class="st4" points="79.2,291.8 7.4,349.4 6.8,355.6 85.4,292.5 						"/>
						<polygon class="st4" points="47.4,388.9 109.1,339.4 109.8,333.2 41.2,388.3 						"/>
						<polygon class="st4" points="65.5,390.9 107.2,357.5 107.8,351.3 59.3,390.2 						"/>
						<polygon class="st4" points="38.4,388 110.1,330.4 110.8,324.1 32.2,387.3 						"/>
						<polygon class="st4" points="56.5,389.9 108.1,348.4 108.8,342.2 50.2,389.3 						"/>
						<polygon class="st4" points="113.1,303.3 113.8,297 5,384.3 11.3,385 						"/>
						<polygon class="st4" points="29.3,387 111.1,321.3 111.8,315.1 23.1,386.3 						"/>
						<polygon class="st4" points="20.3,386 112.1,312.3 112.8,306.1 14.1,385.3 						"/>
						<polygon class="st4" points="74.5,391.9 106.2,366.5 106.8,360.3 68.3,391.2 						"/>
						<polygon class="st4" points="101.6,394.9 103.2,393.6 103.9,387.4 95.4,394.2 						"/>
						<polygon class="st4" points="83.6,392.9 105.2,375.6 105.9,369.3 77.3,392.2 						"/>
						<polygon class="st4" points="92.6,393.9 104.2,384.6 104.9,378.4 86.4,393.2 						"/>
						<polygon class="st4" points="97.2,293.8 5.5,367.5 4.8,373.7 103.5,294.5 						"/>
						<polygon class="st4" points="88.2,292.8 6.4,358.5 5.8,364.7 94.4,293.5 						"/>
						<polygon class="st5" points="41.2,388.3 109.8,333.2 110.1,330.4 38.4,388 						"/>
						<polygon class="st5" points="59.3,390.2 107.8,351.3 108.1,348.4 56.5,389.9 						"/>
						<polygon class="st5" points="67.3,290.5 8.7,337.6 8.4,340.4 70.1,290.8 						"/>
						<polygon class="st5" points="49.3,288.6 10.7,319.5 10.4,322.3 52.1,288.9 						"/>
						<polygon class="st5" points="31.2,286.6 12.7,301.4 12.4,304.2 34,286.9 						"/>
						<polygon class="st5" points="50.2,389.3 108.8,342.2 109.1,339.4 47.4,388.9 						"/>
						<polygon class="st5" points="40.2,287.6 11.7,310.5 11.4,313.3 43,287.9 						"/>
						<polygon class="st5" points="14.1,385.3 112.8,306.1 113.1,303.3 11.3,385 						"/>
						<polygon class="st5" points="58.3,289.5 9.7,328.5 9.4,331.3 61.1,289.8 						"/>
						<polygon class="st5" points="32.2,387.3 110.8,324.1 111.1,321.3 29.3,387 						"/>
						<polygon class="st5" points="23.1,386.3 111.8,315.1 112.1,312.3 20.3,386 						"/>
						<polygon class="st5" points="113.9,295.6 112.5,295.5 3.8,382.8 3.6,384.2 5,384.3 113.8,297 						"/>
						<polygon class="st5" points="76.4,291.5 7.7,346.6 7.4,349.4 79.2,291.8 						"/>
						<polygon class="st5" points="22.1,285.6 13.7,292.4 13.4,295.2 25,285.9 						"/>
						<polygon class="st5" points="94.4,293.5 5.8,364.7 5.5,367.5 97.2,293.8 						"/>
						<polygon class="st5" points="95.4,394.2 103.9,387.4 104.2,384.6 92.6,393.9 						"/>
						<polygon class="st5" points="103.5,294.5 4.8,373.7 4.5,376.5 106.3,294.8 						"/>
						<polygon class="st5" points="103,395 103.2,393.6 101.6,394.9 						"/>
						<polygon class="st5" points="77.3,392.2 105.9,369.3 106.2,366.5 74.5,391.9 						"/>
						<polygon class="st5" points="68.3,391.2 106.8,360.3 107.2,357.5 65.5,390.9 						"/>
						<polygon class="st5" points="85.4,292.5 6.8,355.6 6.4,358.5 88.2,292.8 						"/>
						<polygon class="st5" points="86.4,393.2 104.9,378.4 105.2,375.6 83.6,392.9 						"/>
						<polygon class="st5" points="14.5,284.8 14.4,286.2 15.9,284.9 						"/>
					</g>
				</g>
				<g class="st2">
					<g class="st3">
						
							<rect x="-2.1" y="389.3" transform="matrix(0.1087 -0.9941 0.9941 0.1087 -393.9997 439.1599)" class="st4" width="100" height="100"/>
						<polygon class="st4" points="59.3,390.2 -2.4,439.8 -3.1,446 65.5,390.9 						"/>
						<polygon class="st4" points="50.2,389.3 -1.5,430.8 -2.1,437 56.5,389.9 						"/>
						<polygon class="st4" points="41.2,388.3 -0.5,421.7 -1.2,427.9 47.4,388.9 						"/>
						<polygon class="st4" points="14.1,385.3 2.5,394.6 1.8,400.8 20.3,386 						"/>
						<polygon class="st4" points="5,384.3 3.5,385.6 2.8,391.8 11.3,385 						"/>
						<polygon class="st4" points="32.2,387.3 0.5,412.7 -0.2,418.9 38.4,388 						"/>
						<polygon class="st4" points="23.1,386.3 1.5,403.6 0.8,409.9 29.3,387 						"/>
						<polygon class="st4" points="95.4,394.2 -6.4,475.9 -7.1,482.2 101.6,394.9 						"/>
						<polygon class="st4" points="68.3,391.2 -3.4,448.8 -4.1,455.1 74.5,391.9 						"/>
						<polygon class="st4" points="36.5,488.4 98.3,438.8 98.9,432.6 30.3,487.7 						"/>
						<polygon class="st4" points="54.6,490.3 96.3,456.9 97,450.7 48.4,489.7 						"/>
						<polygon class="st4" points="27.5,487.4 99.2,429.8 99.9,423.6 21.3,486.7 						"/>
						<polygon class="st4" points="45.6,489.3 97.3,447.8 97.9,441.6 39.4,488.7 						"/>
						<polygon class="st4" points="102.2,402.7 102.9,396.4 -5.8,483.7 0.4,484.4 						"/>
						<polygon class="st4" points="18.5,486.4 100.2,420.7 100.9,414.5 12.2,485.7 						"/>
						<polygon class="st4" points="9.4,485.4 101.2,411.7 101.9,405.5 3.2,484.7 						"/>
						<polygon class="st4" points="63.7,491.3 95.3,465.9 96,459.7 57.4,490.6 						"/>
						<polygon class="st4" points="90.8,494.3 92.3,493 93,486.8 84.5,493.6 						"/>
						<polygon class="st4" points="72.7,492.3 94.3,475 95,468.7 66.5,491.6 						"/>
						<polygon class="st4" points="81.7,493.3 93.3,484 94,477.8 75.5,492.6 						"/>
						<polygon class="st4" points="86.4,393.2 -5.4,466.9 -6.1,473.1 92.6,393.9 						"/>
						<polygon class="st4" points="77.3,392.2 -4.4,457.9 -5.1,464.1 83.6,392.9 						"/>
						<polygon class="st5" points="30.3,487.7 98.9,432.6 99.2,429.8 27.5,487.4 						"/>
						<polygon class="st5" points="48.4,489.7 97,450.7 97.3,447.8 45.6,489.3 						"/>
						<polygon class="st5" points="56.5,389.9 -2.1,437 -2.4,439.8 59.3,390.2 						"/>
						<polygon class="st5" points="38.4,388 -0.2,418.9 -0.5,421.7 41.2,388.3 						"/>
						<polygon class="st5" points="20.3,386 1.8,400.8 1.5,403.6 23.1,386.3 						"/>
						<polygon class="st5" points="39.4,488.7 97.9,441.6 98.3,438.8 36.5,488.4 						"/>
						<polygon class="st5" points="29.3,387 0.8,409.9 0.5,412.7 32.2,387.3 						"/>
						<polygon class="st5" points="3.2,484.7 101.9,405.5 102.2,402.7 0.4,484.4 						"/>
						<polygon class="st5" points="47.4,388.9 -1.2,427.9 -1.5,430.8 50.2,389.3 						"/>
						<polygon class="st5" points="21.3,486.7 99.9,423.6 100.2,420.7 18.5,486.4 						"/>
						<polygon class="st5" points="12.2,485.7 100.9,414.5 101.2,411.7 9.4,485.4 						"/>
						<polygon class="st5" points="103,395 101.6,394.9 -7.1,482.2 -7.2,483.6 -5.8,483.7 102.9,396.4 						"/>
						<polygon class="st5" points="65.5,390.9 -3.1,446 -3.4,448.8 68.3,391.2 						"/>
						<polygon class="st5" points="11.3,385 2.8,391.8 2.5,394.6 14.1,385.3 						"/>
						<polygon class="st5" points="83.6,392.9 -5.1,464.1 -5.4,466.9 86.4,393.2 						"/>
						<polygon class="st5" points="84.5,493.6 93,486.8 93.3,484 81.7,493.3 						"/>
						<polygon class="st5" points="92.6,393.9 -6.1,473.1 -6.4,475.9 95.4,394.2 						"/>
						<polygon class="st5" points="92.2,494.4 92.3,493 90.8,494.3 						"/>
						<polygon class="st5" points="66.5,491.6 95,468.7 95.3,465.9 63.7,491.3 						"/>
						<polygon class="st5" points="57.4,490.6 96,459.7 96.3,456.9 54.6,490.3 						"/>
						<polygon class="st5" points="74.5,391.9 -4.1,455.1 -4.4,457.9 77.3,392.2 						"/>
						<polygon class="st5" points="75.5,492.6 94,477.8 94.3,475 72.7,492.3 						"/>
						<polygon class="st5" points="3.6,384.2 3.5,385.6 5,384.3 						"/>
					</g>
				</g>
				<g class="st2">
					<g class="st3">
						
							<rect x="-58" y="-19.2" transform="matrix(0.1087 -0.9941 0.9941 0.1087 -37.7594 19.4841)" class="st4" width="100" height="100"/>
						<polygon class="st4" points="3.3,-18.3 -58.4,31.3 -59,37.5 9.6,-17.6 						"/>
						<polygon class="st4" points="-5.7,-19.2 -57.4,22.3 -58.1,28.5 0.5,-18.6 						"/>
						<polygon class="st4" points="-14.7,-20.2 -56.4,13.2 -57.1,19.4 -8.5,-19.6 						"/>
						<polygon class="st4" points="-41.8,-23.2 -53.4,-13.9 -54.1,-7.7 -35.6,-22.5 						"/>
						<polygon class="st4" points="-50.9,-24.2 -52.4,-22.9 -53.1,-16.7 -44.7,-23.5 						"/>
						<polygon class="st4" points="-23.8,-21.2 -55.4,4.2 -56.1,10.4 -17.5,-20.5 						"/>
						<polygon class="st4" points="-32.8,-22.2 -54.4,-4.9 -55.1,1.4 -26.6,-21.5 						"/>
						<polygon class="st4" points="39.5,-14.3 -62.3,67.4 -63,73.7 45.7,-13.6 						"/>
						<polygon class="st4" points="12.4,-17.3 -59.4,40.3 -60,46.5 18.6,-16.6 						"/>
						<polygon class="st4" points="-19.4,79.9 42.3,30.3 43,24.1 -25.6,79.2 						"/>
						<polygon class="st4" points="-1.3,81.8 40.4,48.4 41,42.2 -7.5,81.2 						"/>
						<polygon class="st4" points="-28.4,78.9 43.3,21.3 44,15 -34.6,78.2 						"/>
						<polygon class="st4" points="-10.3,80.8 41.3,39.3 42,33.1 -16.6,80.2 						"/>
						<polygon class="st4" points="46.3,-5.8 47,-12.1 -61.7,75.2 -55.5,75.9 						"/>
						<polygon class="st4" points="-37.4,77.9 44.3,12.2 45,6 -43.7,77.2 						"/>
						<polygon class="st4" points="-46.5,76.9 45.3,3.2 46,-3 -52.7,76.2 						"/>
						<polygon class="st4" points="7.7,82.8 39.4,57.4 40.1,51.2 1.5,82.1 						"/>
						<polygon class="st4" points="34.8,85.8 36.4,84.5 37.1,78.3 28.6,85.1 						"/>
						<polygon class="st4" points="16.8,83.8 38.4,66.5 39.1,60.2 10.5,83.1 						"/>
						<polygon class="st4" points="25.8,84.8 37.4,75.5 38.1,69.3 19.6,84.1 						"/>
						<polygon class="st4" points="30.5,-15.3 -61.3,58.4 -62,64.6 36.7,-14.6 						"/>
						<polygon class="st4" points="21.4,-16.3 -60.3,49.4 -61,55.6 27.6,-15.6 						"/>
						<polygon class="st5" points="-25.6,79.2 43,24.1 43.3,21.3 -28.4,78.9 						"/>
						<polygon class="st5" points="-7.5,81.2 41,42.2 41.3,39.3 -10.3,80.8 						"/>
						<polygon class="st5" points="0.5,-18.6 -58.1,28.5 -58.4,31.3 3.3,-18.3 						"/>
						<polygon class="st5" points="-17.5,-20.5 -56.1,10.4 -56.4,13.2 -14.7,-20.2 						"/>
						<polygon class="st5" points="-35.6,-22.5 -54.1,-7.7 -54.4,-4.9 -32.8,-22.2 						"/>
						<polygon class="st5" points="-16.6,80.2 42,33.1 42.3,30.3 -19.4,79.9 						"/>
						<polygon class="st5" points="-26.6,-21.5 -55.1,1.4 -55.4,4.2 -23.8,-21.2 						"/>
						<polygon class="st5" points="-52.7,76.2 46,-3 46.3,-5.8 -55.5,75.9 						"/>
						<polygon class="st5" points="-8.5,-19.6 -57.1,19.4 -57.4,22.3 -5.7,-19.2 						"/>
						<polygon class="st5" points="-34.6,78.2 44,15 44.3,12.2 -37.4,77.9 						"/>
						<polygon class="st5" points="-43.7,77.2 45,6 45.3,3.2 -46.5,76.9 						"/>
						<polygon class="st5" points="47.1,-13.5 45.7,-13.6 -63,73.7 -63.2,75.1 -61.7,75.2 47,-12.1 						"/>
						<polygon class="st5" points="9.6,-17.6 -59,37.5 -59.4,40.3 12.4,-17.3 						"/>
						<polygon class="st5" points="-44.7,-23.5 -53.1,-16.7 -53.4,-13.9 -41.8,-23.2 						"/>
						<polygon class="st5" points="27.6,-15.6 -61,55.6 -61.3,58.4 30.5,-15.3 						"/>
						<polygon class="st5" points="28.6,85.1 37.1,78.3 37.4,75.5 25.8,84.8 						"/>
						<polygon class="st5" points="36.7,-14.6 -62,64.6 -62.3,67.4 39.5,-14.3 						"/>
						<polygon class="st5" points="36.3,85.9 36.4,84.5 34.8,85.8 						"/>
						<polygon class="st5" points="10.5,83.1 39.1,60.2 39.4,57.4 7.7,82.8 						"/>
						<polygon class="st5" points="1.5,82.1 40.1,51.2 40.4,48.4 -1.3,81.8 						"/>
						<polygon class="st5" points="18.6,-16.6 -60,46.5 -60.3,49.4 21.4,-16.3 						"/>
						<polygon class="st5" points="19.6,84.1 38.1,69.3 38.4,66.5 16.8,83.8 						"/>
						<polygon class="st5" points="-52.3,-24.3 -52.4,-22.9 -50.9,-24.2 						"/>
					</g>
				</g>
				<g class="st2">
					<g class="st3">
						
							<rect x="-68.9" y="80.2" transform="matrix(0.1087 -0.9941 0.9941 0.1087 -146.2675 97.2761)" class="st4" width="100" height="100"/>
						<polygon class="st4" points="-7.5,81.2 -69.2,130.7 -69.9,136.9 -1.3,81.8 						"/>
						<polygon class="st4" points="-16.6,80.2 -68.2,121.7 -68.9,127.9 -10.3,80.8 						"/>
						<polygon class="st4" points="-25.6,79.2 -67.3,112.6 -67.9,118.8 -19.4,79.9 						"/>
						<polygon class="st4" points="-52.7,76.2 -64.3,85.5 -65,91.7 -46.5,76.9 						"/>
						<polygon class="st4" points="-61.7,75.2 -63.3,76.5 -64,82.7 -55.5,75.9 						"/>
						<polygon class="st4" points="-34.6,78.2 -66.3,103.6 -67,109.8 -28.4,78.9 						"/>
						<polygon class="st4" points="-43.7,77.2 -65.3,94.5 -66,100.8 -37.4,77.9 						"/>
						<polygon class="st4" points="28.6,85.1 -73.2,166.8 -73.9,173.1 34.8,85.8 						"/>
						<polygon class="st4" points="1.5,82.1 -70.2,139.7 -70.9,146 7.7,82.8 						"/>
						<polygon class="st4" points="-30.2,179.3 31.5,129.7 32.1,123.5 -36.5,178.6 						"/>
						<polygon class="st4" points="-12.2,181.2 29.5,147.8 30.2,141.6 -18.4,180.6 						"/>
						<polygon class="st4" points="-39.3,178.3 32.5,120.7 33.1,114.5 -45.5,177.6 						"/>
						<polygon class="st4" points="-21.2,180.3 30.5,138.8 31.2,132.5 -27.4,179.6 						"/>
						<polygon class="st4" points="35.4,93.6 36.1,87.3 -72.6,174.6 -66.4,175.3 						"/>
						<polygon class="st4" points="-48.3,177.3 33.4,111.6 34.1,105.4 -54.5,176.6 						"/>
						<polygon class="st4" points="-57.4,176.3 34.4,102.6 35.1,96.4 -63.6,175.6 						"/>
						<polygon class="st4" points="-3.1,182.2 28.5,156.8 29.2,150.6 -9.4,181.5 						"/>
						<polygon class="st4" points="24,185.2 25.5,183.9 26.2,177.7 17.8,184.5 						"/>
						<polygon class="st4" points="5.9,183.2 27.5,165.9 28.2,159.6 -0.3,182.5 						"/>
						<polygon class="st4" points="14.9,184.2 26.5,174.9 27.2,168.7 8.7,183.5 						"/>
						<polygon class="st4" points="19.6,84.1 -72.2,157.8 -72.9,164 25.8,84.8 						"/>
						<polygon class="st4" points="10.5,83.1 -71.2,148.8 -71.9,155 16.8,83.8 						"/>
						<polygon class="st5" points="-36.5,178.6 32.1,123.5 32.5,120.7 -39.3,178.3 						"/>
						<polygon class="st5" points="-18.4,180.6 30.2,141.6 30.5,138.8 -21.2,180.3 						"/>
						<polygon class="st5" points="-10.3,80.8 -68.9,127.9 -69.2,130.7 -7.5,81.2 						"/>
						<polygon class="st5" points="-28.4,78.9 -67,109.8 -67.3,112.6 -25.6,79.2 						"/>
						<polygon class="st5" points="-46.5,76.9 -65,91.7 -65.3,94.5 -43.7,77.2 						"/>
						<polygon class="st5" points="-27.4,179.6 31.2,132.5 31.5,129.7 -30.2,179.3 						"/>
						<polygon class="st5" points="-37.4,77.9 -66,100.8 -66.3,103.6 -34.6,78.2 						"/>
						<polygon class="st5" points="-63.6,175.6 35.1,96.4 35.4,93.6 -66.4,175.3 						"/>
						<polygon class="st5" points="-19.4,79.9 -67.9,118.8 -68.2,121.7 -16.6,80.2 						"/>
						<polygon class="st5" points="-45.5,177.6 33.1,114.5 33.4,111.6 -48.3,177.3 						"/>
						<polygon class="st5" points="-54.5,176.6 34.1,105.4 34.4,102.6 -57.4,176.3 						"/>
						<polygon class="st5" points="36.3,85.9 34.8,85.8 -73.9,173.1 -74,174.5 -72.6,174.6 36.1,87.3 						"/>
						<polygon class="st5" points="-1.3,81.8 -69.9,136.9 -70.2,139.7 1.5,82.1 						"/>
						<polygon class="st5" points="-55.5,75.9 -64,82.7 -64.3,85.5 -52.7,76.2 						"/>
						<polygon class="st5" points="16.8,83.8 -71.9,155 -72.2,157.8 19.6,84.1 						"/>
						<polygon class="st5" points="17.8,184.5 26.2,177.7 26.5,174.9 14.9,184.2 						"/>
						<polygon class="st5" points="25.8,84.8 -72.9,164 -73.2,166.8 28.6,85.1 						"/>
						<polygon class="st5" points="25.4,185.3 25.5,183.9 24,185.2 						"/>
						<polygon class="st5" points="-0.3,182.5 28.2,159.6 28.5,156.8 -3.1,182.2 						"/>
						<polygon class="st5" points="-9.4,181.5 29.2,150.6 29.5,147.8 -12.2,181.2 						"/>
						<polygon class="st5" points="7.7,82.8 -70.9,146 -71.2,148.8 10.5,83.1 						"/>
						<polygon class="st5" points="8.7,183.5 27.2,168.7 27.5,165.9 5.9,183.2 						"/>
						<polygon class="st5" points="-63.2,75.1 -63.3,76.5 -61.7,75.2 						"/>
					</g>
				</g>
				<g class="st2">
					<g class="st3">
						
							<rect x="-79.8" y="179.6" transform="matrix(0.1087 -0.9941 0.9941 0.1087 -254.7755 175.068)" class="st4" width="100" height="100"/>
						<polygon class="st4" points="-18.4,180.6 -80.1,230.1 -80.8,236.3 -12.2,181.2 						"/>
						<polygon class="st4" points="-27.4,179.6 -79.1,221.1 -79.8,227.3 -21.2,180.3 						"/>
						<polygon class="st4" points="-36.5,178.6 -78.1,212 -78.8,218.3 -30.2,179.3 						"/>
						<polygon class="st4" points="-63.6,175.6 -75.2,184.9 -75.8,191.1 -57.4,176.3 						"/>
						<polygon class="st4" points="-72.6,174.6 -74.2,175.9 -74.9,182.1 -66.4,175.3 						"/>
						<polygon class="st4" points="-45.5,177.6 -77.1,203 -77.8,209.2 -39.3,178.3 						"/>
						<polygon class="st4" points="-54.5,176.6 -76.2,194 -76.8,200.2 -48.3,177.3 						"/>
						<polygon class="st4" points="17.8,184.5 -84.1,266.2 -84.7,272.5 24,185.2 						"/>
						<polygon class="st4" points="-9.4,181.5 -81.1,239.1 -81.8,245.4 -3.1,182.2 						"/>
						<polygon class="st4" points="-41.1,278.7 20.6,229.1 21.3,222.9 -47.3,278 						"/>
						<polygon class="st4" points="-23,280.6 18.6,247.2 19.3,241 -29.3,280 						"/>
						<polygon class="st4" points="-50.2,277.7 21.6,220.1 22.3,213.9 -56.4,277 						"/>
						<polygon class="st4" points="-32.1,279.7 19.6,238.2 20.3,231.9 -38.3,279 						"/>
						<polygon class="st4" points="24.5,193 25.2,186.8 -83.5,274 -77.3,274.7 						"/>
						<polygon class="st4" points="-59.2,276.7 22.6,211.1 23.3,204.8 -65.4,276 						"/>
						<polygon class="st4" points="-68.2,275.7 23.6,202 24.2,195.8 -74.5,275 						"/>
						<polygon class="st4" points="-14,281.6 17.6,256.2 18.3,250 -20.2,281 						"/>
						<polygon class="st4" points="13.1,284.6 14.7,283.3 15.3,277.1 6.9,283.9 						"/>
						<polygon class="st4" points="-5,282.6 16.6,265.3 17.3,259 -11.2,281.9 						"/>
						<polygon class="st4" points="4.1,283.6 15.7,274.3 16.3,268.1 -2.2,282.9 						"/>
						<polygon class="st4" points="8.7,183.5 -83.1,257.2 -83.8,263.4 14.9,184.2 						"/>
						<polygon class="st4" points="-0.3,182.5 -82.1,248.2 -82.8,254.4 5.9,183.2 						"/>
						<polygon class="st5" points="-47.3,278 21.3,222.9 21.6,220.1 -50.2,277.7 						"/>
						<polygon class="st5" points="-29.3,280 19.3,241 19.6,238.2 -32.1,279.7 						"/>
						<polygon class="st5" points="-21.2,180.3 -79.8,227.3 -80.1,230.1 -18.4,180.6 						"/>
						<polygon class="st5" points="-39.3,178.3 -77.8,209.2 -78.1,212 -36.5,178.6 						"/>
						<polygon class="st5" points="-57.4,176.3 -75.8,191.1 -76.2,194 -54.5,176.6 						"/>
						<polygon class="st5" points="-38.3,279 20.3,231.9 20.6,229.1 -41.1,278.7 						"/>
						<polygon class="st5" points="-48.3,177.3 -76.8,200.2 -77.1,203 -45.5,177.6 						"/>
						<polygon class="st5" points="-74.5,275 24.2,195.8 24.5,193 -77.3,274.7 						"/>
						<polygon class="st5" points="-30.2,179.3 -78.8,218.3 -79.1,221.1 -27.4,179.6 						"/>
						<polygon class="st5" points="-56.4,277 22.3,213.9 22.6,211.1 -59.2,276.7 						"/>
						<polygon class="st5" points="-65.4,276 23.3,204.8 23.6,202 -68.2,275.7 						"/>
						<polygon class="st5" points="25.4,185.3 24,185.2 -84.7,272.5 -84.9,273.9 -83.5,274 25.2,186.8 						"/>
						<polygon class="st5" points="-12.2,181.2 -80.8,236.3 -81.1,239.1 -9.4,181.5 						"/>
						<polygon class="st5" points="-66.4,175.3 -74.9,182.1 -75.2,184.9 -63.6,175.6 						"/>
						<polygon class="st5" points="5.9,183.2 -82.8,254.4 -83.1,257.2 8.7,183.5 						"/>
						<polygon class="st5" points="6.9,283.9 15.3,277.1 15.7,274.3 4.1,283.6 						"/>
						<polygon class="st5" points="14.9,184.2 -83.8,263.4 -84.1,266.2 17.8,184.5 						"/>
						<polygon class="st5" points="14.5,284.8 14.7,283.3 13.1,284.6 						"/>
						<polygon class="st5" points="-11.2,281.9 17.3,259 17.6,256.2 -14,281.6 						"/>
						<polygon class="st5" points="-20.2,281 18.3,250 18.6,247.2 -23,280.6 						"/>
						<polygon class="st5" points="-3.1,182.2 -81.8,245.4 -82.1,248.2 -0.3,182.5 						"/>
						<polygon class="st5" points="-2.2,282.9 16.3,268.1 16.6,265.3 -5,282.6 						"/>
						<polygon class="st5" points="-74,174.5 -74.2,175.9 -72.6,174.6 						"/>
					</g>
				</g>
			</g>
		</g>
	</g>
</g>
</svg>
