<?xml version="1.0" encoding="utf-8"?>
<!-- Generator: Adobe Illustrator 22.1.0, SVG Export Plug-In . SVG Version: 6.00 Build 0)  -->
<svg version="1.1" id="レイヤー_1" xmlns="http://www.w3.org/2000/svg" xmlns:xlink="http://www.w3.org/1999/xlink" x="0px"
	 y="0px" viewBox="0 0 836 46" style="enable-background:new 0 0 836 46;" xml:space="preserve">
<style type="text/css">
	.st0{fill:#F98B06;}
	.st1{fill:#231717;}
</style>
<title>top-manifest-index</title>
<g id="レイヤー_2_1_">
	<g id="top">
		<g id="政策">
			<path class="st0" d="M32.9,39.4l-2,3.7l-12-9.2v9.5h-4.1V34L2.8,43.1l-1.9-3.6l13.9-10.6v-1h-11v-17h11V8.9H1.4V5h13.3V2.5h4.2V5
				h13.3v3.8H18.9v1.9h11v17.1h-11v0.9L32.9,39.4z M14.8,14.4H8v3.2h6.7L14.8,14.4z M8,24.2h6.7v-3.2H8V24.2z M25.6,14.4h-6.7v3.2
				h6.7V14.4z M18.9,24.2h6.7v-3.2h-6.7V24.2z"/>
			<path class="st0" d="M59.6,5.1h13.2v3.8H42.1V5.1h13.3V2.2h4.3L59.6,5.1z M42.9,39.2l7-9.7H55L45,43.3L42.9,39.2z M69.4,26.3
				h-9.8v17.2h-4.3V26.3h-9.8V11.5h23.9V26.3z M49.8,15.2v7.3h15.4v-7.3H49.8z M59.9,29.5h5.3l7.3,10l-2.2,4.2L59.9,29.5z"/>
			<path class="st0" d="M95.2,4.5h4.3l-5.8,11h5.4v3.8h-7.4l-1.2,2.2h8v22H86.6V28.8l-2.8,5.4l-2.2-4.1l5.8-10.9h-5.6v-3.8h5.6v-4.6
				h-4.1V7.1h4.1V2.5h3.8v4.6h2.7L95.2,4.5z M94.5,29.3v-4.1h-4v4.2L94.5,29.3z M90.5,39.8h4V33h-4V39.8z M91.8,10.8h-0.7V12
				L91.8,10.8z M115.9,3.3l-6.5,12.1l3.9,7.4v15.5h-6.9l-1.9-3.6h4.7V23.5l-4.3-8.1l4.3-8.1h-5.5v36.2h-4.1V3.4L115.9,3.3z"/>
			<path class="st0" d="M132.8,13.8V2.5h4.2v41h-4.2v-4.6l-8.1,4.5l-1.9-3.6l10-5.6V17.9H123v-4.1H132.8z M144.2,19.3v20h9.7v4
				h-13.9V2.5h4.3v12.4l8.1-3.5l1.9,3.6L144.2,19.3z"/>
			<path class="st0" d="M194.4,3.2v4.1h-26.1v32h26.1v4.1h-30.5V3.2H194.4z M188.8,8.6h4.9l-10.3,14.3l9.6,13.9l-3.7,1.9l-8.5-12.2
				l-8.8,12.2l-2.2-4.1l8.7-12.1L170,10.2h5l6.2,8.9L188.8,8.6z"/>
			<path class="st1" d="M212,38.5h18.8l-2.2,4.1h-22.8l10.4-24.2h-4.4l-2.9,6.7l-3.6-1.9l5.3-12.2H206v-4h6.3l2.2-5.2l3.6,1.9
				l-1.4,3.3h9.1v4H215l-1.5,3.5h6.7l1.5,3.5h8.7v3.9h-7l4.4,10.2l-3.6,1.9L219.1,22L212,38.5z"/>
			<path class="st1" d="M246.5,35.1l4.3,7.9l-4,2.1l-4.3-7.8L246.5,35.1z"/>
			<path class="st0" d="M288.3,18.6l3.6,0.9v23.2h-7l-2-3.9h4.9V22.5l-1.1-0.3L278,42.6h-10.8v-23l7.1-3.1v-5.7h-7.1V7h7.1V3h4.1V7
				h12.8v3.8h-12.8v5.4l6,1.4l2.2-5.2l3.5,1.9L288.3,18.6z M275.3,38.7l7.5-17.3l-4.4-1v10.4h-4.1V20.7l-3.1,1.3v16.6H275.3z"/>
			<path class="st0" d="M307.5,25.4l-3.6-1.9l5.8-13.5H305V6.1h6.3l1.6-3.6l3.6,1.9l-0.7,1.6h4.7v3.9h-6.4L307.5,25.4z M323,23.3
				l7.3,17.1l-3.3,1.8l-4-9.3v9.6h-18.2l8.9-20.9h5.5v-7.1h3.8L323,23.3z M319.4,38.7V25.6h-3l-5.5,13.1H319.4z M331.2,17.1l-3.7,2
				l-4.3-10l3.7-2.1L331.2,17.1z"/>
			<path class="st0" d="M363.6,11.5h-11.5l-7.5,17.4l-3.7-1.9l6.7-15.5h-5.8V7.3h7.6l2-4.6l3.7,1.9l-1.1,2.7h9.7L363.6,11.5z
				 M352.3,38.3h15.5l-2.2,4.2h-17.4v-9.2h4.1V38.3z M352.7,15.7v4.1h8.9l-2.1,5l3.4,1.8l-0.1,0l4.6-10.9L352.7,15.7z"/>
			<path class="st0" d="M395,7.5l9.9,4.3v30.8h-8l-2-3.8h5.9V14.5l-6.5-2.8h-9.5v24.5l9.7-22.8l3.7,2l-11.7,27.2h-6V7.5H395z"/>
			<path class="st0" d="M431.7,0.5v4.1h-6.5V32h-4.5V0.5H431.7z"/>
			<path class="st0" d="M458.3,9.5l-7.8,21.4l4.6,1.8V37l-6.4-2.5l-3.3,8.9h-4l3.8-10.3l-2.3-0.9V13.4h-1.7V9.5h1.7v-7h4v7H458.3z
				 M447,13.4v15.3l0.7-2l4.8-13.3L447,13.4z M473.2,19.6v4.2H465v19.6h-6l-2.2-4h3.9V23.9h-5.9v-4.2h5.9v-1.5h1.8l3.9-10.6h-11.3
				V3.4h17.2l-5.9,16.3H473.2z"/>
			<path class="st0" d="M504.1,22.6l3.6,8.5l-3.6,1.9l-4.5-10.5h-13.1v-4.1h11.4l-3-7H483V7.5h10l-1.6-3.6l3.6-1.9l2.4,5.5h9.9v4.1
				h-8.1l3,7h5.2v4.1L504.1,22.6z M488.9,27.4v11.1H502l-2.1,4.1h-15.2V27.4H488.9z"/>
			<path class="st0" d="M523.2,25.4l-3.6-1.9l5.8-13.5h-4.7V6.1h6.3l1.5-3.6l3.6,1.9l-0.7,1.6h4.7v3.9h-6.3L523.2,25.4z M538.7,23.3
				l7.3,17.1l-3.3,1.8l-4-9.3v9.6h-18.2l8.9-20.9h5.4v-7.1h3.8V23.3z M535.1,38.7V25.6h-3l-5.6,13.1H535.1z M546.9,17.1l-3.7,2
				l-4.3-10l3.7-2.1L546.9,17.1z"/>
			<path class="st0" d="M566,12.9l-3,5.2v25.4h-4V24.8l-1.3,2.2l-2.1-4l6-10.1L566,12.9z M565.2,2.5l-7,12l-2.1-4l4.7-8H565.2z
				 M574,35.6l4.6-1.5l2,3.7l-14.8,5.1l-2-3.8l6.1-2.1v-8.9h-4.6v-3.9h4.6v-4.5h4.1v4.5h4.7v3.9h-4.7L574,35.6z M569.9,15.3v-4.7
				H566V6.8h3.9V2.5h4.1v4.4h4v3.8h-4v4.7h4.7v3.5h-13.4v-3.5H569.9z M588.3,15.3v4h-2.1v24.1H582V19.3h-2.7v-4L588.3,15.3z
				 M587.5,3.8v4h-7.4v-4H587.5z"/>
			<path class="st0" d="M597.4,45.5v-4.1h6.4V14h4.5v31.5H597.4z"/>
			<path class="st1" d="M627.3,42.6H623V4.4h4.3V42.6z M630.9,6.6h17.4l-5.9,13.8l-3.6-1.9L642,11h-11.1L630.9,6.6z M648,37.5
				l-2.4,4.5h-14.7v-4.5H648z"/>
			<path class="st1" d="M685,8.1v4h-4.7v30.5h-14.2l-2-3.8h12.1v-5.5h-13.8v-4.6l13.8-12.1v-4.4h-15.6v-4h15.6V3h4.1v5.1H685z
				 M667.9,29.3h8.4V22L667.9,29.3z"/>
			<path class="st1" d="M723.1,32.2l-3,1.2v9.2h-19.6V37l15.5-6.3v-8.4h-18.4v-6l17.4-7h-16.6v-4h20.6V12l-16,6.4h17v10.7l1.1-0.5
				L723.1,32.2z M716.1,39V35l-7.9,3.2l-2,0.8L716.1,39z"/>
			<path class="st1" d="M755.5,11.5H744l-7.6,17.4l-3.7-1.9l6.7-15.5h-5.8V7.3h7.6l2-4.6l3.7,1.9l-1,2.7h9.7L755.5,11.5z
				 M744.2,38.3h15.6l-2.3,4.2h-17.4v-9.2h4.1V38.3z M744.6,15.7v4.1h8.9l-2.2,5l3.4,1.8l-0.1,0l4.6-10.9L744.6,15.7z"/>
			<path class="st1" d="M793.1,14l4.1,1v27.6h-8l-2-3.8h5.9V18.1l-1.6-0.4l-10.7,24.8h-8.5V14.6l5.8-2.5V3.6h4.1v7.8L789,13l4-9.2
				l3.7,1.9L793.1,14z M777.9,39l2.9-6.7h-2.5V16.6l-1.7,0.7V39H777.9z M782.2,28.7l5.2-11.9l-5.2-1.2V28.7z"/>
			<path class="st1" d="M814.1,42.6h-4.3V4.4h4.3L814.1,42.6z M817.7,6.6h17.4l-5.9,13.8l-3.6-1.9l3.3-7.5h-11.2V6.6z M834.8,37.5
				l-2.4,4.5h-14.7v-4.5H834.8z"/>
		</g>
	</g>
</g>
</svg>
