<?xml version="1.0" encoding="utf-8"?>
<!-- Generator: Adobe Illustrator 23.0.1, SVG Export Plug-In . SVG Version: 6.00 Build 0)  -->
<svg version="1.1" id="レイヤー_1" xmlns="http://www.w3.org/2000/svg" xmlns:xlink="http://www.w3.org/1999/xlink" x="0px"
	 y="0px" viewBox="0 0 105 105" style="enable-background:new 0 0 105 105;" xml:space="preserve">
<style type="text/css">
	.st0{fill:#FFFFFF;}
	.st1{fill:none;stroke:#FFFFFF;stroke-width:0.35;}
	.st2{fill:none;stroke:#FFFFFF;stroke-width:0.5;}
</style>
<g>
	<path class="st0" d="M7.3,1.5H9v11.5l-1.2,2.9H6L1.5,5V16h-1.7V1.6h2l5.1,12.2l0.4-1V1.5z"/>
	<path class="st0" d="M19.7,1.5h1.8V16h-1.8V8.8h-5.2V16h-1.7V1.5h1.7v5.6h5.2V1.5z"/>
	<path class="st0" d="M32.6,16L30,9.6l-2.4,5.7V16h-1.8V1.5h1.8v10.1l4.2-10.1h1.8l-2.6,6.2l3.4,8.3H32.6z"/>
	<path class="st0" d="M41,3.3v0.8h2.2v1.3h-0.7l-0.8,2.4h1.5v1.3H41v1.5h1.8v1.4H41v4.2h-1.5v-4.2h-1.8v-1.4h1.8V9.2h-2.2V7.9h2.9
		L41,5.5h-1.6l0.5,1.7l-1.3,0.7l-0.7-2.3h-0.6V4.2h2.2V3.3h-1.8V2.1h1.8v-1H41v1h1.8v1.3H41z M49.4,6.4L48,11.1l1.6,3.8l-0.9,1.7
		L47,12.7l-1.2,3.8L45,14.8l1.1-3.6L45,8.5h1.4l0.5,1.3l0.6-1.9h-2.8v8.5h-1.4v-15h6.3l-1.4,4.3h-2.1l-0.7-1.3h1.7l0.5-1.6h-2.9v3.8
		H49.4z"/>
	<path class="st0" d="M57.1,14.6h7v1.5h-7.6l-1.6-1.6l-2.1,2.1L52,15.2l2.1-2.1V6.4h-1.7V5h3.2v8.2L57.1,14.6z M55.8,2.1v1.4h-3.6
		V2.1H55.8z M58,4.9l1.2-1.2h-3.1V2.4h2.4l-1.3-1.3h2.1l0.7,0.7l-1.3,0.7h1.3l1.3-1.3h2.1L62,2.4h1.9v1.3h-2.7l-1.2,1.2h3.3v9.3
		h-6.4V4.9H58z M61.8,7.4V6.2h-3.3v1.2H61.8z M58.4,8.7v1.2h3.3V8.7H58.4z M58.4,12.8h3.3v-1.6h-3.3V12.8z"/>
	<path class="st0" d="M67.5,7.1V5.5h9.3v1.6h-2.5L70.8,16h-2.7l-0.9-1.6h2.4l2.9-7.3H67.5z M75.5,1.9v1.6H68V1.9H75.5z M75.7,2.2
		l1.2-0.6l1.3,3L77,5.2L75.7,2.2z M78.7,0.9l1.2,2.9l-1.2,0.6l-1.3-2.9L78.7,0.9z"/>
	<path class="st0" d="M91.9,16h-1.8l-2.4-5.7L85.2,16h-2.4L82,14.5h2.1l4.7-10.9h-6.3V2h8.9l-2.7,6.2L91.9,16z"/>
	<path class="st0" d="M99.5,2.7h5.8L99.9,16h-3.6l-0.8-1.6h3.2l4-10.1h-3.9l-1.9,4.8l-1.5-0.8l2.9-7.4l1.5,0.8L99.5,2.7z"/>
</g>
<g>
	<path class="st0" d="M20.4,26.7l-0.8,1.9l1.3,0.5v9.2l-2.7,0L17.6,37h2.1v-7.2l-0.5-0.2l-3.7,8.6l-1.1-0.6l3.6-8.3h-2.9v-1.2h3.4
		l0.9-2L20.4,26.7z M21.8,28l1.5,3.6l-1,0.6l-1.5-3.6L21.8,28z"/>
	<path class="st0" d="M27.7,31h5.3v7.2h-5.2L27.2,37h4.6v-4.8h-6l1.7-3.8l1.1,0.6L27.7,31z M32.4,28.2l-0.6,1.1l-3.5-1.9l0.6-1.1
		L32.4,28.2z"/>
	<path class="st0" d="M42.3,34.9l0.7,1.3l-5.3,2.1L37,37l0.8-0.3v-9.5h1.3v8.9l0.5-0.2V25.9h-2.4v-1.4h5.8v1.4H41v2.4h1.5v1.3H41
		v5.8L42.3,34.9z M48.9,28.1h-0.7L46.5,32l2.4,5.5L48,39.2l-2.3-5.3l-2.3,5.3l-0.9-1.7l2.2-5l-0.8-1.9L43,32.4l-0.9-1.6l3.1-7h1.6
		l-1.3,2.9h3.4V28.1z M45.4,31l1.3-2.8h-1.8l-0.3,0.8L45.4,31z"/>
	<path class="st0" d="M51.5,38.4l2.5-7.7l1.5,0.8L53,39.2L51.5,38.4z M55.1,24.3v1.5h-3.4v-1.5H55.1z M55.1,27.5V29h-3.4v-1.5H55.1z
		 M62.2,31.3L62,30.7h-6.7v-1.4h1l1.8-5.5h1.6l-1.8,5.5h3.6l-0.9-2.8h1.6l1.4,4.1L62.2,31.3z M56.1,39v-7.5h6.5V39H56.1z M57.6,32.9
		v4.7H61v-4.7H57.6z"/>
	<path class="st0" d="M77.8,31.1l-2.5,1.6l2.2,6.2l-1.4,0.4l-3.7-10.3l-0.9,0.6l3.5,9.5h-4l-0.8-1.4h2.6l-0.9-2.4l-5.1,3.3l-0.7-1.3
		l5.3-3.5l-0.4-1l-4.2,2.7L66.4,35l-0.4-0.7l4.4-2.9l-0.3-0.9l-3.2,2.1l-0.7-1.4l3.4-2.2h-3.3v-1.4h11.4V29h-3.6l0.8,2.2l2.3-1.5
		L77.8,31.1z M67.7,26.1v1.2h-1.5v-2.7H71v-1h1.7v1h4.9v2.7H76v-1.2H67.7z"/>
	<path class="st0" d="M82.8,38.7h-1.6V24.5h1.6V38.7z M84.1,25.3h6.5l-2.2,5.1L87,29.7l1.2-2.8h-4.1V25.3z M90.5,36.8l-0.9,1.7h-5.5
		v-1.7H90.5z"/>
</g>
<g>
	<g>
		<path class="st0" d="M13.5,77.5h9.1v2.9H1.4v-2.9h9.1V64.3H3v-2.9h7.5v-8.8h3v8.8h7.5v2.9h-7.5V77.5z"/>
		<path class="st0" d="M41.3,77.7h8.1v2.7H30.6v-2.7h7.9v-3.2h-5.4v-2.7h5.4v-2.3h-6v-2.6H35l2.6-3.1h-6.1v12.7l-2.8,3.4l-1.4-2.7
			l1.3-1.6V52.6h19.7v7H31.5v1.5H49v2.6h-7.8l-2.6,3.1h5l-1.9-2.3h3.4l3.6,4.3l-1.3,2.6l-1.7-2.1h-4.4v2.3h5.4v2.7h-5.4V77.7z
			 M31.5,55.2v1.9h14v-1.9H31.5z"/>
		<path class="st0" d="M60.9,55.2v4.1h3.4v2.8h-3.4v3.7l3.3,4.2l-1.4,2.6l-1.9-2.4v10.3H58v-8l-2.8,5.1l-1.6-2.9l4.4-7.9v-4.6h-3.9
			v-2.8H58v-3.6l-2.7,0.5L54,53.7l8.5-1.5l1.3,2.5L60.9,55.2z M64.7,54.7h10.5v24.4H64.7V54.7z M72.2,76.5V57.4h-4.6v19.1H72.2z"/>
		<path class="st0" d="M87.2,66.3L86,68.6l-0.8-1.1v13h-2.7v-9.7l-1.2,2.4l-1.6-3l2.7-5.6v-5.1h-2.5V57h2.5v-4.7h2.7V57H87v2.5h-1.8
			v4.1L87.2,66.3z M93.3,75.3l3-1l1.2,2.3L87.3,80l-1.2-2.3l3.5-1.2l3.6-7.2h3L93.3,75.3z M90.6,58.9V57h-3.5v-2.4h3.5v-2.3h2.6v2.3
			h3.5V57h-3.5v1.9h3v2.2h-8.5v-2.2H90.6z M96,62.7h1.8l1.9,3.7L98.3,69L96,64.3v4.2h-8.4V62H96V62.7z M90.7,69.3l1.1,2.2l-1.5,2.8
			l-2.5-5H90.7z M93.7,66.5v-2.6H90v2.6H93.7z M103.6,56.9v2.3h-1.2v21.3h-2.7V59.2h-2.9v-2.3h2.9v-4.5h2.7v4.5H103.6z"/>
	</g>
	<g>
		<path class="st1" d="M13.5,77.5h9.1v2.9H1.4v-2.9h9.1V64.3H3v-2.9h7.5v-8.8h3v8.8h7.5v2.9h-7.5V77.5z"/>
		<path class="st1" d="M41.3,77.7h8.1v2.7H30.6v-2.7h7.9v-3.2h-5.4v-2.7h5.4v-2.3h-6v-2.6H35l2.6-3.1h-6.1v12.7l-2.8,3.4l-1.4-2.7
			l1.3-1.6V52.6h19.7v7H31.5v1.5H49v2.6h-7.8l-2.6,3.1h5l-1.9-2.3h3.4l3.6,4.3l-1.3,2.6l-1.7-2.1h-4.4v2.3h5.4v2.7h-5.4V77.7z
			 M31.5,55.2v1.9h14v-1.9H31.5z"/>
		<path class="st1" d="M60.9,55.2v4.1h3.4v2.8h-3.4v3.7l3.3,4.2l-1.4,2.6l-1.9-2.4v10.3H58v-8l-2.8,5.1l-1.6-2.9l4.4-7.9v-4.6h-3.9
			v-2.8H58v-3.6l-2.7,0.5L54,53.7l8.5-1.5l1.3,2.5L60.9,55.2z M64.7,54.7h10.5v24.4H64.7V54.7z M72.2,76.5V57.4h-4.6v19.1H72.2z"/>
		<path class="st1" d="M87.2,66.3L86,68.6l-0.8-1.1v13h-2.7v-9.7l-1.2,2.4l-1.6-3l2.7-5.6v-5.1h-2.5V57h2.5v-4.7h2.7V57H87v2.5h-1.8
			v4.1L87.2,66.3z M93.3,75.3l3-1l1.2,2.3L87.3,80l-1.2-2.3l3.5-1.2l3.6-7.2h3L93.3,75.3z M90.6,58.9V57h-3.5v-2.4h3.5v-2.3h2.6v2.3
			h3.5V57h-3.5v1.9h3v2.2h-8.5v-2.2H90.6z M96,62.7h1.8l1.9,3.7L98.3,69L96,64.3v4.2h-8.4V62H96V62.7z M90.7,69.3l1.1,2.2l-1.5,2.8
			l-2.5-5H90.7z M93.7,66.5v-2.6H90v2.6H93.7z M103.6,56.9v2.3h-1.2v21.3h-2.7V59.2h-2.9v-2.3h2.9v-4.5h2.7v4.5H103.6z"/>
	</g>
</g>
<g>
	<g>
		<path class="st0" d="M36.7,102.1h7.1l-0.9,1.6h-8.7l3.4-7.9l-3.3-5l1.4-0.7l2.7,4l2.1-4.9l1.4,0.8L36.7,102.1z"/>
		<path class="st0" d="M48.5,89.4H50v14.3h-1.5V89.4z M58,102.8l-1.2,0.6l-0.5-1.2v1.5h-6.2l3.1-7.4h1.5v-3.7H51v-1.5h3.7v-2.2h1.5
			v2.2h1.5v1.5h-1.5v6.1L58,102.8z M54.7,102.2v-4.3h-0.6l-1.8,4.3H54.7z"/>
		<path class="st0" d="M69.3,88.7l1.5,2.3v2.8l-3,4.6v2.9h-1.5v-3.5l3-4.6v-1.7l-0.8-1.1h-2.9L64,92.8l-1.2-1l2-3.1H69.3z
			 M66.2,104.1v-1.6h1.6v1.6H66.2z"/>
	</g>
	<g>
		<path class="st2" d="M36.7,102.1h7.1l-0.9,1.6h-8.7l3.4-7.9l-3.3-5l1.4-0.7l2.7,4l2.1-4.9l1.4,0.8L36.7,102.1z"/>
		<path class="st2" d="M48.5,89.4H50v14.3h-1.5V89.4z M58,102.8l-1.2,0.6l-0.5-1.2v1.5h-6.2l3.1-7.4h1.5v-3.7H51v-1.5h3.7v-2.2h1.5
			v2.2h1.5v1.5h-1.5v6.1L58,102.8z M54.7,102.2v-4.3h-0.6l-1.8,4.3H54.7z"/>
		<path class="st2" d="M69.3,88.7l1.5,2.3v2.8l-3,4.6v2.9h-1.5v-3.5l3-4.6v-1.7l-0.8-1.1h-2.9L64,92.8l-1.2-1l2-3.1H69.3z
			 M66.2,104.1v-1.6h1.6v1.6H66.2z"/>
	</g>
</g>
</svg>
